G04*
G04 #@! TF.GenerationSoftware,Altium Limited,Altium Designer,22.8.2 (66)*
G04*
G04 Layer_Color=8421504*
%FSLAX23Y23*%
%MOIN*%
G70*
G04*
G04 #@! TF.SameCoordinates,DFBDAC77-D3CC-4506-9E17-829F2540CA52*
G04*
G04*
G04 #@! TF.FilePolarity,Positive*
G04*
G01*
G75*
%ADD21R,0.135X0.065*%
%ADD22R,0.050X0.115*%
%ADD23R,0.028X0.035*%
%ADD24R,0.041X0.087*%
%ADD25R,0.039X0.041*%
%ADD26R,0.024X0.020*%
%ADD27R,0.035X0.028*%
%ADD28R,0.019X0.006*%
%ADD29R,0.014X0.012*%
%ADD30R,0.006X0.013*%
%ADD31R,0.006X0.020*%
%ADD32R,0.059X0.138*%
%ADD33R,0.035X0.037*%
%ADD34R,0.065X0.024*%
%ADD35R,0.069X0.049*%
%ADD36R,0.024X0.065*%
%ADD37R,0.012X0.057*%
%ADD38R,0.094X0.063*%
%ADD39R,0.012X0.027*%
%ADD40R,0.041X0.024*%
%ADD41R,0.057X0.024*%
%ADD42R,0.024X0.041*%
%ADD43R,0.025X0.033*%
%ADD44R,0.037X0.035*%
%ADD45R,0.043X0.075*%
%ADD46R,0.089X0.071*%
%ADD47R,0.083X0.126*%
%ADD48R,0.083X0.035*%
%ADD49R,0.012X0.024*%
%ADD50R,0.024X0.012*%
%ADD51R,0.055X0.012*%
%ADD52R,0.047X0.130*%
%ADD53R,0.014X0.035*%
%ADD54R,0.049X0.069*%
%ADD55R,0.114X0.213*%
%ADD56R,0.059X0.177*%
%ADD57R,0.024X0.006*%
%ADD58R,0.104X0.044*%
%ADD59R,0.022X0.071*%
%ADD60R,0.120X0.080*%
%ADD61R,0.033X0.045*%
%ADD62R,0.150X0.024*%
%ADD63R,0.024X0.051*%
%ADD64R,0.056X0.044*%
%ADD65R,0.023X0.014*%
%ADD66R,0.071X0.089*%
%ADD67R,0.035X0.014*%
%ADD68R,0.177X0.059*%
%ADD69R,0.213X0.114*%
%ADD70R,0.006X0.024*%
%ADD71R,0.044X0.104*%
%ADD72R,0.071X0.022*%
%ADD73R,0.080X0.120*%
%ADD74R,0.045X0.033*%
%ADD75R,0.024X0.150*%
%ADD76R,0.051X0.024*%
%ADD77R,0.044X0.056*%
%ADD78R,0.014X0.023*%
%ADD79R,0.049X0.067*%
%ADD80R,0.053X0.016*%
%ADD81R,0.075X0.071*%
%ADD82R,0.075X0.075*%
%ADD83R,0.051X0.059*%
%ADD84R,0.028X0.016*%
%ADD85R,0.012X0.065*%
%ADD86R,0.065X0.012*%
%ADD87R,0.110X0.055*%
%ADD88R,0.049X0.071*%
%ADD89R,0.075X0.030*%
%ADD90R,0.059X0.134*%
%ADD91R,0.039X0.138*%
%ADD92R,0.134X0.059*%
%ADD93R,0.138X0.039*%
%ADD94R,0.035X0.066*%
%ADD95R,0.018X0.015*%
%ADD96R,0.035X0.015*%
D21*
X7374Y194D02*
D03*
X8980D02*
D03*
X10397Y191D02*
D03*
X9382D02*
D03*
D22*
X7528Y591D02*
D03*
X7646D02*
D03*
X7764D02*
D03*
X7882D02*
D03*
X8000D02*
D03*
X8118D02*
D03*
X8236D02*
D03*
X8354D02*
D03*
X8472D02*
D03*
X8591D02*
D03*
X8709D02*
D03*
X8827D02*
D03*
X7528Y409D02*
D03*
X7646D02*
D03*
X8236D02*
D03*
X8472D02*
D03*
X8591D02*
D03*
X8709D02*
D03*
X8827D02*
D03*
X8354D02*
D03*
X8118D02*
D03*
X8000D02*
D03*
X7882D02*
D03*
X7764D02*
D03*
X9535Y589D02*
D03*
X9654D02*
D03*
X9772D02*
D03*
X9890D02*
D03*
X10008D02*
D03*
X10126D02*
D03*
X10244D02*
D03*
X9535Y407D02*
D03*
X9654D02*
D03*
X9890D02*
D03*
X10008D02*
D03*
X10126D02*
D03*
X10244D02*
D03*
X9772D02*
D03*
D23*
X3482Y5195D02*
D03*
X3416D02*
D03*
X9867Y5400D02*
D03*
X9801D02*
D03*
X8347Y5890D02*
D03*
X8413D02*
D03*
X8413Y5835D02*
D03*
X8347D02*
D03*
X8723Y5595D02*
D03*
X8657D02*
D03*
X8923Y5140D02*
D03*
X8857D02*
D03*
X9153Y5680D02*
D03*
X9087D02*
D03*
X9087Y5576D02*
D03*
X9153D02*
D03*
X9153Y5627D02*
D03*
X9087D02*
D03*
X9147Y5185D02*
D03*
X9213D02*
D03*
X8218Y5170D02*
D03*
X8152D02*
D03*
X6015Y4875D02*
D03*
X5949D02*
D03*
X6111Y4925D02*
D03*
X6177D02*
D03*
X7492Y1705D02*
D03*
X7558D02*
D03*
X7445D02*
D03*
X7378D02*
D03*
X8067Y825D02*
D03*
X8133D02*
D03*
X8067Y902D02*
D03*
X8133D02*
D03*
X7857Y985D02*
D03*
X7923D02*
D03*
X8066Y1065D02*
D03*
X8132D02*
D03*
X8942Y980D02*
D03*
X9008D02*
D03*
X9147Y825D02*
D03*
X9213D02*
D03*
X9147Y905D02*
D03*
X9213D02*
D03*
X9147Y1065D02*
D03*
X9213D02*
D03*
X8598Y1080D02*
D03*
X8532D02*
D03*
X8583Y1700D02*
D03*
X8517D02*
D03*
X8632D02*
D03*
X8698D02*
D03*
X6897Y910D02*
D03*
X6963D02*
D03*
X6902Y1180D02*
D03*
X6968D02*
D03*
X6902Y1450D02*
D03*
X6968D02*
D03*
X6963Y1795D02*
D03*
X6897D02*
D03*
X6897Y1725D02*
D03*
X6963D02*
D03*
X10812Y1370D02*
D03*
X10878D02*
D03*
Y1300D02*
D03*
X10812D02*
D03*
X11028D02*
D03*
X10962D02*
D03*
X10962Y1235D02*
D03*
X11028D02*
D03*
X10812Y1135D02*
D03*
X10878D02*
D03*
Y1065D02*
D03*
X10812D02*
D03*
X11018D02*
D03*
X10952D02*
D03*
X10952Y1000D02*
D03*
X11018D02*
D03*
X10812Y890D02*
D03*
X10878D02*
D03*
X11013Y820D02*
D03*
X10947D02*
D03*
X10947Y755D02*
D03*
X11013D02*
D03*
X10878Y820D02*
D03*
X10812D02*
D03*
X10892Y240D02*
D03*
X10958D02*
D03*
X2742Y3650D02*
D03*
X2808D02*
D03*
X2742Y3705D02*
D03*
X2808D02*
D03*
X2808Y3465D02*
D03*
X2742D02*
D03*
Y3765D02*
D03*
X2808D02*
D03*
X2742Y3585D02*
D03*
X2808D02*
D03*
X2742Y3197D02*
D03*
X2808D02*
D03*
X5023Y3315D02*
D03*
X4957D02*
D03*
X5023Y3830D02*
D03*
X4957D02*
D03*
X5023Y3170D02*
D03*
X4957D02*
D03*
X5023Y3485D02*
D03*
X4957D02*
D03*
X5023Y3430D02*
D03*
X4957D02*
D03*
Y3375D02*
D03*
X5023D02*
D03*
X1367Y948D02*
D03*
X1301D02*
D03*
X4048Y1130D02*
D03*
X3982D02*
D03*
X3982Y1075D02*
D03*
X4048D02*
D03*
X4122Y785D02*
D03*
X4188D02*
D03*
X4427Y1005D02*
D03*
X4493D02*
D03*
X4427Y935D02*
D03*
X4493D02*
D03*
X1323Y1740D02*
D03*
X1257D02*
D03*
X277Y1765D02*
D03*
X343D02*
D03*
X277Y1825D02*
D03*
X343D02*
D03*
X7572Y828D02*
D03*
X7638D02*
D03*
X8672Y825D02*
D03*
X8738D02*
D03*
X6902Y1520D02*
D03*
X6968D02*
D03*
X6897Y985D02*
D03*
X6963D02*
D03*
X6902Y1255D02*
D03*
X6968D02*
D03*
X77Y2175D02*
D03*
X143D02*
D03*
X257D02*
D03*
X323D02*
D03*
X1917Y1355D02*
D03*
X1983D02*
D03*
X1782D02*
D03*
X1848D02*
D03*
X8923Y5215D02*
D03*
X8857D02*
D03*
X9507Y5740D02*
D03*
X9573D02*
D03*
X10753Y5695D02*
D03*
X10687D02*
D03*
X9012Y5960D02*
D03*
X9078D02*
D03*
X11308Y6010D02*
D03*
X11242D02*
D03*
X4032Y530D02*
D03*
X4098D02*
D03*
X4268D02*
D03*
X4202D02*
D03*
X3833Y965D02*
D03*
X3767D02*
D03*
X3833Y730D02*
D03*
X3767D02*
D03*
X5011Y7756D02*
D03*
X4945D02*
D03*
X10881Y7565D02*
D03*
X10815D02*
D03*
X10139D02*
D03*
X10073D02*
D03*
X8803Y7563D02*
D03*
X8736D02*
D03*
X7206Y5579D02*
D03*
X7139D02*
D03*
D24*
X8529Y7740D02*
D03*
X8645D02*
D03*
X8658Y7090D02*
D03*
X8542D02*
D03*
X9859Y7740D02*
D03*
X9975D02*
D03*
X9988Y7090D02*
D03*
X9872D02*
D03*
X10615Y7740D02*
D03*
X10731D02*
D03*
X10743Y7090D02*
D03*
X10627D02*
D03*
D25*
X8587Y7680D02*
D03*
X8600Y7150D02*
D03*
X9917Y7680D02*
D03*
X9930Y7150D02*
D03*
X10673Y7680D02*
D03*
X10685Y7150D02*
D03*
D26*
X8687Y7525D02*
D03*
Y7564D02*
D03*
X8587Y7525D02*
D03*
Y7564D02*
D03*
X8600Y7240D02*
D03*
Y7280D02*
D03*
X9916Y7525D02*
D03*
Y7564D02*
D03*
X10012Y7525D02*
D03*
Y7565D02*
D03*
X9930Y7240D02*
D03*
Y7280D02*
D03*
X10767Y7525D02*
D03*
Y7564D02*
D03*
X10673Y7525D02*
D03*
Y7565D02*
D03*
X10685Y7240D02*
D03*
Y7280D02*
D03*
D27*
X8455Y7367D02*
D03*
Y7433D02*
D03*
X10754Y5517D02*
D03*
Y5583D02*
D03*
X9179Y5873D02*
D03*
Y5807D02*
D03*
X8345Y5758D02*
D03*
Y5692D02*
D03*
X8415Y5692D02*
D03*
Y5758D02*
D03*
X9340Y5362D02*
D03*
Y5428D02*
D03*
X9075Y5117D02*
D03*
Y5183D02*
D03*
X8765Y5283D02*
D03*
Y5217D02*
D03*
X8675Y5217D02*
D03*
Y5283D02*
D03*
X8395Y5362D02*
D03*
Y5428D02*
D03*
X7340Y1857D02*
D03*
Y1791D02*
D03*
X7605Y1789D02*
D03*
Y1855D02*
D03*
X8480Y1858D02*
D03*
Y1792D02*
D03*
X8735D02*
D03*
Y1858D02*
D03*
X8597Y2079D02*
D03*
Y2012D02*
D03*
X6640Y1432D02*
D03*
Y1498D02*
D03*
Y1707D02*
D03*
Y1773D02*
D03*
X9622Y1232D02*
D03*
Y1298D02*
D03*
X9697Y1232D02*
D03*
Y1298D02*
D03*
X9623Y973D02*
D03*
Y907D02*
D03*
X9932Y1232D02*
D03*
Y1298D02*
D03*
X9858Y1232D02*
D03*
Y1298D02*
D03*
X9857Y972D02*
D03*
Y905D02*
D03*
X10143Y1227D02*
D03*
Y1293D02*
D03*
X10068Y1227D02*
D03*
Y1293D02*
D03*
X10067Y973D02*
D03*
Y907D02*
D03*
X3915Y2582D02*
D03*
Y2648D02*
D03*
X3705Y2582D02*
D03*
Y2648D02*
D03*
X3545Y2582D02*
D03*
Y2648D02*
D03*
X3640Y4473D02*
D03*
Y4407D02*
D03*
X5020Y3638D02*
D03*
Y3572D02*
D03*
X4940Y3572D02*
D03*
Y3638D02*
D03*
X3765Y2582D02*
D03*
Y2648D02*
D03*
X3910Y4458D02*
D03*
Y4392D02*
D03*
X3965Y4458D02*
D03*
Y4392D02*
D03*
X2250Y1193D02*
D03*
Y1127D02*
D03*
X1500Y1303D02*
D03*
Y1237D02*
D03*
X1430D02*
D03*
Y1303D02*
D03*
X1525Y1077D02*
D03*
Y1143D02*
D03*
X1365Y1237D02*
D03*
Y1303D02*
D03*
X2015Y1178D02*
D03*
Y1112D02*
D03*
X1940Y1178D02*
D03*
Y1112D02*
D03*
X1870Y1178D02*
D03*
Y1112D02*
D03*
X3925Y728D02*
D03*
Y662D02*
D03*
X3935Y963D02*
D03*
Y897D02*
D03*
X4425Y797D02*
D03*
Y863D02*
D03*
X2260Y967D02*
D03*
Y1033D02*
D03*
Y812D02*
D03*
Y878D02*
D03*
X1830Y903D02*
D03*
Y837D02*
D03*
X1885Y903D02*
D03*
Y837D02*
D03*
X1495Y1512D02*
D03*
Y1578D02*
D03*
X1250Y1878D02*
D03*
Y1812D02*
D03*
X1405Y1878D02*
D03*
Y1812D02*
D03*
X1325Y1812D02*
D03*
Y1878D02*
D03*
X7206Y5506D02*
D03*
Y5439D02*
D03*
X7458Y2012D02*
D03*
Y2078D02*
D03*
X9925Y1497D02*
D03*
Y1564D02*
D03*
X6640Y958D02*
D03*
Y892D02*
D03*
Y1233D02*
D03*
Y1167D02*
D03*
X1230Y1032D02*
D03*
Y1098D02*
D03*
X8070Y5972D02*
D03*
Y6038D02*
D03*
X9575Y5867D02*
D03*
Y5933D02*
D03*
X10270Y5708D02*
D03*
Y5642D02*
D03*
X3836Y4542D02*
D03*
Y4609D02*
D03*
X3736Y4542D02*
D03*
Y4609D02*
D03*
X10545Y7433D02*
D03*
Y7367D02*
D03*
X10820Y7442D02*
D03*
Y7375D02*
D03*
X9800Y7438D02*
D03*
Y7372D02*
D03*
X10065Y7442D02*
D03*
Y7375D02*
D03*
X8762Y7442D02*
D03*
Y7375D02*
D03*
X5880Y4672D02*
D03*
Y4738D02*
D03*
D28*
X8584Y7395D02*
D03*
X8617D02*
D03*
X9914D02*
D03*
X9946D02*
D03*
X10669D02*
D03*
X10702D02*
D03*
D29*
X8600D02*
D03*
X9930D02*
D03*
X10685D02*
D03*
D30*
X8614Y7375D02*
D03*
X8600Y7376D02*
D03*
X8586D02*
D03*
Y7414D02*
D03*
X8614D02*
D03*
X9944Y7375D02*
D03*
X9930Y7376D02*
D03*
X9916D02*
D03*
Y7414D02*
D03*
X9944D02*
D03*
X10699Y7375D02*
D03*
X10685Y7376D02*
D03*
X10672D02*
D03*
Y7414D02*
D03*
X10699D02*
D03*
D31*
X8600Y7411D02*
D03*
X9930D02*
D03*
X10685D02*
D03*
D32*
X11285Y5640D02*
D03*
Y5840D02*
D03*
D33*
X9040Y5789D02*
D03*
X9003Y5881D02*
D03*
X9077D02*
D03*
X7168Y5269D02*
D03*
X7130Y5361D02*
D03*
X7205D02*
D03*
X6775Y1429D02*
D03*
X6738Y1521D02*
D03*
X6812D02*
D03*
X6775Y1704D02*
D03*
X6738Y1796D02*
D03*
X6812D02*
D03*
X6775Y894D02*
D03*
X6738Y986D02*
D03*
X6812D02*
D03*
X6780Y1164D02*
D03*
X6743Y1256D02*
D03*
X6817D02*
D03*
D34*
X8585Y5830D02*
D03*
Y5780D02*
D03*
Y5730D02*
D03*
Y5680D02*
D03*
X8795Y5830D02*
D03*
Y5780D02*
D03*
Y5730D02*
D03*
Y5680D02*
D03*
X4260Y855D02*
D03*
Y905D02*
D03*
Y955D02*
D03*
Y1005D02*
D03*
X4050Y855D02*
D03*
Y905D02*
D03*
Y955D02*
D03*
Y1005D02*
D03*
X11020Y310D02*
D03*
Y360D02*
D03*
Y410D02*
D03*
Y460D02*
D03*
X10810Y310D02*
D03*
Y360D02*
D03*
Y410D02*
D03*
Y460D02*
D03*
D35*
X8215Y6090D02*
D03*
Y5970D02*
D03*
X1395Y615D02*
D03*
Y735D02*
D03*
X1490Y615D02*
D03*
Y735D02*
D03*
X1585Y615D02*
D03*
Y735D02*
D03*
X1680Y615D02*
D03*
Y735D02*
D03*
X445Y2035D02*
D03*
Y2155D02*
D03*
X540Y2155D02*
D03*
Y2035D02*
D03*
X700Y2705D02*
D03*
Y2825D02*
D03*
X205Y2435D02*
D03*
Y2555D02*
D03*
X1970Y845D02*
D03*
Y965D02*
D03*
X2820Y520D02*
D03*
Y640D02*
D03*
X3570Y525D02*
D03*
Y645D02*
D03*
X3190Y520D02*
D03*
Y640D02*
D03*
D36*
X9105Y5290D02*
D03*
X9155D02*
D03*
X9205D02*
D03*
X9255D02*
D03*
X9105Y5500D02*
D03*
X9155D02*
D03*
X9205D02*
D03*
X9255D02*
D03*
X8170Y5285D02*
D03*
X8220D02*
D03*
X8270D02*
D03*
X8320D02*
D03*
X8170Y5495D02*
D03*
X8220D02*
D03*
X8270D02*
D03*
X8320D02*
D03*
X4250Y420D02*
D03*
X4200D02*
D03*
X4150D02*
D03*
X4100D02*
D03*
X4250Y210D02*
D03*
X4200D02*
D03*
X4150D02*
D03*
X4100D02*
D03*
X1275Y1440D02*
D03*
X1325D02*
D03*
X1375D02*
D03*
X1425D02*
D03*
X1275Y1650D02*
D03*
X1325D02*
D03*
X1375D02*
D03*
X1425D02*
D03*
D37*
X6074Y4792D02*
D03*
X6055D02*
D03*
X6035D02*
D03*
X6015D02*
D03*
X5996D02*
D03*
X6074Y4618D02*
D03*
X6055D02*
D03*
X6035D02*
D03*
X6015D02*
D03*
X5996D02*
D03*
D38*
X7470Y1850D02*
D03*
X8610D02*
D03*
D39*
X7432Y1790D02*
D03*
X7457D02*
D03*
X7483D02*
D03*
X7508D02*
D03*
X7432Y1910D02*
D03*
X7457D02*
D03*
X7483D02*
D03*
X7508D02*
D03*
X8572Y1790D02*
D03*
X8597D02*
D03*
X8623D02*
D03*
X8648D02*
D03*
X8572Y1910D02*
D03*
X8597D02*
D03*
X8623D02*
D03*
X8648D02*
D03*
D40*
X7964Y828D02*
D03*
Y865D02*
D03*
Y902D02*
D03*
X7856D02*
D03*
Y865D02*
D03*
Y828D02*
D03*
X9049D02*
D03*
Y865D02*
D03*
Y902D02*
D03*
X8941D02*
D03*
Y865D02*
D03*
Y828D02*
D03*
D41*
X8458Y1460D02*
D03*
Y1410D02*
D03*
Y1360D02*
D03*
Y1310D02*
D03*
Y1260D02*
D03*
Y1210D02*
D03*
Y1160D02*
D03*
X8672Y1460D02*
D03*
Y1410D02*
D03*
Y1360D02*
D03*
Y1310D02*
D03*
Y1260D02*
D03*
Y1210D02*
D03*
Y1160D02*
D03*
X7572D02*
D03*
Y1210D02*
D03*
Y1260D02*
D03*
Y1310D02*
D03*
Y1360D02*
D03*
Y1410D02*
D03*
Y1460D02*
D03*
X7358Y1160D02*
D03*
Y1210D02*
D03*
Y1260D02*
D03*
Y1310D02*
D03*
Y1360D02*
D03*
Y1410D02*
D03*
Y1460D02*
D03*
D42*
X9697Y1149D02*
D03*
X9660D02*
D03*
X9623D02*
D03*
Y1041D02*
D03*
X9660D02*
D03*
X9697D02*
D03*
X9932Y1149D02*
D03*
X9895D02*
D03*
X9858D02*
D03*
Y1041D02*
D03*
X9895D02*
D03*
X9932D02*
D03*
X10142Y1149D02*
D03*
X10105D02*
D03*
X10068D02*
D03*
Y1041D02*
D03*
X10105D02*
D03*
X10142D02*
D03*
D43*
X10962Y1370D02*
D03*
X11050D02*
D03*
X10953Y1136D02*
D03*
X11041D02*
D03*
X10947Y890D02*
D03*
X11035D02*
D03*
D44*
X4856Y3573D02*
D03*
Y3647D02*
D03*
X4764Y3610D02*
D03*
D45*
X3834Y4430D02*
D03*
X3736D02*
D03*
D46*
X2645Y1396D02*
D03*
Y1510D02*
D03*
D47*
X2481Y1395D02*
D03*
D48*
X2249Y1304D02*
D03*
Y1395D02*
D03*
Y1486D02*
D03*
D49*
X1368Y1173D02*
D03*
X1388D02*
D03*
X1408D02*
D03*
X1427D02*
D03*
Y1067D02*
D03*
X1408D02*
D03*
X1388D02*
D03*
X1368D02*
D03*
X1964Y754D02*
D03*
X1944D02*
D03*
X1925D02*
D03*
X1905D02*
D03*
X1885D02*
D03*
X1865D02*
D03*
X1846D02*
D03*
X1826D02*
D03*
X575Y1929D02*
D03*
X555D02*
D03*
X535D02*
D03*
X516D02*
D03*
X496D02*
D03*
D50*
X1431Y1100D02*
D03*
X1989Y650D02*
D03*
Y670D02*
D03*
Y690D02*
D03*
Y709D02*
D03*
Y729D02*
D03*
X471Y1904D02*
D03*
Y1884D02*
D03*
Y1865D02*
D03*
Y1845D02*
D03*
Y1825D02*
D03*
Y1805D02*
D03*
Y1786D02*
D03*
Y1766D02*
D03*
D51*
X1415Y1120D02*
D03*
X1380Y1100D02*
D03*
Y1139D02*
D03*
D52*
X1776Y1180D02*
D03*
X1654D02*
D03*
D53*
X2191Y1042D02*
D03*
X2165D02*
D03*
X2139D02*
D03*
X2191Y958D02*
D03*
X2165D02*
D03*
X2139D02*
D03*
X2191Y892D02*
D03*
X2165D02*
D03*
X2139D02*
D03*
X2191Y808D02*
D03*
X2165D02*
D03*
X2139D02*
D03*
D54*
X2150Y620D02*
D03*
X2270D02*
D03*
X2270Y715D02*
D03*
X2150D02*
D03*
X225Y1900D02*
D03*
X345D02*
D03*
X625Y1350D02*
D03*
X505D02*
D03*
X625Y1440D02*
D03*
X505D02*
D03*
X625Y1535D02*
D03*
X505D02*
D03*
X625Y1625D02*
D03*
X505D02*
D03*
X1405Y2075D02*
D03*
X1285D02*
D03*
D55*
X2270Y325D02*
D03*
X2660D02*
D03*
D56*
X3755Y440D02*
D03*
Y160D02*
D03*
X3385Y440D02*
D03*
Y160D02*
D03*
X3005Y440D02*
D03*
Y160D02*
D03*
X445Y2435D02*
D03*
Y2715D02*
D03*
X1405Y2260D02*
D03*
Y2540D02*
D03*
X655Y461D02*
D03*
Y741D02*
D03*
X1135Y460D02*
D03*
Y740D02*
D03*
D57*
X1801Y732D02*
D03*
Y588D02*
D03*
D58*
X1840Y707D02*
D03*
D59*
X1800Y627D02*
D03*
D60*
X1870Y631D02*
D03*
D61*
X1947Y614D02*
D03*
D62*
X1895Y566D02*
D03*
D63*
X1989Y611D02*
D03*
D64*
X1936Y707D02*
D03*
D65*
X1960Y651D02*
D03*
D66*
X3416Y5330D02*
D03*
X3530D02*
D03*
D67*
X248Y2091D02*
D03*
Y2065D02*
D03*
Y2039D02*
D03*
X332Y2091D02*
D03*
Y2065D02*
D03*
Y2039D02*
D03*
X68Y2091D02*
D03*
Y2065D02*
D03*
Y2039D02*
D03*
X152Y2091D02*
D03*
Y2065D02*
D03*
Y2039D02*
D03*
D68*
X880Y2705D02*
D03*
X1160D02*
D03*
X505Y1105D02*
D03*
X785D02*
D03*
D69*
X880Y2045D02*
D03*
Y2435D02*
D03*
D70*
X493Y1741D02*
D03*
X637D02*
D03*
D71*
X518Y1780D02*
D03*
D72*
X598Y1740D02*
D03*
D73*
X594Y1810D02*
D03*
D74*
X611Y1887D02*
D03*
D75*
X659Y1835D02*
D03*
D76*
X614Y1929D02*
D03*
D77*
X518Y1876D02*
D03*
D78*
X574Y1900D02*
D03*
D79*
X6914Y5114D02*
D03*
X6774D02*
D03*
D80*
X166Y4895D02*
D03*
Y4920D02*
D03*
Y4946D02*
D03*
Y4869D02*
D03*
Y4971D02*
D03*
D81*
X61Y4763D02*
D03*
Y5078D02*
D03*
D82*
Y4873D02*
D03*
Y4968D02*
D03*
D83*
X8132Y1160D02*
D03*
Y1260D02*
D03*
X7798D02*
D03*
Y1160D02*
D03*
X9212D02*
D03*
Y1260D02*
D03*
X8878D02*
D03*
Y1160D02*
D03*
D84*
X10579Y5644D02*
D03*
Y5670D02*
D03*
Y5696D02*
D03*
X10501D02*
D03*
Y5644D02*
D03*
D85*
X4079Y3901D02*
D03*
X4060D02*
D03*
X4040D02*
D03*
X4020D02*
D03*
X4001D02*
D03*
X3981D02*
D03*
X3961D02*
D03*
X3942D02*
D03*
X3922D02*
D03*
X3902D02*
D03*
X3883D02*
D03*
X3863D02*
D03*
X3843D02*
D03*
X3824D02*
D03*
X3804D02*
D03*
X3784D02*
D03*
X3765D02*
D03*
X3745D02*
D03*
X3725D02*
D03*
X3705D02*
D03*
X3686D02*
D03*
X3666D02*
D03*
X3646D02*
D03*
X3627D02*
D03*
X3607D02*
D03*
X3587D02*
D03*
X3568D02*
D03*
X3548D02*
D03*
X3528D02*
D03*
X3509D02*
D03*
X3489D02*
D03*
X3469D02*
D03*
X3450D02*
D03*
X3430D02*
D03*
X3410D02*
D03*
X3391D02*
D03*
Y3049D02*
D03*
X3410D02*
D03*
X3430D02*
D03*
X3450D02*
D03*
X3469D02*
D03*
X3489D02*
D03*
X3509D02*
D03*
X3528D02*
D03*
X3548D02*
D03*
X3568D02*
D03*
X3587D02*
D03*
X3607D02*
D03*
X3627D02*
D03*
X3646D02*
D03*
X3666D02*
D03*
X3686D02*
D03*
X3705D02*
D03*
X3725D02*
D03*
X3745D02*
D03*
X3765D02*
D03*
X3784D02*
D03*
X3804D02*
D03*
X3824D02*
D03*
X3843D02*
D03*
X3863D02*
D03*
X3883D02*
D03*
X3902D02*
D03*
X3922D02*
D03*
X3942D02*
D03*
X3961D02*
D03*
X3981D02*
D03*
X4001D02*
D03*
X4020D02*
D03*
X4040D02*
D03*
X4060D02*
D03*
X4079D02*
D03*
D86*
X3309Y3819D02*
D03*
Y3800D02*
D03*
Y3780D02*
D03*
Y3760D02*
D03*
Y3741D02*
D03*
Y3721D02*
D03*
Y3701D02*
D03*
Y3682D02*
D03*
Y3662D02*
D03*
Y3642D02*
D03*
Y3623D02*
D03*
Y3603D02*
D03*
Y3583D02*
D03*
Y3564D02*
D03*
Y3544D02*
D03*
Y3524D02*
D03*
Y3505D02*
D03*
Y3485D02*
D03*
Y3465D02*
D03*
Y3445D02*
D03*
Y3426D02*
D03*
Y3406D02*
D03*
Y3386D02*
D03*
Y3367D02*
D03*
Y3347D02*
D03*
Y3327D02*
D03*
Y3308D02*
D03*
Y3288D02*
D03*
Y3268D02*
D03*
Y3249D02*
D03*
Y3229D02*
D03*
Y3209D02*
D03*
Y3190D02*
D03*
Y3170D02*
D03*
Y3150D02*
D03*
Y3131D02*
D03*
X4161D02*
D03*
Y3150D02*
D03*
Y3170D02*
D03*
Y3190D02*
D03*
Y3209D02*
D03*
Y3229D02*
D03*
Y3249D02*
D03*
Y3268D02*
D03*
Y3288D02*
D03*
Y3308D02*
D03*
Y3327D02*
D03*
Y3347D02*
D03*
Y3367D02*
D03*
Y3386D02*
D03*
Y3406D02*
D03*
Y3426D02*
D03*
Y3445D02*
D03*
Y3465D02*
D03*
Y3485D02*
D03*
Y3505D02*
D03*
Y3524D02*
D03*
Y3544D02*
D03*
Y3564D02*
D03*
Y3583D02*
D03*
Y3603D02*
D03*
Y3623D02*
D03*
Y3642D02*
D03*
Y3662D02*
D03*
Y3682D02*
D03*
Y3701D02*
D03*
Y3721D02*
D03*
Y3741D02*
D03*
Y3760D02*
D03*
Y3780D02*
D03*
Y3800D02*
D03*
Y3819D02*
D03*
D87*
X2600Y2302D02*
D03*
Y2208D02*
D03*
D88*
X2760Y2200D02*
D03*
Y2302D02*
D03*
D89*
X148Y3275D02*
D03*
X282D02*
D03*
Y3125D02*
D03*
X148D02*
D03*
X282Y3175D02*
D03*
Y3225D02*
D03*
X148Y3175D02*
D03*
Y3225D02*
D03*
X282Y3325D02*
D03*
Y3375D02*
D03*
X148Y3325D02*
D03*
Y3375D02*
D03*
X282Y3425D02*
D03*
Y3475D02*
D03*
X148Y3425D02*
D03*
Y3475D02*
D03*
X9283Y4745D02*
D03*
X9417D02*
D03*
Y4595D02*
D03*
X9283D02*
D03*
X9417Y4645D02*
D03*
Y4695D02*
D03*
X9283Y4645D02*
D03*
Y4695D02*
D03*
X9417Y4795D02*
D03*
Y4845D02*
D03*
X9283Y4795D02*
D03*
Y4845D02*
D03*
X9417Y4895D02*
D03*
Y4945D02*
D03*
X9283Y4895D02*
D03*
Y4945D02*
D03*
D90*
X11221Y4875D02*
D03*
X11485D02*
D03*
D91*
X11314Y5101D02*
D03*
X11392D02*
D03*
D92*
X7646Y5577D02*
D03*
Y5841D02*
D03*
D93*
X7420Y5670D02*
D03*
Y5749D02*
D03*
D94*
X6150Y5020D02*
D03*
D95*
X6189Y5046D02*
D03*
Y5020D02*
D03*
Y4994D02*
D03*
X6111D02*
D03*
Y5046D02*
D03*
D96*
X6120Y5020D02*
D03*
M02*
