G04*
G04 #@! TF.GenerationSoftware,Altium Limited,Altium Designer,22.8.2 (66)*
G04*
G04 Layer_Color=8388736*
%FSLAX23Y23*%
%MOIN*%
G70*
G04*
G04 #@! TF.SameCoordinates,DFBDAC77-D3CC-4506-9E17-829F2540CA52*
G04*
G04*
G04 #@! TF.FilePolarity,Negative*
G04*
G01*
G75*
%ADD97R,0.143X0.073*%
%ADD98R,0.058X0.123*%
%ADD99R,0.036X0.043*%
%ADD100R,0.049X0.095*%
%ADD101R,0.047X0.049*%
%ADD102R,0.028X0.024*%
%ADD103R,0.043X0.036*%
%ADD104R,0.027X0.014*%
%ADD105R,0.022X0.020*%
%ADD106R,0.014X0.021*%
%ADD107R,0.014X0.028*%
%ADD108R,0.067X0.146*%
%ADD109R,0.043X0.045*%
%ADD110R,0.073X0.032*%
%ADD111R,0.077X0.057*%
%ADD112R,0.032X0.073*%
%ADD113R,0.020X0.065*%
%ADD114R,0.102X0.071*%
%ADD115R,0.020X0.035*%
%ADD116R,0.049X0.032*%
%ADD117R,0.065X0.032*%
%ADD118R,0.032X0.049*%
%ADD119R,0.033X0.041*%
%ADD120R,0.045X0.043*%
%ADD121R,0.051X0.083*%
%ADD122R,0.097X0.079*%
%ADD123R,0.091X0.134*%
%ADD124R,0.091X0.043*%
%ADD125R,0.020X0.032*%
%ADD126R,0.032X0.020*%
%ADD127R,0.063X0.020*%
%ADD128R,0.055X0.138*%
%ADD129R,0.022X0.043*%
%ADD130R,0.057X0.077*%
%ADD131R,0.122X0.221*%
%ADD132R,0.067X0.185*%
%ADD133R,0.032X0.014*%
%ADD134R,0.112X0.052*%
%ADD135R,0.030X0.079*%
%ADD136R,0.128X0.088*%
%ADD137R,0.041X0.053*%
%ADD138R,0.158X0.032*%
%ADD139R,0.032X0.059*%
%ADD140R,0.064X0.052*%
%ADD141R,0.031X0.022*%
%ADD142R,0.079X0.097*%
%ADD143R,0.043X0.022*%
%ADD144R,0.185X0.067*%
%ADD145R,0.221X0.122*%
%ADD146R,0.014X0.032*%
%ADD147R,0.052X0.112*%
%ADD148R,0.079X0.030*%
%ADD149R,0.088X0.128*%
%ADD150R,0.053X0.041*%
%ADD151R,0.032X0.158*%
%ADD152R,0.059X0.032*%
%ADD153R,0.052X0.064*%
%ADD154R,0.022X0.031*%
%ADD155R,0.057X0.075*%
%ADD156R,0.061X0.024*%
%ADD157R,0.083X0.079*%
%ADD158R,0.083X0.083*%
%ADD159R,0.059X0.067*%
%ADD160R,0.036X0.024*%
%ADD161R,0.020X0.073*%
%ADD162R,0.073X0.020*%
%ADD163R,0.118X0.063*%
%ADD164R,0.057X0.079*%
%ADD165R,0.083X0.038*%
%ADD166R,0.067X0.142*%
%ADD167R,0.047X0.146*%
%ADD168R,0.142X0.067*%
%ADD169R,0.146X0.047*%
%ADD170R,0.043X0.074*%
%ADD171R,0.026X0.023*%
%ADD172R,0.043X0.023*%
%ADD173C,0.083*%
%ADD174C,0.146*%
%ADD175C,0.036*%
%ADD176C,0.051*%
%ADD177C,0.067*%
%ADD178C,0.079*%
%ADD179R,0.047X0.047*%
%ADD180C,0.047*%
%ADD181C,0.252*%
%ADD182R,0.068X0.068*%
%ADD183C,0.068*%
%ADD184C,0.075*%
%ADD185C,0.099*%
%ADD186C,0.032*%
D97*
X7374Y194D02*
D03*
X8980D02*
D03*
X10397Y191D02*
D03*
X9382D02*
D03*
D98*
X7528Y591D02*
D03*
X7646D02*
D03*
X7764D02*
D03*
X7882D02*
D03*
X8000D02*
D03*
X8118D02*
D03*
X8236D02*
D03*
X8354D02*
D03*
X8472D02*
D03*
X8591D02*
D03*
X8709D02*
D03*
X8827D02*
D03*
X7528Y409D02*
D03*
X7646D02*
D03*
X8236D02*
D03*
X8472D02*
D03*
X8591D02*
D03*
X8709D02*
D03*
X8827D02*
D03*
X8354D02*
D03*
X8118D02*
D03*
X8000D02*
D03*
X7882D02*
D03*
X7764D02*
D03*
X9535Y589D02*
D03*
X9654D02*
D03*
X9772D02*
D03*
X9890D02*
D03*
X10008D02*
D03*
X10126D02*
D03*
X10244D02*
D03*
X9535Y407D02*
D03*
X9654D02*
D03*
X9890D02*
D03*
X10008D02*
D03*
X10126D02*
D03*
X10244D02*
D03*
X9772D02*
D03*
D99*
X3482Y5195D02*
D03*
X3416D02*
D03*
X9867Y5400D02*
D03*
X9801D02*
D03*
X8347Y5890D02*
D03*
X8413D02*
D03*
X8413Y5835D02*
D03*
X8347D02*
D03*
X8723Y5595D02*
D03*
X8657D02*
D03*
X8923Y5140D02*
D03*
X8857D02*
D03*
X9153Y5680D02*
D03*
X9087D02*
D03*
X9087Y5576D02*
D03*
X9153D02*
D03*
X9153Y5627D02*
D03*
X9087D02*
D03*
X9147Y5185D02*
D03*
X9213D02*
D03*
X8218Y5170D02*
D03*
X8152D02*
D03*
X6015Y4875D02*
D03*
X5949D02*
D03*
X6111Y4925D02*
D03*
X6177D02*
D03*
X7492Y1705D02*
D03*
X7558D02*
D03*
X7445D02*
D03*
X7378D02*
D03*
X8067Y825D02*
D03*
X8133D02*
D03*
X8067Y902D02*
D03*
X8133D02*
D03*
X7857Y985D02*
D03*
X7923D02*
D03*
X8066Y1065D02*
D03*
X8132D02*
D03*
X8942Y980D02*
D03*
X9008D02*
D03*
X9147Y825D02*
D03*
X9213D02*
D03*
X9147Y905D02*
D03*
X9213D02*
D03*
X9147Y1065D02*
D03*
X9213D02*
D03*
X8598Y1080D02*
D03*
X8532D02*
D03*
X8583Y1700D02*
D03*
X8517D02*
D03*
X8632D02*
D03*
X8698D02*
D03*
X6897Y910D02*
D03*
X6963D02*
D03*
X6902Y1180D02*
D03*
X6968D02*
D03*
X6902Y1450D02*
D03*
X6968D02*
D03*
X6963Y1795D02*
D03*
X6897D02*
D03*
X6897Y1725D02*
D03*
X6963D02*
D03*
X10812Y1370D02*
D03*
X10878D02*
D03*
Y1300D02*
D03*
X10812D02*
D03*
X11028D02*
D03*
X10962D02*
D03*
X10962Y1235D02*
D03*
X11028D02*
D03*
X10812Y1135D02*
D03*
X10878D02*
D03*
Y1065D02*
D03*
X10812D02*
D03*
X11018D02*
D03*
X10952D02*
D03*
X10952Y1000D02*
D03*
X11018D02*
D03*
X10812Y890D02*
D03*
X10878D02*
D03*
X11013Y820D02*
D03*
X10947D02*
D03*
X10947Y755D02*
D03*
X11013D02*
D03*
X10878Y820D02*
D03*
X10812D02*
D03*
X10892Y240D02*
D03*
X10958D02*
D03*
X2742Y3650D02*
D03*
X2808D02*
D03*
X2742Y3705D02*
D03*
X2808D02*
D03*
X2808Y3465D02*
D03*
X2742D02*
D03*
Y3765D02*
D03*
X2808D02*
D03*
X2742Y3585D02*
D03*
X2808D02*
D03*
X2742Y3197D02*
D03*
X2808D02*
D03*
X5023Y3315D02*
D03*
X4957D02*
D03*
X5023Y3830D02*
D03*
X4957D02*
D03*
X5023Y3170D02*
D03*
X4957D02*
D03*
X5023Y3485D02*
D03*
X4957D02*
D03*
X5023Y3430D02*
D03*
X4957D02*
D03*
Y3375D02*
D03*
X5023D02*
D03*
X1367Y948D02*
D03*
X1301D02*
D03*
X4048Y1130D02*
D03*
X3982D02*
D03*
X3982Y1075D02*
D03*
X4048D02*
D03*
X4122Y785D02*
D03*
X4188D02*
D03*
X4427Y1005D02*
D03*
X4493D02*
D03*
X4427Y935D02*
D03*
X4493D02*
D03*
X1323Y1740D02*
D03*
X1257D02*
D03*
X277Y1765D02*
D03*
X343D02*
D03*
X277Y1825D02*
D03*
X343D02*
D03*
X7572Y828D02*
D03*
X7638D02*
D03*
X8672Y825D02*
D03*
X8738D02*
D03*
X6902Y1520D02*
D03*
X6968D02*
D03*
X6897Y985D02*
D03*
X6963D02*
D03*
X6902Y1255D02*
D03*
X6968D02*
D03*
X77Y2175D02*
D03*
X143D02*
D03*
X257D02*
D03*
X323D02*
D03*
X1917Y1355D02*
D03*
X1983D02*
D03*
X1782D02*
D03*
X1848D02*
D03*
X8923Y5215D02*
D03*
X8857D02*
D03*
X9507Y5740D02*
D03*
X9573D02*
D03*
X10753Y5695D02*
D03*
X10687D02*
D03*
X9012Y5960D02*
D03*
X9078D02*
D03*
X11308Y6010D02*
D03*
X11242D02*
D03*
X4032Y530D02*
D03*
X4098D02*
D03*
X4268D02*
D03*
X4202D02*
D03*
X3833Y965D02*
D03*
X3767D02*
D03*
X3833Y730D02*
D03*
X3767D02*
D03*
X5011Y7756D02*
D03*
X4945D02*
D03*
X10881Y7565D02*
D03*
X10815D02*
D03*
X10139D02*
D03*
X10073D02*
D03*
X8803Y7563D02*
D03*
X8736D02*
D03*
X7206Y5579D02*
D03*
X7139D02*
D03*
D100*
X8529Y7740D02*
D03*
X8645D02*
D03*
X8658Y7090D02*
D03*
X8542D02*
D03*
X9859Y7740D02*
D03*
X9975D02*
D03*
X9988Y7090D02*
D03*
X9872D02*
D03*
X10615Y7740D02*
D03*
X10731D02*
D03*
X10743Y7090D02*
D03*
X10627D02*
D03*
D101*
X8587Y7680D02*
D03*
X8600Y7150D02*
D03*
X9917Y7680D02*
D03*
X9930Y7150D02*
D03*
X10673Y7680D02*
D03*
X10685Y7150D02*
D03*
D102*
X8687Y7525D02*
D03*
Y7564D02*
D03*
X8587Y7525D02*
D03*
Y7564D02*
D03*
X8600Y7240D02*
D03*
Y7280D02*
D03*
X9916Y7525D02*
D03*
Y7564D02*
D03*
X10012Y7525D02*
D03*
Y7565D02*
D03*
X9930Y7240D02*
D03*
Y7280D02*
D03*
X10767Y7525D02*
D03*
Y7564D02*
D03*
X10673Y7525D02*
D03*
Y7565D02*
D03*
X10685Y7240D02*
D03*
Y7280D02*
D03*
D103*
X8455Y7367D02*
D03*
Y7433D02*
D03*
X10754Y5517D02*
D03*
Y5583D02*
D03*
X9179Y5873D02*
D03*
Y5807D02*
D03*
X8345Y5758D02*
D03*
Y5692D02*
D03*
X8415Y5692D02*
D03*
Y5758D02*
D03*
X9340Y5362D02*
D03*
Y5428D02*
D03*
X9075Y5117D02*
D03*
Y5183D02*
D03*
X8765Y5283D02*
D03*
Y5217D02*
D03*
X8675Y5217D02*
D03*
Y5283D02*
D03*
X8395Y5362D02*
D03*
Y5428D02*
D03*
X7340Y1857D02*
D03*
Y1791D02*
D03*
X7605Y1789D02*
D03*
Y1855D02*
D03*
X8480Y1858D02*
D03*
Y1792D02*
D03*
X8735D02*
D03*
Y1858D02*
D03*
X8597Y2079D02*
D03*
Y2012D02*
D03*
X6640Y1432D02*
D03*
Y1498D02*
D03*
Y1707D02*
D03*
Y1773D02*
D03*
X9622Y1232D02*
D03*
Y1298D02*
D03*
X9697Y1232D02*
D03*
Y1298D02*
D03*
X9623Y973D02*
D03*
Y907D02*
D03*
X9932Y1232D02*
D03*
Y1298D02*
D03*
X9858Y1232D02*
D03*
Y1298D02*
D03*
X9857Y972D02*
D03*
Y905D02*
D03*
X10143Y1227D02*
D03*
Y1293D02*
D03*
X10068Y1227D02*
D03*
Y1293D02*
D03*
X10067Y973D02*
D03*
Y907D02*
D03*
X3915Y2582D02*
D03*
Y2648D02*
D03*
X3705Y2582D02*
D03*
Y2648D02*
D03*
X3545Y2582D02*
D03*
Y2648D02*
D03*
X3640Y4473D02*
D03*
Y4407D02*
D03*
X5020Y3638D02*
D03*
Y3572D02*
D03*
X4940Y3572D02*
D03*
Y3638D02*
D03*
X3765Y2582D02*
D03*
Y2648D02*
D03*
X3910Y4458D02*
D03*
Y4392D02*
D03*
X3965Y4458D02*
D03*
Y4392D02*
D03*
X2250Y1193D02*
D03*
Y1127D02*
D03*
X1500Y1303D02*
D03*
Y1237D02*
D03*
X1430D02*
D03*
Y1303D02*
D03*
X1525Y1077D02*
D03*
Y1143D02*
D03*
X1365Y1237D02*
D03*
Y1303D02*
D03*
X2015Y1178D02*
D03*
Y1112D02*
D03*
X1940Y1178D02*
D03*
Y1112D02*
D03*
X1870Y1178D02*
D03*
Y1112D02*
D03*
X3925Y728D02*
D03*
Y662D02*
D03*
X3935Y963D02*
D03*
Y897D02*
D03*
X4425Y797D02*
D03*
Y863D02*
D03*
X2260Y967D02*
D03*
Y1033D02*
D03*
Y812D02*
D03*
Y878D02*
D03*
X1830Y903D02*
D03*
Y837D02*
D03*
X1885Y903D02*
D03*
Y837D02*
D03*
X1495Y1512D02*
D03*
Y1578D02*
D03*
X1250Y1878D02*
D03*
Y1812D02*
D03*
X1405Y1878D02*
D03*
Y1812D02*
D03*
X1325Y1812D02*
D03*
Y1878D02*
D03*
X7206Y5506D02*
D03*
Y5439D02*
D03*
X7458Y2012D02*
D03*
Y2078D02*
D03*
X9925Y1497D02*
D03*
Y1564D02*
D03*
X6640Y958D02*
D03*
Y892D02*
D03*
Y1233D02*
D03*
Y1167D02*
D03*
X1230Y1032D02*
D03*
Y1098D02*
D03*
X8070Y5972D02*
D03*
Y6038D02*
D03*
X9575Y5867D02*
D03*
Y5933D02*
D03*
X10270Y5708D02*
D03*
Y5642D02*
D03*
X3836Y4542D02*
D03*
Y4609D02*
D03*
X3736Y4542D02*
D03*
Y4609D02*
D03*
X10545Y7433D02*
D03*
Y7367D02*
D03*
X10820Y7442D02*
D03*
Y7375D02*
D03*
X9800Y7438D02*
D03*
Y7372D02*
D03*
X10065Y7442D02*
D03*
Y7375D02*
D03*
X8762Y7442D02*
D03*
Y7375D02*
D03*
X5880Y4672D02*
D03*
Y4738D02*
D03*
D104*
X8584Y7395D02*
D03*
X8617D02*
D03*
X9914D02*
D03*
X9946D02*
D03*
X10669D02*
D03*
X10702D02*
D03*
D105*
X8600D02*
D03*
X9930D02*
D03*
X10685D02*
D03*
D106*
X8614Y7375D02*
D03*
X8600Y7376D02*
D03*
X8586D02*
D03*
Y7414D02*
D03*
X8614D02*
D03*
X9944Y7375D02*
D03*
X9930Y7376D02*
D03*
X9916D02*
D03*
Y7414D02*
D03*
X9944D02*
D03*
X10699Y7375D02*
D03*
X10685Y7376D02*
D03*
X10672D02*
D03*
Y7414D02*
D03*
X10699D02*
D03*
D107*
X8600Y7411D02*
D03*
X9930D02*
D03*
X10685D02*
D03*
D108*
X11285Y5640D02*
D03*
Y5840D02*
D03*
D109*
X9040Y5789D02*
D03*
X9003Y5881D02*
D03*
X9077D02*
D03*
X7168Y5269D02*
D03*
X7130Y5361D02*
D03*
X7205D02*
D03*
X6775Y1429D02*
D03*
X6738Y1521D02*
D03*
X6812D02*
D03*
X6775Y1704D02*
D03*
X6738Y1796D02*
D03*
X6812D02*
D03*
X6775Y894D02*
D03*
X6738Y986D02*
D03*
X6812D02*
D03*
X6780Y1164D02*
D03*
X6743Y1256D02*
D03*
X6817D02*
D03*
D110*
X8585Y5830D02*
D03*
Y5780D02*
D03*
Y5730D02*
D03*
Y5680D02*
D03*
X8795Y5830D02*
D03*
Y5780D02*
D03*
Y5730D02*
D03*
Y5680D02*
D03*
X4260Y855D02*
D03*
Y905D02*
D03*
Y955D02*
D03*
Y1005D02*
D03*
X4050Y855D02*
D03*
Y905D02*
D03*
Y955D02*
D03*
Y1005D02*
D03*
X11020Y310D02*
D03*
Y360D02*
D03*
Y410D02*
D03*
Y460D02*
D03*
X10810Y310D02*
D03*
Y360D02*
D03*
Y410D02*
D03*
Y460D02*
D03*
D111*
X8215Y6090D02*
D03*
Y5970D02*
D03*
X1395Y615D02*
D03*
Y735D02*
D03*
X1490Y615D02*
D03*
Y735D02*
D03*
X1585Y615D02*
D03*
Y735D02*
D03*
X1680Y615D02*
D03*
Y735D02*
D03*
X445Y2035D02*
D03*
Y2155D02*
D03*
X540Y2155D02*
D03*
Y2035D02*
D03*
X700Y2705D02*
D03*
Y2825D02*
D03*
X205Y2435D02*
D03*
Y2555D02*
D03*
X1970Y845D02*
D03*
Y965D02*
D03*
X2820Y520D02*
D03*
Y640D02*
D03*
X3570Y525D02*
D03*
Y645D02*
D03*
X3190Y520D02*
D03*
Y640D02*
D03*
D112*
X9105Y5290D02*
D03*
X9155D02*
D03*
X9205D02*
D03*
X9255D02*
D03*
X9105Y5500D02*
D03*
X9155D02*
D03*
X9205D02*
D03*
X9255D02*
D03*
X8170Y5285D02*
D03*
X8220D02*
D03*
X8270D02*
D03*
X8320D02*
D03*
X8170Y5495D02*
D03*
X8220D02*
D03*
X8270D02*
D03*
X8320D02*
D03*
X4250Y420D02*
D03*
X4200D02*
D03*
X4150D02*
D03*
X4100D02*
D03*
X4250Y210D02*
D03*
X4200D02*
D03*
X4150D02*
D03*
X4100D02*
D03*
X1275Y1440D02*
D03*
X1325D02*
D03*
X1375D02*
D03*
X1425D02*
D03*
X1275Y1650D02*
D03*
X1325D02*
D03*
X1375D02*
D03*
X1425D02*
D03*
D113*
X6074Y4792D02*
D03*
X6055D02*
D03*
X6035D02*
D03*
X6015D02*
D03*
X5996D02*
D03*
X6074Y4618D02*
D03*
X6055D02*
D03*
X6035D02*
D03*
X6015D02*
D03*
X5996D02*
D03*
D114*
X7470Y1850D02*
D03*
X8610D02*
D03*
D115*
X7432Y1790D02*
D03*
X7457D02*
D03*
X7483D02*
D03*
X7508D02*
D03*
X7432Y1910D02*
D03*
X7457D02*
D03*
X7483D02*
D03*
X7508D02*
D03*
X8572Y1790D02*
D03*
X8597D02*
D03*
X8623D02*
D03*
X8648D02*
D03*
X8572Y1910D02*
D03*
X8597D02*
D03*
X8623D02*
D03*
X8648D02*
D03*
D116*
X7964Y828D02*
D03*
Y865D02*
D03*
Y902D02*
D03*
X7856D02*
D03*
Y865D02*
D03*
Y828D02*
D03*
X9049D02*
D03*
Y865D02*
D03*
Y902D02*
D03*
X8941D02*
D03*
Y865D02*
D03*
Y828D02*
D03*
D117*
X8458Y1460D02*
D03*
Y1410D02*
D03*
Y1360D02*
D03*
Y1310D02*
D03*
Y1260D02*
D03*
Y1210D02*
D03*
Y1160D02*
D03*
X8672Y1460D02*
D03*
Y1410D02*
D03*
Y1360D02*
D03*
Y1310D02*
D03*
Y1260D02*
D03*
Y1210D02*
D03*
Y1160D02*
D03*
X7572D02*
D03*
Y1210D02*
D03*
Y1260D02*
D03*
Y1310D02*
D03*
Y1360D02*
D03*
Y1410D02*
D03*
Y1460D02*
D03*
X7358Y1160D02*
D03*
Y1210D02*
D03*
Y1260D02*
D03*
Y1310D02*
D03*
Y1360D02*
D03*
Y1410D02*
D03*
Y1460D02*
D03*
D118*
X9697Y1149D02*
D03*
X9660D02*
D03*
X9623D02*
D03*
Y1041D02*
D03*
X9660D02*
D03*
X9697D02*
D03*
X9932Y1149D02*
D03*
X9895D02*
D03*
X9858D02*
D03*
Y1041D02*
D03*
X9895D02*
D03*
X9932D02*
D03*
X10142Y1149D02*
D03*
X10105D02*
D03*
X10068D02*
D03*
Y1041D02*
D03*
X10105D02*
D03*
X10142D02*
D03*
D119*
X10962Y1370D02*
D03*
X11050D02*
D03*
X10953Y1136D02*
D03*
X11041D02*
D03*
X10947Y890D02*
D03*
X11035D02*
D03*
D120*
X4856Y3573D02*
D03*
Y3647D02*
D03*
X4764Y3610D02*
D03*
D121*
X3834Y4430D02*
D03*
X3736D02*
D03*
D122*
X2645Y1396D02*
D03*
Y1510D02*
D03*
D123*
X2481Y1395D02*
D03*
D124*
X2249Y1304D02*
D03*
Y1395D02*
D03*
Y1486D02*
D03*
D125*
X1368Y1173D02*
D03*
X1388D02*
D03*
X1408D02*
D03*
X1427D02*
D03*
Y1067D02*
D03*
X1408D02*
D03*
X1388D02*
D03*
X1368D02*
D03*
X1964Y754D02*
D03*
X1944D02*
D03*
X1925D02*
D03*
X1905D02*
D03*
X1885D02*
D03*
X1865D02*
D03*
X1846D02*
D03*
X1826D02*
D03*
X575Y1929D02*
D03*
X555D02*
D03*
X535D02*
D03*
X516D02*
D03*
X496D02*
D03*
D126*
X1431Y1100D02*
D03*
X1989Y650D02*
D03*
Y670D02*
D03*
Y690D02*
D03*
Y709D02*
D03*
Y729D02*
D03*
X471Y1904D02*
D03*
Y1884D02*
D03*
Y1865D02*
D03*
Y1845D02*
D03*
Y1825D02*
D03*
Y1805D02*
D03*
Y1786D02*
D03*
Y1766D02*
D03*
D127*
X1415Y1120D02*
D03*
X1380Y1100D02*
D03*
Y1139D02*
D03*
D128*
X1776Y1180D02*
D03*
X1654D02*
D03*
D129*
X2191Y1042D02*
D03*
X2165D02*
D03*
X2139D02*
D03*
X2191Y958D02*
D03*
X2165D02*
D03*
X2139D02*
D03*
X2191Y892D02*
D03*
X2165D02*
D03*
X2139D02*
D03*
X2191Y808D02*
D03*
X2165D02*
D03*
X2139D02*
D03*
D130*
X2150Y620D02*
D03*
X2270D02*
D03*
X2270Y715D02*
D03*
X2150D02*
D03*
X225Y1900D02*
D03*
X345D02*
D03*
X625Y1350D02*
D03*
X505D02*
D03*
X625Y1440D02*
D03*
X505D02*
D03*
X625Y1535D02*
D03*
X505D02*
D03*
X625Y1625D02*
D03*
X505D02*
D03*
X1405Y2075D02*
D03*
X1285D02*
D03*
D131*
X2270Y325D02*
D03*
X2660D02*
D03*
D132*
X3755Y440D02*
D03*
Y160D02*
D03*
X3385Y440D02*
D03*
Y160D02*
D03*
X3005Y440D02*
D03*
Y160D02*
D03*
X445Y2435D02*
D03*
Y2715D02*
D03*
X1405Y2260D02*
D03*
Y2540D02*
D03*
X655Y461D02*
D03*
Y741D02*
D03*
X1135Y460D02*
D03*
Y740D02*
D03*
D133*
X1801Y732D02*
D03*
Y588D02*
D03*
D134*
X1840Y707D02*
D03*
D135*
X1800Y627D02*
D03*
D136*
X1870Y631D02*
D03*
D137*
X1947Y614D02*
D03*
D138*
X1895Y566D02*
D03*
D139*
X1989Y611D02*
D03*
D140*
X1936Y707D02*
D03*
D141*
X1960Y651D02*
D03*
D142*
X3416Y5330D02*
D03*
X3530D02*
D03*
D143*
X248Y2091D02*
D03*
Y2065D02*
D03*
Y2039D02*
D03*
X332Y2091D02*
D03*
Y2065D02*
D03*
Y2039D02*
D03*
X68Y2091D02*
D03*
Y2065D02*
D03*
Y2039D02*
D03*
X152Y2091D02*
D03*
Y2065D02*
D03*
Y2039D02*
D03*
D144*
X880Y2705D02*
D03*
X1160D02*
D03*
X505Y1105D02*
D03*
X785D02*
D03*
D145*
X880Y2045D02*
D03*
Y2435D02*
D03*
D146*
X493Y1741D02*
D03*
X637D02*
D03*
D147*
X518Y1780D02*
D03*
D148*
X598Y1740D02*
D03*
D149*
X594Y1810D02*
D03*
D150*
X611Y1887D02*
D03*
D151*
X659Y1835D02*
D03*
D152*
X614Y1929D02*
D03*
D153*
X518Y1876D02*
D03*
D154*
X574Y1900D02*
D03*
D155*
X6914Y5114D02*
D03*
X6774D02*
D03*
D156*
X166Y4895D02*
D03*
Y4920D02*
D03*
Y4946D02*
D03*
Y4869D02*
D03*
Y4971D02*
D03*
D157*
X61Y4763D02*
D03*
Y5078D02*
D03*
D158*
Y4873D02*
D03*
Y4968D02*
D03*
D159*
X8132Y1160D02*
D03*
Y1260D02*
D03*
X7798D02*
D03*
Y1160D02*
D03*
X9212D02*
D03*
Y1260D02*
D03*
X8878D02*
D03*
Y1160D02*
D03*
D160*
X10579Y5644D02*
D03*
Y5670D02*
D03*
Y5696D02*
D03*
X10501D02*
D03*
Y5644D02*
D03*
D161*
X4079Y3901D02*
D03*
X4060D02*
D03*
X4040D02*
D03*
X4020D02*
D03*
X4001D02*
D03*
X3981D02*
D03*
X3961D02*
D03*
X3942D02*
D03*
X3922D02*
D03*
X3902D02*
D03*
X3883D02*
D03*
X3863D02*
D03*
X3843D02*
D03*
X3824D02*
D03*
X3804D02*
D03*
X3784D02*
D03*
X3765D02*
D03*
X3745D02*
D03*
X3725D02*
D03*
X3705D02*
D03*
X3686D02*
D03*
X3666D02*
D03*
X3646D02*
D03*
X3627D02*
D03*
X3607D02*
D03*
X3587D02*
D03*
X3568D02*
D03*
X3548D02*
D03*
X3528D02*
D03*
X3509D02*
D03*
X3489D02*
D03*
X3469D02*
D03*
X3450D02*
D03*
X3430D02*
D03*
X3410D02*
D03*
X3391D02*
D03*
Y3049D02*
D03*
X3410D02*
D03*
X3430D02*
D03*
X3450D02*
D03*
X3469D02*
D03*
X3489D02*
D03*
X3509D02*
D03*
X3528D02*
D03*
X3548D02*
D03*
X3568D02*
D03*
X3587D02*
D03*
X3607D02*
D03*
X3627D02*
D03*
X3646D02*
D03*
X3666D02*
D03*
X3686D02*
D03*
X3705D02*
D03*
X3725D02*
D03*
X3745D02*
D03*
X3765D02*
D03*
X3784D02*
D03*
X3804D02*
D03*
X3824D02*
D03*
X3843D02*
D03*
X3863D02*
D03*
X3883D02*
D03*
X3902D02*
D03*
X3922D02*
D03*
X3942D02*
D03*
X3961D02*
D03*
X3981D02*
D03*
X4001D02*
D03*
X4020D02*
D03*
X4040D02*
D03*
X4060D02*
D03*
X4079D02*
D03*
D162*
X3309Y3819D02*
D03*
Y3800D02*
D03*
Y3780D02*
D03*
Y3760D02*
D03*
Y3741D02*
D03*
Y3721D02*
D03*
Y3701D02*
D03*
Y3682D02*
D03*
Y3662D02*
D03*
Y3642D02*
D03*
Y3623D02*
D03*
Y3603D02*
D03*
Y3583D02*
D03*
Y3564D02*
D03*
Y3544D02*
D03*
Y3524D02*
D03*
Y3505D02*
D03*
Y3485D02*
D03*
Y3465D02*
D03*
Y3445D02*
D03*
Y3426D02*
D03*
Y3406D02*
D03*
Y3386D02*
D03*
Y3367D02*
D03*
Y3347D02*
D03*
Y3327D02*
D03*
Y3308D02*
D03*
Y3288D02*
D03*
Y3268D02*
D03*
Y3249D02*
D03*
Y3229D02*
D03*
Y3209D02*
D03*
Y3190D02*
D03*
Y3170D02*
D03*
Y3150D02*
D03*
Y3131D02*
D03*
X4161D02*
D03*
Y3150D02*
D03*
Y3170D02*
D03*
Y3190D02*
D03*
Y3209D02*
D03*
Y3229D02*
D03*
Y3249D02*
D03*
Y3268D02*
D03*
Y3288D02*
D03*
Y3308D02*
D03*
Y3327D02*
D03*
Y3347D02*
D03*
Y3367D02*
D03*
Y3386D02*
D03*
Y3406D02*
D03*
Y3426D02*
D03*
Y3445D02*
D03*
Y3465D02*
D03*
Y3485D02*
D03*
Y3505D02*
D03*
Y3524D02*
D03*
Y3544D02*
D03*
Y3564D02*
D03*
Y3583D02*
D03*
Y3603D02*
D03*
Y3623D02*
D03*
Y3642D02*
D03*
Y3662D02*
D03*
Y3682D02*
D03*
Y3701D02*
D03*
Y3721D02*
D03*
Y3741D02*
D03*
Y3760D02*
D03*
Y3780D02*
D03*
Y3800D02*
D03*
Y3819D02*
D03*
D163*
X2600Y2302D02*
D03*
Y2208D02*
D03*
D164*
X2760Y2200D02*
D03*
Y2302D02*
D03*
D165*
X148Y3275D02*
D03*
X282D02*
D03*
Y3125D02*
D03*
X148D02*
D03*
X282Y3175D02*
D03*
Y3225D02*
D03*
X148Y3175D02*
D03*
Y3225D02*
D03*
X282Y3325D02*
D03*
Y3375D02*
D03*
X148Y3325D02*
D03*
Y3375D02*
D03*
X282Y3425D02*
D03*
Y3475D02*
D03*
X148Y3425D02*
D03*
Y3475D02*
D03*
X9283Y4745D02*
D03*
X9417D02*
D03*
Y4595D02*
D03*
X9283D02*
D03*
X9417Y4645D02*
D03*
Y4695D02*
D03*
X9283Y4645D02*
D03*
Y4695D02*
D03*
X9417Y4795D02*
D03*
Y4845D02*
D03*
X9283Y4795D02*
D03*
Y4845D02*
D03*
X9417Y4895D02*
D03*
Y4945D02*
D03*
X9283Y4895D02*
D03*
Y4945D02*
D03*
D166*
X11221Y4875D02*
D03*
X11485D02*
D03*
D167*
X11314Y5101D02*
D03*
X11392D02*
D03*
D168*
X7646Y5577D02*
D03*
Y5841D02*
D03*
D169*
X7420Y5670D02*
D03*
Y5749D02*
D03*
D170*
X6150Y5020D02*
D03*
D171*
X6189Y5046D02*
D03*
Y5020D02*
D03*
Y4994D02*
D03*
X6111D02*
D03*
Y5046D02*
D03*
D172*
X6120Y5020D02*
D03*
D173*
X6264Y7283D02*
D03*
Y7028D02*
D03*
X6087Y7283D02*
D03*
Y7028D02*
D03*
X9800Y5740D02*
D03*
Y5640D02*
D03*
Y5540D02*
D03*
X4745Y7618D02*
D03*
X5045D02*
D03*
X4945D02*
D03*
X4845D02*
D03*
X6087Y7421D02*
D03*
Y7677D02*
D03*
X6264Y7421D02*
D03*
Y7677D02*
D03*
X6087Y6634D02*
D03*
Y6890D02*
D03*
X6264Y6634D02*
D03*
Y6890D02*
D03*
X5713Y7028D02*
D03*
Y7283D02*
D03*
X5890Y7028D02*
D03*
Y7283D02*
D03*
X6480Y7028D02*
D03*
Y7283D02*
D03*
X6657Y7028D02*
D03*
Y7283D02*
D03*
X6752Y6634D02*
D03*
Y6890D02*
D03*
X6929Y6634D02*
D03*
Y6890D02*
D03*
X6453Y4850D02*
D03*
Y4550D02*
D03*
Y4650D02*
D03*
Y4750D02*
D03*
D174*
X11710Y3650D02*
D03*
X11015D02*
D03*
X10630Y2559D02*
D03*
X10630Y4843D02*
D03*
X7087Y4843D02*
D03*
X7087Y2559D02*
D03*
X11654Y7717D02*
D03*
Y157D02*
D03*
X157Y7717D02*
D03*
Y157D02*
D03*
D175*
Y4839D02*
D03*
Y5002D02*
D03*
D176*
X10065Y5400D02*
D03*
Y5500D02*
D03*
Y5300D02*
D03*
D177*
X9320Y5937D02*
D03*
Y5740D02*
D03*
D178*
X11610Y6010D02*
D03*
Y6110D02*
D03*
Y5910D02*
D03*
X11615Y6505D02*
D03*
Y6605D02*
D03*
Y6405D02*
D03*
D179*
X232Y3817D02*
D03*
X228Y4308D02*
D03*
D180*
X182Y3817D02*
D03*
X232Y3867D02*
D03*
X182D02*
D03*
X232Y3917D02*
D03*
X182D02*
D03*
X232Y3967D02*
D03*
X182D02*
D03*
X232Y4017D02*
D03*
X182D02*
D03*
X178Y4308D02*
D03*
X228Y4358D02*
D03*
X178D02*
D03*
X228Y4408D02*
D03*
X178D02*
D03*
X228Y4458D02*
D03*
X178D02*
D03*
X228Y4508D02*
D03*
X178D02*
D03*
D181*
X3705Y7548D02*
D03*
X1422D02*
D03*
Y5619D02*
D03*
X3705D02*
D03*
D182*
X3513Y5669D02*
D03*
D183*
X3413D02*
D03*
X3313D02*
D03*
X3213D02*
D03*
X3113D02*
D03*
X3013D02*
D03*
X3513Y5569D02*
D03*
X3413D02*
D03*
X3313D02*
D03*
X3213D02*
D03*
X3113D02*
D03*
X3013D02*
D03*
X2913Y5669D02*
D03*
Y5569D02*
D03*
X2813Y5669D02*
D03*
X2713D02*
D03*
X2613D02*
D03*
X2513D02*
D03*
X2413D02*
D03*
X2313D02*
D03*
X2813Y5569D02*
D03*
X2713D02*
D03*
X2613D02*
D03*
X2513D02*
D03*
X2413D02*
D03*
X2313D02*
D03*
X2213Y5669D02*
D03*
Y5569D02*
D03*
X2113Y5669D02*
D03*
X2013D02*
D03*
X1913D02*
D03*
X1813D02*
D03*
X1713D02*
D03*
X1613D02*
D03*
X2113Y5569D02*
D03*
X2013D02*
D03*
X1913D02*
D03*
X1813D02*
D03*
X1713D02*
D03*
X1613D02*
D03*
X1473Y5910D02*
D03*
X1373D02*
D03*
X1473Y5810D02*
D03*
X1373D02*
D03*
D184*
X6693Y5269D02*
D03*
X6993D02*
D03*
Y5669D02*
D03*
X6693Y5969D02*
D03*
X6993D02*
D03*
D185*
X182Y515D02*
D03*
Y715D02*
D03*
D186*
X520Y1893D02*
D03*
X2270Y922D02*
D03*
X2089Y921D02*
D03*
X1954Y710D02*
D03*
X1947Y614D02*
D03*
X4390Y3457D02*
D03*
X7792Y1647D02*
D03*
X8086Y1552D02*
D03*
X8064Y1696D02*
D03*
X8077Y1879D02*
D03*
X8085Y1999D02*
D03*
X8078Y2137D02*
D03*
X8023Y2208D02*
D03*
Y1065D02*
D03*
X9080Y360D02*
D03*
X9060Y500D02*
D03*
X9100Y630D02*
D03*
X10080Y180D02*
D03*
X9900Y160D02*
D03*
X9710Y170D02*
D03*
X9560Y230D02*
D03*
X9200Y340D02*
D03*
X9230Y510D02*
D03*
X9260Y690D02*
D03*
X9490Y740D02*
D03*
X9540Y810D02*
D03*
X9510Y1020D02*
D03*
X11450Y950D02*
D03*
X11470Y600D02*
D03*
X11640Y500D02*
D03*
X11400Y230D02*
D03*
X11270Y70D02*
D03*
X10700D02*
D03*
X10580Y110D02*
D03*
X10730Y170D02*
D03*
X10920Y420D02*
D03*
X11060Y610D02*
D03*
X10940Y620D02*
D03*
X10840Y720D02*
D03*
X10780Y610D02*
D03*
X10520Y590D02*
D03*
X10510Y730D02*
D03*
X10430Y880D02*
D03*
X10460Y1090D02*
D03*
X10290Y1250D02*
D03*
X11450Y1180D02*
D03*
X11540Y790D02*
D03*
X11690Y890D02*
D03*
X11510Y1160D02*
D03*
X11680Y1390D02*
D03*
X11460Y1730D02*
D03*
X11640Y1620D02*
D03*
X11450Y1440D02*
D03*
X11100Y1520D02*
D03*
X11020Y1620D02*
D03*
X11040Y1800D02*
D03*
X11000Y1940D02*
D03*
X11080Y2110D02*
D03*
X10710Y1930D02*
D03*
X10780Y1700D02*
D03*
X10650Y1550D02*
D03*
X10480Y1380D02*
D03*
X10400Y1590D02*
D03*
X10310Y1400D02*
D03*
X10190Y1570D02*
D03*
X10390Y1790D02*
D03*
X10550Y1780D02*
D03*
X10520Y2080D02*
D03*
X10270Y2000D02*
D03*
X9910Y2020D02*
D03*
X10080Y1770D02*
D03*
X9870Y1760D02*
D03*
X10100Y2040D02*
D03*
X9630Y2010D02*
D03*
X9710Y1800D02*
D03*
X9460Y1650D02*
D03*
X9380Y1060D02*
D03*
X9450Y1230D02*
D03*
X9320Y1430D02*
D03*
X9270Y1680D02*
D03*
X9330Y2060D02*
D03*
X9580Y1840D02*
D03*
X9450Y1990D02*
D03*
X9380Y1800D02*
D03*
X9160Y1460D02*
D03*
X9150Y1620D02*
D03*
X9160Y1830D02*
D03*
X9150Y2090D02*
D03*
X11610Y2030D02*
D03*
X11530Y1850D02*
D03*
X11410Y2120D02*
D03*
X11710Y2320D02*
D03*
X11140Y2630D02*
D03*
X11510Y2650D02*
D03*
X11190Y2290D02*
D03*
X11130Y2360D02*
D03*
X11020Y2280D02*
D03*
X10780D02*
D03*
X10590Y2320D02*
D03*
X10430Y2290D02*
D03*
X10310Y2320D02*
D03*
X10050Y2260D02*
D03*
X9910Y2330D02*
D03*
X9680Y2310D02*
D03*
X9550Y2470D02*
D03*
X9460Y2300D02*
D03*
X9290Y2470D02*
D03*
X9310Y2300D02*
D03*
X9130Y2700D02*
D03*
X9140Y2360D02*
D03*
X9130Y2520D02*
D03*
X9400Y2510D02*
D03*
X10250Y2650D02*
D03*
X10550Y2830D02*
D03*
X10470Y3020D02*
D03*
X9990Y3230D02*
D03*
X9780Y3030D02*
D03*
X10040Y2940D02*
D03*
X9760Y3510D02*
D03*
X9920Y2630D02*
D03*
X9190Y2960D02*
D03*
X9470Y3150D02*
D03*
X9530Y2860D02*
D03*
X9150Y3150D02*
D03*
X9350Y3510D02*
D03*
X9600Y3320D02*
D03*
X10090Y3470D02*
D03*
X10460Y3440D02*
D03*
X10630Y3270D02*
D03*
X11670Y2830D02*
D03*
X11430Y3070D02*
D03*
X11190Y3240D02*
D03*
X11390Y3530D02*
D03*
X11160Y3970D02*
D03*
X11480Y3960D02*
D03*
X11730Y4360D02*
D03*
X11480Y4260D02*
D03*
X11130Y4360D02*
D03*
X10730Y4230D02*
D03*
X10540Y4000D02*
D03*
X10170Y4120D02*
D03*
X10020Y4020D02*
D03*
X9820Y3750D02*
D03*
X9230Y3830D02*
D03*
X9380Y4030D02*
D03*
X9680Y3900D02*
D03*
X9840Y4200D02*
D03*
X10000Y4430D02*
D03*
X10780Y4640D02*
D03*
X10490Y4390D02*
D03*
X10280Y4790D02*
D03*
X10060Y4830D02*
D03*
X10220Y4490D02*
D03*
X9370Y4380D02*
D03*
X9380Y4170D02*
D03*
X9270D02*
D03*
X9410Y4460D02*
D03*
X9820Y4720D02*
D03*
X9700Y4970D02*
D03*
X10040Y5000D02*
D03*
X10620Y5020D02*
D03*
X10870Y5010D02*
D03*
X11080Y4980D02*
D03*
Y4830D02*
D03*
X11130Y4710D02*
D03*
X11220Y4690D02*
D03*
X11410D02*
D03*
X11640Y4710D02*
D03*
X11630Y4940D02*
D03*
X11640Y5220D02*
D03*
X10620Y5190D02*
D03*
X9400D02*
D03*
X9800D02*
D03*
X10380Y5260D02*
D03*
X10410Y5490D02*
D03*
X10660D02*
D03*
X10760Y5350D02*
D03*
X11040Y5210D02*
D03*
X11700Y5640D02*
D03*
X11500Y5370D02*
D03*
X11300Y5460D02*
D03*
X11210Y5490D02*
D03*
X11030Y5400D02*
D03*
X10980Y5560D02*
D03*
X10960Y5780D02*
D03*
X9580Y5310D02*
D03*
X9520Y5530D02*
D03*
X9650Y5620D02*
D03*
X9910Y5870D02*
D03*
X9680Y5880D02*
D03*
X9660Y5810D02*
D03*
X9480Y5930D02*
D03*
X9460Y5830D02*
D03*
Y5620D02*
D03*
X9310Y5630D02*
D03*
X8520Y5520D02*
D03*
X8540Y5610D02*
D03*
X8800Y5590D02*
D03*
X8860Y5600D02*
D03*
X8820Y5990D02*
D03*
X11420Y6330D02*
D03*
X11300Y6170D02*
D03*
X11010Y6030D02*
D03*
X10920Y5820D02*
D03*
X10530Y6000D02*
D03*
X10240Y5900D02*
D03*
X10180Y6020D02*
D03*
X9790Y6040D02*
D03*
X9410Y6100D02*
D03*
X9340Y6280D02*
D03*
X9730Y6290D02*
D03*
X10110Y6300D02*
D03*
X10420D02*
D03*
X10740Y6320D02*
D03*
X11140Y6420D02*
D03*
X11360Y6700D02*
D03*
X11690Y6890D02*
D03*
X11530Y6930D02*
D03*
X11070Y6720D02*
D03*
Y7090D02*
D03*
X11220Y7030D02*
D03*
X11610Y7280D02*
D03*
X11370Y7380D02*
D03*
X11120Y7670D02*
D03*
X10600Y6870D02*
D03*
X10790Y6780D02*
D03*
X10550Y6620D02*
D03*
X10240Y6630D02*
D03*
X10350Y6770D02*
D03*
X10250Y6960D02*
D03*
X10300Y7730D02*
D03*
X10310Y7460D02*
D03*
X10330Y7190D02*
D03*
X9560Y7260D02*
D03*
X9870Y6700D02*
D03*
X10040Y6910D02*
D03*
X9580Y7010D02*
D03*
X9530Y6670D02*
D03*
X9040Y6660D02*
D03*
X9150Y7030D02*
D03*
X9260Y6780D02*
D03*
X9380Y6890D02*
D03*
X9300Y7180D02*
D03*
X9260Y7470D02*
D03*
X9460Y7640D02*
D03*
X9190Y7690D02*
D03*
X10735Y7190D02*
D03*
Y7230D02*
D03*
Y7270D02*
D03*
Y7310D02*
D03*
X10635Y7190D02*
D03*
Y7230D02*
D03*
Y7270D02*
D03*
Y7310D02*
D03*
Y7350D02*
D03*
X10735D02*
D03*
X10625Y7450D02*
D03*
Y7490D02*
D03*
Y7530D02*
D03*
Y7570D02*
D03*
Y7610D02*
D03*
Y7650D02*
D03*
X10725D02*
D03*
Y7610D02*
D03*
Y7570D02*
D03*
Y7530D02*
D03*
Y7490D02*
D03*
Y7450D02*
D03*
X9980Y7190D02*
D03*
Y7230D02*
D03*
Y7270D02*
D03*
Y7310D02*
D03*
X9880Y7190D02*
D03*
Y7230D02*
D03*
Y7270D02*
D03*
Y7310D02*
D03*
Y7350D02*
D03*
X9980D02*
D03*
X9870Y7450D02*
D03*
Y7490D02*
D03*
Y7530D02*
D03*
Y7570D02*
D03*
Y7610D02*
D03*
Y7650D02*
D03*
X9970D02*
D03*
Y7610D02*
D03*
Y7570D02*
D03*
Y7530D02*
D03*
Y7490D02*
D03*
Y7450D02*
D03*
X8640D02*
D03*
Y7490D02*
D03*
Y7530D02*
D03*
Y7570D02*
D03*
Y7610D02*
D03*
Y7650D02*
D03*
X8540D02*
D03*
Y7610D02*
D03*
Y7570D02*
D03*
Y7530D02*
D03*
Y7490D02*
D03*
Y7450D02*
D03*
X8650Y7350D02*
D03*
X8550D02*
D03*
Y7310D02*
D03*
Y7270D02*
D03*
Y7230D02*
D03*
Y7190D02*
D03*
X8650Y7310D02*
D03*
Y7270D02*
D03*
Y7230D02*
D03*
Y7190D02*
D03*
X6450Y6660D02*
D03*
X6590Y6880D02*
D03*
X8260Y7780D02*
D03*
X8880Y7740D02*
D03*
X8970Y7400D02*
D03*
X8960Y7140D02*
D03*
X8940Y6840D02*
D03*
X8520Y6850D02*
D03*
X8780Y6720D02*
D03*
X8510Y6640D02*
D03*
X8010Y6920D02*
D03*
X8270Y6630D02*
D03*
X7960Y6610D02*
D03*
X7490Y6620D02*
D03*
X7130Y6650D02*
D03*
X7540Y6840D02*
D03*
X8120Y7150D02*
D03*
X8240Y7090D02*
D03*
X7820Y6780D02*
D03*
X7510Y7160D02*
D03*
X6920Y7050D02*
D03*
X7240Y6900D02*
D03*
X6910Y7220D02*
D03*
X7100D02*
D03*
X7860Y7240D02*
D03*
X8250Y7330D02*
D03*
X8070Y7680D02*
D03*
X7570Y7540D02*
D03*
X7270Y7350D02*
D03*
X7070Y7650D02*
D03*
X7850Y7500D02*
D03*
X7400Y7690D02*
D03*
X6850Y7440D02*
D03*
X6530Y7710D02*
D03*
X6450Y7510D02*
D03*
X5880Y7700D02*
D03*
X5850Y7560D02*
D03*
X5990Y7140D02*
D03*
X5890Y6860D02*
D03*
X5880Y6730D02*
D03*
Y6580D02*
D03*
X7590Y6020D02*
D03*
X8320Y6030D02*
D03*
X8410D02*
D03*
X8890Y6130D02*
D03*
X8970Y6250D02*
D03*
X8630Y6260D02*
D03*
X8350D02*
D03*
X8070D02*
D03*
X7840D02*
D03*
X7610Y6180D02*
D03*
X7590Y6260D02*
D03*
X7360Y6180D02*
D03*
X7070D02*
D03*
X6830D02*
D03*
X6420D02*
D03*
X6160Y6130D02*
D03*
X6000Y6200D02*
D03*
X5820Y6130D02*
D03*
X6280Y5660D02*
D03*
X8920Y5340D02*
D03*
X8990Y5470D02*
D03*
X8880D02*
D03*
X8700Y5460D02*
D03*
X8580Y5470D02*
D03*
X8630Y5140D02*
D03*
X8580Y5110D02*
D03*
X8540Y5310D02*
D03*
X8290Y5370D02*
D03*
X8220D02*
D03*
X7980Y5350D02*
D03*
X8110Y5670D02*
D03*
X8050Y5770D02*
D03*
X8130Y5870D02*
D03*
X7870Y5770D02*
D03*
X7800Y5440D02*
D03*
X7440Y5420D02*
D03*
Y5340D02*
D03*
X7620Y5230D02*
D03*
X6330Y4700D02*
D03*
X6300Y4850D02*
D03*
X6210Y4810D02*
D03*
X5700Y4550D02*
D03*
X5940Y4460D02*
D03*
X6200Y4440D02*
D03*
X6260Y4540D02*
D03*
X6750Y5440D02*
D03*
X6820Y5510D02*
D03*
X6730Y5780D02*
D03*
X6410Y5880D02*
D03*
X6080Y5750D02*
D03*
X5910Y5960D02*
D03*
X5900Y5610D02*
D03*
X6220Y5310D02*
D03*
X6490Y5590D02*
D03*
X6050Y5470D02*
D03*
X5880Y5390D02*
D03*
X5920Y5230D02*
D03*
X6350Y5200D02*
D03*
X6510Y5120D02*
D03*
X6600Y4900D02*
D03*
X6640Y4810D02*
D03*
X6610Y4560D02*
D03*
X6900Y4900D02*
D03*
X6860Y4780D02*
D03*
X6910Y4540D02*
D03*
X7240Y4550D02*
D03*
X7460Y4720D02*
D03*
X7310Y5030D02*
D03*
X7480Y5060D02*
D03*
X7630Y4870D02*
D03*
X7820Y5070D02*
D03*
X8010Y4930D02*
D03*
X7740Y4750D02*
D03*
X7670Y4500D02*
D03*
X8020Y4470D02*
D03*
X8030Y4660D02*
D03*
X8180Y4880D02*
D03*
X8310Y4590D02*
D03*
X8770Y4760D02*
D03*
X8640Y4570D02*
D03*
X8550Y4880D02*
D03*
X8800Y4870D02*
D03*
X8890Y4690D02*
D03*
X8810Y4460D02*
D03*
X5910Y4020D02*
D03*
X6871Y3720D02*
D03*
X7230D02*
D03*
X7480Y3740D02*
D03*
X7620Y3730D02*
D03*
X7950Y3790D02*
D03*
X8190Y3740D02*
D03*
X8330Y3800D02*
D03*
X6570Y3960D02*
D03*
X6820Y3930D02*
D03*
X7010Y3990D02*
D03*
X7240Y3960D02*
D03*
X7570Y3950D02*
D03*
X7970Y3980D02*
D03*
X8310Y3970D02*
D03*
X8750Y3950D02*
D03*
X8940Y3940D02*
D03*
X9040Y3830D02*
D03*
X8800Y3770D02*
D03*
X8850Y3360D02*
D03*
X8810Y3590D02*
D03*
X9010Y3580D02*
D03*
X8970Y3420D02*
D03*
X8740Y3230D02*
D03*
X8960Y3120D02*
D03*
X8800Y3010D02*
D03*
X8580Y3440D02*
D03*
X8590Y3180D02*
D03*
X8580Y2970D02*
D03*
X7860Y3400D02*
D03*
X7710Y3610D02*
D03*
X8280Y3550D02*
D03*
X8030Y3430D02*
D03*
X7740Y3270D02*
D03*
X7970Y3140D02*
D03*
X8310Y3320D02*
D03*
X8340Y3130D02*
D03*
X8170Y3050D02*
D03*
X8010Y3020D02*
D03*
X7730Y2990D02*
D03*
X7500Y3070D02*
D03*
X7490Y3360D02*
D03*
Y3580D02*
D03*
X7040Y3370D02*
D03*
X7270Y3460D02*
D03*
X7190Y3540D02*
D03*
X6980Y3520D02*
D03*
X6810Y3450D02*
D03*
X6840Y3210D02*
D03*
X7130Y3200D02*
D03*
X7280Y3080D02*
D03*
X7130Y3010D02*
D03*
X6970Y3050D02*
D03*
X6820Y2970D02*
D03*
X6610Y3030D02*
D03*
X6530Y3180D02*
D03*
X6630Y3300D02*
D03*
X6620Y3530D02*
D03*
X6520Y3520D02*
D03*
X5530Y3240D02*
D03*
X5900Y3340D02*
D03*
X5740Y3390D02*
D03*
X5480Y3420D02*
D03*
X5560Y3630D02*
D03*
X5720Y3600D02*
D03*
X5960Y3680D02*
D03*
X6070Y3560D02*
D03*
X6220Y3470D02*
D03*
X6140Y3270D02*
D03*
X6220Y3190D02*
D03*
X6060Y3010D02*
D03*
X5890Y3070D02*
D03*
X5760Y3050D02*
D03*
X5670Y3130D02*
D03*
X5490Y2990D02*
D03*
X7810Y2660D02*
D03*
X7800Y2820D02*
D03*
Y2730D02*
D03*
X8050Y2670D02*
D03*
X8190Y2700D02*
D03*
X8220Y2810D02*
D03*
X8320Y2680D02*
D03*
X8600Y2700D02*
D03*
X8850D02*
D03*
X8970D02*
D03*
X8860Y2490D02*
D03*
X8970Y2400D02*
D03*
X8900Y2310D02*
D03*
X8950Y2100D02*
D03*
X8820Y2090D02*
D03*
X8910Y1910D02*
D03*
X8980Y1740D02*
D03*
X8910Y1610D02*
D03*
X8980Y1480D02*
D03*
X8870Y1430D02*
D03*
X8990Y1200D02*
D03*
X8690Y2330D02*
D03*
X8700Y2510D02*
D03*
X8590Y2330D02*
D03*
Y2520D02*
D03*
X8230Y2500D02*
D03*
X8310Y2420D02*
D03*
X8220Y2290D02*
D03*
X8050Y2360D02*
D03*
X8060Y2510D02*
D03*
X7770Y2530D02*
D03*
X7870Y2420D02*
D03*
X7760Y2300D02*
D03*
X7590Y2320D02*
D03*
X7600Y2500D02*
D03*
X7470Y2350D02*
D03*
Y2550D02*
D03*
X7350Y2390D02*
D03*
Y2570D02*
D03*
X7070Y2350D02*
D03*
X6880Y2640D02*
D03*
X6770Y2570D02*
D03*
X6880Y2330D02*
D03*
X6590D02*
D03*
X6530Y2370D02*
D03*
X6620Y2500D02*
D03*
X6550Y2630D02*
D03*
X6190Y2520D02*
D03*
X6130Y2320D02*
D03*
X5970Y2630D02*
D03*
X5800Y2400D02*
D03*
X5610Y2580D02*
D03*
X5550Y2380D02*
D03*
X7620Y170D02*
D03*
X7900D02*
D03*
X8330Y180D02*
D03*
X8570Y220D02*
D03*
X8280Y1230D02*
D03*
X8290Y1460D02*
D03*
X8260Y1620D02*
D03*
X8280Y1770D02*
D03*
X8230Y1940D02*
D03*
X8250Y2070D02*
D03*
X7800Y2120D02*
D03*
X7590Y2090D02*
D03*
X7350Y2120D02*
D03*
X7040Y2140D02*
D03*
X6780Y2130D02*
D03*
X6840Y1940D02*
D03*
X7000Y2000D02*
D03*
X7130Y1890D02*
D03*
X7860Y2000D02*
D03*
X7800Y1820D02*
D03*
X7890Y1710D02*
D03*
X7770Y1520D02*
D03*
X7850Y1430D02*
D03*
X7910Y1200D02*
D03*
X7780Y1000D02*
D03*
X8320D02*
D03*
X8510Y850D02*
D03*
X8540Y940D02*
D03*
X8930Y550D02*
D03*
X8920Y580D02*
D03*
Y650D02*
D03*
X8840Y700D02*
D03*
X8889Y691D02*
D03*
X8780Y700D02*
D03*
X8730Y690D02*
D03*
X8690D02*
D03*
X7470Y790D02*
D03*
Y900D02*
D03*
X7510Y1030D02*
D03*
X7270Y1060D02*
D03*
X7070Y980D02*
D03*
X7090Y1350D02*
D03*
X7070Y1540D02*
D03*
X7100Y1660D02*
D03*
X6840Y1070D02*
D03*
X6830Y1620D02*
D03*
Y1340D02*
D03*
X5870Y1850D02*
D03*
X6180Y1920D02*
D03*
X5890Y2070D02*
D03*
X5500Y1970D02*
D03*
X5740Y1630D02*
D03*
X6100Y1510D02*
D03*
X5940Y1410D02*
D03*
X5610Y1390D02*
D03*
X6510Y1840D02*
D03*
X6480Y1550D02*
D03*
Y1290D02*
D03*
X6470Y1030D02*
D03*
X7060Y1060D02*
D03*
X7290Y960D02*
D03*
Y820D02*
D03*
X6880Y530D02*
D03*
X6810Y700D02*
D03*
X6970Y710D02*
D03*
X7060Y490D02*
D03*
X7270Y600D02*
D03*
X7100Y200D02*
D03*
X6810Y210D02*
D03*
X6490Y240D02*
D03*
X6510Y510D02*
D03*
Y660D02*
D03*
X6390Y770D02*
D03*
X6330Y530D02*
D03*
X5950Y470D02*
D03*
X6270Y190D02*
D03*
X6070Y180D02*
D03*
X5384Y316D02*
D03*
X5690Y630D02*
D03*
X5930Y1040D02*
D03*
X5580Y1050D02*
D03*
X5260Y630D02*
D03*
X5580Y850D02*
D03*
X5610Y230D02*
D03*
X5090Y380D02*
D03*
X5000Y890D02*
D03*
X4810Y580D02*
D03*
X4780Y240D02*
D03*
X4230Y770D02*
D03*
X4170Y1160D02*
D03*
X4160Y960D02*
D03*
X4360Y1140D02*
D03*
X4810D02*
D03*
X5360Y1020D02*
D03*
X4950Y1080D02*
D03*
X4710Y810D02*
D03*
X4640Y710D02*
D03*
X4560Y460D02*
D03*
X4280Y700D02*
D03*
X4340Y650D02*
D03*
X4360Y460D02*
D03*
X4140Y140D02*
D03*
X2810Y150D02*
D03*
X3200D02*
D03*
X3570Y160D02*
D03*
X3960Y140D02*
D03*
X3930Y540D02*
D03*
X3720Y640D02*
D03*
X3410Y750D02*
D03*
X3360Y1080D02*
D03*
X3610Y1090D02*
D03*
X3180Y890D02*
D03*
X3080Y1100D02*
D03*
X2790Y1070D02*
D03*
X2990Y670D02*
D03*
X2940Y830D02*
D03*
X2670Y920D02*
D03*
X2570Y730D02*
D03*
X2450Y1010D02*
D03*
X2510Y840D02*
D03*
Y1160D02*
D03*
X2420Y1080D02*
D03*
X2930Y1330D02*
D03*
X3140Y1300D02*
D03*
X3400Y1320D02*
D03*
X3630D02*
D03*
X3810D02*
D03*
X3940D02*
D03*
X4120Y1310D02*
D03*
X4220Y1320D02*
D03*
X4390D02*
D03*
X4630D02*
D03*
X4850Y1330D02*
D03*
X5170Y1320D02*
D03*
X5290Y1350D02*
D03*
X5240Y1840D02*
D03*
X5070Y1830D02*
D03*
X5200Y1530D02*
D03*
X4800Y1460D02*
D03*
X4630Y1590D02*
D03*
X4430Y1480D02*
D03*
X4070Y1500D02*
D03*
X3260Y1550D02*
D03*
X2540Y1520D02*
D03*
X2580Y1580D02*
D03*
X2740Y1570D02*
D03*
X3840Y1550D02*
D03*
X3530Y1450D02*
D03*
X3450Y1540D02*
D03*
X3130Y1470D02*
D03*
X3010Y1550D02*
D03*
X2850Y1480D02*
D03*
X3890Y1760D02*
D03*
X3850Y2000D02*
D03*
X3720Y1860D02*
D03*
X3530Y1990D02*
D03*
X3290Y1770D02*
D03*
X3090Y2030D02*
D03*
X2870Y1780D02*
D03*
X2710Y1910D02*
D03*
X2950Y1890D02*
D03*
X4020Y1840D02*
D03*
X4110Y2180D02*
D03*
X3900Y2170D02*
D03*
X3760Y2200D02*
D03*
X3280Y2100D02*
D03*
X3000Y2230D02*
D03*
X2850Y2070D02*
D03*
X2610Y2100D02*
D03*
X4830Y1720D02*
D03*
X4490Y1930D02*
D03*
X4610Y1810D02*
D03*
X4850Y2050D02*
D03*
X4670Y1970D02*
D03*
X4570Y2120D02*
D03*
X4850Y2220D02*
D03*
X5250Y2020D02*
D03*
X5100Y2130D02*
D03*
X5200Y2320D02*
D03*
X5070Y2410D02*
D03*
X5210Y2550D02*
D03*
X5070Y2630D02*
D03*
X4470D02*
D03*
X4720Y2390D02*
D03*
X4520Y2460D02*
D03*
X4650Y2610D02*
D03*
X5080Y3070D02*
D03*
X5250Y3050D02*
D03*
X5080Y3250D02*
D03*
X5220Y3240D02*
D03*
X5250Y3440D02*
D03*
X5240Y3540D02*
D03*
X5170Y3660D02*
D03*
X5260Y3830D02*
D03*
X4660Y3860D02*
D03*
X4740Y3800D02*
D03*
X4600Y3650D02*
D03*
X4680Y3670D02*
D03*
Y3600D02*
D03*
X4810Y3430D02*
D03*
X4680Y3290D02*
D03*
X4470Y3270D02*
D03*
X4610Y3080D02*
D03*
X4840Y3020D02*
D03*
X4480Y2980D02*
D03*
X4190Y3010D02*
D03*
X4000Y3160D02*
D03*
X3690Y2940D02*
D03*
X3810Y2870D02*
D03*
X3600Y2830D02*
D03*
X4150Y2550D02*
D03*
X4110Y2450D02*
D03*
X3750Y2350D02*
D03*
X3480Y2360D02*
D03*
X3250Y2430D02*
D03*
X3070Y2530D02*
D03*
X3360Y2600D02*
D03*
X2990Y2380D02*
D03*
X3120Y2730D02*
D03*
X2990D02*
D03*
X2730Y2530D02*
D03*
X2600Y2620D02*
D03*
X2700Y2780D02*
D03*
X2610Y2960D02*
D03*
X2800Y3020D02*
D03*
X3080Y2950D02*
D03*
X3250Y2810D02*
D03*
X3460Y3230D02*
D03*
X3740Y3550D02*
D03*
X3620Y3390D02*
D03*
X3510Y3430D02*
D03*
X3580Y3600D02*
D03*
X3870Y3490D02*
D03*
X3810Y3740D02*
D03*
X3680Y3700D02*
D03*
X3470Y3770D02*
D03*
X3120Y3410D02*
D03*
X2970D02*
D03*
X2590Y3240D02*
D03*
X2920Y3690D02*
D03*
X3090Y3620D02*
D03*
X3000Y3510D02*
D03*
X2960Y4180D02*
D03*
X2940Y3860D02*
D03*
X2690Y4000D02*
D03*
X2700Y4130D02*
D03*
X3480Y4040D02*
D03*
X3780Y4090D02*
D03*
X5260D02*
D03*
X5040Y4080D02*
D03*
X4810Y4090D02*
D03*
X4630Y4060D02*
D03*
X4680Y4310D02*
D03*
X5040D02*
D03*
X5280Y4320D02*
D03*
X5440Y4470D02*
D03*
X5500Y4580D02*
D03*
X5180Y4460D02*
D03*
X5060Y4560D02*
D03*
X4910Y4470D02*
D03*
X4690Y4560D02*
D03*
X4620Y4450D02*
D03*
X4420Y4480D02*
D03*
X4440Y4580D02*
D03*
X3520Y4420D02*
D03*
X3510Y4560D02*
D03*
X3390Y4550D02*
D03*
X3410Y4400D02*
D03*
X5140Y4880D02*
D03*
X4980Y4870D02*
D03*
X5080Y5910D02*
D03*
X5280Y5960D02*
D03*
X5470Y5780D02*
D03*
X5320Y5530D02*
D03*
X5150Y5650D02*
D03*
X5180Y5400D02*
D03*
X5470D02*
D03*
X5220Y5220D02*
D03*
X5500Y5170D02*
D03*
X5300Y5060D02*
D03*
X4940D02*
D03*
X4790Y5160D02*
D03*
X4800Y5450D02*
D03*
Y5820D02*
D03*
Y6160D02*
D03*
X4640Y5120D02*
D03*
X4670Y5320D02*
D03*
X4610Y5500D02*
D03*
X4650Y5770D02*
D03*
X4590Y5940D02*
D03*
X4410Y5130D02*
D03*
Y5380D02*
D03*
Y5570D02*
D03*
X4430Y5830D02*
D03*
Y5960D02*
D03*
X4440Y6150D02*
D03*
X4660Y6160D02*
D03*
X5190Y6330D02*
D03*
X5530Y6360D02*
D03*
X5520Y6170D02*
D03*
X5460Y6140D02*
D03*
X5330Y6210D02*
D03*
X5080Y6140D02*
D03*
X4480Y6370D02*
D03*
X4640Y6350D02*
D03*
X5560Y6570D02*
D03*
X5240Y6530D02*
D03*
X5140Y6510D02*
D03*
X4590Y6590D02*
D03*
X4490Y6510D02*
D03*
X4660D02*
D03*
X4790Y6710D02*
D03*
X5610Y6730D02*
D03*
X5370Y6700D02*
D03*
X5090Y6670D02*
D03*
X4620Y6720D02*
D03*
X4450Y6680D02*
D03*
X4400Y6860D02*
D03*
X4620Y6820D02*
D03*
X5280Y6850D02*
D03*
X5440Y6820D02*
D03*
X5460Y6970D02*
D03*
X5070D02*
D03*
X4560Y6980D02*
D03*
X5160Y7300D02*
D03*
X5570Y7550D02*
D03*
X5430Y7800D02*
D03*
X5350Y7560D02*
D03*
X5450Y7240D02*
D03*
X5170Y7140D02*
D03*
X4500Y7200D02*
D03*
X4580Y7300D02*
D03*
X5140Y7510D02*
D03*
X5150Y7540D02*
D03*
X5160Y7600D02*
D03*
X5161Y7634D02*
D03*
X5160Y7670D02*
D03*
X5130Y7710D02*
D03*
X4370Y7720D02*
D03*
X4480Y7650D02*
D03*
X3800Y5160D02*
D03*
X3110Y4450D02*
D03*
Y4610D02*
D03*
X2990Y4660D02*
D03*
X2820Y4370D02*
D03*
X2720Y4590D02*
D03*
X2630Y4390D02*
D03*
X2670Y4810D02*
D03*
X2860Y4840D02*
D03*
X2540Y5110D02*
D03*
X2710Y5150D02*
D03*
X2900Y5120D02*
D03*
X3410Y5110D02*
D03*
X3470D02*
D03*
X3570D02*
D03*
X3610Y5120D02*
D03*
X3620Y5170D02*
D03*
Y5240D02*
D03*
X3660Y5300D02*
D03*
Y5340D02*
D03*
X3670Y5390D02*
D03*
X3860Y5350D02*
D03*
X4070Y5190D02*
D03*
X4060Y5440D02*
D03*
X4040Y5620D02*
D03*
X4080Y5800D02*
D03*
X4040Y5970D02*
D03*
X4100Y6150D02*
D03*
X3900Y6130D02*
D03*
X3160Y5730D02*
D03*
X3120D02*
D03*
X3080D02*
D03*
X1650Y5740D02*
D03*
X1610D02*
D03*
X1570D02*
D03*
X1950Y5490D02*
D03*
X1910D02*
D03*
X1870D02*
D03*
X2100Y5500D02*
D03*
X2650Y5490D02*
D03*
X2610D02*
D03*
X2570D02*
D03*
X3350D02*
D03*
X3310D02*
D03*
X3270D02*
D03*
X2960D02*
D03*
X2920D02*
D03*
X2880D02*
D03*
Y5850D02*
D03*
X3280Y5900D02*
D03*
X3670Y6040D02*
D03*
X3430Y6190D02*
D03*
X3190Y6260D02*
D03*
X2800Y5950D02*
D03*
X2440Y6170D02*
D03*
X2560Y6390D02*
D03*
X2790Y6290D02*
D03*
X3600Y6280D02*
D03*
X3740Y6870D02*
D03*
X3510Y6590D02*
D03*
X3250Y6730D02*
D03*
X2900Y6510D02*
D03*
X2600Y6670D02*
D03*
X2700Y6910D02*
D03*
X3220Y7150D02*
D03*
X3030Y6960D02*
D03*
X2670Y7220D02*
D03*
X3050Y7400D02*
D03*
X3290Y7580D02*
D03*
X3560Y7110D02*
D03*
X4010Y6540D02*
D03*
X4080Y6720D02*
D03*
X3930Y6830D02*
D03*
X4100Y7110D02*
D03*
X3990Y7250D02*
D03*
X4150Y7410D02*
D03*
X3980Y7570D02*
D03*
X4100Y7710D02*
D03*
X3810Y7800D02*
D03*
X3290Y7740D02*
D03*
X2750D02*
D03*
X2450Y7790D02*
D03*
X2670Y7470D02*
D03*
X1840Y6880D02*
D03*
X2180Y7620D02*
D03*
X2380Y7470D02*
D03*
X2030Y7150D02*
D03*
X1840Y7560D02*
D03*
X1650Y7260D02*
D03*
X1480Y6990D02*
D03*
X2300Y6970D02*
D03*
X1900Y6590D02*
D03*
Y6230D02*
D03*
X2460Y5850D02*
D03*
X1970Y5150D02*
D03*
X2380Y5140D02*
D03*
X2250Y5030D02*
D03*
X1970Y5040D02*
D03*
X1550Y6660D02*
D03*
X2210Y6630D02*
D03*
X2110Y6360D02*
D03*
X1490Y6240D02*
D03*
X1630Y6110D02*
D03*
X2110Y5970D02*
D03*
X2070Y5820D02*
D03*
X1670Y5810D02*
D03*
X1520Y5330D02*
D03*
X800Y5540D02*
D03*
X1000Y5700D02*
D03*
X770Y5910D02*
D03*
X1150Y6230D02*
D03*
X820Y6300D02*
D03*
X610Y6140D02*
D03*
X660Y6900D02*
D03*
X1090Y6530D02*
D03*
X670Y6450D02*
D03*
X800Y6650D02*
D03*
X1110Y6850D02*
D03*
X820Y7130D02*
D03*
X1090Y7430D02*
D03*
X1110Y7300D02*
D03*
X590Y7370D02*
D03*
X830Y7640D02*
D03*
X470Y7680D02*
D03*
X310Y7390D02*
D03*
X170Y7150D02*
D03*
X160Y6920D02*
D03*
X330Y6820D02*
D03*
X160Y6590D02*
D03*
X280Y6500D02*
D03*
X150Y6230D02*
D03*
X300Y6130D02*
D03*
X130Y5920D02*
D03*
X260Y5770D02*
D03*
X140Y5610D02*
D03*
X230Y5460D02*
D03*
X960Y5250D02*
D03*
X1050Y5130D02*
D03*
X1560Y5100D02*
D03*
X1240Y5280D02*
D03*
X750Y5110D02*
D03*
X620Y5290D02*
D03*
X350Y5100D02*
D03*
X180Y5310D02*
D03*
X80Y5190D02*
D03*
X280Y4820D02*
D03*
X390Y4870D02*
D03*
X560Y4800D02*
D03*
X770Y4870D02*
D03*
X920Y4800D02*
D03*
X1060Y4870D02*
D03*
X1280Y4810D02*
D03*
X1480Y4870D02*
D03*
X1590Y4790D02*
D03*
X1920Y4800D02*
D03*
X2000Y4880D02*
D03*
X2200Y4860D02*
D03*
X2340Y4800D02*
D03*
X2480Y4870D02*
D03*
X2440Y4390D02*
D03*
X2230Y4440D02*
D03*
X2410Y4520D02*
D03*
X2460Y4610D02*
D03*
X2200Y4630D02*
D03*
X1940Y4560D02*
D03*
X1960Y4350D02*
D03*
X1290Y4310D02*
D03*
X1190Y4490D02*
D03*
X1070Y4620D02*
D03*
X1280Y4610D02*
D03*
X1590Y4600D02*
D03*
X1490Y4350D02*
D03*
X1080Y4330D02*
D03*
X840Y4370D02*
D03*
X900Y4530D02*
D03*
X680Y4390D02*
D03*
X720Y4570D02*
D03*
X520Y4480D02*
D03*
X490Y4610D02*
D03*
X410Y4420D02*
D03*
X260Y4620D02*
D03*
X50Y4450D02*
D03*
X80Y4230D02*
D03*
Y3770D02*
D03*
X310Y3970D02*
D03*
X280Y4120D02*
D03*
X410Y3910D02*
D03*
X470Y4080D02*
D03*
X680Y3790D02*
D03*
X700Y4030D02*
D03*
X860Y4130D02*
D03*
X970Y4020D02*
D03*
X900Y3840D02*
D03*
X1000Y3790D02*
D03*
X1070Y3960D02*
D03*
X1150Y4150D02*
D03*
X1260Y4100D02*
D03*
X1270Y3880D02*
D03*
X1150Y3790D02*
D03*
X1420Y3780D02*
D03*
X1560Y3820D02*
D03*
X1410Y3990D02*
D03*
X1540Y4150D02*
D03*
X1950Y4120D02*
D03*
X2210Y3950D02*
D03*
X2410Y3780D02*
D03*
X2040Y3800D02*
D03*
X2000Y3940D02*
D03*
X2110Y4060D02*
D03*
X2430Y4100D02*
D03*
X2400Y3450D02*
D03*
X2300Y3600D02*
D03*
X2170Y3460D02*
D03*
X2060Y3580D02*
D03*
X1940Y3460D02*
D03*
X750Y3230D02*
D03*
X960Y3290D02*
D03*
X1110Y3220D02*
D03*
X1250Y3280D02*
D03*
X1470Y3240D02*
D03*
X1580Y3300D02*
D03*
X1980Y3260D02*
D03*
X2090Y3200D02*
D03*
X2310Y3220D02*
D03*
X2410Y3190D02*
D03*
X2340Y2800D02*
D03*
X2400Y2950D02*
D03*
X2320Y3090D02*
D03*
X2060D02*
D03*
X1940D02*
D03*
X1990Y2940D02*
D03*
X2110Y2910D02*
D03*
X2010Y2740D02*
D03*
X1200Y950D02*
D03*
X1930Y1900D02*
D03*
Y2180D02*
D03*
X2080Y2420D02*
D03*
X1970Y2550D02*
D03*
X2370Y2540D02*
D03*
X2300Y2420D02*
D03*
X2400Y2340D02*
D03*
X2310Y2090D02*
D03*
X2370Y1920D02*
D03*
X2350Y1730D02*
D03*
X2360Y1570D02*
D03*
X2350Y1480D02*
D03*
X2160D02*
D03*
Y1530D02*
D03*
X2250Y1580D02*
D03*
X2300D02*
D03*
X2020Y1440D02*
D03*
X1660Y1410D02*
D03*
X1710Y1570D02*
D03*
X1840D02*
D03*
X1960Y1560D02*
D03*
X2080Y1800D02*
D03*
X1800Y1870D02*
D03*
X2110Y2080D02*
D03*
X1820Y2090D02*
D03*
X1690Y2130D02*
D03*
X1630Y2020D02*
D03*
X1590Y1760D02*
D03*
X500Y3570D02*
D03*
X1540Y3590D02*
D03*
X1370Y3500D02*
D03*
X1190Y3580D02*
D03*
X910Y3520D02*
D03*
X700Y3590D02*
D03*
X500Y3400D02*
D03*
X270Y3620D02*
D03*
X90Y3650D02*
D03*
X60Y3440D02*
D03*
Y3210D02*
D03*
X50Y3020D02*
D03*
X70Y2780D02*
D03*
X270Y3020D02*
D03*
X460Y2980D02*
D03*
X500Y3120D02*
D03*
X700Y3110D02*
D03*
X990Y3120D02*
D03*
X1210D02*
D03*
X1470Y3110D02*
D03*
X1320Y2960D02*
D03*
X1560Y2900D02*
D03*
X1620Y2420D02*
D03*
Y2470D02*
D03*
Y2520D02*
D03*
Y2580D02*
D03*
Y2640D02*
D03*
X1570Y2670D02*
D03*
X1510D02*
D03*
X1450D02*
D03*
X1380D02*
D03*
X1300D02*
D03*
X1290Y2730D02*
D03*
Y2780D02*
D03*
X1280Y2850D02*
D03*
X1250Y2890D02*
D03*
X1190Y2900D02*
D03*
X1140Y2910D02*
D03*
X900D02*
D03*
X830Y2880D02*
D03*
X780Y2820D02*
D03*
X630D02*
D03*
X570Y2810D02*
D03*
X520Y2840D02*
D03*
X475Y2841D02*
D03*
X430Y2840D02*
D03*
X380Y2830D02*
D03*
X330D02*
D03*
X240D02*
D03*
Y2720D02*
D03*
X100Y2690D02*
D03*
X80Y2570D02*
D03*
X70Y2470D02*
D03*
X60Y2390D02*
D03*
X70Y2300D02*
D03*
X520Y2290D02*
D03*
X450Y2280D02*
D03*
X380Y2290D02*
D03*
X370Y2210D02*
D03*
Y2140D02*
D03*
X610Y1980D02*
D03*
X520Y1860D02*
D03*
X570Y1790D02*
D03*
Y1850D02*
D03*
X610Y1760D02*
D03*
Y1800D02*
D03*
Y1840D02*
D03*
Y1880D02*
D03*
X200Y2000D02*
D03*
X90Y1740D02*
D03*
X60Y1890D02*
D03*
X840Y1710D02*
D03*
X1050Y1740D02*
D03*
X1140Y1850D02*
D03*
X1450Y1740D02*
D03*
X1390D02*
D03*
X1230Y1680D02*
D03*
X1410Y1540D02*
D03*
X1300D02*
D03*
X800Y1430D02*
D03*
X820Y1540D02*
D03*
X1210Y1350D02*
D03*
X1080Y1550D02*
D03*
X930D02*
D03*
X950Y1400D02*
D03*
X1060Y1270D02*
D03*
X790Y900D02*
D03*
X850Y920D02*
D03*
X880Y970D02*
D03*
X910Y1020D02*
D03*
Y1060D02*
D03*
Y1100D02*
D03*
Y1170D02*
D03*
Y1240D02*
D03*
X900Y1290D02*
D03*
X870Y1310D02*
D03*
X800D02*
D03*
X750D02*
D03*
X690D02*
D03*
Y1360D02*
D03*
Y1410D02*
D03*
Y1460D02*
D03*
Y1510D02*
D03*
Y1550D02*
D03*
Y1590D02*
D03*
Y1630D02*
D03*
X200Y1550D02*
D03*
X290Y1690D02*
D03*
X90Y1620D02*
D03*
X130Y1380D02*
D03*
X280Y1460D02*
D03*
X330Y1260D02*
D03*
X190Y1230D02*
D03*
X170Y1090D02*
D03*
X60Y990D02*
D03*
X1690Y160D02*
D03*
X2090Y610D02*
D03*
X2270Y540D02*
D03*
X2450Y600D02*
D03*
X2360Y670D02*
D03*
X2340Y770D02*
D03*
X2040Y1000D02*
D03*
X1430Y960D02*
D03*
X1470Y910D02*
D03*
X1570Y920D02*
D03*
X1620Y1000D02*
D03*
X1750Y990D02*
D03*
X1710Y920D02*
D03*
X1760Y840D02*
D03*
X1890Y620D02*
D03*
X1850D02*
D03*
X1810D02*
D03*
X1920Y710D02*
D03*
X1880Y200D02*
D03*
X1600Y260D02*
D03*
X1710Y340D02*
D03*
X1440Y470D02*
D03*
X1590Y450D02*
D03*
X1470Y370D02*
D03*
X1370Y160D02*
D03*
X1060Y210D02*
D03*
X690Y150D02*
D03*
X620Y260D02*
D03*
X1340Y370D02*
D03*
X1290Y320D02*
D03*
X1200Y310D02*
D03*
X1080D02*
D03*
X930Y320D02*
D03*
X840Y310D02*
D03*
X740Y320D02*
D03*
X670D02*
D03*
X590D02*
D03*
X430Y370D02*
D03*
Y420D02*
D03*
Y470D02*
D03*
Y520D02*
D03*
Y570D02*
D03*
X380Y370D02*
D03*
Y420D02*
D03*
Y470D02*
D03*
Y520D02*
D03*
Y570D02*
D03*
X10130Y6517D02*
D03*
Y7375D02*
D03*
X8819Y6517D02*
D03*
Y7376D02*
D03*
X10907D02*
D03*
Y6516D02*
D03*
X4945Y6389D02*
D03*
X6577Y1772D02*
D03*
X6578Y1498D02*
D03*
Y1234D02*
D03*
X6577Y2208D02*
D03*
Y959D02*
D03*
X7228Y2209D02*
D03*
Y1789D02*
D03*
X8345Y2209D02*
D03*
X8344Y1791D02*
D03*
X9101Y2207D02*
D03*
X9100Y1064D02*
D03*
X11187Y1370D02*
D03*
Y1136D02*
D03*
Y890D02*
D03*
Y154D02*
D03*
Y2210D02*
D03*
X5360Y2208D02*
D03*
X8376Y5302D02*
D03*
X8466Y1549D02*
D03*
X8465Y2012D02*
D03*
X8465Y1089D02*
D03*
X7357Y2009D02*
D03*
X7359Y369D02*
D03*
X7358Y1104D02*
D03*
X8408Y253D02*
D03*
X4039Y417D02*
D03*
X4107Y1252D02*
D03*
X4059Y795D02*
D03*
X4976Y1250D02*
D03*
Y3702D02*
D03*
X6185Y369D02*
D03*
Y1244D02*
D03*
X2484Y1523D02*
D03*
X8014Y828D02*
D03*
X9146Y780D02*
D03*
X10309Y1093D02*
D03*
X11334Y411D02*
D03*
Y2386D02*
D03*
X11256Y2441D02*
D03*
X11291Y2421D02*
D03*
X11290Y459D02*
D03*
X11258Y312D02*
D03*
X7650Y1360D02*
D03*
Y2654D02*
D03*
X7965Y954D02*
D03*
Y2701D02*
D03*
X7674Y1410D02*
D03*
X7673Y2727D02*
D03*
X8133Y1386D02*
D03*
X8132Y2777D02*
D03*
X7287Y5580D02*
D03*
X7288Y6253D02*
D03*
X4003D02*
D03*
X3999Y3264D02*
D03*
X3969Y6278D02*
D03*
X9130Y5960D02*
D03*
Y6332D02*
D03*
X3969Y3236D02*
D03*
X7277Y2812D02*
D03*
X7277Y1212D02*
D03*
X9212Y1350D02*
D03*
Y2760D02*
D03*
X8739Y1410D02*
D03*
X8740Y2796D02*
D03*
X9078Y968D02*
D03*
X9053Y2830D02*
D03*
X8778Y1361D02*
D03*
Y2867D02*
D03*
X8381Y2913D02*
D03*
X8380Y1212D02*
D03*
X3705Y2686D02*
D03*
X3725Y3124D02*
D03*
X8510Y6195D02*
D03*
X8510Y5731D02*
D03*
X4528Y6072D02*
D03*
X4527Y3449D02*
D03*
X4500Y6029D02*
D03*
X4477Y3448D02*
D03*
X9253Y5189D02*
D03*
X9209Y4353D02*
D03*
X4454Y4352D02*
D03*
Y3622D02*
D03*
X9287Y4391D02*
D03*
X9255Y5593D02*
D03*
X4413Y4389D02*
D03*
Y3621D02*
D03*
X4027Y3544D02*
D03*
Y3465D02*
D03*
X10848Y1453D02*
D03*
X10765Y3642D02*
D03*
X10878Y1195D02*
D03*
X10800Y3661D02*
D03*
X10879Y940D02*
D03*
X10838Y3687D02*
D03*
X7395Y1963D02*
D03*
X7415Y3753D02*
D03*
X7508Y2026D02*
D03*
X7539Y3779D02*
D03*
X8649Y2010D02*
D03*
Y3838D02*
D03*
X8525Y1956D02*
D03*
Y3862D02*
D03*
X6452Y3899D02*
D03*
X6452Y1706D02*
D03*
X6421Y1430D02*
D03*
X6420Y3937D02*
D03*
X6385Y1167D02*
D03*
Y3959D02*
D03*
X6352Y893D02*
D03*
Y3987D02*
D03*
X5741Y4972D02*
D03*
Y4675D02*
D03*
X3258Y4664D02*
D03*
X3186Y3173D02*
D03*
X5784Y4876D02*
D03*
X5786Y4650D02*
D03*
X3292Y4648D02*
D03*
X3234Y3185D02*
D03*
X5549Y4696D02*
D03*
X2866Y2647D02*
D03*
X5304Y4874D02*
D03*
X5360Y3376D02*
D03*
Y1395D02*
D03*
X10481Y6446D02*
D03*
X10479Y7364D02*
D03*
X5598Y6370D02*
D03*
Y4831D02*
D03*
X3152D02*
D03*
X3150Y3543D02*
D03*
X9742Y7371D02*
D03*
X9741Y6404D02*
D03*
X5627Y6334D02*
D03*
Y4798D02*
D03*
X3191D02*
D03*
X3192Y3546D02*
D03*
X8367Y7366D02*
D03*
Y6369D02*
D03*
X5660Y6304D02*
D03*
X5658Y4766D02*
D03*
X3230Y4768D02*
D03*
Y3556D02*
D03*
X4350Y7424D02*
D03*
X4350Y4100D02*
D03*
X4315Y6634D02*
D03*
X4313Y4099D02*
D03*
X4274Y7028D02*
D03*
X4275Y4100D02*
D03*
X4241Y6732D02*
D03*
X4237Y4103D02*
D03*
X4194Y6925D02*
D03*
X4196Y4102D02*
D03*
X4154Y6456D02*
D03*
Y4115D02*
D03*
X3686Y4108D02*
D03*
X2852Y4095D02*
D03*
X3575Y3985D02*
D03*
X3558Y4134D02*
D03*
X9031Y4046D02*
D03*
X9032Y4795D02*
D03*
X9063Y4844D02*
D03*
Y4069D02*
D03*
X3534Y4157D02*
D03*
Y3977D02*
D03*
X3411Y4015D02*
D03*
X3398Y4170D02*
D03*
X9512Y4091D02*
D03*
X9496Y4796D02*
D03*
X9528Y4844D02*
D03*
X9545Y4114D02*
D03*
X3372Y4202D02*
D03*
Y3969D02*
D03*
X2026Y845D02*
D03*
X2151Y536D02*
D03*
X2078Y1512D02*
D03*
X2078Y1202D02*
D03*
X2123Y1212D02*
D03*
X2125Y1171D02*
D03*
X616Y2035D02*
D03*
X385Y2053D02*
D03*
X416Y1882D02*
D03*
X3028Y3651D02*
D03*
Y4854D02*
D03*
X4745Y4869D02*
D03*
X4844Y4890D02*
D03*
X3066Y4891D02*
D03*
X3064Y3721D02*
D03*
X2100Y4296D02*
D03*
X3579Y4303D02*
D03*
X3638Y4068D02*
D03*
X3661Y4035D02*
D03*
X3605Y4327D02*
D03*
X2062D02*
D03*
X538Y3819D02*
D03*
X539Y3705D02*
D03*
X538Y4331D02*
D03*
X378Y3126D02*
D03*
X405Y3704D02*
D03*
X2484D02*
D03*
X2484Y2151D02*
D03*
X2484Y2205D02*
D03*
X4311Y3633D02*
D03*
X4334Y857D02*
D03*
X4276Y3641D02*
D03*
X3935Y853D02*
D03*
X4339Y1654D02*
D03*
X4338Y3681D02*
D03*
X2179Y3282D02*
D03*
X2192Y1091D02*
D03*
X2223Y3308D02*
D03*
X2222Y922D02*
D03*
X761Y3367D02*
D03*
X612Y2917D02*
D03*
X199D02*
D03*
Y2134D02*
D03*
X712Y3345D02*
D03*
X580Y2942D02*
D03*
X146D02*
D03*
X27Y2091D02*
D03*
X429Y3052D02*
D03*
X430Y3221D02*
D03*
X2851Y3521D02*
D03*
X9093Y4696D02*
D03*
Y4135D02*
D03*
X492Y4224D02*
D03*
X9134Y4646D02*
D03*
Y4163D02*
D03*
X461Y4246D02*
D03*
X9180Y4746D02*
D03*
Y4192D02*
D03*
X9626Y4694D02*
D03*
X9625Y4223D02*
D03*
X5549Y4224D02*
D03*
X346Y4682D02*
D03*
X9556Y4645D02*
D03*
X9557Y4261D02*
D03*
X5584Y4262D02*
D03*
X5585Y4718D02*
D03*
X318D02*
D03*
X9594Y4744D02*
D03*
X9595Y4297D02*
D03*
X5621D02*
D03*
X5619Y4744D02*
D03*
X3965Y4350D02*
D03*
X3830Y3962D02*
D03*
X3831Y3996D02*
D03*
X3910Y4351D02*
D03*
X3806Y3815D02*
D03*
X3835Y4367D02*
D03*
X3754Y3817D02*
D03*
X3735Y4369D02*
D03*
X3687Y3974D02*
D03*
X3640Y4366D02*
D03*
X4060Y2981D02*
D03*
X4040Y5025D02*
D03*
X3113D02*
D03*
X4102Y2980D02*
D03*
X4084Y5055D02*
D03*
X3214Y5052D02*
D03*
X6054Y4560D02*
D03*
Y4920D02*
D03*
X2867Y2303D02*
D03*
X4906Y2304D02*
D03*
X3548Y3123D02*
D03*
X3903Y3119D02*
D03*
X3915Y2685D02*
D03*
X3546Y2686D02*
D03*
X4906Y3314D02*
D03*
X4905Y3170D02*
D03*
X4906Y3830D02*
D03*
X2866Y3196D02*
D03*
X7962Y5572D02*
D03*
X8456Y5494D02*
D03*
Y5041D02*
D03*
X7962Y5497D02*
D03*
Y5913D02*
D03*
X9973Y5674D02*
D03*
Y5934D02*
D03*
X8211Y6153D02*
D03*
Y5691D02*
D03*
X9178Y5764D02*
D03*
Y6076D02*
D03*
X7105Y910D02*
D03*
X7106Y661D02*
D03*
X7135Y1181D02*
D03*
X7134Y686D02*
D03*
X7167Y1451D02*
D03*
Y711D02*
D03*
X7209Y1723D02*
D03*
X7210Y735D02*
D03*
X7444Y1610D02*
D03*
X7475Y1310D02*
D03*
X7493Y1611D02*
D03*
X7506Y1210D02*
D03*
X7438Y1459D02*
D03*
Y1260D02*
D03*
X7677D02*
D03*
Y755D02*
D03*
X7718Y1159D02*
D03*
X7717Y828D02*
D03*
X8608Y1211D02*
D03*
X8575Y1459D02*
D03*
X8574Y1261D02*
D03*
X8547Y1312D02*
D03*
X8630Y1614D02*
D03*
X8583Y1613D02*
D03*
X8624Y825D02*
D03*
X8807Y1161D02*
D03*
Y828D02*
D03*
X9741Y1040D02*
D03*
X9705Y721D02*
D03*
X9976Y773D02*
D03*
X9976Y1039D02*
D03*
X10186Y722D02*
D03*
Y1039D02*
D03*
X10608Y1298D02*
D03*
X10607Y234D02*
D03*
X10639Y1068D02*
D03*
X10650Y256D02*
D03*
X10668Y820D02*
D03*
X10694Y291D02*
D03*
X3764Y3130D02*
D03*
Y2681D02*
D03*
X2851Y3766D02*
D03*
Y3583D02*
D03*
X1810Y5270D02*
D03*
X1760D02*
D03*
X1710D02*
D03*
Y5320D02*
D03*
X1760D02*
D03*
X1810D02*
D03*
Y5370D02*
D03*
X1760D02*
D03*
X1710D02*
D03*
X1810Y2280D02*
D03*
X1760D02*
D03*
X1710D02*
D03*
Y2320D02*
D03*
X1760D02*
D03*
X1810D02*
D03*
Y2360D02*
D03*
X1760D02*
D03*
X1710D02*
D03*
X4385Y136D02*
D03*
X4425Y756D02*
D03*
X3879Y1038D02*
D03*
X3878Y730D02*
D03*
X2056Y958D02*
D03*
Y755D02*
D03*
X1331Y1347D02*
D03*
X1330Y1172D02*
D03*
X1455Y1025D02*
D03*
X1470Y1350D02*
D03*
M02*
