G04*
G04 #@! TF.GenerationSoftware,Altium Limited,Altium Designer,22.8.2 (66)*
G04*
G04 Layer_Physical_Order=2*
G04 Layer_Color=255*
%FSLAX23Y23*%
%MOIN*%
G70*
G04*
G04 #@! TF.SameCoordinates,DFBDAC77-D3CC-4506-9E17-829F2540CA52*
G04*
G04*
G04 #@! TF.FilePolarity,Positive*
G04*
G01*
G75*
%ADD10C,0.010*%
%ADD18C,0.008*%
%ADD184C,0.075*%
%ADD187C,0.020*%
%ADD188C,0.040*%
%ADD189C,0.015*%
%ADD190C,0.030*%
%ADD191C,0.138*%
%ADD192C,0.028*%
%ADD193C,0.043*%
%ADD194C,0.059*%
%ADD195C,0.071*%
%ADD196R,0.039X0.039*%
%ADD197C,0.039*%
%ADD198C,0.244*%
%ADD199R,0.060X0.060*%
%ADD200C,0.060*%
%ADD201C,0.091*%
%ADD202C,0.024*%
%ADD203C,0.050*%
G36*
X11470Y7800D02*
Y7630D01*
X11560Y7540D01*
X11740D01*
X11794Y7486D01*
Y3670D01*
X11789Y3669D01*
X11788Y3674D01*
X11782Y3688D01*
X11773Y3702D01*
X11762Y3713D01*
X11748Y3722D01*
X11734Y3728D01*
X11718Y3731D01*
X11702D01*
X11686Y3728D01*
X11672Y3722D01*
X11658Y3713D01*
X11647Y3702D01*
X11638Y3688D01*
X11632Y3674D01*
X11629Y3658D01*
Y3642D01*
X11632Y3626D01*
X11638Y3612D01*
X11647Y3598D01*
X11658Y3587D01*
X11672Y3578D01*
X11686Y3572D01*
X11702Y3569D01*
X11718D01*
X11734Y3572D01*
X11748Y3578D01*
X11762Y3587D01*
X11773Y3598D01*
X11782Y3612D01*
X11788Y3626D01*
X11789Y3631D01*
X11794Y3630D01*
Y464D01*
X11710Y380D01*
X11550D01*
X11450Y280D01*
Y60D01*
X11407Y17D01*
X453D01*
X370Y100D01*
Y212D01*
X375Y214D01*
X535Y54D01*
X542Y48D01*
X551Y44D01*
X561Y43D01*
X10106D01*
X10116Y44D01*
X10125Y48D01*
X10132Y54D01*
X10334Y256D01*
X10340Y263D01*
X10344Y272D01*
X10345Y282D01*
Y1093D01*
X10344Y1103D01*
X10340Y1112D01*
X10334Y1119D01*
X10327Y1125D01*
X10318Y1129D01*
X10308Y1130D01*
X10298Y1129D01*
X10289Y1125D01*
X10282Y1119D01*
X10276Y1112D01*
X10272Y1103D01*
X10271Y1093D01*
Y297D01*
X10091Y117D01*
X9166D01*
Y766D01*
X9166Y767D01*
X9170Y775D01*
Y785D01*
X9166Y793D01*
X9159Y800D01*
X9151Y804D01*
X9141D01*
X9133Y800D01*
X9126Y793D01*
X9122Y785D01*
Y775D01*
X9126Y767D01*
X9126Y766D01*
Y117D01*
X8034D01*
Y814D01*
X8034Y814D01*
X8038Y823D01*
Y832D01*
X8034Y841D01*
X8028Y848D01*
X8019Y851D01*
X8009D01*
X8001Y848D01*
X7994Y841D01*
X7990Y832D01*
Y823D01*
X7994Y814D01*
X7994Y814D01*
Y117D01*
X6716D01*
Y5225D01*
X6724Y5230D01*
X6733Y5239D01*
X6739Y5250D01*
X6743Y5263D01*
Y5276D01*
X6739Y5288D01*
X6733Y5300D01*
X6724Y5309D01*
X6712Y5315D01*
X6700Y5319D01*
X6687D01*
X6674Y5315D01*
X6663Y5309D01*
X6654Y5300D01*
X6647Y5288D01*
X6644Y5276D01*
Y5263D01*
X6647Y5250D01*
X6654Y5239D01*
X6663Y5230D01*
X6671Y5225D01*
Y117D01*
X4407D01*
X4405Y122D01*
X4405Y123D01*
X4409Y131D01*
Y132D01*
X4439Y162D01*
X4443Y168D01*
X4445Y176D01*
Y742D01*
X4445Y743D01*
X4449Y751D01*
Y761D01*
X4445Y769D01*
X4438Y776D01*
X4430Y780D01*
X4420D01*
X4412Y776D01*
X4405Y769D01*
X4401Y761D01*
Y751D01*
X4405Y743D01*
X4405Y742D01*
Y184D01*
X4381Y160D01*
X4380D01*
X4372Y156D01*
X4365Y149D01*
X4361Y141D01*
Y131D01*
X4365Y123D01*
X4365Y122D01*
X4363Y117D01*
X576D01*
X312Y381D01*
X305Y387D01*
X296Y391D01*
X286Y392D01*
X115D01*
X107Y400D01*
Y673D01*
X115Y681D01*
X136D01*
X136Y680D01*
X147Y669D01*
X160Y662D01*
X175Y658D01*
X190D01*
X204Y662D01*
X217Y669D01*
X228Y680D01*
X236Y693D01*
X239Y708D01*
Y723D01*
X236Y737D01*
X228Y750D01*
X217Y761D01*
X204Y769D01*
X190Y773D01*
X175D01*
X160Y769D01*
X147Y761D01*
X141Y755D01*
X99D01*
X90Y754D01*
X81Y750D01*
X73Y744D01*
X44Y715D01*
X38Y707D01*
X34Y698D01*
X33Y689D01*
Y424D01*
X28Y422D01*
X20Y430D01*
Y2066D01*
X22Y2067D01*
X32D01*
X40Y2071D01*
X44Y2075D01*
X78D01*
X84Y2076D01*
X90Y2079D01*
X158Y2147D01*
X161Y2153D01*
X162Y2159D01*
Y2925D01*
X166Y2929D01*
X170Y2937D01*
Y2947D01*
X166Y2955D01*
X159Y2962D01*
X151Y2966D01*
X141D01*
X133Y2962D01*
X126Y2955D01*
X122Y2947D01*
Y2937D01*
X126Y2929D01*
X130Y2925D01*
Y2166D01*
X71Y2107D01*
X44D01*
X40Y2111D01*
X32Y2115D01*
X22D01*
X20Y2116D01*
Y7380D01*
X150Y7510D01*
X270D01*
X360Y7600D01*
Y7790D01*
X427Y7857D01*
X11413D01*
X11470Y7800D01*
D02*
G37*
%LPC*%
G36*
X6270Y7725D02*
X6269D01*
Y7682D01*
X6311D01*
Y7683D01*
X6308Y7695D01*
X6302Y7706D01*
X6293Y7715D01*
X6282Y7721D01*
X6270Y7725D01*
D02*
G37*
G36*
X6259D02*
X6258D01*
X6245Y7721D01*
X6235Y7715D01*
X6226Y7706D01*
X6220Y7695D01*
X6216Y7683D01*
Y7682D01*
X6259D01*
Y7725D01*
D02*
G37*
G36*
X4951Y7668D02*
X4938D01*
X4926Y7664D01*
X4915Y7658D01*
X4905Y7648D01*
X4899Y7637D01*
X4897Y7632D01*
X4892D01*
X4891Y7637D01*
X4884Y7648D01*
X4875Y7658D01*
X4864Y7664D01*
X4851Y7668D01*
X4838D01*
X4826Y7664D01*
X4815Y7658D01*
X4805Y7648D01*
X4799Y7637D01*
X4797Y7632D01*
X4792D01*
X4791Y7637D01*
X4784Y7648D01*
X4775Y7658D01*
X4764Y7664D01*
X4751Y7668D01*
X4738D01*
X4726Y7664D01*
X4715Y7658D01*
X4705Y7648D01*
X4699Y7637D01*
X4695Y7625D01*
Y7612D01*
X4699Y7599D01*
X4705Y7588D01*
X4715Y7579D01*
X4726Y7572D01*
X4729Y7571D01*
Y4886D01*
X4725Y4882D01*
X4721Y4874D01*
Y4864D01*
X4725Y4856D01*
X4732Y4849D01*
X4740Y4845D01*
X4750D01*
X4758Y4849D01*
X4765Y4856D01*
X4769Y4864D01*
Y4874D01*
X4765Y4882D01*
X4761Y4886D01*
Y7571D01*
X4764Y7572D01*
X4775Y7579D01*
X4784Y7588D01*
X4791Y7599D01*
X4792Y7604D01*
X4797D01*
X4799Y7599D01*
X4805Y7588D01*
X4815Y7579D01*
X4826Y7572D01*
X4828Y7572D01*
Y4907D01*
X4824Y4903D01*
X4820Y4895D01*
Y4885D01*
X4824Y4877D01*
X4831Y4870D01*
X4839Y4866D01*
X4849D01*
X4857Y4870D01*
X4864Y4877D01*
X4868Y4885D01*
Y4895D01*
X4864Y4903D01*
X4860Y4907D01*
Y7571D01*
X4864Y7572D01*
X4875Y7579D01*
X4884Y7588D01*
X4891Y7599D01*
X4892Y7604D01*
X4897D01*
X4899Y7599D01*
X4905Y7588D01*
X4913Y7581D01*
Y6389D01*
Y5231D01*
X4914Y5223D01*
X4917Y5215D01*
X4922Y5208D01*
X5328Y4803D01*
Y3376D01*
Y2208D01*
Y1395D01*
X5329Y1387D01*
X5332Y1379D01*
X5337Y1372D01*
X5344Y1367D01*
X5352Y1364D01*
X5360Y1363D01*
X5368Y1364D01*
X5376Y1367D01*
X5383Y1372D01*
X5388Y1379D01*
X5391Y1387D01*
X5392Y1395D01*
Y2208D01*
Y3376D01*
Y4816D01*
X5391Y4824D01*
X5388Y4832D01*
X5383Y4839D01*
X4977Y5244D01*
Y6389D01*
Y7581D01*
X4984Y7588D01*
X4991Y7599D01*
X4993Y7608D01*
X4999D01*
X5001Y7600D01*
X5007Y7589D01*
X5016Y7580D01*
X5027Y7574D01*
X5039Y7571D01*
X5040D01*
Y7618D01*
Y7666D01*
X5039D01*
X5027Y7662D01*
X5016Y7656D01*
X5007Y7647D01*
X5001Y7636D01*
X4999Y7628D01*
X4993D01*
X4991Y7637D01*
X4984Y7648D01*
X4975Y7658D01*
X4964Y7664D01*
X4951Y7668D01*
D02*
G37*
G36*
X6311Y7672D02*
X6269D01*
Y7630D01*
X6270D01*
X6282Y7633D01*
X6293Y7639D01*
X6302Y7648D01*
X6308Y7659D01*
X6311Y7671D01*
Y7672D01*
D02*
G37*
G36*
X6259D02*
X6216D01*
Y7671D01*
X6220Y7659D01*
X6226Y7648D01*
X6235Y7639D01*
X6245Y7633D01*
X6258Y7630D01*
X6259D01*
Y7672D01*
D02*
G37*
G36*
X5051Y7666D02*
X5050D01*
Y7623D01*
X5092D01*
Y7624D01*
X5089Y7636D01*
X5083Y7647D01*
X5074Y7656D01*
X5063Y7662D01*
X5051Y7666D01*
D02*
G37*
G36*
X5092Y7613D02*
X5050D01*
Y7571D01*
X5051D01*
X5063Y7574D01*
X5074Y7580D01*
X5083Y7589D01*
X5089Y7600D01*
X5092Y7612D01*
Y7613D01*
D02*
G37*
G36*
X1432Y7680D02*
X1427D01*
Y7553D01*
X1554D01*
Y7559D01*
X1550Y7579D01*
X1544Y7599D01*
X1535Y7618D01*
X1522Y7634D01*
X1508Y7649D01*
X1491Y7661D01*
X1472Y7671D01*
X1453Y7677D01*
X1432Y7680D01*
D02*
G37*
G36*
X3716D02*
X3710D01*
Y7553D01*
X3837D01*
Y7559D01*
X3834Y7579D01*
X3827Y7599D01*
X3818Y7618D01*
X3806Y7634D01*
X3791Y7649D01*
X3774Y7661D01*
X3756Y7671D01*
X3736Y7677D01*
X3716Y7680D01*
D02*
G37*
G36*
X3700D02*
X3695D01*
X3674Y7677D01*
X3654Y7671D01*
X3636Y7661D01*
X3619Y7649D01*
X3604Y7634D01*
X3592Y7618D01*
X3583Y7599D01*
X3576Y7579D01*
X3573Y7559D01*
Y7553D01*
X3700D01*
Y7680D01*
D02*
G37*
G36*
X1417D02*
X1411D01*
X1391Y7677D01*
X1371Y7671D01*
X1352Y7661D01*
X1336Y7649D01*
X1321Y7634D01*
X1309Y7618D01*
X1299Y7599D01*
X1293Y7579D01*
X1290Y7559D01*
Y7553D01*
X1417D01*
Y7680D01*
D02*
G37*
G36*
X6270Y7469D02*
X6269D01*
Y7426D01*
X6311D01*
Y7427D01*
X6308Y7440D01*
X6302Y7450D01*
X6293Y7459D01*
X6282Y7465D01*
X6270Y7469D01*
D02*
G37*
G36*
X6259D02*
X6258D01*
X6245Y7465D01*
X6235Y7459D01*
X6226Y7450D01*
X6220Y7440D01*
X6216Y7427D01*
Y7426D01*
X6259D01*
Y7469D01*
D02*
G37*
G36*
X3837Y7543D02*
X3710D01*
Y7416D01*
X3716D01*
X3736Y7420D01*
X3756Y7426D01*
X3774Y7435D01*
X3791Y7448D01*
X3806Y7462D01*
X3818Y7479D01*
X3827Y7498D01*
X3834Y7518D01*
X3837Y7538D01*
Y7543D01*
D02*
G37*
G36*
X3700D02*
X3573D01*
Y7538D01*
X3576Y7518D01*
X3583Y7498D01*
X3592Y7479D01*
X3604Y7462D01*
X3619Y7448D01*
X3636Y7435D01*
X3654Y7426D01*
X3674Y7420D01*
X3695Y7416D01*
X3700D01*
Y7543D01*
D02*
G37*
G36*
X1554D02*
X1427D01*
Y7416D01*
X1432D01*
X1453Y7420D01*
X1472Y7426D01*
X1491Y7435D01*
X1508Y7448D01*
X1522Y7462D01*
X1535Y7479D01*
X1544Y7498D01*
X1550Y7518D01*
X1554Y7538D01*
Y7543D01*
D02*
G37*
G36*
X1417D02*
X1290D01*
Y7538D01*
X1293Y7518D01*
X1299Y7498D01*
X1309Y7479D01*
X1321Y7462D01*
X1336Y7448D01*
X1352Y7435D01*
X1371Y7426D01*
X1391Y7420D01*
X1411Y7416D01*
X1417D01*
Y7543D01*
D02*
G37*
G36*
X6311Y7416D02*
X6269D01*
Y7374D01*
X6270D01*
X6282Y7377D01*
X6293Y7383D01*
X6302Y7392D01*
X6308Y7403D01*
X6311Y7415D01*
Y7416D01*
D02*
G37*
G36*
X6259D02*
X6216D01*
Y7415D01*
X6220Y7403D01*
X6226Y7392D01*
X6235Y7383D01*
X6245Y7377D01*
X6258Y7374D01*
X6259D01*
Y7416D01*
D02*
G37*
G36*
X6093Y7727D02*
X6080D01*
X6068Y7723D01*
X6056Y7717D01*
X6047Y7707D01*
X6041Y7696D01*
X6037Y7684D01*
Y7671D01*
X6041Y7658D01*
X6047Y7647D01*
X6056Y7638D01*
X6068Y7631D01*
X6070Y7630D01*
Y7468D01*
X6068Y7467D01*
X6056Y7461D01*
X6047Y7452D01*
X6041Y7440D01*
X6037Y7428D01*
Y7415D01*
X6041Y7402D01*
X6047Y7391D01*
X6056Y7382D01*
X6068Y7375D01*
X6080Y7372D01*
X6093D01*
X6106Y7375D01*
X6117Y7382D01*
X6126Y7391D01*
X6133Y7402D01*
X6136Y7415D01*
Y7428D01*
X6133Y7440D01*
X6126Y7452D01*
X6117Y7461D01*
X6106Y7467D01*
X6103Y7468D01*
Y7630D01*
X6106Y7631D01*
X6117Y7638D01*
X6126Y7647D01*
X6133Y7658D01*
X6136Y7671D01*
Y7684D01*
X6133Y7696D01*
X6126Y7707D01*
X6117Y7717D01*
X6106Y7723D01*
X6093Y7727D01*
D02*
G37*
G36*
X6664Y7331D02*
X6662D01*
Y7288D01*
X6705D01*
Y7290D01*
X6702Y7302D01*
X6695Y7313D01*
X6687Y7321D01*
X6676Y7328D01*
X6664Y7331D01*
D02*
G37*
G36*
X6270D02*
X6269D01*
Y7288D01*
X6311D01*
Y7290D01*
X6308Y7302D01*
X6302Y7313D01*
X6293Y7321D01*
X6282Y7328D01*
X6270Y7331D01*
D02*
G37*
G36*
X6652D02*
X6651D01*
X6639Y7328D01*
X6628Y7321D01*
X6620Y7313D01*
X6613Y7302D01*
X6610Y7290D01*
Y7288D01*
X6652D01*
Y7331D01*
D02*
G37*
G36*
X6259D02*
X6258D01*
X6245Y7328D01*
X6235Y7321D01*
X6226Y7313D01*
X6220Y7302D01*
X6216Y7290D01*
Y7288D01*
X6259D01*
Y7331D01*
D02*
G37*
G36*
X5896D02*
X5895D01*
Y7288D01*
X5937D01*
Y7290D01*
X5934Y7302D01*
X5928Y7313D01*
X5919Y7321D01*
X5908Y7328D01*
X5896Y7331D01*
D02*
G37*
G36*
X5885D02*
X5884D01*
X5871Y7328D01*
X5861Y7321D01*
X5852Y7313D01*
X5846Y7302D01*
X5842Y7290D01*
Y7288D01*
X5885D01*
Y7331D01*
D02*
G37*
G36*
X6705Y7278D02*
X6662D01*
Y7236D01*
X6664D01*
X6676Y7239D01*
X6687Y7246D01*
X6695Y7254D01*
X6702Y7265D01*
X6705Y7277D01*
Y7278D01*
D02*
G37*
G36*
X6652D02*
X6610D01*
Y7277D01*
X6613Y7265D01*
X6620Y7254D01*
X6628Y7246D01*
X6639Y7239D01*
X6651Y7236D01*
X6652D01*
Y7278D01*
D02*
G37*
G36*
X6311D02*
X6269D01*
Y7236D01*
X6270D01*
X6282Y7239D01*
X6293Y7246D01*
X6302Y7254D01*
X6308Y7265D01*
X6311Y7277D01*
Y7278D01*
D02*
G37*
G36*
X6259D02*
X6216D01*
Y7277D01*
X6220Y7265D01*
X6226Y7254D01*
X6235Y7246D01*
X6245Y7239D01*
X6258Y7236D01*
X6259D01*
Y7278D01*
D02*
G37*
G36*
X5937Y7278D02*
X5895D01*
Y7236D01*
X5896D01*
X5908Y7239D01*
X5919Y7246D01*
X5928Y7254D01*
X5934Y7265D01*
X5937Y7277D01*
Y7278D01*
D02*
G37*
G36*
X5885D02*
X5842D01*
Y7277D01*
X5846Y7265D01*
X5852Y7254D01*
X5861Y7246D01*
X5871Y7239D01*
X5884Y7236D01*
X5885D01*
Y7278D01*
D02*
G37*
G36*
X6664Y7075D02*
X6662D01*
Y7033D01*
X6705D01*
Y7034D01*
X6702Y7046D01*
X6695Y7057D01*
X6687Y7065D01*
X6676Y7072D01*
X6664Y7075D01*
D02*
G37*
G36*
X6270D02*
X6269D01*
Y7033D01*
X6311D01*
Y7034D01*
X6308Y7046D01*
X6302Y7057D01*
X6293Y7065D01*
X6282Y7072D01*
X6270Y7075D01*
D02*
G37*
G36*
X6652D02*
X6651D01*
X6639Y7072D01*
X6628Y7065D01*
X6620Y7057D01*
X6613Y7046D01*
X6610Y7034D01*
Y7033D01*
X6652D01*
Y7075D01*
D02*
G37*
G36*
X6259D02*
X6258D01*
X6245Y7072D01*
X6235Y7065D01*
X6226Y7057D01*
X6220Y7046D01*
X6216Y7034D01*
Y7033D01*
X6259D01*
Y7075D01*
D02*
G37*
G36*
X5896D02*
X5895D01*
Y7033D01*
X5937D01*
Y7034D01*
X5934Y7046D01*
X5928Y7057D01*
X5919Y7065D01*
X5908Y7072D01*
X5896Y7075D01*
D02*
G37*
G36*
X5885D02*
X5884D01*
X5871Y7072D01*
X5861Y7065D01*
X5852Y7057D01*
X5846Y7046D01*
X5842Y7034D01*
Y7033D01*
X5885D01*
Y7075D01*
D02*
G37*
G36*
X6705Y7023D02*
X6662D01*
Y6980D01*
X6664D01*
X6676Y6983D01*
X6687Y6990D01*
X6695Y6998D01*
X6702Y7009D01*
X6705Y7021D01*
Y7023D01*
D02*
G37*
G36*
X6652D02*
X6610D01*
Y7021D01*
X6613Y7009D01*
X6620Y6998D01*
X6628Y6990D01*
X6639Y6983D01*
X6651Y6980D01*
X6652D01*
Y7023D01*
D02*
G37*
G36*
X6311D02*
X6269D01*
Y6980D01*
X6270D01*
X6282Y6983D01*
X6293Y6990D01*
X6302Y6998D01*
X6308Y7009D01*
X6311Y7021D01*
Y7023D01*
D02*
G37*
G36*
X6259D02*
X6216D01*
Y7021D01*
X6220Y7009D01*
X6226Y6998D01*
X6235Y6990D01*
X6245Y6983D01*
X6258Y6980D01*
X6259D01*
Y7023D01*
D02*
G37*
G36*
X5937Y7023D02*
X5895D01*
Y6980D01*
X5896D01*
X5908Y6983D01*
X5919Y6990D01*
X5928Y6998D01*
X5934Y7009D01*
X5937Y7021D01*
Y7023D01*
D02*
G37*
G36*
X5885D02*
X5842D01*
Y7021D01*
X5846Y7009D01*
X5852Y6998D01*
X5861Y6990D01*
X5871Y6983D01*
X5884Y6980D01*
X5885D01*
Y7023D01*
D02*
G37*
G36*
X6487Y7333D02*
X6474D01*
X6461Y7329D01*
X6450Y7323D01*
X6441Y7314D01*
X6434Y7303D01*
X6431Y7290D01*
Y7277D01*
X6434Y7264D01*
X6441Y7253D01*
X6450Y7244D01*
X6461Y7237D01*
X6464Y7237D01*
Y7074D01*
X6461Y7074D01*
X6450Y7067D01*
X6441Y7058D01*
X6434Y7047D01*
X6431Y7034D01*
Y7021D01*
X6434Y7008D01*
X6441Y6997D01*
X6450Y6988D01*
X6461Y6982D01*
X6474Y6978D01*
X6487D01*
X6499Y6982D01*
X6511Y6988D01*
X6520Y6997D01*
X6526Y7008D01*
X6530Y7021D01*
Y7034D01*
X6526Y7047D01*
X6520Y7058D01*
X6511Y7067D01*
X6499Y7074D01*
X6497Y7074D01*
Y7237D01*
X6499Y7237D01*
X6511Y7244D01*
X6520Y7253D01*
X6526Y7264D01*
X6530Y7277D01*
Y7290D01*
X6526Y7303D01*
X6520Y7314D01*
X6511Y7323D01*
X6499Y7329D01*
X6487Y7333D01*
D02*
G37*
G36*
X6093D02*
X6080D01*
X6068Y7329D01*
X6056Y7323D01*
X6047Y7314D01*
X6041Y7303D01*
X6037Y7290D01*
Y7277D01*
X6041Y7264D01*
X6047Y7253D01*
X6056Y7244D01*
X6068Y7237D01*
X6070Y7237D01*
Y7074D01*
X6068Y7074D01*
X6056Y7067D01*
X6047Y7058D01*
X6041Y7047D01*
X6037Y7034D01*
Y7021D01*
X6041Y7008D01*
X6047Y6997D01*
X6056Y6988D01*
X6068Y6982D01*
X6080Y6978D01*
X6093D01*
X6106Y6982D01*
X6117Y6988D01*
X6126Y6997D01*
X6133Y7008D01*
X6136Y7021D01*
Y7034D01*
X6133Y7047D01*
X6126Y7058D01*
X6117Y7067D01*
X6106Y7074D01*
X6103Y7074D01*
Y7237D01*
X6106Y7237D01*
X6117Y7244D01*
X6126Y7253D01*
X6133Y7264D01*
X6136Y7277D01*
Y7290D01*
X6133Y7303D01*
X6126Y7314D01*
X6117Y7323D01*
X6106Y7329D01*
X6093Y7333D01*
D02*
G37*
G36*
X5719D02*
X5706D01*
X5694Y7329D01*
X5682Y7323D01*
X5673Y7314D01*
X5667Y7303D01*
X5663Y7290D01*
Y7277D01*
X5667Y7264D01*
X5673Y7253D01*
X5682Y7244D01*
X5694Y7237D01*
X5696Y7237D01*
Y7074D01*
X5694Y7074D01*
X5682Y7067D01*
X5673Y7058D01*
X5667Y7047D01*
X5663Y7034D01*
Y7021D01*
X5667Y7008D01*
X5673Y6997D01*
X5682Y6988D01*
X5694Y6982D01*
X5706Y6978D01*
X5719D01*
X5732Y6982D01*
X5743Y6988D01*
X5752Y6997D01*
X5759Y7008D01*
X5762Y7021D01*
Y7034D01*
X5759Y7047D01*
X5752Y7058D01*
X5743Y7067D01*
X5732Y7074D01*
X5729Y7074D01*
Y7237D01*
X5732Y7237D01*
X5743Y7244D01*
X5752Y7253D01*
X5759Y7264D01*
X5762Y7277D01*
Y7290D01*
X5759Y7303D01*
X5752Y7314D01*
X5743Y7323D01*
X5732Y7329D01*
X5719Y7333D01*
D02*
G37*
G36*
X6935Y6937D02*
X6934D01*
Y6895D01*
X6977D01*
Y6896D01*
X6973Y6908D01*
X6967Y6919D01*
X6958Y6928D01*
X6947Y6934D01*
X6935Y6937D01*
D02*
G37*
G36*
X6270D02*
X6269D01*
Y6895D01*
X6311D01*
Y6896D01*
X6308Y6908D01*
X6302Y6919D01*
X6293Y6928D01*
X6282Y6934D01*
X6270Y6937D01*
D02*
G37*
G36*
X6924D02*
X6923D01*
X6911Y6934D01*
X6900Y6928D01*
X6891Y6919D01*
X6885Y6908D01*
X6882Y6896D01*
Y6895D01*
X6924D01*
Y6937D01*
D02*
G37*
G36*
X6259D02*
X6258D01*
X6245Y6934D01*
X6235Y6928D01*
X6226Y6919D01*
X6220Y6908D01*
X6216Y6896D01*
Y6895D01*
X6259D01*
Y6937D01*
D02*
G37*
G36*
X6977Y6885D02*
X6934D01*
Y6842D01*
X6935D01*
X6947Y6846D01*
X6958Y6852D01*
X6967Y6861D01*
X6973Y6871D01*
X6977Y6884D01*
Y6885D01*
D02*
G37*
G36*
X6924D02*
X6882D01*
Y6884D01*
X6885Y6871D01*
X6891Y6861D01*
X6900Y6852D01*
X6911Y6846D01*
X6923Y6842D01*
X6924D01*
Y6885D01*
D02*
G37*
G36*
X6311D02*
X6269D01*
Y6842D01*
X6270D01*
X6282Y6846D01*
X6293Y6852D01*
X6302Y6861D01*
X6308Y6871D01*
X6311Y6884D01*
Y6885D01*
D02*
G37*
G36*
X6259D02*
X6216D01*
Y6884D01*
X6220Y6871D01*
X6226Y6861D01*
X6235Y6852D01*
X6245Y6846D01*
X6258Y6842D01*
X6259D01*
Y6885D01*
D02*
G37*
G36*
X4354Y7447D02*
X4345D01*
X4336Y7444D01*
X4330Y7437D01*
X4326Y7428D01*
Y7419D01*
X4330Y7410D01*
X4333Y7406D01*
Y6656D01*
X4329Y6654D01*
X4328Y6654D01*
X4320Y6658D01*
X4310D01*
X4302Y6654D01*
X4296Y6649D01*
X4291Y6651D01*
Y7012D01*
X4294Y7015D01*
X4298Y7023D01*
Y7033D01*
X4294Y7041D01*
X4287Y7048D01*
X4279Y7052D01*
X4269D01*
X4261Y7048D01*
X4254Y7041D01*
X4250Y7033D01*
Y7023D01*
X4254Y7015D01*
X4259Y7010D01*
Y6755D01*
X4254Y6753D01*
X4246Y6756D01*
X4236D01*
X4228Y6752D01*
X4221Y6745D01*
X4217Y6737D01*
X4212Y6737D01*
Y6910D01*
X4214Y6912D01*
X4218Y6920D01*
Y6930D01*
X4214Y6938D01*
X4207Y6945D01*
X4199Y6949D01*
X4189D01*
X4181Y6945D01*
X4174Y6938D01*
X4170Y6930D01*
Y6920D01*
X4174Y6912D01*
X4180Y6906D01*
Y6469D01*
X4175Y6468D01*
X4174Y6469D01*
X4167Y6476D01*
X4159Y6480D01*
X4149D01*
X4141Y6476D01*
X4134Y6469D01*
X4130Y6461D01*
Y6451D01*
X4134Y6443D01*
X4138Y6439D01*
Y4132D01*
X4134Y4128D01*
X4130Y4120D01*
Y4110D01*
X4134Y4102D01*
X4141Y4095D01*
X4149Y4091D01*
X4159D01*
X4167Y4095D01*
X4168Y4095D01*
X4174Y4094D01*
X4176Y4089D01*
X4183Y4082D01*
X4191Y4078D01*
X4201D01*
X4209Y4082D01*
X4214Y4086D01*
X4216Y4089D01*
X4220Y4086D01*
X4224Y4083D01*
X4232Y4079D01*
X4242D01*
X4250Y4083D01*
X4254Y4087D01*
X4255Y4087D01*
X4262Y4080D01*
X4270Y4076D01*
X4280D01*
X4288Y4080D01*
X4293Y4085D01*
X4300Y4079D01*
X4308Y4075D01*
X4318D01*
X4326Y4079D01*
X4332Y4084D01*
X4337Y4080D01*
X4345Y4076D01*
X4355D01*
X4363Y4080D01*
X4370Y4087D01*
X4374Y4095D01*
Y4105D01*
X4370Y4113D01*
X4366Y4118D01*
Y7406D01*
X4370Y7410D01*
X4374Y7419D01*
Y7428D01*
X4370Y7437D01*
X4363Y7444D01*
X4354Y7447D01*
D02*
G37*
G36*
X6935Y6681D02*
X6934D01*
Y6639D01*
X6977D01*
Y6640D01*
X6973Y6652D01*
X6967Y6663D01*
X6958Y6672D01*
X6947Y6678D01*
X6935Y6681D01*
D02*
G37*
G36*
X6270D02*
X6269D01*
Y6639D01*
X6311D01*
Y6640D01*
X6308Y6652D01*
X6302Y6663D01*
X6293Y6672D01*
X6282Y6678D01*
X6270Y6681D01*
D02*
G37*
G36*
X6924D02*
X6923D01*
X6911Y6678D01*
X6900Y6672D01*
X6891Y6663D01*
X6885Y6652D01*
X6882Y6640D01*
Y6639D01*
X6924D01*
Y6681D01*
D02*
G37*
G36*
X6259D02*
X6258D01*
X6245Y6678D01*
X6235Y6672D01*
X6226Y6663D01*
X6220Y6652D01*
X6216Y6640D01*
Y6639D01*
X6259D01*
Y6681D01*
D02*
G37*
G36*
X6977Y6629D02*
X6934D01*
Y6586D01*
X6935D01*
X6947Y6590D01*
X6958Y6596D01*
X6967Y6605D01*
X6973Y6616D01*
X6977Y6628D01*
Y6629D01*
D02*
G37*
G36*
X6924D02*
X6882D01*
Y6628D01*
X6885Y6616D01*
X6891Y6605D01*
X6900Y6596D01*
X6911Y6590D01*
X6923Y6586D01*
X6924D01*
Y6629D01*
D02*
G37*
G36*
X6311D02*
X6269D01*
Y6586D01*
X6270D01*
X6282Y6590D01*
X6293Y6596D01*
X6302Y6605D01*
X6308Y6616D01*
X6311Y6628D01*
Y6629D01*
D02*
G37*
G36*
X6259D02*
X6216D01*
Y6628D01*
X6220Y6616D01*
X6226Y6605D01*
X6235Y6596D01*
X6245Y6590D01*
X6258Y6586D01*
X6259D01*
Y6629D01*
D02*
G37*
G36*
X6758Y6939D02*
X6745D01*
X6733Y6936D01*
X6722Y6929D01*
X6712Y6920D01*
X6706Y6909D01*
X6703Y6896D01*
Y6883D01*
X6706Y6871D01*
X6712Y6859D01*
X6722Y6850D01*
X6733Y6844D01*
X6736Y6843D01*
Y6681D01*
X6733Y6680D01*
X6722Y6673D01*
X6712Y6664D01*
X6706Y6653D01*
X6703Y6640D01*
Y6627D01*
X6706Y6615D01*
X6712Y6604D01*
X6722Y6594D01*
X6733Y6588D01*
X6745Y6584D01*
X6758D01*
X6771Y6588D01*
X6782Y6594D01*
X6792Y6604D01*
X6798Y6615D01*
X6801Y6627D01*
Y6640D01*
X6798Y6653D01*
X6792Y6664D01*
X6782Y6673D01*
X6771Y6680D01*
X6768Y6681D01*
Y6843D01*
X6771Y6844D01*
X6782Y6850D01*
X6792Y6859D01*
X6798Y6871D01*
X6801Y6883D01*
Y6896D01*
X6798Y6909D01*
X6792Y6920D01*
X6782Y6929D01*
X6771Y6936D01*
X6758Y6939D01*
D02*
G37*
G36*
X6093D02*
X6080D01*
X6068Y6936D01*
X6056Y6929D01*
X6047Y6920D01*
X6041Y6909D01*
X6037Y6896D01*
Y6883D01*
X6041Y6871D01*
X6047Y6859D01*
X6056Y6850D01*
X6068Y6844D01*
X6070Y6843D01*
Y6681D01*
X6068Y6680D01*
X6056Y6673D01*
X6047Y6664D01*
X6041Y6653D01*
X6037Y6640D01*
Y6627D01*
X6041Y6615D01*
X6047Y6604D01*
X6056Y6594D01*
X6068Y6588D01*
X6080Y6584D01*
X6093D01*
X6106Y6588D01*
X6117Y6594D01*
X6126Y6604D01*
X6133Y6615D01*
X6136Y6627D01*
Y6640D01*
X6133Y6653D01*
X6126Y6664D01*
X6117Y6673D01*
X6106Y6680D01*
X6103Y6681D01*
Y6843D01*
X6106Y6844D01*
X6117Y6850D01*
X6126Y6859D01*
X6133Y6871D01*
X6136Y6883D01*
Y6896D01*
X6133Y6909D01*
X6126Y6920D01*
X6117Y6929D01*
X6106Y6936D01*
X6093Y6939D01*
D02*
G37*
G36*
X11621Y6652D02*
X11609D01*
X11597Y6649D01*
X11586Y6643D01*
X11577Y6634D01*
X11571Y6623D01*
X11568Y6611D01*
Y6599D01*
X11570Y6588D01*
X11501Y6519D01*
X11497Y6513D01*
X11495Y6505D01*
Y6105D01*
X11497Y6097D01*
X11501Y6091D01*
X11565Y6027D01*
X11563Y6016D01*
Y6004D01*
X11566Y5992D01*
X11572Y5981D01*
X11581Y5972D01*
X11592Y5966D01*
X11604Y5963D01*
X11616D01*
X11628Y5966D01*
X11639Y5972D01*
X11648Y5981D01*
X11654Y5992D01*
X11657Y6004D01*
Y6016D01*
X11654Y6028D01*
X11648Y6039D01*
X11639Y6048D01*
X11628Y6054D01*
X11616Y6057D01*
X11604D01*
X11593Y6055D01*
X11583Y6065D01*
X11586Y6069D01*
X11592Y6066D01*
X11604Y6063D01*
X11616D01*
X11628Y6066D01*
X11639Y6072D01*
X11648Y6081D01*
X11654Y6092D01*
X11657Y6104D01*
Y6116D01*
X11654Y6128D01*
X11648Y6139D01*
X11639Y6148D01*
X11628Y6154D01*
X11616Y6157D01*
X11604D01*
X11592Y6154D01*
X11581Y6148D01*
X11572Y6139D01*
X11566Y6128D01*
X11563Y6116D01*
Y6104D01*
X11566Y6092D01*
X11569Y6086D01*
X11565Y6083D01*
X11535Y6113D01*
Y6497D01*
X11570Y6532D01*
X11574Y6529D01*
X11571Y6523D01*
X11568Y6511D01*
Y6499D01*
X11571Y6487D01*
X11577Y6476D01*
X11586Y6467D01*
X11597Y6461D01*
X11609Y6458D01*
X11621D01*
X11633Y6461D01*
X11644Y6467D01*
X11653Y6476D01*
X11654Y6478D01*
X11660D01*
X11694Y6444D01*
Y6070D01*
X11694Y6070D01*
X11693Y6063D01*
Y5965D01*
X11665Y5937D01*
X11649D01*
X11648Y5939D01*
X11639Y5948D01*
X11628Y5954D01*
X11616Y5957D01*
X11604D01*
X11592Y5954D01*
X11581Y5948D01*
X11572Y5939D01*
X11566Y5928D01*
X11563Y5916D01*
Y5904D01*
X11566Y5892D01*
X11572Y5881D01*
X11581Y5872D01*
X11592Y5866D01*
X11604Y5863D01*
X11616D01*
X11628Y5866D01*
X11639Y5872D01*
X11648Y5881D01*
X11649Y5883D01*
X11676D01*
X11683Y5884D01*
X11690Y5886D01*
X11696Y5891D01*
X11739Y5934D01*
X11744Y5940D01*
X11746Y5947D01*
X11747Y5954D01*
Y6057D01*
X11747Y6057D01*
X11748Y6064D01*
Y6455D01*
X11747Y6462D01*
X11745Y6469D01*
X11740Y6474D01*
X11690Y6524D01*
X11685Y6529D01*
X11678Y6531D01*
X11671Y6532D01*
X11654D01*
X11653Y6534D01*
X11644Y6543D01*
X11633Y6549D01*
X11621Y6552D01*
X11609D01*
X11597Y6549D01*
X11591Y6546D01*
X11588Y6550D01*
X11598Y6560D01*
X11609Y6558D01*
X11621D01*
X11633Y6561D01*
X11644Y6567D01*
X11653Y6576D01*
X11659Y6587D01*
X11662Y6599D01*
Y6611D01*
X11659Y6623D01*
X11653Y6634D01*
X11644Y6643D01*
X11633Y6649D01*
X11621Y6652D01*
D02*
G37*
G36*
X10135Y7399D02*
X10125D01*
X10117Y7395D01*
X10110Y7388D01*
X10106Y7380D01*
Y7370D01*
X10110Y7362D01*
X10110Y7361D01*
Y6531D01*
X10110Y6530D01*
X10106Y6522D01*
Y6512D01*
X10110Y6504D01*
X10117Y6497D01*
X10125Y6493D01*
X10135D01*
X10143Y6497D01*
X10150Y6504D01*
X10154Y6512D01*
Y6522D01*
X10150Y6530D01*
X10150Y6531D01*
Y7361D01*
X10150Y7362D01*
X10154Y7370D01*
Y7380D01*
X10150Y7388D01*
X10143Y7395D01*
X10135Y7399D01*
D02*
G37*
G36*
X8824Y7400D02*
X8814D01*
X8806Y7396D01*
X8799Y7389D01*
X8795Y7381D01*
Y7371D01*
X8799Y7363D01*
X8799Y7362D01*
Y6531D01*
X8799Y6530D01*
X8795Y6522D01*
Y6512D01*
X8799Y6504D01*
X8806Y6497D01*
X8814Y6493D01*
X8824D01*
X8832Y6497D01*
X8839Y6504D01*
X8843Y6512D01*
Y6522D01*
X8839Y6530D01*
X8839Y6531D01*
Y7362D01*
X8839Y7363D01*
X8843Y7371D01*
Y7381D01*
X8839Y7389D01*
X8832Y7396D01*
X8824Y7400D01*
D02*
G37*
G36*
X10912D02*
X10902D01*
X10894Y7396D01*
X10887Y7389D01*
X10883Y7381D01*
Y7371D01*
X10887Y7363D01*
X10887Y7362D01*
Y6530D01*
X10887Y6529D01*
X10883Y6521D01*
Y6511D01*
X10887Y6503D01*
X10894Y6496D01*
X10902Y6492D01*
X10912D01*
X10920Y6496D01*
X10927Y6503D01*
X10931Y6511D01*
Y6521D01*
X10927Y6529D01*
X10927Y6530D01*
Y7362D01*
X10927Y7363D01*
X10931Y7371D01*
Y7381D01*
X10927Y7389D01*
X10920Y7396D01*
X10912Y7400D01*
D02*
G37*
G36*
X10484Y7388D02*
X10474D01*
X10466Y7384D01*
X10459Y7377D01*
X10455Y7369D01*
Y7359D01*
X10459Y7351D01*
X10464Y7345D01*
Y6462D01*
X10460Y6459D01*
X10457Y6450D01*
Y6441D01*
X10460Y6432D01*
X10467Y6425D01*
X10476Y6422D01*
X10485D01*
X10494Y6425D01*
X10501Y6432D01*
X10504Y6441D01*
Y6450D01*
X10501Y6459D01*
X10496Y6463D01*
Y7348D01*
X10499Y7351D01*
X10503Y7359D01*
Y7369D01*
X10499Y7377D01*
X10492Y7384D01*
X10484Y7388D01*
D02*
G37*
G36*
X11621Y6450D02*
X11620D01*
Y6410D01*
X11660D01*
Y6411D01*
X11657Y6423D01*
X11651Y6433D01*
X11643Y6441D01*
X11633Y6447D01*
X11621Y6450D01*
D02*
G37*
G36*
X11610D02*
X11609D01*
X11597Y6447D01*
X11587Y6441D01*
X11579Y6433D01*
X11573Y6423D01*
X11570Y6411D01*
Y6410D01*
X11610D01*
Y6450D01*
D02*
G37*
G36*
X9747Y7395D02*
X9737D01*
X9729Y7391D01*
X9722Y7384D01*
X9718Y7376D01*
Y7366D01*
X9722Y7358D01*
X9725Y7355D01*
Y6421D01*
X9721Y6417D01*
X9717Y6409D01*
Y6399D01*
X9721Y6391D01*
X9728Y6384D01*
X9736Y6380D01*
X9746D01*
X9754Y6384D01*
X9761Y6391D01*
X9765Y6399D01*
Y6409D01*
X9761Y6417D01*
X9757Y6421D01*
Y7353D01*
X9762Y7358D01*
X9766Y7366D01*
Y7376D01*
X9762Y7384D01*
X9755Y7391D01*
X9747Y7395D01*
D02*
G37*
G36*
X11660Y6400D02*
X11620D01*
Y6360D01*
X11621D01*
X11633Y6363D01*
X11643Y6369D01*
X11651Y6377D01*
X11657Y6387D01*
X11660Y6399D01*
Y6400D01*
D02*
G37*
G36*
X11610D02*
X11570D01*
Y6399D01*
X11573Y6387D01*
X11579Y6377D01*
X11587Y6369D01*
X11597Y6363D01*
X11609Y6360D01*
X11610D01*
Y6400D01*
D02*
G37*
G36*
X8372Y7390D02*
X8362D01*
X8354Y7386D01*
X8347Y7379D01*
X8343Y7371D01*
Y7361D01*
X8347Y7353D01*
X8351Y7349D01*
Y6386D01*
X8347Y6382D01*
X8343Y6374D01*
Y6364D01*
X8347Y6356D01*
X8354Y6349D01*
X8362Y6345D01*
X8372D01*
X8380Y6349D01*
X8387Y6356D01*
X8391Y6364D01*
Y6374D01*
X8387Y6382D01*
X8383Y6386D01*
Y7349D01*
X8387Y7353D01*
X8391Y7361D01*
Y7371D01*
X8387Y7379D01*
X8380Y7386D01*
X8372Y7390D01*
D02*
G37*
G36*
X4533Y6096D02*
X4523D01*
X4515Y6092D01*
X4508Y6085D01*
X4504Y6077D01*
Y6067D01*
X4508Y6059D01*
X4510Y6056D01*
X4508Y6052D01*
X4508Y6052D01*
X4505Y6053D01*
X4495D01*
X4487Y6049D01*
X4480Y6042D01*
X4476Y6034D01*
Y6024D01*
X4480Y6016D01*
X4486Y6010D01*
Y3480D01*
X4478Y3472D01*
X4472D01*
X4464Y3468D01*
X4457Y3461D01*
X4453Y3453D01*
Y3443D01*
X4457Y3435D01*
X4464Y3428D01*
X4472Y3424D01*
X4482D01*
X4490Y3428D01*
X4497Y3435D01*
X4500Y3440D01*
X4505D01*
X4507Y3436D01*
X4514Y3429D01*
X4522Y3425D01*
X4532D01*
X4540Y3429D01*
X4547Y3436D01*
X4551Y3444D01*
Y3454D01*
X4547Y3462D01*
X4543Y3466D01*
Y3581D01*
X4544Y3586D01*
Y6055D01*
X4548Y6059D01*
X4552Y6067D01*
Y6077D01*
X4548Y6085D01*
X4541Y6092D01*
X4533Y6096D01*
D02*
G37*
G36*
X7000Y6019D02*
X6987D01*
X6974Y6015D01*
X6963Y6009D01*
X6954Y6000D01*
X6947Y5988D01*
X6944Y5976D01*
Y5963D01*
X6947Y5950D01*
X6954Y5939D01*
X6963Y5930D01*
X6974Y5923D01*
X6987Y5920D01*
X7000D01*
X7012Y5923D01*
X7024Y5930D01*
X7033Y5939D01*
X7039Y5950D01*
X7043Y5963D01*
Y5976D01*
X7039Y5988D01*
X7033Y6000D01*
X7024Y6009D01*
X7012Y6015D01*
X7000Y6019D01*
D02*
G37*
G36*
X6700D02*
X6687D01*
X6674Y6015D01*
X6663Y6009D01*
X6654Y6000D01*
X6647Y5988D01*
X6644Y5976D01*
Y5963D01*
X6647Y5950D01*
X6654Y5939D01*
X6663Y5930D01*
X6674Y5923D01*
X6687Y5920D01*
X6700D01*
X6712Y5923D01*
X6724Y5930D01*
X6733Y5939D01*
X6739Y5950D01*
X6743Y5963D01*
Y5976D01*
X6739Y5988D01*
X6733Y6000D01*
X6724Y6009D01*
X6712Y6015D01*
X6700Y6019D01*
D02*
G37*
G36*
X9325Y5978D02*
X9315D01*
X9304Y5976D01*
X9295Y5970D01*
X9287Y5962D01*
X9281Y5953D01*
X9278Y5942D01*
Y5931D01*
X9281Y5921D01*
X9287Y5911D01*
X9295Y5904D01*
X9304Y5898D01*
X9315Y5895D01*
X9325D01*
X9336Y5898D01*
X9345Y5904D01*
X9353Y5911D01*
X9359Y5921D01*
X9362Y5931D01*
Y5942D01*
X9359Y5953D01*
X9353Y5962D01*
X9345Y5970D01*
X9336Y5976D01*
X9325Y5978D01*
D02*
G37*
G36*
X1479Y5952D02*
X1468D01*
X1457Y5949D01*
X1447Y5944D01*
X1440Y5936D01*
X1434Y5927D01*
X1431Y5916D01*
Y5905D01*
X1434Y5894D01*
X1440Y5885D01*
X1447Y5877D01*
X1457Y5871D01*
X1468Y5868D01*
X1479D01*
X1489Y5871D01*
X1499Y5877D01*
X1507Y5885D01*
X1512Y5894D01*
X1515Y5905D01*
Y5916D01*
X1512Y5927D01*
X1507Y5936D01*
X1499Y5944D01*
X1489Y5949D01*
X1479Y5952D01*
D02*
G37*
G36*
X1379D02*
X1368D01*
X1357Y5949D01*
X1347Y5944D01*
X1340Y5936D01*
X1334Y5927D01*
X1331Y5916D01*
Y5905D01*
X1334Y5894D01*
X1340Y5885D01*
X1347Y5877D01*
X1357Y5871D01*
X1368Y5868D01*
X1379D01*
X1389Y5871D01*
X1399Y5877D01*
X1407Y5885D01*
X1412Y5894D01*
X1415Y5905D01*
Y5916D01*
X1412Y5927D01*
X1407Y5936D01*
X1399Y5944D01*
X1389Y5949D01*
X1379Y5952D01*
D02*
G37*
G36*
X1479Y5852D02*
X1468D01*
X1457Y5849D01*
X1447Y5844D01*
X1440Y5836D01*
X1434Y5827D01*
X1431Y5816D01*
Y5805D01*
X1434Y5794D01*
X1440Y5785D01*
X1447Y5777D01*
X1457Y5771D01*
X1468Y5768D01*
X1479D01*
X1489Y5771D01*
X1499Y5777D01*
X1507Y5785D01*
X1512Y5794D01*
X1515Y5805D01*
Y5816D01*
X1512Y5827D01*
X1507Y5836D01*
X1499Y5844D01*
X1489Y5849D01*
X1479Y5852D01*
D02*
G37*
G36*
X1379D02*
X1368D01*
X1357Y5849D01*
X1347Y5844D01*
X1340Y5836D01*
X1334Y5827D01*
X1331Y5816D01*
Y5805D01*
X1334Y5794D01*
X1340Y5785D01*
X1347Y5777D01*
X1357Y5771D01*
X1368Y5768D01*
X1379D01*
X1389Y5771D01*
X1399Y5777D01*
X1407Y5785D01*
X1412Y5794D01*
X1415Y5805D01*
Y5816D01*
X1412Y5827D01*
X1407Y5836D01*
X1399Y5844D01*
X1389Y5849D01*
X1379Y5852D01*
D02*
G37*
G36*
X9135Y6356D02*
X9125D01*
X9117Y6352D01*
X9110Y6345D01*
X9106Y6337D01*
Y6327D01*
X9110Y6319D01*
X9114Y6315D01*
Y5977D01*
X9110Y5973D01*
X9106Y5965D01*
Y5955D01*
X9110Y5947D01*
X9117Y5940D01*
X9125Y5936D01*
X9135D01*
X9143Y5940D01*
X9146Y5942D01*
X9151Y5940D01*
Y5764D01*
X9152Y5757D01*
X9154Y5750D01*
X9159Y5745D01*
X9164Y5740D01*
X9171Y5738D01*
X9178Y5737D01*
X9185Y5738D01*
X9192Y5740D01*
X9197Y5745D01*
X9202Y5750D01*
X9204Y5757D01*
X9205Y5764D01*
Y6076D01*
X9204Y6083D01*
X9202Y6090D01*
X9197Y6095D01*
X9192Y6100D01*
X9185Y6102D01*
X9178Y6103D01*
X9171Y6102D01*
X9164Y6100D01*
X9159Y6095D01*
X9154Y6090D01*
X9152Y6083D01*
X9151Y6080D01*
X9146Y6080D01*
Y6315D01*
X9150Y6319D01*
X9154Y6327D01*
Y6337D01*
X9150Y6345D01*
X9143Y6352D01*
X9135Y6356D01*
D02*
G37*
G36*
X8515Y6219D02*
X8505D01*
X8497Y6215D01*
X8490Y6208D01*
X8486Y6200D01*
Y6190D01*
X8490Y6181D01*
X8493Y6178D01*
Y5748D01*
X8490Y5744D01*
X8486Y5736D01*
Y5726D01*
X8490Y5718D01*
X8497Y5711D01*
X8505Y5707D01*
X8515D01*
X8523Y5711D01*
X8530Y5718D01*
X8534Y5726D01*
Y5736D01*
X8530Y5744D01*
X8526Y5749D01*
Y6177D01*
X8530Y6181D01*
X8534Y6190D01*
Y6200D01*
X8530Y6208D01*
X8524Y6215D01*
X8515Y6219D01*
D02*
G37*
G36*
X9325Y5782D02*
X9315D01*
X9304Y5779D01*
X9295Y5773D01*
X9287Y5765D01*
X9281Y5756D01*
X9278Y5745D01*
Y5735D01*
X9281Y5724D01*
X9287Y5715D01*
X9295Y5707D01*
X9304Y5701D01*
X9315Y5698D01*
X9325D01*
X9336Y5701D01*
X9345Y5707D01*
X9353Y5715D01*
X9359Y5724D01*
X9362Y5735D01*
Y5745D01*
X9359Y5756D01*
X9353Y5765D01*
X9345Y5773D01*
X9336Y5779D01*
X9325Y5782D01*
D02*
G37*
G36*
X1619Y5709D02*
X1618D01*
Y5674D01*
X1653D01*
Y5675D01*
X1651Y5685D01*
X1645Y5694D01*
X1638Y5701D01*
X1629Y5707D01*
X1619Y5709D01*
D02*
G37*
G36*
X3119D02*
X3118D01*
Y5674D01*
X3153D01*
Y5675D01*
X3151Y5685D01*
X3145Y5694D01*
X3138Y5701D01*
X3129Y5707D01*
X3119Y5709D01*
D02*
G37*
G36*
X2319D02*
X2318D01*
Y5674D01*
X2353D01*
Y5675D01*
X2351Y5685D01*
X2345Y5694D01*
X2338Y5701D01*
X2329Y5707D01*
X2319Y5709D01*
D02*
G37*
G36*
X3108D02*
X3108D01*
X3098Y5707D01*
X3089Y5701D01*
X3081Y5694D01*
X3076Y5685D01*
X3073Y5675D01*
Y5674D01*
X3108D01*
Y5709D01*
D02*
G37*
G36*
X2308D02*
X2308D01*
X2298Y5707D01*
X2289Y5701D01*
X2281Y5694D01*
X2276Y5685D01*
X2273Y5675D01*
Y5674D01*
X2308D01*
Y5709D01*
D02*
G37*
G36*
X1608D02*
X1608D01*
X1598Y5707D01*
X1589Y5701D01*
X1581Y5694D01*
X1576Y5685D01*
X1573Y5675D01*
Y5674D01*
X1608D01*
Y5709D01*
D02*
G37*
G36*
X8216Y6177D02*
X8206D01*
X8198Y6173D01*
X8191Y6166D01*
X8187Y6158D01*
Y6148D01*
X8191Y6140D01*
X8191Y6139D01*
Y5705D01*
X8191Y5704D01*
X8187Y5696D01*
Y5686D01*
X8191Y5678D01*
X8198Y5671D01*
X8206Y5667D01*
X8216D01*
X8224Y5671D01*
X8231Y5678D01*
X8235Y5686D01*
Y5696D01*
X8231Y5704D01*
X8231Y5705D01*
Y6139D01*
X8231Y6140D01*
X8235Y6148D01*
Y6158D01*
X8231Y6166D01*
X8224Y6173D01*
X8216Y6177D01*
D02*
G37*
G36*
X3153Y5664D02*
X3118D01*
Y5629D01*
X3119D01*
X3129Y5632D01*
X3138Y5637D01*
X3145Y5645D01*
X3151Y5654D01*
X3153Y5664D01*
Y5664D01*
D02*
G37*
G36*
X3108D02*
X3073D01*
Y5664D01*
X3076Y5654D01*
X3081Y5645D01*
X3089Y5637D01*
X3098Y5632D01*
X3108Y5629D01*
X3108D01*
Y5664D01*
D02*
G37*
G36*
X2353D02*
X2318D01*
Y5629D01*
X2319D01*
X2329Y5632D01*
X2338Y5637D01*
X2345Y5645D01*
X2351Y5654D01*
X2353Y5664D01*
Y5664D01*
D02*
G37*
G36*
X2308D02*
X2273D01*
Y5664D01*
X2276Y5654D01*
X2281Y5645D01*
X2289Y5637D01*
X2298Y5632D01*
X2308Y5629D01*
X2308D01*
Y5664D01*
D02*
G37*
G36*
X1653D02*
X1618D01*
Y5629D01*
X1619D01*
X1629Y5632D01*
X1638Y5637D01*
X1645Y5645D01*
X1651Y5654D01*
X1653Y5664D01*
Y5664D01*
D02*
G37*
G36*
X1608D02*
X1573D01*
Y5664D01*
X1576Y5654D01*
X1581Y5645D01*
X1589Y5637D01*
X1598Y5632D01*
X1608Y5629D01*
X1608D01*
Y5664D01*
D02*
G37*
G36*
X3555Y5711D02*
X3471D01*
Y5627D01*
X3555D01*
Y5711D01*
D02*
G37*
G36*
X3419D02*
X3408D01*
X3397Y5708D01*
X3388Y5703D01*
X3380Y5695D01*
X3374Y5686D01*
X3371Y5675D01*
Y5664D01*
X3374Y5653D01*
X3380Y5644D01*
X3388Y5636D01*
X3397Y5630D01*
X3408Y5627D01*
X3419D01*
X3430Y5630D01*
X3439Y5636D01*
X3447Y5644D01*
X3453Y5653D01*
X3455Y5664D01*
Y5675D01*
X3453Y5686D01*
X3447Y5695D01*
X3439Y5703D01*
X3430Y5708D01*
X3419Y5711D01*
D02*
G37*
G36*
X3319D02*
X3308D01*
X3297Y5708D01*
X3288Y5703D01*
X3280Y5695D01*
X3274Y5686D01*
X3271Y5675D01*
Y5664D01*
X3274Y5653D01*
X3280Y5644D01*
X3288Y5636D01*
X3297Y5630D01*
X3308Y5627D01*
X3319D01*
X3330Y5630D01*
X3339Y5636D01*
X3347Y5644D01*
X3353Y5653D01*
X3355Y5664D01*
Y5675D01*
X3353Y5686D01*
X3347Y5695D01*
X3339Y5703D01*
X3330Y5708D01*
X3319Y5711D01*
D02*
G37*
G36*
X3219D02*
X3208D01*
X3197Y5708D01*
X3188Y5703D01*
X3180Y5695D01*
X3174Y5686D01*
X3171Y5675D01*
Y5664D01*
X3174Y5653D01*
X3180Y5644D01*
X3188Y5636D01*
X3197Y5630D01*
X3208Y5627D01*
X3219D01*
X3230Y5630D01*
X3239Y5636D01*
X3247Y5644D01*
X3253Y5653D01*
X3255Y5664D01*
Y5675D01*
X3253Y5686D01*
X3247Y5695D01*
X3239Y5703D01*
X3230Y5708D01*
X3219Y5711D01*
D02*
G37*
G36*
X3019D02*
X3008D01*
X2997Y5708D01*
X2988Y5703D01*
X2980Y5695D01*
X2974Y5686D01*
X2971Y5675D01*
Y5664D01*
X2974Y5653D01*
X2980Y5644D01*
X2988Y5636D01*
X2997Y5630D01*
X3008Y5627D01*
X3019D01*
X3030Y5630D01*
X3039Y5636D01*
X3047Y5644D01*
X3053Y5653D01*
X3055Y5664D01*
Y5675D01*
X3053Y5686D01*
X3047Y5695D01*
X3039Y5703D01*
X3030Y5708D01*
X3019Y5711D01*
D02*
G37*
G36*
X2919D02*
X2908D01*
X2897Y5708D01*
X2888Y5703D01*
X2880Y5695D01*
X2874Y5686D01*
X2871Y5675D01*
Y5664D01*
X2874Y5653D01*
X2880Y5644D01*
X2888Y5636D01*
X2897Y5630D01*
X2908Y5627D01*
X2919D01*
X2930Y5630D01*
X2939Y5636D01*
X2947Y5644D01*
X2953Y5653D01*
X2955Y5664D01*
Y5675D01*
X2953Y5686D01*
X2947Y5695D01*
X2939Y5703D01*
X2930Y5708D01*
X2919Y5711D01*
D02*
G37*
G36*
X2819D02*
X2808D01*
X2797Y5708D01*
X2788Y5703D01*
X2780Y5695D01*
X2774Y5686D01*
X2771Y5675D01*
Y5664D01*
X2774Y5653D01*
X2780Y5644D01*
X2788Y5636D01*
X2797Y5630D01*
X2808Y5627D01*
X2819D01*
X2830Y5630D01*
X2839Y5636D01*
X2847Y5644D01*
X2853Y5653D01*
X2855Y5664D01*
Y5675D01*
X2853Y5686D01*
X2847Y5695D01*
X2839Y5703D01*
X2830Y5708D01*
X2819Y5711D01*
D02*
G37*
G36*
X2719D02*
X2708D01*
X2697Y5708D01*
X2688Y5703D01*
X2680Y5695D01*
X2674Y5686D01*
X2671Y5675D01*
Y5664D01*
X2674Y5653D01*
X2680Y5644D01*
X2688Y5636D01*
X2697Y5630D01*
X2708Y5627D01*
X2719D01*
X2730Y5630D01*
X2739Y5636D01*
X2747Y5644D01*
X2753Y5653D01*
X2755Y5664D01*
Y5675D01*
X2753Y5686D01*
X2747Y5695D01*
X2739Y5703D01*
X2730Y5708D01*
X2719Y5711D01*
D02*
G37*
G36*
X2619D02*
X2608D01*
X2597Y5708D01*
X2588Y5703D01*
X2580Y5695D01*
X2574Y5686D01*
X2571Y5675D01*
Y5664D01*
X2574Y5653D01*
X2580Y5644D01*
X2588Y5636D01*
X2597Y5630D01*
X2608Y5627D01*
X2619D01*
X2630Y5630D01*
X2639Y5636D01*
X2647Y5644D01*
X2653Y5653D01*
X2655Y5664D01*
Y5675D01*
X2653Y5686D01*
X2647Y5695D01*
X2639Y5703D01*
X2630Y5708D01*
X2619Y5711D01*
D02*
G37*
G36*
X2519D02*
X2508D01*
X2497Y5708D01*
X2488Y5703D01*
X2480Y5695D01*
X2474Y5686D01*
X2471Y5675D01*
Y5664D01*
X2474Y5653D01*
X2480Y5644D01*
X2488Y5636D01*
X2497Y5630D01*
X2508Y5627D01*
X2519D01*
X2530Y5630D01*
X2539Y5636D01*
X2547Y5644D01*
X2553Y5653D01*
X2555Y5664D01*
Y5675D01*
X2553Y5686D01*
X2547Y5695D01*
X2539Y5703D01*
X2530Y5708D01*
X2519Y5711D01*
D02*
G37*
G36*
X2419D02*
X2408D01*
X2397Y5708D01*
X2388Y5703D01*
X2380Y5695D01*
X2374Y5686D01*
X2371Y5675D01*
Y5664D01*
X2374Y5653D01*
X2380Y5644D01*
X2388Y5636D01*
X2397Y5630D01*
X2408Y5627D01*
X2419D01*
X2430Y5630D01*
X2439Y5636D01*
X2447Y5644D01*
X2453Y5653D01*
X2455Y5664D01*
Y5675D01*
X2453Y5686D01*
X2447Y5695D01*
X2439Y5703D01*
X2430Y5708D01*
X2419Y5711D01*
D02*
G37*
G36*
X2219D02*
X2208D01*
X2197Y5708D01*
X2188Y5703D01*
X2180Y5695D01*
X2174Y5686D01*
X2171Y5675D01*
Y5664D01*
X2174Y5653D01*
X2180Y5644D01*
X2188Y5636D01*
X2197Y5630D01*
X2208Y5627D01*
X2219D01*
X2230Y5630D01*
X2239Y5636D01*
X2247Y5644D01*
X2253Y5653D01*
X2255Y5664D01*
Y5675D01*
X2253Y5686D01*
X2247Y5695D01*
X2239Y5703D01*
X2230Y5708D01*
X2219Y5711D01*
D02*
G37*
G36*
X1919D02*
X1908D01*
X1897Y5708D01*
X1888Y5703D01*
X1880Y5695D01*
X1874Y5686D01*
X1871Y5675D01*
Y5664D01*
X1874Y5653D01*
X1880Y5644D01*
X1888Y5636D01*
X1897Y5630D01*
X1908Y5627D01*
X1919D01*
X1930Y5630D01*
X1939Y5636D01*
X1947Y5644D01*
X1953Y5653D01*
X1955Y5664D01*
Y5675D01*
X1953Y5686D01*
X1947Y5695D01*
X1939Y5703D01*
X1930Y5708D01*
X1919Y5711D01*
D02*
G37*
G36*
X1819D02*
X1808D01*
X1797Y5708D01*
X1788Y5703D01*
X1780Y5695D01*
X1774Y5686D01*
X1771Y5675D01*
Y5664D01*
X1774Y5653D01*
X1780Y5644D01*
X1788Y5636D01*
X1797Y5630D01*
X1808Y5627D01*
X1819D01*
X1830Y5630D01*
X1839Y5636D01*
X1847Y5644D01*
X1853Y5653D01*
X1855Y5664D01*
Y5675D01*
X1853Y5686D01*
X1847Y5695D01*
X1839Y5703D01*
X1830Y5708D01*
X1819Y5711D01*
D02*
G37*
G36*
X1719D02*
X1708D01*
X1697Y5708D01*
X1688Y5703D01*
X1680Y5695D01*
X1674Y5686D01*
X1671Y5675D01*
Y5664D01*
X1674Y5653D01*
X1680Y5644D01*
X1688Y5636D01*
X1697Y5630D01*
X1708Y5627D01*
X1719D01*
X1730Y5630D01*
X1739Y5636D01*
X1747Y5644D01*
X1753Y5653D01*
X1755Y5664D01*
Y5675D01*
X1753Y5686D01*
X1747Y5695D01*
X1739Y5703D01*
X1730Y5708D01*
X1719Y5711D01*
D02*
G37*
G36*
X1432Y5751D02*
X1427D01*
Y5624D01*
X1554D01*
Y5630D01*
X1550Y5650D01*
X1544Y5670D01*
X1535Y5688D01*
X1522Y5705D01*
X1508Y5720D01*
X1491Y5732D01*
X1472Y5742D01*
X1453Y5748D01*
X1432Y5751D01*
D02*
G37*
G36*
X3716D02*
X3710D01*
Y5624D01*
X3837D01*
Y5630D01*
X3834Y5650D01*
X3827Y5670D01*
X3818Y5688D01*
X3806Y5705D01*
X3791Y5720D01*
X3774Y5732D01*
X3756Y5742D01*
X3736Y5748D01*
X3716Y5751D01*
D02*
G37*
G36*
X3700D02*
X3695D01*
X3674Y5748D01*
X3654Y5742D01*
X3636Y5732D01*
X3619Y5720D01*
X3604Y5705D01*
X3592Y5688D01*
X3583Y5670D01*
X3576Y5650D01*
X3573Y5630D01*
Y5624D01*
X3700D01*
Y5751D01*
D02*
G37*
G36*
X1417D02*
X1411D01*
X1391Y5748D01*
X1371Y5742D01*
X1352Y5732D01*
X1336Y5720D01*
X1321Y5705D01*
X1309Y5688D01*
X1299Y5670D01*
X1293Y5650D01*
X1290Y5630D01*
Y5624D01*
X1417D01*
Y5751D01*
D02*
G37*
G36*
X7000Y5719D02*
X6987D01*
X6974Y5715D01*
X6963Y5709D01*
X6954Y5700D01*
X6947Y5688D01*
X6944Y5676D01*
Y5663D01*
X6947Y5650D01*
X6954Y5639D01*
X6963Y5630D01*
X6974Y5623D01*
X6987Y5620D01*
X7000D01*
X7012Y5623D01*
X7024Y5630D01*
X7033Y5639D01*
X7039Y5650D01*
X7043Y5663D01*
Y5676D01*
X7039Y5688D01*
X7033Y5700D01*
X7024Y5709D01*
X7012Y5715D01*
X7000Y5719D01*
D02*
G37*
G36*
X2119Y5711D02*
X2108D01*
X2097Y5708D01*
X2088Y5703D01*
X2080Y5695D01*
X2074Y5686D01*
X2071Y5675D01*
Y5664D01*
X2074Y5653D01*
X2080Y5644D01*
X2088Y5636D01*
X2097Y5630D01*
X2108Y5627D01*
X2119D01*
X2129Y5630D01*
X2146Y5614D01*
Y5601D01*
X2141Y5599D01*
X2138Y5601D01*
X2129Y5607D01*
X2119Y5609D01*
X2118D01*
Y5569D01*
Y5529D01*
X2119D01*
X2129Y5532D01*
X2138Y5537D01*
X2141Y5540D01*
X2146Y5538D01*
Y5523D01*
X2088Y5466D01*
X2085Y5460D01*
X2084Y5457D01*
X2079Y5458D01*
Y5540D01*
X2084Y5542D01*
X2089Y5537D01*
X2098Y5532D01*
X2108Y5529D01*
X2108D01*
Y5569D01*
Y5609D01*
X2108D01*
X2098Y5607D01*
X2089Y5601D01*
X2084Y5597D01*
X2079Y5599D01*
Y5620D01*
X2078Y5626D01*
X2075Y5631D01*
X2053Y5653D01*
X2055Y5664D01*
Y5675D01*
X2053Y5686D01*
X2047Y5695D01*
X2039Y5703D01*
X2030Y5708D01*
X2019Y5711D01*
X2008D01*
X1997Y5708D01*
X1988Y5703D01*
X1980Y5695D01*
X1974Y5686D01*
X1971Y5675D01*
Y5664D01*
X1974Y5653D01*
X1980Y5644D01*
X1988Y5636D01*
X1997Y5630D01*
X2008Y5627D01*
X2019D01*
X2029Y5630D01*
X2047Y5613D01*
Y5602D01*
X2042Y5600D01*
X2039Y5603D01*
X2030Y5608D01*
X2019Y5611D01*
X2008D01*
X1997Y5608D01*
X1988Y5603D01*
X1980Y5595D01*
X1974Y5586D01*
X1971Y5575D01*
Y5564D01*
X1974Y5553D01*
X1980Y5544D01*
X1988Y5536D01*
X1997Y5530D01*
X2008Y5527D01*
X2019D01*
X2030Y5530D01*
X2039Y5536D01*
X2042Y5539D01*
X2047Y5537D01*
Y4345D01*
X2042Y4340D01*
X2038Y4332D01*
Y4322D01*
X2042Y4314D01*
X2049Y4307D01*
X2057Y4303D01*
X2067D01*
X2073Y4306D01*
X2077Y4302D01*
X2076Y4301D01*
Y4291D01*
X2080Y4283D01*
X2087Y4276D01*
X2095Y4272D01*
X2105D01*
X2113Y4276D01*
X2120Y4283D01*
X2124Y4291D01*
Y4301D01*
X2120Y4309D01*
X2116Y4313D01*
Y5447D01*
X2174Y5504D01*
X2177Y5510D01*
X2178Y5516D01*
Y5538D01*
X2183Y5540D01*
X2188Y5536D01*
X2197Y5530D01*
X2208Y5527D01*
X2219D01*
X2230Y5530D01*
X2239Y5536D01*
X2247Y5544D01*
X2253Y5553D01*
X2255Y5564D01*
Y5575D01*
X2253Y5586D01*
X2247Y5595D01*
X2239Y5603D01*
X2230Y5608D01*
X2219Y5611D01*
X2208D01*
X2197Y5608D01*
X2188Y5603D01*
X2183Y5599D01*
X2178Y5601D01*
Y5621D01*
X2177Y5627D01*
X2174Y5632D01*
X2153Y5653D01*
X2155Y5664D01*
Y5675D01*
X2153Y5686D01*
X2147Y5695D01*
X2139Y5703D01*
X2130Y5708D01*
X2119Y5711D01*
D02*
G37*
G36*
X1919Y5609D02*
X1918D01*
Y5574D01*
X1953D01*
Y5575D01*
X1951Y5585D01*
X1945Y5594D01*
X1938Y5601D01*
X1929Y5607D01*
X1919Y5609D01*
D02*
G37*
G36*
X3319D02*
X3318D01*
Y5574D01*
X3353D01*
Y5575D01*
X3351Y5585D01*
X3345Y5594D01*
X3338Y5601D01*
X3329Y5607D01*
X3319Y5609D01*
D02*
G37*
G36*
X2919D02*
X2918D01*
Y5574D01*
X2953D01*
Y5575D01*
X2951Y5585D01*
X2945Y5594D01*
X2938Y5601D01*
X2929Y5607D01*
X2919Y5609D01*
D02*
G37*
G36*
X2619D02*
X2618D01*
Y5574D01*
X2653D01*
Y5575D01*
X2651Y5585D01*
X2645Y5594D01*
X2638Y5601D01*
X2629Y5607D01*
X2619Y5609D01*
D02*
G37*
G36*
X2908D02*
X2908D01*
X2898Y5607D01*
X2889Y5601D01*
X2881Y5594D01*
X2876Y5585D01*
X2873Y5575D01*
Y5574D01*
X2908D01*
Y5609D01*
D02*
G37*
G36*
X2608D02*
X2608D01*
X2598Y5607D01*
X2589Y5601D01*
X2581Y5594D01*
X2576Y5585D01*
X2573Y5575D01*
Y5574D01*
X2608D01*
Y5609D01*
D02*
G37*
G36*
X3308D02*
X3308D01*
X3298Y5607D01*
X3289Y5601D01*
X3281Y5594D01*
X3276Y5585D01*
X3273Y5575D01*
Y5574D01*
X3308D01*
Y5609D01*
D02*
G37*
G36*
X1908D02*
X1908D01*
X1898Y5607D01*
X1889Y5601D01*
X1881Y5594D01*
X1876Y5585D01*
X1873Y5575D01*
Y5574D01*
X1908D01*
Y5609D01*
D02*
G37*
G36*
X7293Y6277D02*
X7283D01*
X7275Y6273D01*
X7268Y6266D01*
X7264Y6258D01*
Y6248D01*
X7268Y6240D01*
X7271Y6236D01*
Y5597D01*
X7267Y5593D01*
X7264Y5584D01*
Y5575D01*
X7267Y5566D01*
X7274Y5560D01*
X7283Y5556D01*
X7292D01*
X7301Y5560D01*
X7308Y5566D01*
X7311Y5575D01*
Y5584D01*
X7308Y5593D01*
X7304Y5597D01*
Y6235D01*
X7308Y6240D01*
X7312Y6248D01*
Y6258D01*
X7308Y6266D01*
X7301Y6273D01*
X7293Y6277D01*
D02*
G37*
G36*
X3353Y5564D02*
X3318D01*
Y5529D01*
X3319D01*
X3329Y5532D01*
X3338Y5537D01*
X3345Y5545D01*
X3351Y5554D01*
X3353Y5564D01*
Y5564D01*
D02*
G37*
G36*
X3308D02*
X3273D01*
Y5564D01*
X3276Y5554D01*
X3281Y5545D01*
X3289Y5537D01*
X3298Y5532D01*
X3308Y5529D01*
X3308D01*
Y5564D01*
D02*
G37*
G36*
X2953D02*
X2918D01*
Y5529D01*
X2919D01*
X2929Y5532D01*
X2938Y5537D01*
X2945Y5545D01*
X2951Y5554D01*
X2953Y5564D01*
Y5564D01*
D02*
G37*
G36*
X2908D02*
X2873D01*
Y5564D01*
X2876Y5554D01*
X2881Y5545D01*
X2889Y5537D01*
X2898Y5532D01*
X2908Y5529D01*
X2908D01*
Y5564D01*
D02*
G37*
G36*
X2653D02*
X2618D01*
Y5529D01*
X2619D01*
X2629Y5532D01*
X2638Y5537D01*
X2645Y5545D01*
X2651Y5554D01*
X2653Y5564D01*
Y5564D01*
D02*
G37*
G36*
X2608D02*
X2573D01*
Y5564D01*
X2576Y5554D01*
X2581Y5545D01*
X2589Y5537D01*
X2598Y5532D01*
X2608Y5529D01*
X2608D01*
Y5564D01*
D02*
G37*
G36*
X1953D02*
X1918D01*
Y5529D01*
X1919D01*
X1929Y5532D01*
X1938Y5537D01*
X1945Y5545D01*
X1951Y5554D01*
X1953Y5564D01*
Y5564D01*
D02*
G37*
G36*
X1908D02*
X1873D01*
Y5564D01*
X1876Y5554D01*
X1881Y5545D01*
X1889Y5537D01*
X1898Y5532D01*
X1908Y5529D01*
X1908D01*
Y5564D01*
D02*
G37*
G36*
X3519Y5611D02*
X3508D01*
X3497Y5608D01*
X3488Y5603D01*
X3480Y5595D01*
X3474Y5586D01*
X3471Y5575D01*
Y5564D01*
X3474Y5553D01*
X3480Y5544D01*
X3488Y5536D01*
X3497Y5530D01*
X3508Y5527D01*
X3519D01*
X3530Y5530D01*
X3539Y5536D01*
X3547Y5544D01*
X3553Y5553D01*
X3555Y5564D01*
Y5575D01*
X3553Y5586D01*
X3547Y5595D01*
X3539Y5603D01*
X3530Y5608D01*
X3519Y5611D01*
D02*
G37*
G36*
X3419D02*
X3408D01*
X3397Y5608D01*
X3388Y5603D01*
X3380Y5595D01*
X3374Y5586D01*
X3371Y5575D01*
Y5564D01*
X3374Y5553D01*
X3380Y5544D01*
X3388Y5536D01*
X3397Y5530D01*
X3408Y5527D01*
X3419D01*
X3430Y5530D01*
X3439Y5536D01*
X3447Y5544D01*
X3453Y5553D01*
X3455Y5564D01*
Y5575D01*
X3453Y5586D01*
X3447Y5595D01*
X3439Y5603D01*
X3430Y5608D01*
X3419Y5611D01*
D02*
G37*
G36*
X3019D02*
X3008D01*
X2997Y5608D01*
X2988Y5603D01*
X2980Y5595D01*
X2974Y5586D01*
X2971Y5575D01*
Y5564D01*
X2974Y5553D01*
X2980Y5544D01*
X2988Y5536D01*
X2997Y5530D01*
X3008Y5527D01*
X3019D01*
X3030Y5530D01*
X3039Y5536D01*
X3047Y5544D01*
X3053Y5553D01*
X3055Y5564D01*
Y5575D01*
X3053Y5586D01*
X3047Y5595D01*
X3039Y5603D01*
X3030Y5608D01*
X3019Y5611D01*
D02*
G37*
G36*
X2819D02*
X2808D01*
X2797Y5608D01*
X2788Y5603D01*
X2780Y5595D01*
X2774Y5586D01*
X2771Y5575D01*
Y5564D01*
X2774Y5553D01*
X2780Y5544D01*
X2788Y5536D01*
X2797Y5530D01*
X2808Y5527D01*
X2819D01*
X2830Y5530D01*
X2839Y5536D01*
X2847Y5544D01*
X2853Y5553D01*
X2855Y5564D01*
Y5575D01*
X2853Y5586D01*
X2847Y5595D01*
X2839Y5603D01*
X2830Y5608D01*
X2819Y5611D01*
D02*
G37*
G36*
X2719D02*
X2708D01*
X2697Y5608D01*
X2688Y5603D01*
X2680Y5595D01*
X2674Y5586D01*
X2671Y5575D01*
Y5564D01*
X2674Y5553D01*
X2680Y5544D01*
X2688Y5536D01*
X2697Y5530D01*
X2708Y5527D01*
X2719D01*
X2730Y5530D01*
X2739Y5536D01*
X2747Y5544D01*
X2753Y5553D01*
X2755Y5564D01*
Y5575D01*
X2753Y5586D01*
X2747Y5595D01*
X2739Y5603D01*
X2730Y5608D01*
X2719Y5611D01*
D02*
G37*
G36*
X2519D02*
X2508D01*
X2497Y5608D01*
X2488Y5603D01*
X2480Y5595D01*
X2474Y5586D01*
X2471Y5575D01*
Y5564D01*
X2474Y5553D01*
X2480Y5544D01*
X2488Y5536D01*
X2497Y5530D01*
X2508Y5527D01*
X2519D01*
X2530Y5530D01*
X2539Y5536D01*
X2547Y5544D01*
X2553Y5553D01*
X2555Y5564D01*
Y5575D01*
X2553Y5586D01*
X2547Y5595D01*
X2539Y5603D01*
X2530Y5608D01*
X2519Y5611D01*
D02*
G37*
G36*
X2419D02*
X2408D01*
X2397Y5608D01*
X2388Y5603D01*
X2380Y5595D01*
X2374Y5586D01*
X2371Y5575D01*
Y5564D01*
X2374Y5553D01*
X2380Y5544D01*
X2388Y5536D01*
X2397Y5530D01*
X2408Y5527D01*
X2419D01*
X2430Y5530D01*
X2439Y5536D01*
X2447Y5544D01*
X2453Y5553D01*
X2455Y5564D01*
Y5575D01*
X2453Y5586D01*
X2447Y5595D01*
X2439Y5603D01*
X2430Y5608D01*
X2419Y5611D01*
D02*
G37*
G36*
X2319D02*
X2308D01*
X2297Y5608D01*
X2288Y5603D01*
X2280Y5595D01*
X2274Y5586D01*
X2271Y5575D01*
Y5564D01*
X2274Y5553D01*
X2280Y5544D01*
X2288Y5536D01*
X2297Y5530D01*
X2308Y5527D01*
X2319D01*
X2330Y5530D01*
X2339Y5536D01*
X2347Y5544D01*
X2353Y5553D01*
X2355Y5564D01*
Y5575D01*
X2353Y5586D01*
X2347Y5595D01*
X2339Y5603D01*
X2330Y5608D01*
X2319Y5611D01*
D02*
G37*
G36*
X1819D02*
X1808D01*
X1797Y5608D01*
X1788Y5603D01*
X1780Y5595D01*
X1774Y5586D01*
X1771Y5575D01*
Y5564D01*
X1774Y5553D01*
X1780Y5544D01*
X1788Y5536D01*
X1797Y5530D01*
X1808Y5527D01*
X1819D01*
X1830Y5530D01*
X1839Y5536D01*
X1847Y5544D01*
X1853Y5553D01*
X1855Y5564D01*
Y5575D01*
X1853Y5586D01*
X1847Y5595D01*
X1839Y5603D01*
X1830Y5608D01*
X1819Y5611D01*
D02*
G37*
G36*
X1719D02*
X1708D01*
X1697Y5608D01*
X1688Y5603D01*
X1680Y5595D01*
X1674Y5586D01*
X1671Y5575D01*
Y5564D01*
X1674Y5553D01*
X1680Y5544D01*
X1688Y5536D01*
X1697Y5530D01*
X1708Y5527D01*
X1719D01*
X1730Y5530D01*
X1739Y5536D01*
X1747Y5544D01*
X1753Y5553D01*
X1755Y5564D01*
Y5575D01*
X1753Y5586D01*
X1747Y5595D01*
X1739Y5603D01*
X1730Y5608D01*
X1719Y5611D01*
D02*
G37*
G36*
X1619D02*
X1608D01*
X1597Y5608D01*
X1588Y5603D01*
X1580Y5595D01*
X1574Y5586D01*
X1571Y5575D01*
Y5564D01*
X1574Y5553D01*
X1580Y5544D01*
X1588Y5536D01*
X1597Y5530D01*
X1608Y5527D01*
X1619D01*
X1630Y5530D01*
X1639Y5536D01*
X1647Y5544D01*
X1653Y5553D01*
X1655Y5564D01*
Y5575D01*
X1653Y5586D01*
X1647Y5595D01*
X1639Y5603D01*
X1630Y5608D01*
X1619Y5611D01*
D02*
G37*
G36*
X9807Y5789D02*
X9793D01*
X9781Y5786D01*
X9770Y5780D01*
X9760Y5770D01*
X9754Y5759D01*
X9751Y5747D01*
Y5733D01*
X9754Y5721D01*
X9760Y5710D01*
X9770Y5700D01*
X9781Y5694D01*
X9786Y5693D01*
Y5687D01*
X9781Y5686D01*
X9770Y5680D01*
X9760Y5670D01*
X9754Y5659D01*
X9751Y5647D01*
Y5633D01*
X9754Y5621D01*
X9760Y5610D01*
X9770Y5600D01*
X9781Y5594D01*
X9786Y5593D01*
Y5587D01*
X9781Y5586D01*
X9770Y5580D01*
X9760Y5570D01*
X9754Y5559D01*
X9751Y5547D01*
Y5533D01*
X9754Y5521D01*
X9760Y5510D01*
X9770Y5500D01*
X9781Y5494D01*
X9793Y5491D01*
X9807D01*
X9819Y5494D01*
X9830Y5500D01*
X9840Y5510D01*
X9846Y5521D01*
X9849Y5533D01*
Y5547D01*
X9846Y5559D01*
X9840Y5570D01*
X9830Y5580D01*
X9819Y5586D01*
X9814Y5587D01*
Y5593D01*
X9819Y5594D01*
X9830Y5600D01*
X9840Y5610D01*
X9846Y5621D01*
X9849Y5633D01*
Y5647D01*
X9846Y5659D01*
X9840Y5670D01*
X9830Y5680D01*
X9819Y5686D01*
X9814Y5687D01*
Y5693D01*
X9819Y5694D01*
X9830Y5700D01*
X9840Y5710D01*
X9846Y5721D01*
X9849Y5733D01*
Y5747D01*
X9846Y5759D01*
X9840Y5770D01*
X9830Y5780D01*
X9819Y5786D01*
X9807Y5789D01*
D02*
G37*
G36*
X3837Y5614D02*
X3710D01*
Y5487D01*
X3716D01*
X3736Y5490D01*
X3756Y5497D01*
X3774Y5506D01*
X3791Y5519D01*
X3806Y5533D01*
X3818Y5550D01*
X3827Y5569D01*
X3834Y5588D01*
X3837Y5609D01*
Y5614D01*
D02*
G37*
G36*
X3700D02*
X3573D01*
Y5609D01*
X3576Y5588D01*
X3583Y5569D01*
X3592Y5550D01*
X3604Y5533D01*
X3619Y5519D01*
X3636Y5506D01*
X3654Y5497D01*
X3674Y5490D01*
X3695Y5487D01*
X3700D01*
Y5614D01*
D02*
G37*
G36*
X1554D02*
X1427D01*
Y5487D01*
X1432D01*
X1453Y5490D01*
X1472Y5497D01*
X1491Y5506D01*
X1508Y5519D01*
X1522Y5533D01*
X1535Y5550D01*
X1544Y5569D01*
X1550Y5588D01*
X1554Y5609D01*
Y5614D01*
D02*
G37*
G36*
X1417D02*
X1290D01*
Y5609D01*
X1293Y5588D01*
X1299Y5569D01*
X1309Y5550D01*
X1321Y5533D01*
X1336Y5519D01*
X1352Y5506D01*
X1371Y5497D01*
X1391Y5490D01*
X1411Y5487D01*
X1417D01*
Y5614D01*
D02*
G37*
G36*
X7962Y5940D02*
X7955Y5939D01*
X7948Y5937D01*
X7943Y5932D01*
X7938Y5927D01*
X7936Y5920D01*
X7935Y5913D01*
Y5572D01*
Y5497D01*
X7936Y5490D01*
X7938Y5483D01*
X7943Y5478D01*
X7948Y5473D01*
X7955Y5471D01*
X7962Y5470D01*
X7969Y5471D01*
X7976Y5473D01*
X7981Y5478D01*
X7986Y5483D01*
X7988Y5490D01*
X7989Y5497D01*
Y5572D01*
Y5913D01*
X7988Y5920D01*
X7986Y5927D01*
X7981Y5932D01*
X7976Y5937D01*
X7969Y5939D01*
X7962Y5940D01*
D02*
G37*
G36*
X10069Y5534D02*
X10061D01*
X10052Y5531D01*
X10044Y5527D01*
X10038Y5521D01*
X10034Y5513D01*
X10031Y5504D01*
Y5496D01*
X10034Y5487D01*
X10038Y5479D01*
X10044Y5473D01*
X10052Y5469D01*
X10061Y5466D01*
X10069D01*
X10078Y5469D01*
X10086Y5473D01*
X10092Y5479D01*
X10096Y5487D01*
X10099Y5496D01*
Y5504D01*
X10096Y5513D01*
X10092Y5521D01*
X10086Y5527D01*
X10078Y5531D01*
X10069Y5534D01*
D02*
G37*
G36*
Y5434D02*
X10061D01*
X10052Y5431D01*
X10044Y5427D01*
X10038Y5421D01*
X10034Y5413D01*
X10031Y5404D01*
Y5396D01*
X10034Y5387D01*
X10038Y5379D01*
X10044Y5373D01*
X10052Y5369D01*
X10061Y5366D01*
X10069D01*
X10078Y5369D01*
X10086Y5373D01*
X10092Y5379D01*
X10096Y5387D01*
X10099Y5396D01*
Y5404D01*
X10096Y5413D01*
X10092Y5421D01*
X10086Y5427D01*
X10078Y5431D01*
X10069Y5434D01*
D02*
G37*
G36*
X9978Y5958D02*
X9968D01*
X9960Y5954D01*
X9953Y5947D01*
X9949Y5939D01*
Y5929D01*
X9953Y5921D01*
X9956Y5918D01*
Y5690D01*
X9953Y5687D01*
X9949Y5679D01*
Y5669D01*
X9953Y5661D01*
X9956Y5658D01*
Y5392D01*
X9957Y5385D01*
X9961Y5380D01*
X10032Y5308D01*
X10031Y5304D01*
Y5296D01*
X10034Y5287D01*
X10038Y5279D01*
X10044Y5273D01*
X10052Y5269D01*
X10061Y5266D01*
X10069D01*
X10078Y5269D01*
X10086Y5273D01*
X10092Y5279D01*
X10096Y5287D01*
X10099Y5296D01*
Y5304D01*
X10096Y5313D01*
X10092Y5321D01*
X10086Y5327D01*
X10078Y5331D01*
X10069Y5334D01*
X10061D01*
X10057Y5333D01*
X9990Y5399D01*
Y5658D01*
X9993Y5661D01*
X9997Y5669D01*
Y5679D01*
X9993Y5687D01*
X9990Y5690D01*
Y5918D01*
X9993Y5921D01*
X9997Y5929D01*
Y5939D01*
X9993Y5947D01*
X9986Y5954D01*
X9978Y5958D01*
D02*
G37*
G36*
X7000Y5319D02*
X6987D01*
X6974Y5315D01*
X6963Y5309D01*
X6954Y5300D01*
X6947Y5288D01*
X6944Y5276D01*
Y5263D01*
X6947Y5250D01*
X6954Y5239D01*
X6963Y5230D01*
X6974Y5223D01*
X6987Y5220D01*
X7000D01*
X7012Y5223D01*
X7024Y5230D01*
X7033Y5239D01*
X7039Y5250D01*
X7043Y5263D01*
Y5276D01*
X7039Y5288D01*
X7033Y5300D01*
X7024Y5309D01*
X7012Y5315D01*
X7000Y5319D01*
D02*
G37*
G36*
X9259Y5617D02*
X9250D01*
X9241Y5613D01*
X9235Y5607D01*
X9231Y5598D01*
Y5588D01*
X9235Y5580D01*
X9241Y5573D01*
X9250Y5569D01*
X9255D01*
X9270Y5555D01*
Y5213D01*
X9265Y5210D01*
X9258Y5213D01*
X9248D01*
X9240Y5209D01*
X9233Y5202D01*
X9229Y5194D01*
Y5189D01*
X9197Y5158D01*
X9194Y5152D01*
X9193Y5146D01*
Y4771D01*
X9189Y4768D01*
X9185Y4770D01*
X9175D01*
X9167Y4766D01*
X9160Y4759D01*
X9156Y4751D01*
Y4741D01*
X9160Y4733D01*
X9164Y4729D01*
Y4209D01*
X9160Y4205D01*
X9156Y4197D01*
Y4187D01*
X9160Y4179D01*
X9167Y4172D01*
X9175Y4168D01*
X9185D01*
X9193Y4172D01*
X9200Y4179D01*
X9204Y4187D01*
Y4197D01*
X9200Y4205D01*
X9196Y4209D01*
Y4328D01*
X9200Y4331D01*
X9204Y4329D01*
X9214D01*
X9222Y4333D01*
X9229Y4340D01*
X9233Y4348D01*
Y4358D01*
X9229Y4366D01*
X9225Y4370D01*
Y5139D01*
X9251Y5165D01*
X9258D01*
X9265Y5168D01*
X9270Y5165D01*
Y4407D01*
X9267Y4404D01*
X9263Y4396D01*
Y4386D01*
X9267Y4377D01*
X9273Y4371D01*
X9282Y4367D01*
X9292D01*
X9300Y4371D01*
X9307Y4377D01*
X9311Y4386D01*
Y4396D01*
X9307Y4404D01*
X9302Y4409D01*
Y5562D01*
X9301Y5568D01*
X9297Y5573D01*
X9279Y5592D01*
Y5598D01*
X9275Y5607D01*
X9268Y5613D01*
X9259Y5617D01*
D02*
G37*
G36*
X3219Y5611D02*
X3208D01*
X3197Y5608D01*
X3188Y5603D01*
X3180Y5595D01*
X3174Y5586D01*
X3171Y5575D01*
Y5564D01*
X3174Y5553D01*
X3180Y5544D01*
X3188Y5536D01*
X3197Y5530D01*
Y5069D01*
X3194Y5065D01*
X3190Y5057D01*
Y5047D01*
X3194Y5039D01*
X3201Y5032D01*
X3209Y5028D01*
X3219D01*
X3227Y5032D01*
X3234Y5039D01*
X3238Y5047D01*
Y5057D01*
X3234Y5065D01*
X3230Y5070D01*
Y5530D01*
X3239Y5536D01*
X3247Y5544D01*
X3253Y5553D01*
X3255Y5564D01*
Y5575D01*
X3253Y5586D01*
X3247Y5595D01*
X3239Y5603D01*
X3230Y5608D01*
X3219Y5611D01*
D02*
G37*
G36*
X8456Y5521D02*
X8449Y5520D01*
X8442Y5518D01*
X8437Y5513D01*
X8432Y5508D01*
X8430Y5501D01*
X8429Y5494D01*
Y5041D01*
X8430Y5034D01*
X8432Y5027D01*
X8437Y5022D01*
X8442Y5017D01*
X8449Y5015D01*
X8456Y5014D01*
X8463Y5015D01*
X8470Y5017D01*
X8475Y5022D01*
X8480Y5027D01*
X8482Y5034D01*
X8483Y5041D01*
Y5494D01*
X8482Y5501D01*
X8480Y5508D01*
X8475Y5513D01*
X8470Y5518D01*
X8463Y5520D01*
X8456Y5521D01*
D02*
G37*
G36*
X3119Y5611D02*
X3108D01*
X3097Y5608D01*
X3088Y5603D01*
X3080Y5595D01*
X3074Y5586D01*
X3071Y5575D01*
Y5564D01*
X3074Y5553D01*
X3080Y5544D01*
X3088Y5536D01*
X3097Y5530D01*
Y5043D01*
X3093Y5038D01*
X3089Y5030D01*
Y5020D01*
X3093Y5012D01*
X3100Y5005D01*
X3108Y5001D01*
X3118D01*
X3126Y5005D01*
X3133Y5012D01*
X3137Y5020D01*
Y5030D01*
X3133Y5038D01*
X3130Y5042D01*
Y5530D01*
X3139Y5536D01*
X3147Y5544D01*
X3153Y5553D01*
X3155Y5564D01*
Y5575D01*
X3153Y5586D01*
X3147Y5595D01*
X3139Y5603D01*
X3130Y5608D01*
X3119Y5611D01*
D02*
G37*
G36*
X161Y5028D02*
X154D01*
X148Y5026D01*
X142Y5023D01*
X137Y5018D01*
X133Y5012D01*
X132Y5005D01*
Y4999D01*
X133Y4992D01*
X137Y4986D01*
X142Y4981D01*
X148Y4978D01*
X154Y4976D01*
X161D01*
X167Y4978D01*
X173Y4981D01*
X178Y4986D01*
X182Y4992D01*
X183Y4999D01*
Y5005D01*
X182Y5012D01*
X178Y5018D01*
X173Y5023D01*
X167Y5026D01*
X161Y5028D01*
D02*
G37*
G36*
X3071Y4915D02*
X3061D01*
X3053Y4911D01*
X3046Y4904D01*
X3042Y4896D01*
Y4886D01*
X3046Y4878D01*
X3046Y4877D01*
X3041Y4874D01*
X3033Y4878D01*
X3023D01*
X3015Y4874D01*
X3008Y4867D01*
X3004Y4859D01*
Y4849D01*
X3008Y4841D01*
X3012Y4837D01*
Y3668D01*
X3008Y3664D01*
X3004Y3656D01*
Y3646D01*
X3008Y3638D01*
X3015Y3631D01*
X3023Y3627D01*
X3033D01*
X3041Y3631D01*
X3048Y3638D01*
X3052Y3646D01*
Y3656D01*
X3048Y3664D01*
X3044Y3668D01*
Y3701D01*
X3049Y3702D01*
X3051Y3701D01*
X3059Y3697D01*
X3069D01*
X3077Y3701D01*
X3084Y3708D01*
X3088Y3716D01*
Y3726D01*
X3084Y3735D01*
X3080Y3738D01*
Y4872D01*
X3086Y4878D01*
X3090Y4886D01*
Y4896D01*
X3086Y4904D01*
X3079Y4911D01*
X3071Y4915D01*
D02*
G37*
G36*
X9533Y4868D02*
X9523D01*
X9515Y4864D01*
X9508Y4857D01*
X9504Y4849D01*
Y4839D01*
X9508Y4831D01*
X9512Y4827D01*
Y4821D01*
X9507Y4817D01*
X9501Y4820D01*
X9491D01*
X9483Y4816D01*
X9476Y4809D01*
X9472Y4801D01*
Y4791D01*
X9476Y4783D01*
X9480Y4779D01*
Y4107D01*
X9481Y4101D01*
X9484Y4095D01*
X9488Y4092D01*
Y4086D01*
X9492Y4078D01*
X9499Y4071D01*
X9507Y4067D01*
X9517D01*
X9525Y4071D01*
X9532Y4078D01*
X9536Y4086D01*
Y4088D01*
X9540Y4090D01*
X9540Y4090D01*
X9550D01*
X9558Y4094D01*
X9565Y4101D01*
X9569Y4109D01*
Y4119D01*
X9565Y4127D01*
X9558Y4134D01*
X9550Y4138D01*
X9544D01*
Y4236D01*
X9548Y4239D01*
X9552Y4237D01*
X9562D01*
X9570Y4241D01*
X9577Y4248D01*
X9581Y4256D01*
Y4266D01*
X9577Y4274D01*
X9581Y4277D01*
X9582Y4277D01*
X9590Y4273D01*
X9600D01*
X9604Y4275D01*
X9609Y4271D01*
Y4240D01*
X9605Y4236D01*
X9601Y4228D01*
Y4218D01*
X9605Y4210D01*
X9612Y4203D01*
X9620Y4199D01*
X9630D01*
X9638Y4203D01*
X9645Y4210D01*
X9649Y4218D01*
Y4228D01*
X9645Y4236D01*
X9641Y4240D01*
Y4676D01*
X9646Y4681D01*
X9650Y4689D01*
Y4699D01*
X9646Y4707D01*
X9639Y4714D01*
X9631Y4718D01*
X9621D01*
X9616Y4716D01*
X9611Y4719D01*
Y4728D01*
X9614Y4731D01*
X9618Y4739D01*
Y4749D01*
X9614Y4757D01*
X9607Y4764D01*
X9599Y4768D01*
X9589D01*
X9581Y4764D01*
X9574Y4757D01*
X9570Y4749D01*
Y4739D01*
X9574Y4731D01*
X9579Y4726D01*
Y4663D01*
X9574Y4661D01*
X9569Y4665D01*
X9561Y4669D01*
X9551D01*
X9548Y4668D01*
X9544Y4670D01*
Y4827D01*
X9548Y4831D01*
X9552Y4839D01*
Y4849D01*
X9548Y4857D01*
X9541Y4864D01*
X9533Y4868D01*
D02*
G37*
G36*
X9068D02*
X9058D01*
X9050Y4864D01*
X9043Y4857D01*
X9039Y4849D01*
Y4839D01*
X9043Y4831D01*
X9047Y4827D01*
Y4820D01*
X9042Y4817D01*
X9037Y4819D01*
X9027D01*
X9019Y4815D01*
X9012Y4808D01*
X9008Y4800D01*
Y4790D01*
X9012Y4782D01*
X9016Y4778D01*
Y4064D01*
X9011Y4059D01*
X9007Y4051D01*
Y4041D01*
X9011Y4033D01*
X9018Y4026D01*
X9026Y4022D01*
X9036D01*
X9044Y4026D01*
X9051Y4033D01*
X9055Y4041D01*
Y4043D01*
X9058Y4045D01*
X9068D01*
X9076Y4049D01*
X9083Y4056D01*
X9087Y4064D01*
Y4074D01*
X9083Y4082D01*
X9079Y4086D01*
Y4109D01*
X9084Y4113D01*
X9088Y4111D01*
X9098D01*
X9106Y4115D01*
X9113Y4122D01*
X9117Y4130D01*
Y4139D01*
X9119Y4142D01*
X9121Y4143D01*
X9129Y4139D01*
X9139D01*
X9147Y4143D01*
X9154Y4150D01*
X9158Y4158D01*
Y4168D01*
X9154Y4176D01*
X9150Y4180D01*
Y4629D01*
X9154Y4633D01*
X9158Y4641D01*
Y4651D01*
X9154Y4659D01*
X9147Y4666D01*
X9139Y4670D01*
X9129D01*
X9121Y4666D01*
X9114Y4660D01*
X9112Y4660D01*
X9109Y4662D01*
Y4679D01*
X9113Y4683D01*
X9117Y4691D01*
Y4701D01*
X9113Y4709D01*
X9106Y4716D01*
X9098Y4720D01*
X9088D01*
X9084Y4718D01*
X9079Y4722D01*
Y4827D01*
X9083Y4831D01*
X9087Y4839D01*
Y4849D01*
X9083Y4857D01*
X9076Y4864D01*
X9068Y4868D01*
D02*
G37*
G36*
X161Y4864D02*
X154D01*
X148Y4863D01*
X142Y4859D01*
X137Y4854D01*
X133Y4849D01*
X132Y4842D01*
Y4835D01*
X133Y4829D01*
X137Y4823D01*
X142Y4818D01*
X148Y4815D01*
X154Y4813D01*
X161D01*
X167Y4815D01*
X173Y4818D01*
X178Y4823D01*
X182Y4829D01*
X183Y4835D01*
Y4842D01*
X182Y4849D01*
X178Y4854D01*
X173Y4859D01*
X167Y4863D01*
X161Y4864D01*
D02*
G37*
G36*
X5603Y6394D02*
X5593D01*
X5585Y6390D01*
X5578Y6383D01*
X5574Y6375D01*
Y6365D01*
X5578Y6357D01*
X5582Y6353D01*
Y4848D01*
X5578Y4844D01*
X5574Y4836D01*
Y4826D01*
X5578Y4818D01*
X5585Y4811D01*
X5593Y4807D01*
X5600D01*
X5603Y4803D01*
X5603Y4803D01*
Y4793D01*
X5607Y4785D01*
X5614Y4778D01*
X5622Y4774D01*
X5630D01*
X5632Y4773D01*
X5632Y4769D01*
X5627Y4766D01*
X5624Y4768D01*
X5615D01*
X5606Y4764D01*
X5599Y4757D01*
X5595Y4749D01*
Y4744D01*
X5591Y4741D01*
X5590Y4742D01*
X5580D01*
X5572Y4738D01*
X5565Y4731D01*
X5561Y4723D01*
Y4722D01*
X5557Y4719D01*
X5554Y4720D01*
X5545D01*
X5536Y4716D01*
X5529Y4710D01*
X5526Y4701D01*
Y4691D01*
X5529Y4683D01*
X5533Y4679D01*
Y4242D01*
X5529Y4237D01*
X5525Y4229D01*
Y4219D01*
X5529Y4211D01*
X5536Y4204D01*
X5544Y4200D01*
X5554D01*
X5562Y4204D01*
X5569Y4211D01*
X5573Y4219D01*
Y4229D01*
X5569Y4237D01*
X5571Y4239D01*
X5573Y4241D01*
X5579Y4238D01*
X5589D01*
X5597Y4242D01*
X5604Y4249D01*
X5608Y4257D01*
Y4267D01*
X5606Y4272D01*
X5609Y4276D01*
X5616Y4273D01*
X5626D01*
X5634Y4277D01*
X5641Y4284D01*
X5645Y4292D01*
Y4302D01*
X5641Y4310D01*
X5636Y4316D01*
Y4726D01*
X5639Y4730D01*
X5643Y4739D01*
Y4741D01*
X5648Y4744D01*
X5653Y4742D01*
X5663D01*
X5671Y4746D01*
X5678Y4753D01*
X5682Y4761D01*
Y4771D01*
X5678Y4779D01*
X5674Y4783D01*
Y6285D01*
X5680Y6291D01*
X5684Y6299D01*
Y6309D01*
X5680Y6317D01*
X5673Y6324D01*
X5665Y6328D01*
X5655D01*
X5655Y6328D01*
X5651Y6331D01*
Y6339D01*
X5647Y6347D01*
X5640Y6354D01*
X5632Y6358D01*
X5624D01*
X5621Y6362D01*
X5621Y6362D01*
X5622Y6365D01*
Y6375D01*
X5618Y6383D01*
X5611Y6390D01*
X5603Y6394D01*
D02*
G37*
G36*
X10638Y4923D02*
X10622D01*
X10606Y4920D01*
X10592Y4914D01*
X10578Y4905D01*
X10567Y4894D01*
X10558Y4881D01*
X10552Y4866D01*
X10549Y4850D01*
Y4835D01*
X10552Y4819D01*
X10558Y4804D01*
X10567Y4791D01*
X10578Y4780D01*
X10592Y4771D01*
X10606Y4765D01*
X10622Y4762D01*
X10638D01*
X10654Y4765D01*
X10668Y4771D01*
X10681Y4780D01*
X10693Y4791D01*
X10702Y4804D01*
X10708Y4819D01*
X10711Y4835D01*
Y4850D01*
X10708Y4866D01*
X10702Y4881D01*
X10693Y4894D01*
X10681Y4905D01*
X10668Y4914D01*
X10654Y4920D01*
X10638Y4923D01*
D02*
G37*
G36*
X7095Y4923D02*
X7079D01*
X7063Y4920D01*
X7048Y4914D01*
X7035Y4905D01*
X7024Y4894D01*
X7015Y4881D01*
X7009Y4866D01*
X7006Y4850D01*
Y4835D01*
X7009Y4819D01*
X7015Y4804D01*
X7024Y4791D01*
X7035Y4780D01*
X7048Y4771D01*
X7063Y4765D01*
X7079Y4762D01*
X7095D01*
X7110Y4765D01*
X7125Y4771D01*
X7138Y4780D01*
X7149Y4791D01*
X7158Y4804D01*
X7164Y4819D01*
X7168Y4835D01*
Y4850D01*
X7164Y4866D01*
X7158Y4881D01*
X7149Y4894D01*
X7138Y4905D01*
X7125Y4914D01*
X7110Y4920D01*
X7095Y4923D01*
D02*
G37*
G36*
X5746Y4996D02*
X5736D01*
X5728Y4992D01*
X5721Y4985D01*
X5717Y4977D01*
Y4967D01*
X5721Y4959D01*
X5725Y4955D01*
Y4692D01*
X5721Y4688D01*
X5717Y4680D01*
Y4670D01*
X5721Y4662D01*
X5728Y4655D01*
X5736Y4651D01*
X5746D01*
X5754Y4655D01*
X5758Y4659D01*
X5763Y4656D01*
X5762Y4655D01*
Y4645D01*
X5766Y4637D01*
X5773Y4630D01*
X5781Y4626D01*
X5791D01*
X5799Y4630D01*
X5806Y4637D01*
X5810Y4645D01*
Y4655D01*
X5806Y4663D01*
X5800Y4669D01*
Y4859D01*
X5804Y4863D01*
X5808Y4871D01*
Y4881D01*
X5804Y4889D01*
X5797Y4896D01*
X5789Y4900D01*
X5779D01*
X5771Y4896D01*
X5764Y4889D01*
X5762Y4886D01*
X5757Y4887D01*
Y4955D01*
X5761Y4959D01*
X5765Y4967D01*
Y4977D01*
X5761Y4985D01*
X5754Y4992D01*
X5746Y4996D01*
D02*
G37*
G36*
X6459Y4899D02*
X6446D01*
X6434Y4896D01*
X6422Y4889D01*
X6413Y4880D01*
X6407Y4869D01*
X6403Y4856D01*
Y4843D01*
X6407Y4831D01*
X6413Y4819D01*
X6422Y4810D01*
X6434Y4804D01*
X6439Y4802D01*
Y4797D01*
X6434Y4796D01*
X6422Y4789D01*
X6413Y4780D01*
X6407Y4769D01*
X6403Y4756D01*
Y4743D01*
X6407Y4731D01*
X6413Y4719D01*
X6422Y4710D01*
X6434Y4704D01*
X6439Y4702D01*
Y4697D01*
X6434Y4696D01*
X6422Y4689D01*
X6413Y4680D01*
X6407Y4669D01*
X6403Y4656D01*
Y4643D01*
X6407Y4631D01*
X6413Y4619D01*
X6422Y4610D01*
X6434Y4604D01*
X6443Y4601D01*
Y4596D01*
X6434Y4594D01*
X6424Y4588D01*
X6415Y4579D01*
X6409Y4568D01*
X6405Y4556D01*
Y4555D01*
X6453D01*
X6500D01*
Y4556D01*
X6497Y4568D01*
X6491Y4579D01*
X6482Y4588D01*
X6471Y4594D01*
X6463Y4596D01*
Y4601D01*
X6472Y4604D01*
X6483Y4610D01*
X6492Y4619D01*
X6499Y4631D01*
X6502Y4643D01*
Y4656D01*
X6499Y4669D01*
X6492Y4680D01*
X6483Y4689D01*
X6472Y4696D01*
X6467Y4697D01*
Y4702D01*
X6472Y4704D01*
X6483Y4710D01*
X6492Y4719D01*
X6499Y4731D01*
X6502Y4743D01*
Y4756D01*
X6499Y4769D01*
X6492Y4780D01*
X6483Y4789D01*
X6472Y4796D01*
X6467Y4797D01*
Y4802D01*
X6472Y4804D01*
X6483Y4810D01*
X6492Y4819D01*
X6499Y4831D01*
X6502Y4843D01*
Y4856D01*
X6499Y4869D01*
X6492Y4880D01*
X6483Y4889D01*
X6472Y4896D01*
X6459Y4899D01*
D02*
G37*
G36*
X6059Y4944D02*
X6049D01*
X6041Y4940D01*
X6034Y4933D01*
X6030Y4925D01*
Y4915D01*
X6034Y4907D01*
X6038Y4903D01*
Y4577D01*
X6034Y4573D01*
X6030Y4565D01*
Y4555D01*
X6034Y4547D01*
X6041Y4540D01*
X6049Y4536D01*
X6059D01*
X6067Y4540D01*
X6074Y4547D01*
X6078Y4555D01*
Y4565D01*
X6074Y4573D01*
X6070Y4577D01*
Y4903D01*
X6074Y4907D01*
X6078Y4915D01*
Y4925D01*
X6074Y4933D01*
X6067Y4940D01*
X6059Y4944D01*
D02*
G37*
G36*
X6500Y4545D02*
X6458D01*
Y4502D01*
X6459D01*
X6471Y4505D01*
X6482Y4512D01*
X6491Y4521D01*
X6497Y4531D01*
X6500Y4543D01*
Y4545D01*
D02*
G37*
G36*
X6448D02*
X6405D01*
Y4543D01*
X6409Y4531D01*
X6415Y4521D01*
X6424Y4512D01*
X6434Y4505D01*
X6447Y4502D01*
X6448D01*
Y4545D01*
D02*
G37*
G36*
X3974Y6302D02*
X3964D01*
X3955Y6298D01*
X3949Y6292D01*
X3945Y6283D01*
Y6273D01*
X3949Y6265D01*
X3953Y6261D01*
Y4968D01*
X3954Y4962D01*
X3957Y4957D01*
X3977Y4937D01*
Y4375D01*
X3973Y4373D01*
X3970Y4374D01*
X3960D01*
X3952Y4370D01*
X3945Y4363D01*
X3941Y4355D01*
Y4345D01*
X3945Y4337D01*
X3949Y4333D01*
Y4104D01*
X3931Y4086D01*
X3926Y4088D01*
Y4334D01*
X3930Y4338D01*
X3934Y4346D01*
Y4356D01*
X3930Y4364D01*
X3923Y4371D01*
X3915Y4375D01*
X3905D01*
X3897Y4371D01*
X3890Y4364D01*
X3886Y4356D01*
Y4346D01*
X3890Y4338D01*
X3894Y4334D01*
Y4082D01*
X3832Y4020D01*
X3826D01*
X3822Y4023D01*
Y4036D01*
X3847Y4060D01*
X3850Y4066D01*
X3851Y4072D01*
Y4350D01*
X3855Y4354D01*
X3859Y4362D01*
Y4372D01*
X3855Y4380D01*
X3848Y4387D01*
X3840Y4391D01*
X3830D01*
X3822Y4387D01*
X3815Y4380D01*
X3811Y4372D01*
Y4362D01*
X3815Y4354D01*
X3819Y4350D01*
Y4079D01*
X3794Y4055D01*
X3791Y4049D01*
X3790Y4043D01*
Y3832D01*
X3786Y3828D01*
X3783Y3821D01*
X3779Y3822D01*
X3778Y3822D01*
X3774Y3830D01*
X3770Y3834D01*
Y4028D01*
X3769Y4034D01*
X3766Y4040D01*
X3751Y4054D01*
Y4352D01*
X3755Y4356D01*
X3759Y4364D01*
Y4374D01*
X3755Y4382D01*
X3748Y4389D01*
X3740Y4393D01*
X3730D01*
X3722Y4389D01*
X3715Y4382D01*
X3711Y4374D01*
Y4364D01*
X3715Y4356D01*
X3719Y4352D01*
Y4047D01*
X3720Y4041D01*
X3723Y4035D01*
X3738Y4021D01*
Y3834D01*
X3734Y3830D01*
X3730Y3822D01*
Y3812D01*
X3734Y3804D01*
X3741Y3797D01*
X3749Y3793D01*
X3759D01*
X3767Y3797D01*
X3774Y3804D01*
X3777Y3811D01*
X3781Y3810D01*
X3782Y3810D01*
X3786Y3802D01*
X3793Y3795D01*
X3801Y3791D01*
X3811D01*
X3819Y3795D01*
X3826Y3802D01*
X3830Y3810D01*
Y3820D01*
X3826Y3828D01*
X3822Y3832D01*
Y3936D01*
X3825Y3938D01*
X3835D01*
X3843Y3942D01*
X3850Y3949D01*
X3854Y3957D01*
Y3963D01*
X3972Y4081D01*
X3977Y4079D01*
Y3836D01*
X3957Y3817D01*
X3954Y3812D01*
X3953Y3806D01*
Y3253D01*
X3949Y3249D01*
X3945Y3241D01*
Y3231D01*
X3949Y3223D01*
X3956Y3216D01*
X3964Y3212D01*
X3974D01*
X3982Y3216D01*
X3989Y3223D01*
X3993Y3231D01*
Y3236D01*
X3994Y3240D01*
X3997Y3240D01*
X4004D01*
X4012Y3244D01*
X4019Y3251D01*
X4023Y3259D01*
Y3269D01*
X4019Y3277D01*
X4015Y3281D01*
Y3440D01*
X4019Y3442D01*
X4022Y3441D01*
X4032D01*
X4039Y3444D01*
X4044Y3441D01*
Y2998D01*
X4040Y2994D01*
X4036Y2986D01*
Y2976D01*
X4040Y2968D01*
X4047Y2961D01*
X4055Y2957D01*
X4065D01*
X4073Y2961D01*
X4077Y2965D01*
X4082Y2966D01*
X4084Y2965D01*
X4089Y2960D01*
X4097Y2956D01*
X4107D01*
X4115Y2960D01*
X4122Y2967D01*
X4126Y2975D01*
Y2985D01*
X4122Y2993D01*
X4118Y2997D01*
Y5037D01*
X4117Y5043D01*
X4114Y5049D01*
X4108Y5054D01*
Y5060D01*
X4104Y5068D01*
X4097Y5075D01*
X4089Y5079D01*
X4079D01*
X4071Y5075D01*
X4064Y5068D01*
X4060Y5060D01*
Y5050D01*
X4062Y5046D01*
X4064Y5042D01*
X4060Y5039D01*
X4053Y5045D01*
X4045Y5049D01*
X4035D01*
X4027Y5045D01*
X4020Y5038D01*
X4016Y5030D01*
Y5020D01*
X4020Y5012D01*
X4027Y5005D01*
X4035Y5001D01*
X4041D01*
X4047Y4995D01*
Y4980D01*
X4045Y4977D01*
X4044Y4971D01*
Y3568D01*
X4039Y3565D01*
X4032Y3568D01*
X4022D01*
X4019Y3567D01*
X4015Y3569D01*
Y3787D01*
X4031Y3802D01*
X4034Y3808D01*
X4035Y3814D01*
Y4974D01*
X4034Y4980D01*
X4031Y4986D01*
X4010Y5006D01*
Y6230D01*
X4016Y6233D01*
X4023Y6240D01*
X4027Y6248D01*
Y6258D01*
X4023Y6266D01*
X4016Y6273D01*
X4008Y6277D01*
X3998D01*
X3997Y6276D01*
X3993Y6279D01*
Y6283D01*
X3989Y6292D01*
X3982Y6298D01*
X3974Y6302D01*
D02*
G37*
G36*
X3645Y4390D02*
X3635D01*
X3627Y4386D01*
X3620Y4379D01*
X3616Y4371D01*
Y4361D01*
X3620Y4353D01*
X3621Y4351D01*
X3618Y4347D01*
X3610Y4351D01*
X3600D01*
X3592Y4347D01*
X3585Y4340D01*
X3581Y4332D01*
Y4327D01*
X3574D01*
X3566Y4323D01*
X3559Y4316D01*
X3555Y4308D01*
Y4298D01*
X3559Y4290D01*
X3563Y4286D01*
Y4162D01*
X3558Y4162D01*
X3554Y4170D01*
X3547Y4177D01*
X3539Y4181D01*
X3529D01*
X3521Y4177D01*
X3514Y4170D01*
X3510Y4162D01*
Y4152D01*
X3514Y4144D01*
X3518Y4140D01*
Y3994D01*
X3514Y3990D01*
X3510Y3982D01*
Y3972D01*
X3514Y3964D01*
X3521Y3957D01*
X3529Y3953D01*
X3539D01*
X3547Y3957D01*
X3554Y3964D01*
X3555Y3965D01*
X3560Y3966D01*
X3562Y3965D01*
X3570Y3961D01*
X3580D01*
X3588Y3965D01*
X3595Y3972D01*
X3599Y3980D01*
Y3990D01*
X3595Y3998D01*
X3588Y4005D01*
X3580Y4009D01*
X3574D01*
Y4117D01*
X3578Y4121D01*
X3581Y4121D01*
X3619Y4083D01*
X3618Y4081D01*
X3614Y4073D01*
Y4063D01*
X3618Y4055D01*
X3625Y4048D01*
X3633Y4044D01*
X3635D01*
X3637Y4040D01*
X3637Y4040D01*
Y4030D01*
X3641Y4022D01*
X3648Y4015D01*
X3656Y4011D01*
X3666D01*
X3667Y4012D01*
X3671Y4009D01*
Y3991D01*
X3667Y3987D01*
X3663Y3979D01*
Y3969D01*
X3667Y3961D01*
X3674Y3954D01*
X3682Y3950D01*
X3692D01*
X3700Y3954D01*
X3707Y3961D01*
X3711Y3969D01*
Y3979D01*
X3707Y3987D01*
X3703Y3991D01*
Y4092D01*
X3706Y4095D01*
X3710Y4103D01*
Y4113D01*
X3706Y4121D01*
X3699Y4128D01*
X3691Y4132D01*
X3686D01*
X3656Y4162D01*
Y4349D01*
X3660Y4353D01*
X3664Y4361D01*
Y4371D01*
X3660Y4379D01*
X3653Y4386D01*
X3645Y4390D01*
D02*
G37*
G36*
X543Y4355D02*
X533D01*
X525Y4351D01*
X518Y4344D01*
X514Y4336D01*
Y4326D01*
X516Y4323D01*
Y4241D01*
X511Y4239D01*
X505Y4244D01*
X497Y4248D01*
X487D01*
X485Y4249D01*
Y4251D01*
X481Y4259D01*
X474Y4266D01*
X466Y4270D01*
X456D01*
X448Y4266D01*
X441Y4259D01*
X437Y4251D01*
Y4241D01*
X437Y4241D01*
X385Y4189D01*
X107D01*
X101Y4188D01*
X95Y4185D01*
X67Y4157D01*
X64Y4151D01*
X63Y4145D01*
Y3906D01*
X64Y3900D01*
X67Y3894D01*
X106Y3856D01*
X111Y3852D01*
X118Y3851D01*
X155D01*
X157Y3848D01*
X162Y3842D01*
X157Y3837D01*
X153Y3830D01*
X151Y3821D01*
Y3813D01*
X153Y3805D01*
X157Y3798D01*
X163Y3792D01*
X166Y3790D01*
Y3755D01*
X167Y3748D01*
X171Y3743D01*
X180Y3733D01*
X186Y3730D01*
X192Y3729D01*
X280D01*
X286Y3730D01*
X292Y3733D01*
X368Y3809D01*
X371Y3815D01*
X372Y3821D01*
Y4080D01*
X492Y4200D01*
X497D01*
X505Y4204D01*
X511Y4209D01*
X516Y4207D01*
Y3827D01*
X514Y3824D01*
Y3814D01*
X516Y3811D01*
Y3711D01*
X515Y3710D01*
Y3700D01*
X519Y3692D01*
X526Y3685D01*
X534Y3681D01*
X544D01*
X552Y3685D01*
X559Y3692D01*
X563Y3700D01*
Y3710D01*
X560Y3715D01*
Y3811D01*
X562Y3814D01*
Y3824D01*
X560Y3827D01*
Y4323D01*
X562Y4326D01*
Y4336D01*
X558Y4344D01*
X551Y4351D01*
X543Y4355D01*
D02*
G37*
G36*
X323Y4742D02*
X313D01*
X305Y4738D01*
X298Y4731D01*
X294Y4723D01*
Y4718D01*
X139D01*
X133Y4717D01*
X127Y4714D01*
X82Y4669D01*
X79Y4663D01*
X78Y4657D01*
Y4395D01*
X79Y4389D01*
X82Y4383D01*
X119Y4347D01*
X124Y4343D01*
X131Y4342D01*
X151D01*
X153Y4339D01*
X159Y4333D01*
X153Y4328D01*
X149Y4320D01*
X147Y4312D01*
Y4304D01*
X149Y4296D01*
X153Y4289D01*
X159Y4283D01*
X162Y4281D01*
Y4229D01*
X163Y4222D01*
X167Y4217D01*
X176Y4207D01*
X182Y4204D01*
X188Y4203D01*
X306D01*
X312Y4204D01*
X318Y4207D01*
X358Y4247D01*
X361Y4253D01*
X362Y4259D01*
Y4665D01*
X366Y4669D01*
X370Y4677D01*
Y4687D01*
X366Y4695D01*
X359Y4702D01*
X351Y4706D01*
X344D01*
X341Y4711D01*
X342Y4713D01*
Y4723D01*
X338Y4731D01*
X331Y4738D01*
X323Y4742D01*
D02*
G37*
G36*
X3377Y4226D02*
X3367D01*
X3359Y4222D01*
X3352Y4215D01*
X3348Y4207D01*
Y4197D01*
X3352Y4189D01*
X3356Y4185D01*
Y3986D01*
X3352Y3982D01*
X3348Y3974D01*
Y3964D01*
X3352Y3956D01*
X3359Y3949D01*
X3367Y3945D01*
X3377D01*
X3385Y3949D01*
X3392Y3956D01*
X3396Y3964D01*
Y3974D01*
X3392Y3982D01*
X3388Y3986D01*
Y3997D01*
X3393Y3999D01*
X3398Y3995D01*
X3406Y3991D01*
X3416D01*
X3424Y3995D01*
X3431Y4002D01*
X3435Y4010D01*
Y4020D01*
X3431Y4028D01*
X3427Y4032D01*
Y4157D01*
X3426Y4163D01*
X3423Y4169D01*
X3422Y4169D01*
Y4175D01*
X3418Y4183D01*
X3411Y4190D01*
X3403Y4194D01*
X3398D01*
X3396Y4197D01*
Y4207D01*
X3392Y4215D01*
X3385Y4222D01*
X3377Y4226D01*
D02*
G37*
G36*
X10843Y3711D02*
X10833D01*
X10825Y3707D01*
X10818Y3700D01*
X10814Y3692D01*
Y3686D01*
X10809Y3683D01*
X10805Y3685D01*
X10795D01*
X10787Y3681D01*
X10780Y3674D01*
X10777Y3668D01*
X10772Y3665D01*
X10770Y3666D01*
X10760D01*
X10752Y3662D01*
X10745Y3655D01*
X10741Y3647D01*
Y3637D01*
X10745Y3629D01*
X10749Y3625D01*
Y3416D01*
X10750Y3410D01*
X10753Y3404D01*
X10846Y3312D01*
Y1477D01*
X10843D01*
X10835Y1473D01*
X10828Y1466D01*
X10824Y1458D01*
Y1448D01*
X10828Y1440D01*
X10835Y1433D01*
X10843Y1429D01*
X10853D01*
X10861Y1433D01*
X10868Y1439D01*
X10870Y1439D01*
X10873Y1437D01*
Y1237D01*
X10866Y1231D01*
X10863Y1226D01*
X10862Y1220D01*
Y1212D01*
X10858Y1208D01*
X10854Y1200D01*
Y1190D01*
X10858Y1181D01*
X10865Y1175D01*
X10873Y1171D01*
X10883D01*
X10892Y1175D01*
X10898Y1181D01*
X10900Y1181D01*
X10903Y1179D01*
Y987D01*
X10880Y964D01*
X10874D01*
X10866Y960D01*
X10859Y953D01*
X10855Y945D01*
Y935D01*
X10859Y927D01*
X10866Y920D01*
X10874Y916D01*
X10884D01*
X10892Y920D01*
X10899Y927D01*
X10903Y935D01*
Y941D01*
X10931Y968D01*
X10934Y974D01*
X10935Y980D01*
Y3345D01*
X10934Y3351D01*
X10931Y3356D01*
X10854Y3433D01*
Y3670D01*
X10858Y3674D01*
X10862Y3682D01*
Y3692D01*
X10858Y3700D01*
X10851Y3707D01*
X10843Y3711D01*
D02*
G37*
G36*
X4343Y3705D02*
X4333D01*
X4325Y3701D01*
X4318Y3694D01*
X4314Y3686D01*
Y3676D01*
X4318Y3667D01*
X4321Y3664D01*
Y3659D01*
X4317Y3656D01*
X4316Y3657D01*
X4306D01*
X4298Y3653D01*
X4296Y3653D01*
X4296Y3655D01*
X4289Y3661D01*
X4280Y3665D01*
X4271D01*
X4262Y3661D01*
X4255Y3655D01*
X4252Y3646D01*
Y3641D01*
X4250Y3639D01*
X4247Y3634D01*
X4246Y3628D01*
Y1606D01*
X4164Y1525D01*
X4161Y1519D01*
X4160Y1513D01*
Y1445D01*
X3923Y1209D01*
X3920Y1204D01*
X3919Y1197D01*
Y870D01*
X3915Y866D01*
X3911Y858D01*
Y848D01*
X3915Y840D01*
X3922Y833D01*
X3930Y829D01*
X3940D01*
X3948Y833D01*
X3955Y840D01*
X3959Y848D01*
Y858D01*
X3955Y866D01*
X3951Y870D01*
Y1191D01*
X4188Y1427D01*
X4191Y1432D01*
X4192Y1438D01*
Y1506D01*
X4272Y1586D01*
X4277Y1584D01*
Y898D01*
X4278Y892D01*
X4281Y886D01*
X4310Y858D01*
Y852D01*
X4314Y844D01*
X4321Y837D01*
X4329Y833D01*
X4339D01*
X4347Y837D01*
X4354Y844D01*
X4358Y852D01*
Y862D01*
X4354Y870D01*
X4347Y877D01*
X4339Y881D01*
X4333D01*
X4309Y905D01*
Y3608D01*
X4310Y3609D01*
X4316D01*
X4317Y3610D01*
X4321Y3607D01*
Y1671D01*
X4319Y1668D01*
X4315Y1659D01*
Y1650D01*
X4319Y1641D01*
X4325Y1634D01*
X4334Y1630D01*
X4343D01*
X4352Y1634D01*
X4359Y1641D01*
X4363Y1650D01*
Y1659D01*
X4359Y1668D01*
X4354Y1673D01*
Y3663D01*
X4358Y3667D01*
X4362Y3676D01*
Y3686D01*
X4358Y3694D01*
X4352Y3701D01*
X4343Y3705D01*
D02*
G37*
G36*
X4418Y4413D02*
X4408D01*
X4400Y4409D01*
X4393Y4402D01*
X4389Y4394D01*
Y4384D01*
X4393Y4376D01*
X4397Y4372D01*
Y3638D01*
X4393Y3634D01*
X4389Y3626D01*
Y3616D01*
X4393Y3608D01*
X4400Y3601D01*
X4408Y3597D01*
X4418D01*
X4426Y3601D01*
X4431Y3605D01*
X4433Y3608D01*
X4437Y3605D01*
X4441Y3602D01*
X4449Y3598D01*
X4459D01*
X4467Y3602D01*
X4474Y3609D01*
X4478Y3617D01*
Y3627D01*
X4474Y3635D01*
X4470Y3639D01*
Y4335D01*
X4474Y4339D01*
X4478Y4347D01*
Y4357D01*
X4474Y4365D01*
X4467Y4372D01*
X4459Y4376D01*
X4449D01*
X4441Y4372D01*
X4435Y4367D01*
X4430Y4368D01*
X4430Y4372D01*
X4433Y4376D01*
X4437Y4384D01*
Y4394D01*
X4433Y4402D01*
X4426Y4409D01*
X4418Y4413D01*
D02*
G37*
G36*
X11023Y3731D02*
X11007D01*
X10991Y3728D01*
X10977Y3722D01*
X10963Y3713D01*
X10952Y3702D01*
X10943Y3688D01*
X10937Y3674D01*
X10934Y3658D01*
Y3642D01*
X10937Y3626D01*
X10943Y3612D01*
X10952Y3598D01*
X10963Y3587D01*
X10977Y3578D01*
X10991Y3572D01*
X11007Y3569D01*
X11023D01*
X11039Y3572D01*
X11053Y3578D01*
X11067Y3587D01*
X11078Y3598D01*
X11087Y3612D01*
X11093Y3626D01*
X11096Y3642D01*
Y3658D01*
X11093Y3674D01*
X11087Y3688D01*
X11078Y3702D01*
X11067Y3713D01*
X11053Y3722D01*
X11039Y3728D01*
X11023Y3731D01*
D02*
G37*
G36*
X766Y3391D02*
X757D01*
X748Y3387D01*
X741Y3380D01*
X737Y3372D01*
Y3362D01*
X741Y3353D01*
X742Y3353D01*
Y3350D01*
X737Y3347D01*
X736Y3347D01*
Y3350D01*
X732Y3358D01*
X725Y3365D01*
X717Y3369D01*
X707D01*
X699Y3365D01*
X692Y3358D01*
X688Y3350D01*
Y3345D01*
X568Y3226D01*
X565Y3220D01*
X564Y3214D01*
Y2959D01*
X560Y2955D01*
X556Y2947D01*
Y2937D01*
X560Y2929D01*
X567Y2922D01*
X575Y2918D01*
X585D01*
X588Y2916D01*
Y2912D01*
X592Y2904D01*
X599Y2897D01*
X607Y2893D01*
X617D01*
X625Y2897D01*
X632Y2904D01*
X636Y2912D01*
Y2922D01*
X632Y2930D01*
X628Y2934D01*
Y3186D01*
X773Y3331D01*
X776Y3336D01*
X778Y3342D01*
Y3350D01*
X781Y3353D01*
X785Y3362D01*
Y3372D01*
X781Y3380D01*
X775Y3387D01*
X766Y3391D01*
D02*
G37*
G36*
X2228Y3332D02*
X2218D01*
X2210Y3328D01*
X2203Y3321D01*
X2199Y3313D01*
Y3303D01*
X2200Y3302D01*
X2195Y3299D01*
X2192Y3302D01*
X2184Y3306D01*
X2174D01*
X2166Y3302D01*
X2159Y3295D01*
X2155Y3287D01*
Y3277D01*
X2159Y3269D01*
X2166Y3262D01*
X2174Y3258D01*
X2176D01*
Y1108D01*
X2172Y1104D01*
X2168Y1096D01*
Y1086D01*
X2172Y1078D01*
X2179Y1071D01*
X2187Y1067D01*
X2197D01*
X2201Y1069D01*
X2206Y1065D01*
Y939D01*
X2202Y935D01*
X2198Y927D01*
Y917D01*
X2202Y909D01*
X2209Y902D01*
X2217Y898D01*
X2227D01*
X2235Y902D01*
X2242Y909D01*
X2246Y917D01*
Y927D01*
X2242Y935D01*
X2238Y939D01*
Y3290D01*
X2243Y3295D01*
X2247Y3303D01*
Y3313D01*
X2243Y3321D01*
X2236Y3328D01*
X2228Y3332D01*
D02*
G37*
G36*
X3157Y4855D02*
X3147D01*
X3139Y4851D01*
X3132Y4844D01*
X3128Y4836D01*
Y4826D01*
X3132Y4818D01*
X3136Y4814D01*
Y3562D01*
X3130Y3556D01*
X3126Y3548D01*
Y3538D01*
X3130Y3530D01*
X3137Y3523D01*
X3145Y3519D01*
X3155D01*
X3163Y3523D01*
X3170Y3530D01*
X3175Y3529D01*
X3179Y3526D01*
X3187Y3522D01*
X3197D01*
X3205Y3526D01*
X3212Y3533D01*
X3213Y3535D01*
X3217Y3536D01*
X3225Y3532D01*
X3235D01*
X3243Y3536D01*
X3250Y3543D01*
X3254Y3551D01*
Y3561D01*
X3250Y3569D01*
X3246Y3573D01*
Y4633D01*
X3251Y4635D01*
X3261Y4625D01*
Y3271D01*
X3187Y3197D01*
X3181D01*
X3173Y3193D01*
X3166Y3186D01*
X3162Y3178D01*
Y3168D01*
X3166Y3160D01*
X3173Y3153D01*
X3181Y3149D01*
X3191D01*
X3199Y3153D01*
X3206Y3160D01*
X3210Y3168D01*
Y3169D01*
X3210Y3169D01*
X3215Y3171D01*
X3221Y3165D01*
X3229Y3161D01*
X3239D01*
X3247Y3165D01*
X3254Y3172D01*
X3258Y3180D01*
Y3186D01*
X3304Y3231D01*
X3307Y3237D01*
X3308Y3243D01*
Y4631D01*
X3312Y4635D01*
X3316Y4643D01*
Y4653D01*
X3312Y4661D01*
X3305Y4668D01*
X3297Y4672D01*
X3287D01*
X3282Y4669D01*
X3278Y4677D01*
X3271Y4684D01*
X3263Y4688D01*
X3253D01*
X3250Y4687D01*
X3246Y4689D01*
Y4751D01*
X3250Y4755D01*
X3254Y4763D01*
Y4773D01*
X3250Y4781D01*
X3243Y4788D01*
X3235Y4792D01*
X3225D01*
X3218Y4789D01*
X3215Y4793D01*
X3215Y4793D01*
Y4803D01*
X3211Y4811D01*
X3204Y4818D01*
X3196Y4822D01*
X3186D01*
X3178Y4818D01*
X3177Y4819D01*
X3174Y4822D01*
X3176Y4826D01*
Y4836D01*
X3172Y4844D01*
X3165Y4851D01*
X3157Y4855D01*
D02*
G37*
G36*
X3769Y3154D02*
X3759D01*
X3751Y3150D01*
X3744Y3143D01*
X3740Y3143D01*
X3738Y3144D01*
X3730Y3148D01*
X3720D01*
X3712Y3144D01*
X3705Y3137D01*
X3701Y3129D01*
Y3119D01*
X3705Y3111D01*
X3709Y3107D01*
Y2713D01*
X3706Y2710D01*
X3700D01*
X3691Y2706D01*
X3685Y2700D01*
X3681Y2691D01*
Y2681D01*
X3685Y2673D01*
X3691Y2666D01*
X3700Y2662D01*
X3710D01*
X3718Y2666D01*
X3725Y2673D01*
X3729Y2681D01*
Y2687D01*
X3737Y2695D01*
X3740Y2700D01*
X3741Y2706D01*
Y3103D01*
X3743Y3104D01*
X3748Y3101D01*
Y2698D01*
X3744Y2694D01*
X3740Y2686D01*
Y2676D01*
X3744Y2668D01*
X3751Y2661D01*
X3759Y2657D01*
X3769D01*
X3777Y2661D01*
X3784Y2668D01*
X3788Y2676D01*
Y2686D01*
X3784Y2694D01*
X3780Y2698D01*
Y3113D01*
X3784Y3117D01*
X3788Y3125D01*
Y3135D01*
X3784Y3143D01*
X3777Y3150D01*
X3769Y3154D01*
D02*
G37*
G36*
X410Y3728D02*
X400D01*
X392Y3724D01*
X385Y3717D01*
X383Y3714D01*
X361Y3692D01*
X356Y3685D01*
X355Y3676D01*
Y3132D01*
X354Y3131D01*
Y3121D01*
X358Y3113D01*
X365Y3106D01*
X373Y3102D01*
X383D01*
X391Y3106D01*
X398Y3113D01*
X402Y3121D01*
Y3131D01*
X399Y3136D01*
Y3667D01*
X415Y3682D01*
X418Y3684D01*
X425Y3691D01*
X429Y3699D01*
Y3709D01*
X425Y3717D01*
X418Y3724D01*
X410Y3728D01*
D02*
G37*
G36*
X435Y3245D02*
X425D01*
X417Y3241D01*
X410Y3234D01*
X406Y3226D01*
Y3216D01*
X410Y3208D01*
X414Y3204D01*
Y3070D01*
X409Y3065D01*
X405Y3057D01*
Y3047D01*
X409Y3039D01*
X416Y3032D01*
X424Y3028D01*
X434D01*
X442Y3032D01*
X449Y3039D01*
X453Y3047D01*
Y3057D01*
X449Y3065D01*
X446Y3068D01*
Y3204D01*
X450Y3208D01*
X454Y3216D01*
Y3226D01*
X450Y3234D01*
X443Y3241D01*
X435Y3245D01*
D02*
G37*
G36*
X8783Y2891D02*
X8773D01*
X8765Y2887D01*
X8758Y2880D01*
X8754Y2872D01*
Y2862D01*
X8758Y2854D01*
X8762Y2850D01*
Y2815D01*
X8757Y2813D01*
X8753Y2816D01*
X8745Y2820D01*
X8735D01*
X8727Y2816D01*
X8720Y2809D01*
X8716Y2801D01*
Y2791D01*
X8720Y2783D01*
X8724Y2779D01*
Y1428D01*
X8719Y1423D01*
X8715Y1415D01*
Y1405D01*
X8719Y1397D01*
X8726Y1390D01*
X8734Y1386D01*
X8744D01*
X8752Y1390D01*
X8757Y1394D01*
X8762Y1392D01*
Y1378D01*
X8758Y1374D01*
X8754Y1366D01*
Y1356D01*
X8758Y1348D01*
X8765Y1341D01*
X8773Y1337D01*
X8783D01*
X8791Y1341D01*
X8798Y1348D01*
X8802Y1356D01*
Y1366D01*
X8798Y1374D01*
X8794Y1378D01*
Y2850D01*
X8798Y2854D01*
X8802Y2862D01*
Y2872D01*
X8798Y2880D01*
X8791Y2887D01*
X8783Y2891D01*
D02*
G37*
G36*
X3553Y3147D02*
X3543D01*
X3534Y3143D01*
X3528Y3136D01*
X3524Y3128D01*
Y3118D01*
X3528Y3110D01*
X3530Y3108D01*
Y2703D01*
X3526Y2699D01*
X3522Y2691D01*
Y2681D01*
X3526Y2673D01*
X3533Y2666D01*
X3541Y2662D01*
X3551D01*
X3559Y2666D01*
X3566Y2673D01*
X3570Y2681D01*
Y2691D01*
X3566Y2699D01*
X3562Y2703D01*
Y3104D01*
X3568Y3110D01*
X3572Y3118D01*
Y3128D01*
X3568Y3136D01*
X3561Y3143D01*
X3553Y3147D01*
D02*
G37*
G36*
X3908Y3143D02*
X3898D01*
X3890Y3139D01*
X3883Y3132D01*
X3879Y3124D01*
Y3114D01*
X3883Y3106D01*
X3887Y3102D01*
Y2945D01*
X3888Y2939D01*
X3891Y2933D01*
X3899Y2926D01*
Y2702D01*
X3895Y2698D01*
X3891Y2690D01*
Y2680D01*
X3895Y2672D01*
X3902Y2665D01*
X3910Y2661D01*
X3920D01*
X3928Y2665D01*
X3935Y2672D01*
X3939Y2680D01*
Y2690D01*
X3935Y2698D01*
X3931Y2702D01*
Y2933D01*
X3930Y2939D01*
X3927Y2945D01*
X3919Y2952D01*
Y3102D01*
X3923Y3106D01*
X3927Y3114D01*
Y3124D01*
X3923Y3132D01*
X3916Y3139D01*
X3908Y3143D01*
D02*
G37*
G36*
X10638Y2640D02*
X10622D01*
X10606Y2637D01*
X10592Y2631D01*
X10578Y2622D01*
X10567Y2611D01*
X10558Y2597D01*
X10552Y2583D01*
X10549Y2567D01*
Y2551D01*
X10552Y2535D01*
X10558Y2521D01*
X10567Y2507D01*
X10578Y2496D01*
X10592Y2487D01*
X10606Y2481D01*
X10622Y2478D01*
X10638D01*
X10654Y2481D01*
X10668Y2487D01*
X10681Y2496D01*
X10693Y2507D01*
X10702Y2521D01*
X10708Y2535D01*
X10711Y2551D01*
Y2567D01*
X10708Y2583D01*
X10702Y2597D01*
X10693Y2611D01*
X10681Y2622D01*
X10668Y2631D01*
X10654Y2637D01*
X10638Y2640D01*
D02*
G37*
G36*
X7095Y2640D02*
X7079D01*
X7063Y2637D01*
X7048Y2631D01*
X7035Y2622D01*
X7024Y2611D01*
X7015Y2597D01*
X7009Y2583D01*
X7006Y2567D01*
Y2551D01*
X7009Y2535D01*
X7015Y2521D01*
X7024Y2507D01*
X7035Y2496D01*
X7048Y2487D01*
X7063Y2481D01*
X7079Y2478D01*
X7095D01*
X7110Y2481D01*
X7125Y2487D01*
X7138Y2496D01*
X7149Y2507D01*
X7158Y2521D01*
X7164Y2535D01*
X7168Y2551D01*
Y2567D01*
X7164Y2583D01*
X7158Y2597D01*
X7149Y2611D01*
X7138Y2622D01*
X7125Y2631D01*
X7110Y2637D01*
X7095Y2640D01*
D02*
G37*
G36*
X4911Y3854D02*
X4901D01*
X4893Y3850D01*
X4886Y3843D01*
X4882Y3835D01*
Y3825D01*
X4886Y3817D01*
X4890Y3813D01*
Y3331D01*
X4886Y3327D01*
X4882Y3319D01*
Y3309D01*
X4886Y3301D01*
X4890Y3297D01*
Y3188D01*
X4885Y3183D01*
X4881Y3175D01*
Y3165D01*
X4885Y3157D01*
X4886Y3155D01*
Y2318D01*
X4886Y2317D01*
X4883Y2309D01*
Y2299D01*
X4886Y2290D01*
X4893Y2284D01*
X4902Y2280D01*
X4911D01*
X4920Y2284D01*
X4927Y2290D01*
X4930Y2299D01*
Y2309D01*
X4927Y2317D01*
X4926Y2318D01*
Y3159D01*
X4929Y3165D01*
Y3175D01*
X4925Y3183D01*
X4922Y3186D01*
Y3297D01*
X4926Y3301D01*
X4930Y3309D01*
Y3319D01*
X4926Y3327D01*
X4922Y3331D01*
Y3813D01*
X4926Y3817D01*
X4930Y3825D01*
Y3835D01*
X4926Y3843D01*
X4919Y3850D01*
X4911Y3854D01*
D02*
G37*
G36*
X2857Y4119D02*
X2847D01*
X2839Y4115D01*
X2832Y4108D01*
X2828Y4100D01*
Y4090D01*
X2832Y4082D01*
X2835Y4079D01*
Y3783D01*
X2831Y3779D01*
X2827Y3771D01*
Y3761D01*
X2831Y3753D01*
X2835Y3749D01*
Y3601D01*
X2831Y3597D01*
X2827Y3588D01*
Y3579D01*
X2831Y3570D01*
X2835Y3566D01*
Y3538D01*
X2831Y3534D01*
X2827Y3526D01*
Y3516D01*
X2831Y3508D01*
X2835Y3504D01*
Y3211D01*
X2836Y3205D01*
X2839Y3199D01*
X2842Y3197D01*
Y3191D01*
X2846Y3183D01*
X2846Y3182D01*
Y2661D01*
X2846Y2660D01*
X2842Y2652D01*
Y2642D01*
X2846Y2634D01*
X2846Y2633D01*
Y2315D01*
X2843Y2308D01*
Y2298D01*
X2847Y2290D01*
X2854Y2283D01*
X2862Y2279D01*
X2872D01*
X2880Y2283D01*
X2887Y2290D01*
X2891Y2298D01*
Y2308D01*
X2887Y2316D01*
X2886Y2318D01*
Y2633D01*
X2886Y2634D01*
X2890Y2642D01*
Y2652D01*
X2886Y2660D01*
X2886Y2661D01*
Y3182D01*
X2886Y3183D01*
X2890Y3191D01*
Y3201D01*
X2886Y3209D01*
X2879Y3216D01*
X2871Y3220D01*
X2867D01*
Y3504D01*
X2871Y3508D01*
X2875Y3516D01*
Y3526D01*
X2871Y3534D01*
X2867Y3538D01*
Y3566D01*
X2871Y3570D01*
X2875Y3579D01*
Y3588D01*
X2871Y3597D01*
X2867Y3601D01*
Y3749D01*
X2871Y3753D01*
X2875Y3761D01*
Y3771D01*
X2871Y3779D01*
X2867Y3783D01*
Y4077D01*
X2872Y4082D01*
X2876Y4090D01*
Y4100D01*
X2872Y4108D01*
X2865Y4115D01*
X2857Y4119D01*
D02*
G37*
G36*
X8386Y2937D02*
X8376D01*
X8367Y2933D01*
X8361Y2926D01*
X8357Y2918D01*
Y2908D01*
X8361Y2899D01*
X8364Y2896D01*
Y2231D01*
X8359Y2229D01*
X8358Y2229D01*
X8350Y2233D01*
X8340D01*
X8332Y2229D01*
X8325Y2222D01*
X8321Y2214D01*
Y2204D01*
X8325Y2196D01*
X8327Y2194D01*
Y1807D01*
X8324Y1804D01*
X8320Y1796D01*
Y1786D01*
X8324Y1778D01*
X8331Y1771D01*
X8339Y1767D01*
X8349D01*
X8357Y1771D01*
X8359Y1772D01*
X8364Y1770D01*
Y1229D01*
X8360Y1225D01*
X8356Y1217D01*
Y1207D01*
X8360Y1199D01*
X8367Y1192D01*
X8375Y1188D01*
X8385D01*
X8393Y1192D01*
X8400Y1199D01*
X8404Y1207D01*
Y1217D01*
X8400Y1225D01*
X8396Y1229D01*
Y2895D01*
X8401Y2899D01*
X8405Y2908D01*
Y2918D01*
X8401Y2926D01*
X8394Y2933D01*
X8386Y2937D01*
D02*
G37*
G36*
X1824Y5408D02*
X1706D01*
X1701Y5407D01*
X1697Y5405D01*
X1671Y5379D01*
X1669Y5375D01*
X1668Y5370D01*
X1668Y2261D01*
X1669Y2256D01*
X1671Y2252D01*
X1697Y2226D01*
X1701Y2224D01*
X1706Y2223D01*
X1823D01*
X1828Y2224D01*
X1832Y2226D01*
X1859Y2253D01*
X1861Y2257D01*
X1862Y2262D01*
Y5370D01*
X1861Y5375D01*
X1859Y5379D01*
X1833Y5405D01*
X1829Y5407D01*
X1824Y5408D01*
D02*
G37*
G36*
X204Y2941D02*
X194D01*
X186Y2937D01*
X179Y2930D01*
X175Y2922D01*
Y2912D01*
X179Y2904D01*
X183Y2900D01*
Y2151D01*
X179Y2147D01*
X175Y2139D01*
Y2129D01*
X179Y2121D01*
X186Y2114D01*
X194Y2110D01*
X204D01*
X212Y2114D01*
X219Y2121D01*
X223Y2129D01*
Y2139D01*
X219Y2147D01*
X215Y2151D01*
Y2900D01*
X219Y2904D01*
X223Y2912D01*
Y2922D01*
X219Y2930D01*
X212Y2937D01*
X204Y2941D01*
D02*
G37*
G36*
X7544Y3803D02*
X7534D01*
X7526Y3799D01*
X7519Y3792D01*
X7515Y3784D01*
Y3774D01*
X7519Y3766D01*
X7523Y3762D01*
Y2064D01*
X7509Y2050D01*
X7503D01*
X7495Y2046D01*
X7488Y2039D01*
X7484Y2031D01*
Y2021D01*
X7488Y2013D01*
X7495Y2006D01*
X7503Y2002D01*
X7513D01*
X7521Y2006D01*
X7528Y2013D01*
X7532Y2021D01*
Y2027D01*
X7551Y2045D01*
X7554Y2051D01*
X7555Y2057D01*
Y3762D01*
X7559Y3766D01*
X7563Y3774D01*
Y3784D01*
X7559Y3792D01*
X7552Y3799D01*
X7544Y3803D01*
D02*
G37*
G36*
X8654Y3862D02*
X8644D01*
X8636Y3858D01*
X8629Y3851D01*
X8625Y3843D01*
Y3833D01*
X8629Y3825D01*
X8633Y3821D01*
Y2027D01*
X8629Y2023D01*
X8625Y2015D01*
Y2005D01*
X8629Y1997D01*
X8636Y1990D01*
X8644Y1986D01*
X8654D01*
X8662Y1990D01*
X8669Y1997D01*
X8673Y2005D01*
Y2015D01*
X8669Y2023D01*
X8665Y2027D01*
Y3821D01*
X8669Y3825D01*
X8673Y3833D01*
Y3843D01*
X8669Y3851D01*
X8662Y3858D01*
X8654Y3862D01*
D02*
G37*
G36*
X7420Y3777D02*
X7410D01*
X7402Y3773D01*
X7395Y3766D01*
X7391Y3758D01*
Y3748D01*
X7395Y3740D01*
X7399Y3736D01*
Y1990D01*
X7396Y1987D01*
X7390D01*
X7383Y1984D01*
X7378Y1986D01*
Y1997D01*
X7381Y2004D01*
Y2014D01*
X7377Y2022D01*
X7370Y2029D01*
X7362Y2033D01*
X7352D01*
X7344Y2029D01*
X7337Y2022D01*
X7333Y2014D01*
Y2004D01*
X7337Y1996D01*
X7338Y1994D01*
Y1118D01*
X7338Y1117D01*
X7334Y1109D01*
Y1099D01*
X7338Y1091D01*
X7338Y1090D01*
Y381D01*
X7335Y374D01*
Y364D01*
X7339Y356D01*
X7346Y349D01*
X7354Y345D01*
X7364D01*
X7372Y349D01*
X7379Y356D01*
X7383Y364D01*
Y374D01*
X7379Y382D01*
X7378Y384D01*
Y1090D01*
X7378Y1091D01*
X7382Y1099D01*
Y1109D01*
X7378Y1117D01*
X7378Y1118D01*
Y1940D01*
X7383Y1942D01*
X7390Y1939D01*
X7400D01*
X7408Y1943D01*
X7415Y1950D01*
X7419Y1958D01*
Y1964D01*
X7427Y1971D01*
X7430Y1977D01*
X7431Y1983D01*
Y3736D01*
X7435Y3740D01*
X7439Y3748D01*
Y3758D01*
X7435Y3766D01*
X7428Y3773D01*
X7420Y3777D01*
D02*
G37*
G36*
X8376Y5334D02*
X8368Y5333D01*
X8360Y5330D01*
X8353Y5325D01*
X8348Y5318D01*
X8345Y5310D01*
X8344Y5302D01*
Y4910D01*
X8345Y4902D01*
X8348Y4894D01*
X8353Y4887D01*
X8433Y4807D01*
Y1098D01*
X8385Y1050D01*
X8380Y1043D01*
X8377Y1036D01*
X8376Y1027D01*
Y253D01*
X8377Y245D01*
X8380Y237D01*
X8385Y230D01*
X8392Y225D01*
X8400Y222D01*
X8408Y221D01*
X8416Y222D01*
X8424Y225D01*
X8431Y230D01*
X8436Y237D01*
X8439Y245D01*
X8440Y253D01*
Y1014D01*
X8488Y1062D01*
X8493Y1069D01*
X8497Y1076D01*
X8498Y1085D01*
Y1089D01*
Y1946D01*
X8503Y1947D01*
X8505Y1943D01*
X8512Y1936D01*
X8520Y1932D01*
X8530D01*
X8538Y1936D01*
X8545Y1943D01*
X8549Y1951D01*
Y1961D01*
X8545Y1969D01*
X8541Y1973D01*
Y3845D01*
X8545Y3849D01*
X8549Y3857D01*
Y3867D01*
X8545Y3875D01*
X8538Y3882D01*
X8530Y3886D01*
X8520D01*
X8512Y3882D01*
X8505Y3875D01*
X8503Y3871D01*
X8498Y3872D01*
Y4821D01*
X8497Y4829D01*
X8493Y4837D01*
X8488Y4843D01*
X8408Y4923D01*
Y5302D01*
X8407Y5310D01*
X8404Y5318D01*
X8399Y5325D01*
X8392Y5330D01*
X8384Y5333D01*
X8376Y5334D01*
D02*
G37*
G36*
X390Y2077D02*
X380D01*
X372Y2073D01*
X365Y2066D01*
X361Y2058D01*
Y2048D01*
X365Y2040D01*
X366Y2039D01*
Y1970D01*
X367Y1963D01*
X371Y1958D01*
X398Y1930D01*
Y1899D01*
X396Y1896D01*
X392Y1887D01*
Y1878D01*
X396Y1869D01*
X402Y1862D01*
X411Y1858D01*
X420D01*
X429Y1862D01*
X436Y1869D01*
X440Y1878D01*
Y1887D01*
X436Y1896D01*
X433Y1899D01*
Y1937D01*
X432Y1944D01*
X428Y1950D01*
X400Y1977D01*
Y2035D01*
X405Y2040D01*
X409Y2048D01*
Y2058D01*
X405Y2066D01*
X398Y2073D01*
X390Y2077D01*
D02*
G37*
G36*
X7233Y2233D02*
X7223D01*
X7215Y2229D01*
X7208Y2222D01*
X7204Y2214D01*
Y2204D01*
X7208Y2196D01*
X7211Y2193D01*
Y1805D01*
X7208Y1802D01*
X7204Y1794D01*
Y1784D01*
X7208Y1776D01*
X7215Y1769D01*
X7223Y1765D01*
X7233D01*
X7241Y1769D01*
X7248Y1776D01*
X7252Y1784D01*
Y1794D01*
X7248Y1802D01*
X7245Y1805D01*
Y2193D01*
X7248Y2196D01*
X7252Y2204D01*
Y2214D01*
X7248Y2222D01*
X7241Y2229D01*
X7233Y2233D01*
D02*
G37*
G36*
X6357Y4011D02*
X6347D01*
X6339Y4007D01*
X6332Y4000D01*
X6328Y3992D01*
Y3982D01*
X6332Y3974D01*
X6336Y3970D01*
Y910D01*
X6332Y906D01*
X6328Y898D01*
Y888D01*
X6332Y880D01*
X6339Y873D01*
X6347Y869D01*
X6357D01*
X6365Y873D01*
X6372Y880D01*
X6376Y888D01*
Y898D01*
X6372Y906D01*
X6368Y910D01*
Y1143D01*
X6373Y1146D01*
X6380Y1143D01*
X6390D01*
X6398Y1147D01*
X6405Y1154D01*
X6409Y1162D01*
Y1172D01*
X6405Y1180D01*
X6401Y1184D01*
Y1409D01*
X6406Y1411D01*
X6408Y1410D01*
X6416Y1406D01*
X6426D01*
X6434Y1410D01*
X6441Y1417D01*
X6445Y1425D01*
Y1435D01*
X6441Y1443D01*
X6436Y1448D01*
Y1681D01*
X6441Y1685D01*
X6447Y1682D01*
X6457D01*
X6465Y1686D01*
X6472Y1693D01*
X6476Y1701D01*
Y1711D01*
X6472Y1719D01*
X6468Y1724D01*
Y3882D01*
X6472Y3885D01*
X6476Y3894D01*
Y3904D01*
X6472Y3912D01*
X6465Y3919D01*
X6456Y3923D01*
X6447D01*
X6445Y3922D01*
X6441Y3926D01*
X6444Y3932D01*
Y3942D01*
X6440Y3950D01*
X6433Y3957D01*
X6425Y3961D01*
X6415D01*
X6413Y3960D01*
X6409Y3963D01*
Y3964D01*
X6405Y3972D01*
X6398Y3979D01*
X6390Y3983D01*
X6380D01*
X6376Y3986D01*
Y3992D01*
X6372Y4000D01*
X6365Y4007D01*
X6357Y4011D01*
D02*
G37*
G36*
X8635Y1638D02*
X8625D01*
X8617Y1634D01*
X8610Y1627D01*
X8609Y1625D01*
X8604D01*
X8603Y1626D01*
X8596Y1633D01*
X8588Y1637D01*
X8578D01*
X8570Y1633D01*
X8563Y1626D01*
X8559Y1618D01*
Y1614D01*
X8534Y1589D01*
X8531Y1583D01*
X8529Y1577D01*
Y1328D01*
X8527Y1325D01*
X8523Y1316D01*
Y1307D01*
X8527Y1298D01*
X8533Y1291D01*
X8542Y1288D01*
X8552D01*
X8553Y1288D01*
X8557Y1286D01*
Y1278D01*
X8554Y1275D01*
X8550Y1266D01*
Y1256D01*
X8554Y1248D01*
X8556Y1245D01*
Y1137D01*
X8558Y1130D01*
X8562Y1125D01*
X8607Y1080D01*
Y841D01*
X8604Y838D01*
X8600Y830D01*
Y820D01*
X8604Y812D01*
X8611Y805D01*
X8619Y801D01*
X8629D01*
X8637Y805D01*
X8644Y812D01*
X8648Y820D01*
Y830D01*
X8644Y838D01*
X8641Y841D01*
Y1087D01*
X8640Y1093D01*
X8636Y1099D01*
X8591Y1144D01*
Y1188D01*
X8596Y1190D01*
X8603Y1187D01*
X8613D01*
X8621Y1191D01*
X8628Y1198D01*
X8632Y1206D01*
Y1216D01*
X8628Y1224D01*
X8625Y1227D01*
Y1277D01*
X8642Y1294D01*
X8646Y1299D01*
X8647Y1306D01*
Y1598D01*
X8650Y1601D01*
X8654Y1609D01*
Y1619D01*
X8650Y1627D01*
X8643Y1634D01*
X8635Y1638D01*
D02*
G37*
G36*
X7498Y1635D02*
X7488D01*
X7480Y1631D01*
X7473Y1624D01*
X7471Y1620D01*
X7466D01*
X7464Y1623D01*
X7457Y1630D01*
X7449Y1634D01*
X7439D01*
X7431Y1630D01*
X7424Y1623D01*
X7420Y1615D01*
Y1605D01*
X7424Y1597D01*
X7431Y1590D01*
X7439Y1586D01*
X7440D01*
X7458Y1569D01*
Y1480D01*
X7453Y1478D01*
X7451Y1479D01*
X7443Y1483D01*
X7433D01*
X7425Y1479D01*
X7418Y1472D01*
X7414Y1464D01*
Y1454D01*
X7418Y1446D01*
X7421Y1443D01*
Y1276D01*
X7418Y1273D01*
X7414Y1265D01*
Y1255D01*
X7418Y1247D01*
X7425Y1240D01*
X7433Y1236D01*
X7443D01*
X7451Y1240D01*
X7458Y1247D01*
X7462Y1255D01*
Y1265D01*
X7458Y1273D01*
X7455Y1276D01*
Y1289D01*
X7460Y1291D01*
X7462Y1290D01*
X7470Y1286D01*
X7480D01*
X7484Y1288D01*
X7489Y1284D01*
Y1226D01*
X7486Y1223D01*
X7482Y1215D01*
Y1205D01*
X7486Y1197D01*
X7493Y1190D01*
X7501Y1186D01*
X7511D01*
X7519Y1190D01*
X7526Y1197D01*
X7530Y1205D01*
Y1215D01*
X7526Y1223D01*
X7523Y1226D01*
Y1598D01*
X7522Y1605D01*
X7518Y1610D01*
X7517Y1612D01*
Y1616D01*
X7513Y1624D01*
X7506Y1631D01*
X7498Y1635D01*
D02*
G37*
G36*
X621Y2059D02*
X611D01*
X603Y2055D01*
X596Y2048D01*
X592Y2040D01*
Y2030D01*
X596Y2022D01*
X603Y2015D01*
X606Y2013D01*
X669Y1950D01*
Y1697D01*
X671Y1688D01*
X675Y1681D01*
X734Y1622D01*
X741Y1617D01*
X750Y1616D01*
X2029D01*
X2102Y1542D01*
Y1527D01*
X2101Y1527D01*
X2097Y1526D01*
X2091Y1532D01*
X2082Y1535D01*
X2073D01*
X2064Y1532D01*
X2058Y1525D01*
X2054Y1516D01*
Y1507D01*
X2058Y1498D01*
X2058Y1498D01*
Y1216D01*
X2058Y1215D01*
X2054Y1207D01*
Y1197D01*
X2058Y1189D01*
X2065Y1182D01*
X2073Y1178D01*
X2083D01*
X2091Y1182D01*
X2097Y1187D01*
X2102Y1186D01*
X2102Y1186D01*
Y1179D01*
X2101Y1176D01*
Y1166D01*
X2102Y1163D01*
Y683D01*
X2070D01*
X2046Y707D01*
Y729D01*
X2050Y732D01*
X2051Y731D01*
X2061D01*
X2069Y735D01*
X2076Y742D01*
X2080Y750D01*
Y760D01*
X2076Y768D01*
X2072Y772D01*
Y941D01*
X2076Y945D01*
X2080Y953D01*
Y963D01*
X2076Y971D01*
X2069Y978D01*
X2061Y982D01*
X2051D01*
X2043Y978D01*
X2036Y971D01*
X2032Y963D01*
Y953D01*
X2036Y945D01*
X2040Y941D01*
Y871D01*
X2035Y867D01*
X2031Y869D01*
X2021D01*
X2013Y865D01*
X2006Y858D01*
X2002Y850D01*
Y840D01*
X2006Y832D01*
X2006Y831D01*
Y699D01*
X2008Y691D01*
X2012Y685D01*
X2048Y649D01*
X2054Y645D01*
X2062Y643D01*
X2102D01*
Y562D01*
X2104Y554D01*
X2109Y547D01*
X2129Y526D01*
X2131Y523D01*
X2138Y516D01*
X2146Y512D01*
X2156D01*
X2164Y516D01*
X2171Y523D01*
X2175Y531D01*
Y541D01*
X2171Y549D01*
X2164Y556D01*
X2161Y558D01*
X2147Y572D01*
Y662D01*
Y1163D01*
X2148Y1166D01*
Y1176D01*
X2147Y1179D01*
Y1551D01*
X2145Y1560D01*
X2140Y1567D01*
X2054Y1654D01*
X2047Y1659D01*
X2038Y1660D01*
X759D01*
X714Y1706D01*
Y1960D01*
X712Y1968D01*
X707Y1976D01*
X638Y2045D01*
X636Y2048D01*
X629Y2055D01*
X621Y2059D01*
D02*
G37*
G36*
X2489Y3728D02*
X2479D01*
X2471Y3724D01*
X2464Y3717D01*
X2460Y3709D01*
Y3699D01*
X2462Y3696D01*
Y2228D01*
X2461Y2228D01*
X2456Y2221D01*
X2453Y2213D01*
X2452Y2205D01*
X2452Y2200D01*
Y2153D01*
X2452Y2151D01*
Y1527D01*
X2452Y1523D01*
X2453Y1514D01*
X2456Y1506D01*
X2461Y1500D01*
X2468Y1495D01*
X2475Y1491D01*
X2484Y1490D01*
X2492Y1491D01*
X2500Y1495D01*
X2507Y1500D01*
X2507Y1500D01*
X2512Y1507D01*
X2516Y1515D01*
X2517Y1523D01*
Y2150D01*
X2517Y2151D01*
Y2204D01*
X2516Y2213D01*
X2513Y2220D01*
X2508Y2227D01*
X2507Y2228D01*
X2506Y2228D01*
Y3696D01*
X2508Y3699D01*
Y3709D01*
X2504Y3717D01*
X2497Y3724D01*
X2489Y3728D01*
D02*
G37*
G36*
X7214Y1747D02*
X7204D01*
X7196Y1743D01*
X7189Y1736D01*
X7185Y1728D01*
Y1718D01*
X7189Y1710D01*
X7193Y1706D01*
Y1464D01*
X7188Y1463D01*
X7187Y1464D01*
X7180Y1471D01*
X7172Y1475D01*
X7162D01*
X7154Y1471D01*
X7147Y1464D01*
X7143Y1456D01*
Y1446D01*
X7147Y1438D01*
X7150Y1435D01*
Y1206D01*
X7145Y1203D01*
X7140Y1205D01*
X7130D01*
X7122Y1201D01*
X7115Y1194D01*
X7111Y1186D01*
Y1176D01*
X7115Y1168D01*
X7117Y1166D01*
Y935D01*
X7113Y933D01*
X7110Y934D01*
X7100D01*
X7092Y930D01*
X7085Y923D01*
X7081Y915D01*
Y905D01*
X7085Y897D01*
X7089Y893D01*
Y677D01*
X7086Y674D01*
X7082Y666D01*
Y656D01*
X7086Y648D01*
X7093Y641D01*
X7101Y637D01*
X7111D01*
X7119Y641D01*
X7126Y648D01*
X7130Y656D01*
Y662D01*
X7139D01*
X7147Y666D01*
X7154Y673D01*
X7158Y681D01*
Y685D01*
X7162Y687D01*
X7162Y687D01*
X7172D01*
X7180Y691D01*
X7187Y698D01*
X7191Y706D01*
Y713D01*
X7196Y716D01*
X7197Y715D01*
X7205Y711D01*
X7215D01*
X7223Y715D01*
X7230Y722D01*
X7234Y730D01*
Y740D01*
X7230Y748D01*
X7227Y751D01*
Y1708D01*
X7229Y1710D01*
X7233Y1718D01*
Y1728D01*
X7229Y1736D01*
X7222Y1743D01*
X7214Y1747D01*
D02*
G37*
G36*
X8137Y2801D02*
X8127D01*
X8119Y2797D01*
X8112Y2790D01*
X8108Y2782D01*
Y2772D01*
X8112Y2764D01*
X8116Y2760D01*
Y1402D01*
X8113Y1399D01*
X8109Y1391D01*
Y1381D01*
X8113Y1373D01*
X8120Y1366D01*
X8128Y1362D01*
X8138D01*
X8146Y1366D01*
X8153Y1373D01*
X8157Y1381D01*
Y1391D01*
X8153Y1399D01*
X8148Y1404D01*
Y2760D01*
X8152Y2764D01*
X8156Y2772D01*
Y2782D01*
X8152Y2790D01*
X8145Y2797D01*
X8137Y2801D01*
D02*
G37*
G36*
X7678Y2751D02*
X7668D01*
X7660Y2747D01*
X7653Y2740D01*
X7649Y2732D01*
Y2722D01*
X7653Y2714D01*
X7657Y2710D01*
Y2679D01*
X7655Y2678D01*
X7645D01*
X7637Y2674D01*
X7630Y2667D01*
X7626Y2659D01*
Y2649D01*
X7630Y2641D01*
X7634Y2637D01*
Y1377D01*
X7630Y1373D01*
X7626Y1365D01*
Y1355D01*
X7630Y1347D01*
X7637Y1340D01*
X7645Y1336D01*
X7655D01*
X7663Y1340D01*
X7670Y1347D01*
X7674Y1355D01*
Y1365D01*
X7670Y1373D01*
X7666Y1377D01*
Y1384D01*
X7669Y1386D01*
X7679D01*
X7687Y1390D01*
X7694Y1397D01*
X7698Y1405D01*
Y1415D01*
X7694Y1423D01*
X7689Y1428D01*
Y2710D01*
X7693Y2714D01*
X7697Y2722D01*
Y2732D01*
X7693Y2740D01*
X7686Y2747D01*
X7678Y2751D01*
D02*
G37*
G36*
X9217Y2784D02*
X9207D01*
X9199Y2780D01*
X9192Y2773D01*
X9188Y2765D01*
Y2755D01*
X9192Y2747D01*
X9196Y2743D01*
Y1367D01*
X9192Y1363D01*
X9188Y1355D01*
Y1345D01*
X9192Y1337D01*
X9199Y1330D01*
X9207Y1326D01*
X9217D01*
X9225Y1330D01*
X9232Y1337D01*
X9236Y1345D01*
Y1355D01*
X9232Y1363D01*
X9228Y1367D01*
Y2743D01*
X9232Y2747D01*
X9236Y2755D01*
Y2765D01*
X9232Y2773D01*
X9225Y2780D01*
X9217Y2784D01*
D02*
G37*
G36*
X4981Y3726D02*
X4971D01*
X4963Y3722D01*
X4956Y3715D01*
X4952Y3707D01*
Y3697D01*
X4956Y3689D01*
X4956Y3688D01*
Y1264D01*
X4956Y1263D01*
X4952Y1255D01*
Y1245D01*
X4956Y1237D01*
X4963Y1230D01*
X4971Y1226D01*
X4981D01*
X4989Y1230D01*
X4996Y1237D01*
X5000Y1245D01*
Y1255D01*
X4996Y1263D01*
X4996Y1264D01*
Y3688D01*
X4996Y3689D01*
X5000Y3697D01*
Y3707D01*
X4996Y3715D01*
X4989Y3722D01*
X4981Y3726D01*
D02*
G37*
G36*
X7282Y2836D02*
X7272D01*
X7263Y2832D01*
X7257Y2826D01*
X7253Y2817D01*
Y2808D01*
X7257Y2799D01*
X7261Y2795D01*
Y1229D01*
X7257Y1225D01*
X7253Y1217D01*
Y1207D01*
X7257Y1199D01*
X7264Y1192D01*
X7272Y1188D01*
X7282D01*
X7290Y1192D01*
X7297Y1199D01*
X7301Y1207D01*
Y1217D01*
X7297Y1225D01*
X7293Y1229D01*
Y2795D01*
X7297Y2799D01*
X7301Y2808D01*
Y2817D01*
X7297Y2826D01*
X7290Y2832D01*
X7282Y2836D01*
D02*
G37*
G36*
X1336Y1371D02*
X1326D01*
X1318Y1367D01*
X1311Y1360D01*
X1307Y1352D01*
Y1342D01*
X1311Y1334D01*
X1314Y1331D01*
Y1189D01*
X1310Y1185D01*
X1306Y1177D01*
Y1167D01*
X1310Y1159D01*
X1317Y1152D01*
X1325Y1148D01*
X1335D01*
X1343Y1152D01*
X1350Y1159D01*
X1354Y1167D01*
Y1177D01*
X1350Y1185D01*
X1346Y1189D01*
Y1329D01*
X1351Y1334D01*
X1355Y1342D01*
Y1352D01*
X1351Y1360D01*
X1344Y1367D01*
X1336Y1371D01*
D02*
G37*
G36*
X8028Y2232D02*
X8018D01*
X8010Y2228D01*
X8003Y2221D01*
X7999Y2213D01*
Y2203D01*
X8003Y2195D01*
X8003Y2194D01*
Y1079D01*
X8003Y1078D01*
X7999Y1070D01*
Y1060D01*
X8003Y1052D01*
X8010Y1045D01*
X8018Y1041D01*
X8028D01*
X8036Y1045D01*
X8043Y1052D01*
X8047Y1060D01*
Y1070D01*
X8043Y1078D01*
X8043Y1079D01*
Y2194D01*
X8043Y2195D01*
X8047Y2203D01*
Y2213D01*
X8043Y2221D01*
X8036Y2228D01*
X8028Y2232D01*
D02*
G37*
G36*
X9106Y2231D02*
X9096D01*
X9088Y2227D01*
X9081Y2220D01*
X9077Y2212D01*
Y2202D01*
X9080Y2195D01*
Y1078D01*
X9080Y1077D01*
X9076Y1069D01*
Y1059D01*
X9080Y1051D01*
X9087Y1044D01*
X9095Y1040D01*
X9105D01*
X9113Y1044D01*
X9120Y1051D01*
X9124Y1059D01*
Y1069D01*
X9120Y1077D01*
X9120Y1078D01*
Y2192D01*
X9121Y2194D01*
X9125Y2202D01*
Y2212D01*
X9121Y2220D01*
X9114Y2227D01*
X9106Y2231D01*
D02*
G37*
G36*
X1475Y1374D02*
X1465D01*
X1457Y1370D01*
X1450Y1363D01*
X1446Y1355D01*
Y1345D01*
X1450Y1337D01*
X1454Y1333D01*
Y1049D01*
X1450D01*
X1442Y1045D01*
X1435Y1038D01*
X1431Y1030D01*
Y1020D01*
X1435Y1012D01*
X1442Y1005D01*
X1450Y1001D01*
X1460D01*
X1468Y1005D01*
X1475Y1012D01*
X1479Y1020D01*
Y1026D01*
X1482Y1028D01*
X1485Y1034D01*
X1486Y1040D01*
Y1333D01*
X1490Y1337D01*
X1494Y1345D01*
Y1355D01*
X1490Y1363D01*
X1483Y1370D01*
X1475Y1374D01*
D02*
G37*
G36*
X9058Y2854D02*
X9048D01*
X9040Y2850D01*
X9033Y2843D01*
X9029Y2835D01*
Y2825D01*
X9033Y2817D01*
X9037Y2813D01*
Y993D01*
X9038Y987D01*
X9041Y982D01*
X9055Y969D01*
Y963D01*
X9058Y954D01*
X9065Y948D01*
X9074Y944D01*
X9083D01*
X9092Y948D01*
X9099Y954D01*
X9102Y963D01*
Y973D01*
X9099Y981D01*
X9092Y988D01*
X9083Y992D01*
X9078D01*
X9069Y1000D01*
Y2813D01*
X9073Y2817D01*
X9077Y2825D01*
Y2835D01*
X9073Y2843D01*
X9066Y2850D01*
X9058Y2854D01*
D02*
G37*
G36*
X6582Y2232D02*
X6572D01*
X6564Y2228D01*
X6557Y2221D01*
X6553Y2213D01*
Y2203D01*
X6557Y2195D01*
X6557Y2194D01*
Y1786D01*
X6557Y1785D01*
X6553Y1777D01*
Y1767D01*
X6557Y1759D01*
X6557Y1758D01*
Y1510D01*
X6554Y1503D01*
Y1493D01*
X6557Y1486D01*
Y1246D01*
X6554Y1239D01*
Y1229D01*
X6557Y1222D01*
Y973D01*
X6557Y972D01*
X6553Y964D01*
Y954D01*
X6557Y946D01*
X6564Y939D01*
X6572Y935D01*
X6582D01*
X6590Y939D01*
X6597Y946D01*
X6601Y954D01*
Y964D01*
X6597Y972D01*
X6597Y973D01*
Y1219D01*
X6598Y1221D01*
X6602Y1229D01*
Y1239D01*
X6598Y1247D01*
X6597Y1249D01*
Y1483D01*
X6598Y1485D01*
X6602Y1493D01*
Y1503D01*
X6598Y1511D01*
X6597Y1513D01*
Y1758D01*
X6597Y1759D01*
X6601Y1767D01*
Y1777D01*
X6597Y1785D01*
X6597Y1786D01*
Y2194D01*
X6597Y2195D01*
X6601Y2203D01*
Y2213D01*
X6597Y2221D01*
X6590Y2228D01*
X6582Y2232D01*
D02*
G37*
G36*
X7970Y2725D02*
X7960D01*
X7952Y2721D01*
X7945Y2714D01*
X7941Y2706D01*
Y2696D01*
X7945Y2688D01*
X7949Y2684D01*
Y971D01*
X7945Y967D01*
X7941Y959D01*
Y949D01*
X7945Y941D01*
X7952Y934D01*
X7960Y930D01*
X7970D01*
X7978Y934D01*
X7985Y941D01*
X7989Y949D01*
Y959D01*
X7985Y967D01*
X7981Y971D01*
Y2684D01*
X7985Y2688D01*
X7989Y2696D01*
Y2706D01*
X7985Y2714D01*
X7978Y2721D01*
X7970Y2725D01*
D02*
G37*
G36*
X7682Y1284D02*
X7672D01*
X7664Y1280D01*
X7657Y1273D01*
X7653Y1265D01*
Y1255D01*
X7657Y1247D01*
X7660Y1244D01*
Y771D01*
X7657Y769D01*
X7653Y760D01*
Y750D01*
X7657Y742D01*
X7664Y735D01*
X7672Y731D01*
X7682D01*
X7690Y735D01*
X7697Y742D01*
X7701Y750D01*
Y760D01*
X7697Y769D01*
X7694Y771D01*
Y810D01*
X7699Y812D01*
X7704Y808D01*
X7712Y804D01*
X7722D01*
X7730Y808D01*
X7737Y815D01*
X7741Y823D01*
Y833D01*
X7737Y841D01*
X7734Y844D01*
Y1142D01*
X7738Y1146D01*
X7742Y1154D01*
Y1164D01*
X7738Y1172D01*
X7731Y1179D01*
X7723Y1183D01*
X7713D01*
X7705Y1179D01*
X7699Y1174D01*
X7694Y1176D01*
Y1244D01*
X7697Y1247D01*
X7701Y1255D01*
Y1265D01*
X7697Y1273D01*
X7690Y1280D01*
X7682Y1284D01*
D02*
G37*
G36*
X8812Y1185D02*
X8802D01*
X8794Y1181D01*
X8787Y1174D01*
X8783Y1166D01*
Y1156D01*
X8787Y1148D01*
X8790Y1145D01*
Y844D01*
X8787Y841D01*
X8783Y832D01*
Y823D01*
X8787Y814D01*
X8794Y807D01*
X8802Y804D01*
X8812D01*
X8820Y807D01*
X8827Y814D01*
X8831Y823D01*
Y832D01*
X8827Y841D01*
X8824Y844D01*
Y1145D01*
X8827Y1148D01*
X8831Y1156D01*
Y1166D01*
X8827Y1174D01*
X8820Y1181D01*
X8812Y1185D01*
D02*
G37*
G36*
X9981Y1063D02*
X9971D01*
X9963Y1059D01*
X9956Y1052D01*
X9952Y1044D01*
Y1034D01*
X9956Y1026D01*
X9956Y1025D01*
Y787D01*
X9955Y786D01*
X9952Y778D01*
Y768D01*
X9955Y759D01*
X9962Y753D01*
X9971Y749D01*
X9980D01*
X9989Y753D01*
X9996Y759D01*
X9999Y768D01*
Y778D01*
X9996Y786D01*
Y1025D01*
X9996Y1026D01*
X10000Y1034D01*
Y1044D01*
X9996Y1052D01*
X9989Y1059D01*
X9981Y1063D01*
D02*
G37*
G36*
X3884Y1062D02*
X3874D01*
X3866Y1058D01*
X3859Y1051D01*
X3855Y1043D01*
Y1033D01*
X3859Y1025D01*
Y744D01*
X3858Y743D01*
X3855Y735D01*
Y725D01*
X3858Y717D01*
X3865Y710D01*
X3874Y706D01*
X3883D01*
X3892Y710D01*
X3899Y717D01*
X3902Y725D01*
Y735D01*
X3899Y743D01*
X3898Y744D01*
Y1024D01*
X3899Y1025D01*
X3903Y1033D01*
Y1043D01*
X3899Y1051D01*
X3892Y1058D01*
X3884Y1062D01*
D02*
G37*
G36*
X10191Y1063D02*
X10181D01*
X10173Y1059D01*
X10166Y1052D01*
X10162Y1044D01*
Y1034D01*
X10166Y1026D01*
X10166Y1025D01*
Y736D01*
X10166Y735D01*
X10162Y727D01*
Y717D01*
X10166Y709D01*
X10173Y702D01*
X10181Y698D01*
X10191D01*
X10199Y702D01*
X10206Y709D01*
X10210Y717D01*
Y727D01*
X10206Y735D01*
X10206Y736D01*
Y1025D01*
X10206Y1026D01*
X10210Y1034D01*
Y1044D01*
X10206Y1052D01*
X10199Y1059D01*
X10191Y1063D01*
D02*
G37*
G36*
X9746Y1064D02*
X9736D01*
X9728Y1060D01*
X9721Y1053D01*
X9717Y1045D01*
Y1035D01*
X9721Y1027D01*
X9721Y1026D01*
Y765D01*
X9701Y745D01*
X9700D01*
X9692Y741D01*
X9685Y734D01*
X9681Y726D01*
Y716D01*
X9685Y708D01*
X9692Y701D01*
X9700Y697D01*
X9710D01*
X9718Y701D01*
X9725Y708D01*
X9729Y716D01*
Y717D01*
X9755Y743D01*
X9759Y749D01*
X9761Y757D01*
Y1026D01*
X9761Y1027D01*
X9765Y1035D01*
Y1045D01*
X9761Y1053D01*
X9754Y1060D01*
X9746Y1064D01*
D02*
G37*
G36*
X189Y571D02*
X187D01*
Y520D01*
X237D01*
Y523D01*
X234Y537D01*
X226Y549D01*
X216Y559D01*
X204Y567D01*
X189Y571D01*
D02*
G37*
G36*
X177D02*
X175D01*
X161Y567D01*
X148Y559D01*
X138Y549D01*
X131Y537D01*
X127Y523D01*
Y520D01*
X177D01*
Y571D01*
D02*
G37*
G36*
X237Y510D02*
X187D01*
Y460D01*
X189D01*
X204Y464D01*
X216Y471D01*
X226Y481D01*
X234Y494D01*
X237Y508D01*
Y510D01*
D02*
G37*
G36*
X177D02*
X127D01*
Y508D01*
X131Y494D01*
X138Y481D01*
X148Y471D01*
X161Y464D01*
X175Y460D01*
X177D01*
Y510D01*
D02*
G37*
G36*
X4112Y1276D02*
X4102D01*
X4094Y1272D01*
X4087Y1265D01*
X4083Y1257D01*
Y1247D01*
X4087Y1239D01*
X4087Y1238D01*
Y851D01*
X4055Y818D01*
X4055D01*
X4046Y815D01*
X4039Y808D01*
X4036Y799D01*
Y790D01*
X4039Y781D01*
X4039Y781D01*
Y445D01*
X4036Y441D01*
X4034D01*
X4026Y437D01*
X4019Y430D01*
X4015Y422D01*
Y412D01*
X4019Y404D01*
X4026Y397D01*
X4034Y393D01*
X4044D01*
X4052Y397D01*
X4059Y404D01*
X4062Y411D01*
X4073Y422D01*
X4078Y429D01*
X4079Y436D01*
Y781D01*
X4080Y781D01*
X4083Y790D01*
Y790D01*
X4121Y828D01*
X4125Y835D01*
X4127Y842D01*
Y1238D01*
X4127Y1239D01*
X4131Y1247D01*
Y1257D01*
X4127Y1265D01*
X4120Y1272D01*
X4112Y1276D01*
D02*
G37*
G36*
X11261Y2465D02*
X11252D01*
X11243Y2461D01*
X11236Y2454D01*
X11233Y2446D01*
Y2436D01*
X11236Y2428D01*
X11241Y2423D01*
Y329D01*
X11238Y325D01*
X11234Y317D01*
Y307D01*
X11238Y299D01*
X11245Y292D01*
X11253Y288D01*
X11263D01*
X11271Y292D01*
X11278Y299D01*
X11282Y307D01*
Y317D01*
X11278Y325D01*
X11274Y330D01*
Y435D01*
X11279Y438D01*
X11285Y435D01*
X11295D01*
X11303Y439D01*
X11310Y446D01*
X11312Y449D01*
X11317Y448D01*
Y427D01*
X11314Y424D01*
X11310Y416D01*
Y406D01*
X11314Y398D01*
X11321Y391D01*
X11329Y387D01*
X11339D01*
X11347Y391D01*
X11354Y398D01*
X11358Y406D01*
Y416D01*
X11354Y424D01*
X11351Y427D01*
Y2370D01*
X11354Y2373D01*
X11358Y2381D01*
Y2391D01*
X11354Y2399D01*
X11347Y2406D01*
X11339Y2410D01*
X11329D01*
X11321Y2406D01*
X11314Y2399D01*
X11312Y2395D01*
X11307Y2396D01*
Y2403D01*
X11311Y2407D01*
X11315Y2416D01*
Y2426D01*
X11311Y2434D01*
X11304Y2441D01*
X11296Y2445D01*
X11286D01*
X11285Y2444D01*
X11280Y2447D01*
X11277Y2454D01*
X11270Y2461D01*
X11261Y2465D01*
D02*
G37*
G36*
X6185Y1276D02*
X6177Y1275D01*
X6169Y1272D01*
X6162Y1267D01*
X6157Y1260D01*
X6154Y1252D01*
X6153Y1244D01*
Y369D01*
X6154Y361D01*
X6157Y353D01*
X6162Y346D01*
X6169Y341D01*
X6177Y338D01*
X6185Y337D01*
X6193Y338D01*
X6201Y341D01*
X6208Y346D01*
X6213Y353D01*
X6216Y361D01*
X6217Y369D01*
Y1244D01*
X6216Y1252D01*
X6213Y1260D01*
X6208Y1267D01*
X6201Y1272D01*
X6193Y1275D01*
X6185Y1276D01*
D02*
G37*
G36*
X10613Y1322D02*
X10603D01*
X10595Y1318D01*
X10588Y1311D01*
X10584Y1303D01*
Y1293D01*
X10588Y1285D01*
X10590Y1283D01*
Y250D01*
X10587Y247D01*
X10583Y239D01*
Y229D01*
X10587Y221D01*
X10594Y214D01*
X10602Y210D01*
X10612D01*
X10620Y214D01*
X10627Y221D01*
X10631Y229D01*
Y234D01*
X10636Y237D01*
X10637Y236D01*
X10645Y232D01*
X10655D01*
X10663Y236D01*
X10670Y243D01*
X10674Y251D01*
Y261D01*
X10670Y269D01*
X10663Y276D01*
X10656Y279D01*
Y795D01*
X10660Y797D01*
X10663Y796D01*
X10667D01*
X10677Y787D01*
Y307D01*
X10674Y304D01*
X10670Y296D01*
Y286D01*
X10674Y278D01*
X10681Y271D01*
X10689Y267D01*
X10699D01*
X10707Y271D01*
X10714Y278D01*
X10718Y286D01*
Y296D01*
X10714Y304D01*
X10711Y307D01*
Y794D01*
X10711Y794D01*
X10710Y801D01*
X10706Y806D01*
X10706Y806D01*
X10692Y821D01*
Y825D01*
X10688Y833D01*
X10681Y840D01*
X10673Y844D01*
X10663D01*
X10660Y843D01*
X10656Y845D01*
Y1052D01*
X10659Y1055D01*
X10663Y1063D01*
Y1073D01*
X10659Y1081D01*
X10652Y1088D01*
X10644Y1092D01*
X10634D01*
X10629Y1090D01*
X10624Y1093D01*
Y1281D01*
X10628Y1285D01*
X10632Y1293D01*
Y1303D01*
X10628Y1311D01*
X10621Y1318D01*
X10613Y1322D01*
D02*
G37*
G36*
X11187Y2242D02*
X11179Y2241D01*
X11171Y2238D01*
X11164Y2233D01*
X11159Y2226D01*
X11156Y2218D01*
X11155Y2210D01*
Y1370D01*
Y1136D01*
Y890D01*
Y154D01*
X11156Y146D01*
X11159Y138D01*
X11164Y131D01*
X11171Y126D01*
X11179Y123D01*
X11187Y122D01*
X11195Y123D01*
X11203Y126D01*
X11210Y131D01*
X11215Y138D01*
X11218Y146D01*
X11219Y154D01*
Y890D01*
Y1136D01*
Y1370D01*
Y2210D01*
X11218Y2218D01*
X11215Y2226D01*
X11210Y2233D01*
X11203Y2238D01*
X11195Y2241D01*
X11187Y2242D01*
D02*
G37*
%LPD*%
G36*
X399Y4153D02*
X344Y4099D01*
X341Y4093D01*
X340Y4087D01*
Y3828D01*
X273Y3761D01*
X199D01*
X199Y3761D01*
Y3781D01*
X201Y3786D01*
X264D01*
Y3849D01*
X262D01*
X259Y3854D01*
X260Y3856D01*
X262Y3862D01*
X232D01*
Y3872D01*
X262D01*
X260Y3879D01*
X256Y3886D01*
X253Y3889D01*
X251Y3892D01*
X253Y3896D01*
X256Y3899D01*
X260Y3906D01*
X262Y3912D01*
X232D01*
Y3922D01*
X262D01*
X260Y3929D01*
X256Y3936D01*
X254Y3938D01*
X252Y3942D01*
X254Y3944D01*
X258Y3948D01*
X262Y3955D01*
X264Y3963D01*
Y3971D01*
X262Y3980D01*
X258Y3987D01*
X252Y3992D01*
X258Y3998D01*
X262Y4005D01*
X264Y4013D01*
Y4021D01*
X262Y4030D01*
X258Y4037D01*
X252Y4043D01*
X245Y4047D01*
X236Y4049D01*
X228D01*
X220Y4047D01*
X213Y4043D01*
X207Y4037D01*
X202Y4043D01*
X195Y4047D01*
X186Y4049D01*
X178D01*
X170Y4047D01*
X163Y4043D01*
X157Y4037D01*
X153Y4030D01*
X151Y4021D01*
Y4013D01*
X153Y4005D01*
X157Y3998D01*
X162Y3992D01*
X157Y3987D01*
X153Y3980D01*
X151Y3971D01*
Y3963D01*
X153Y3955D01*
X157Y3948D01*
X162Y3942D01*
X157Y3937D01*
X153Y3930D01*
X151Y3921D01*
Y3913D01*
X153Y3905D01*
X157Y3898D01*
X162Y3892D01*
X157Y3887D01*
X155Y3884D01*
X124D01*
X95Y3913D01*
Y4138D01*
X114Y4157D01*
X392D01*
X396Y4158D01*
X399Y4153D01*
D02*
G37*
G36*
X319Y4691D02*
X322Y4687D01*
Y4677D01*
X326Y4669D01*
X330Y4665D01*
Y4266D01*
X299Y4235D01*
X195D01*
X195Y4235D01*
Y4272D01*
X197Y4277D01*
X260D01*
Y4340D01*
X258D01*
X255Y4345D01*
X256Y4347D01*
X258Y4353D01*
X228D01*
Y4363D01*
X258D01*
X256Y4370D01*
X252Y4376D01*
X249Y4380D01*
X247Y4383D01*
X249Y4387D01*
X252Y4390D01*
X256Y4397D01*
X258Y4403D01*
X228D01*
Y4413D01*
X258D01*
X256Y4420D01*
X252Y4426D01*
X250Y4428D01*
X248Y4433D01*
X250Y4435D01*
X254Y4439D01*
X258Y4446D01*
X260Y4454D01*
Y4462D01*
X258Y4470D01*
X254Y4478D01*
X248Y4483D01*
X254Y4489D01*
X258Y4496D01*
X260Y4504D01*
Y4512D01*
X258Y4521D01*
X254Y4528D01*
X248Y4534D01*
X241Y4538D01*
X233Y4540D01*
X224D01*
X216Y4538D01*
X209Y4534D01*
X203Y4528D01*
X198Y4534D01*
X191Y4538D01*
X183Y4540D01*
X174D01*
X166Y4538D01*
X159Y4534D01*
X153Y4528D01*
X149Y4521D01*
X147Y4512D01*
Y4504D01*
X149Y4496D01*
X153Y4489D01*
X159Y4483D01*
X153Y4478D01*
X149Y4470D01*
X147Y4462D01*
Y4454D01*
X149Y4446D01*
X153Y4439D01*
X159Y4433D01*
X153Y4428D01*
X149Y4420D01*
X147Y4412D01*
Y4404D01*
X149Y4396D01*
X153Y4389D01*
X159Y4383D01*
X153Y4378D01*
X151Y4375D01*
X137D01*
X110Y4402D01*
Y4650D01*
X146Y4686D01*
X303D01*
X309Y4687D01*
X315Y4690D01*
X316Y4692D01*
X319Y4691D01*
D02*
G37*
G36*
X1850Y5370D02*
Y2262D01*
X1823Y2235D01*
X1706D01*
X1680Y2261D01*
X1680Y5370D01*
X1706Y5396D01*
X1824D01*
X1850Y5370D01*
D02*
G37*
D10*
X7228Y1789D02*
Y2209D01*
X8344Y2208D02*
X8345Y2209D01*
X8344Y1791D02*
Y2208D01*
X11334Y411D02*
Y2386D01*
X383Y1970D02*
Y2051D01*
X385Y2053D01*
X383Y1970D02*
X416Y1937D01*
Y1882D02*
Y1937D01*
X9973Y5674D02*
Y5934D01*
Y5392D02*
Y5674D01*
Y5392D02*
X10065Y5300D01*
X7105Y910D02*
X7106Y909D01*
Y661D02*
Y909D01*
X7134Y686D02*
Y1180D01*
X7135Y1181D01*
X7167Y711D02*
Y1451D01*
X7210Y735D02*
Y1722D01*
X7209Y1723D02*
X7210Y1722D01*
X7444Y1607D02*
Y1610D01*
Y1607D02*
X7475Y1576D01*
Y1310D02*
Y1576D01*
X7506Y1210D02*
Y1598D01*
X7493Y1611D02*
X7506Y1598D01*
X7438Y1260D02*
Y1459D01*
X7677Y755D02*
Y1260D01*
X7717Y1158D02*
X7718Y1159D01*
X7717Y828D02*
Y1158D01*
X8630Y1306D02*
Y1614D01*
X8608Y1211D02*
Y1284D01*
X8630Y1306D01*
X8624Y825D02*
Y1087D01*
X8574Y1137D02*
Y1261D01*
Y1137D02*
X8624Y1087D01*
X8574Y1261D02*
Y1458D01*
X8547Y1312D02*
X8547Y1312D01*
X8547Y1312D02*
Y1577D01*
X8583Y1613D01*
X8807Y828D02*
Y1161D01*
X10608Y1297D02*
Y1298D01*
X10607Y234D02*
Y1296D01*
X10608Y1297D01*
X10639Y267D02*
Y1068D01*
Y267D02*
X10650Y256D01*
X10668Y820D02*
X10694Y794D01*
Y291D02*
Y794D01*
D18*
X3935Y853D02*
Y1197D01*
X4176Y1438D02*
Y1513D01*
X3935Y1197D02*
X4176Y1438D01*
X11256Y2441D02*
X11257Y2440D01*
Y313D02*
Y2440D01*
Y313D02*
X11258Y312D01*
X11290Y459D02*
X11290Y459D01*
Y2420D02*
X11291Y2421D01*
X11290Y459D02*
Y2420D01*
X7650Y1360D02*
Y2654D01*
X7965Y954D02*
Y2701D01*
X7673Y1411D02*
Y2727D01*
Y1411D02*
X7674Y1410D01*
X8132Y1387D02*
X8133Y1386D01*
X8132Y1387D02*
Y2777D01*
X7288Y5580D02*
Y6253D01*
X7287Y5580D02*
X7288Y5580D01*
Y6253D02*
X7288Y6253D01*
X3994Y6244D02*
X4003Y6253D01*
X3994Y4999D02*
Y6244D01*
Y4999D02*
X4019Y4974D01*
Y3814D02*
Y4974D01*
X3999Y3794D02*
X4019Y3814D01*
X3999Y3264D02*
Y3794D01*
X3969Y4968D02*
Y6278D01*
Y4968D02*
X3993Y4944D01*
X9130Y5960D02*
Y6332D01*
X3993Y3830D02*
Y4944D01*
X3969Y3236D02*
Y3806D01*
X3993Y3830D01*
X7277Y2812D02*
X7277Y2812D01*
Y1212D02*
X7277Y1212D01*
X7277Y1212D02*
Y2812D01*
X9212Y1350D02*
Y2760D01*
X8739Y1410D02*
X8740Y1411D01*
Y2796D01*
X9053Y993D02*
X9078Y968D01*
X9053Y993D02*
Y2830D01*
X8778Y1361D02*
Y2867D01*
X8380Y1212D02*
Y2912D01*
X8381Y2913D01*
X3705Y2686D02*
X3725Y2706D01*
Y3124D01*
X8510Y5731D02*
Y6195D01*
X8510Y6195D01*
X4528Y3586D02*
Y6072D01*
X4527Y3449D02*
Y3585D01*
X4528Y3586D01*
X4502Y3473D02*
Y6027D01*
X4500Y6029D02*
X4502Y6027D01*
X4477Y3448D02*
X4502Y3473D01*
X9209Y5146D02*
X9252Y5189D01*
X9253D01*
X9209Y4353D02*
Y5146D01*
X4454Y3622D02*
Y4352D01*
X9286Y4392D02*
X9287Y4391D01*
X9286Y4392D02*
Y5562D01*
X9255Y5593D02*
X9286Y5562D01*
X4413Y3621D02*
Y4389D01*
X4027Y3465D02*
Y3544D01*
X10848Y1453D02*
X10862Y1467D01*
Y3319D01*
X10765Y3416D02*
Y3642D01*
Y3416D02*
X10862Y3319D01*
X10889Y1231D02*
Y3342D01*
X10878Y1220D02*
X10889Y1231D01*
X10878Y1195D02*
Y1220D01*
X10800Y3431D02*
X10889Y3342D01*
X10800Y3431D02*
Y3661D01*
X10919Y980D02*
Y3345D01*
X10838Y3426D02*
Y3687D01*
Y3426D02*
X10919Y3345D01*
X10879Y940D02*
X10919Y980D01*
X7395Y1963D02*
X7415Y1983D01*
Y3753D01*
X7508Y2026D02*
X7539Y2057D01*
Y3779D01*
X8649Y2010D02*
Y3838D01*
X8525Y1956D02*
Y3862D01*
X6452Y1706D02*
Y3899D01*
X6420Y1431D02*
X6421Y1430D01*
X6420Y1431D02*
Y3937D01*
X6385Y1167D02*
Y3959D01*
X6352Y893D02*
Y3987D01*
X5741Y4675D02*
Y4972D01*
X3258Y4651D02*
Y4664D01*
Y4651D02*
X3277Y4632D01*
X3186Y3173D02*
X3277Y3264D01*
Y4632D01*
X5784Y4652D02*
X5786Y4650D01*
X5784Y4652D02*
Y4876D01*
X3292Y3243D02*
Y4648D01*
X3234Y3185D02*
X3292Y3243D01*
X5549Y4224D02*
X5549Y4224D01*
Y4696D01*
X10480Y6446D02*
Y7363D01*
Y6446D02*
X10481Y6446D01*
X10479Y7364D02*
X10480Y7363D01*
X5598Y4831D02*
Y6370D01*
X3152Y3545D02*
Y4831D01*
X3150Y3543D02*
X3152Y3545D01*
X9741Y6404D02*
Y7370D01*
X9742Y7371D01*
X5627Y4798D02*
Y6334D01*
X3192Y3546D02*
Y4797D01*
X3191Y4798D02*
X3192Y4797D01*
X8367Y6369D02*
Y7366D01*
X5658Y6302D02*
X5660Y6304D01*
X5658Y4766D02*
Y6302D01*
X3230Y3556D02*
Y4768D01*
X4350Y4100D02*
X4350Y4100D01*
X4350Y4100D02*
Y7424D01*
X4313Y6632D02*
X4315Y6634D01*
X4313Y4099D02*
Y6632D01*
X4274Y7022D02*
Y7028D01*
X4275Y4100D02*
Y7021D01*
X4274Y7022D02*
X4275Y7021D01*
X4240Y4106D02*
Y4114D01*
X4241Y4115D02*
Y6732D01*
X4237Y4103D02*
X4240Y4106D01*
Y4114D02*
X4241Y4115D01*
X4194Y6925D02*
X4196Y6923D01*
Y4102D02*
Y6923D01*
X4154Y4115D02*
Y6456D01*
X6752Y6634D02*
Y6890D01*
X6087Y6634D02*
Y6890D01*
X6480Y7028D02*
Y7283D01*
X6087Y7028D02*
Y7283D01*
Y7421D02*
Y7677D01*
X5713Y7028D02*
Y7283D01*
X3640Y4155D02*
X3687Y4108D01*
Y3974D02*
Y4108D01*
X2851Y3766D02*
Y4094D01*
X2852Y4095D01*
X3558Y4002D02*
Y4134D01*
Y4002D02*
X3575Y3985D01*
X9031Y4046D02*
X9032Y4047D01*
Y4795D01*
X9063Y4069D02*
Y4844D01*
X3534Y3977D02*
Y4157D01*
X3411Y4015D02*
Y4157D01*
X3398Y4170D02*
X3411Y4157D01*
X9496Y4107D02*
Y4796D01*
Y4107D02*
X9512Y4091D01*
X3372Y3969D02*
Y4202D01*
X9528Y4131D02*
Y4844D01*
Y4131D02*
X9545Y4114D01*
X3372Y4202D02*
Y4208D01*
X3028Y3651D02*
Y4854D01*
X4745Y4869D02*
X4745Y4869D01*
X4745Y4869D02*
Y7618D01*
X4844Y7617D02*
X4845Y7618D01*
X4844Y4890D02*
Y7617D01*
X3064Y3721D02*
Y4889D01*
X3066Y4891D01*
X2113Y5669D02*
X2162Y5621D01*
X2100Y5454D02*
X2162Y5516D01*
Y5621D01*
X2100Y4296D02*
Y5454D01*
X3579Y4146D02*
Y4303D01*
Y4146D02*
X3638Y4087D01*
Y4068D02*
Y4087D01*
X3623Y4133D02*
X3661Y4095D01*
Y4035D02*
Y4095D01*
X3605Y4327D02*
X3623Y4309D01*
Y4133D02*
Y4309D01*
X2062Y4327D02*
Y4328D01*
X2063Y4329D02*
Y5620D01*
X2062Y4328D02*
X2063Y4329D01*
X2013Y5669D02*
X2063Y5620D01*
X4293Y3615D02*
X4311Y3633D01*
X4293Y898D02*
Y3615D01*
Y898D02*
X4334Y857D01*
X4262Y3628D02*
X4276Y3641D01*
X4262Y1599D02*
Y3628D01*
X4176Y1513D02*
X4262Y1599D01*
X4338Y1655D02*
Y3680D01*
X2192Y1091D02*
Y3269D01*
X2179Y3282D02*
X2192Y3269D01*
X2223Y3307D02*
Y3308D01*
X2222Y922D02*
Y3306D01*
X2223Y3307D01*
X612Y3193D02*
X761Y3342D01*
Y3367D01*
X612Y2917D02*
Y3193D01*
X199Y2134D02*
Y2917D01*
X580Y3214D02*
X711Y3345D01*
X712D01*
X580Y2942D02*
Y3214D01*
X146Y2159D02*
Y2942D01*
X78Y2091D02*
X146Y2159D01*
X27Y2091D02*
X78D01*
X429Y3052D02*
X430Y3053D01*
Y3221D01*
X2851Y3521D02*
Y3583D01*
Y3211D02*
Y3521D01*
X9093Y4135D02*
Y4696D01*
X492Y4223D02*
Y4224D01*
X356Y4087D02*
X492Y4223D01*
X356Y3821D02*
Y4087D01*
X280Y3745D02*
X356Y3821D01*
X192Y3745D02*
X280D01*
X182Y3755D02*
Y3817D01*
Y3755D02*
X192Y3745D01*
X9134Y4163D02*
Y4646D01*
X461Y4242D02*
Y4246D01*
X392Y4173D02*
X461Y4242D01*
X107Y4173D02*
X392D01*
X79Y4145D02*
X107Y4173D01*
X79Y3906D02*
Y4145D01*
X118Y3867D02*
X182D01*
X79Y3906D02*
X118Y3867D01*
X9180Y4192D02*
Y4746D01*
X9625Y4693D02*
X9626Y4694D01*
X9625Y4223D02*
Y4693D01*
X346Y4259D02*
Y4682D01*
X306Y4219D02*
X346Y4259D01*
X188Y4219D02*
X306D01*
X178Y4229D02*
Y4308D01*
Y4229D02*
X188Y4219D01*
X9556Y4645D02*
X9557Y4644D01*
Y4261D02*
Y4644D01*
X5584Y4262D02*
X5585Y4263D01*
Y4718D01*
X303Y4702D02*
X318Y4717D01*
Y4718D01*
X139Y4702D02*
X303D01*
X94Y4657D02*
X139Y4702D01*
X94Y4395D02*
Y4657D01*
X131Y4358D02*
X178D01*
X94Y4395D02*
X131Y4358D01*
X9595Y4297D02*
Y4743D01*
X9594Y4744D02*
X9595Y4743D01*
X5619Y4299D02*
Y4744D01*
Y4299D02*
X5621Y4297D01*
X3965Y4097D02*
Y4350D01*
X3830Y3962D02*
X3965Y4097D01*
X3910Y4075D02*
Y4351D01*
X3831Y3996D02*
X3910Y4075D01*
X3806Y3815D02*
Y4043D01*
X3835Y4072D01*
Y4367D01*
X3754Y3817D02*
Y4028D01*
X3735Y4047D02*
X3754Y4028D01*
X3735Y4047D02*
Y4369D01*
X3640Y4155D02*
Y4366D01*
X4060Y4971D02*
X4063Y4974D01*
X4060Y2981D02*
Y4971D01*
X4063Y4974D02*
Y5002D01*
X4040Y5025D02*
X4063Y5002D01*
X3113Y5025D02*
X3113Y5025D01*
Y5569D01*
X4084Y5055D02*
X4102Y5037D01*
Y2980D02*
Y5037D01*
X3213Y5053D02*
X3214Y5052D01*
X3213Y5053D02*
Y5569D01*
X6054Y4560D02*
Y4920D01*
X4906Y3314D02*
Y3830D01*
Y3171D02*
Y3314D01*
X3546Y3121D02*
X3548Y3123D01*
X3546Y2686D02*
Y3121D01*
X3903Y2945D02*
Y3119D01*
Y2945D02*
X3915Y2933D01*
Y2685D02*
Y2933D01*
X4905Y3170D02*
X4906Y3171D01*
X2851Y3211D02*
X2866Y3196D01*
X3764Y2681D02*
Y3130D01*
X2851Y3583D02*
Y3766D01*
X2056Y755D02*
Y958D01*
X1330Y1172D02*
Y1346D01*
X1331Y1347D01*
X1470Y1040D02*
Y1350D01*
X1455Y1025D02*
X1470Y1040D01*
D184*
X6264Y7283D02*
D03*
Y7028D02*
D03*
X6087Y7283D02*
D03*
Y7028D02*
D03*
X9800Y5740D02*
D03*
Y5640D02*
D03*
Y5540D02*
D03*
X4745Y7618D02*
D03*
X5045D02*
D03*
X4945D02*
D03*
X4845D02*
D03*
X6087Y7421D02*
D03*
Y7677D02*
D03*
X6264Y7421D02*
D03*
Y7677D02*
D03*
X6087Y6634D02*
D03*
Y6890D02*
D03*
X6264Y6634D02*
D03*
Y6890D02*
D03*
X5713Y7028D02*
D03*
Y7283D02*
D03*
X5890Y7028D02*
D03*
Y7283D02*
D03*
X6480Y7028D02*
D03*
Y7283D02*
D03*
X6657Y7028D02*
D03*
Y7283D02*
D03*
X6752Y6634D02*
D03*
Y6890D02*
D03*
X6929Y6634D02*
D03*
Y6890D02*
D03*
X6693Y5269D02*
D03*
X6993D02*
D03*
Y5669D02*
D03*
X6693Y5969D02*
D03*
X6993D02*
D03*
X6453Y4850D02*
D03*
Y4550D02*
D03*
Y4650D02*
D03*
Y4750D02*
D03*
D187*
X616Y2035D02*
X691Y1960D01*
Y1697D02*
Y1960D01*
Y1697D02*
X750Y1638D01*
X6693Y83D02*
X6696Y80D01*
X6693Y83D02*
Y5269D01*
X2125Y662D02*
Y1171D01*
Y562D02*
Y662D01*
Y1171D02*
Y1551D01*
Y562D02*
X2151Y536D01*
X2038Y1638D02*
X2125Y1551D01*
X750Y1638D02*
X2038D01*
X538Y3819D02*
Y4331D01*
Y3706D02*
Y3819D01*
Y3706D02*
X539Y3705D01*
X377Y3127D02*
X378Y3126D01*
X377Y3127D02*
Y3676D01*
X405Y3704D01*
X2484Y2205D02*
Y3704D01*
D188*
X4945Y6389D02*
Y7618D01*
Y5231D02*
Y6389D01*
X11187Y1370D02*
Y2210D01*
Y1136D02*
Y1370D01*
Y890D02*
Y1136D01*
Y154D02*
Y890D01*
X5360Y2208D02*
Y3376D01*
Y1395D02*
Y2208D01*
X8465Y1089D02*
Y4821D01*
X8376Y4910D02*
Y5302D01*
Y4910D02*
X8465Y4821D01*
Y1085D02*
Y1089D01*
X8408Y1027D02*
X8465Y1085D01*
X8408Y253D02*
Y1027D01*
X6185Y369D02*
Y1244D01*
X2484Y1523D02*
X2484Y1523D01*
Y2151D01*
X2485Y2151D02*
Y2204D01*
X4945Y5231D02*
X5360Y4816D01*
Y3376D02*
Y4816D01*
X2484Y2205D02*
X2485Y2204D01*
D189*
X8023Y1065D02*
Y2208D01*
X10130Y6517D02*
Y7375D01*
X8819Y6517D02*
Y7376D01*
X10907Y6516D02*
Y7376D01*
X6577Y1772D02*
Y2208D01*
Y959D02*
Y1772D01*
X9100Y2206D02*
X9101Y2207D01*
X9100Y1064D02*
Y2206D01*
X7358Y1104D02*
Y2008D01*
X7357Y2009D02*
X7358Y2008D01*
Y370D02*
X7359Y369D01*
X7358Y370D02*
Y1104D01*
X4039Y417D02*
X4040D01*
X4059Y436D01*
Y795D01*
X4107Y842D02*
Y1252D01*
X4059Y795D02*
X4107Y842D01*
X4976Y1250D02*
Y3702D01*
X8014Y80D02*
X8014Y80D01*
Y828D01*
X9146Y81D02*
Y780D01*
X9145Y80D02*
X9146Y81D01*
X2866Y2647D02*
Y3196D01*
Y2304D02*
Y2647D01*
X2062Y663D02*
X2124D01*
X2125Y662D01*
X2026Y699D02*
Y845D01*
Y699D02*
X2062Y663D01*
X2078Y1202D02*
Y1511D01*
X2078Y1512D02*
X2078Y1511D01*
X4338Y1655D02*
X4339Y1654D01*
X4338Y3680D02*
X4338Y3681D01*
X2866Y2304D02*
X2867Y2303D01*
X4906Y2304D02*
Y3169D01*
Y2304D02*
X4906Y2304D01*
X4905Y3170D02*
X4906Y3169D01*
X11515Y6505D02*
X11615Y6605D01*
X11515Y6105D02*
X11610Y6010D01*
X11515Y6105D02*
Y6505D01*
X8211Y5691D02*
Y6153D01*
X9705Y721D02*
X9741Y757D01*
Y1040D01*
X9976Y773D02*
Y1039D01*
X9976Y773D02*
X9976Y773D01*
X10186Y722D02*
Y1039D01*
X4385Y136D02*
X4425Y176D01*
Y756D01*
X3878Y730D02*
Y1037D01*
X3879Y1038D01*
D190*
X7962Y5572D02*
Y5913D01*
Y5497D02*
Y5572D01*
X8456Y5041D02*
Y5494D01*
X11610Y5910D02*
X11676D01*
X11720Y5954D02*
Y6063D01*
X11676Y5910D02*
X11720Y5954D01*
X11721Y6064D02*
Y6455D01*
X11720Y6063D02*
X11721Y6064D01*
X11671Y6505D02*
X11721Y6455D01*
X11615Y6505D02*
X11671D01*
X9178Y5764D02*
Y6076D01*
D191*
X11710Y3650D02*
D03*
X11015D02*
D03*
X10630Y2559D02*
D03*
X10630Y4843D02*
D03*
X7087Y4843D02*
D03*
X7087Y2559D02*
D03*
X11654Y7717D02*
D03*
Y157D02*
D03*
X157Y7717D02*
D03*
Y157D02*
D03*
D192*
Y4839D02*
D03*
Y5002D02*
D03*
D193*
X10065Y5400D02*
D03*
Y5500D02*
D03*
Y5300D02*
D03*
D194*
X9320Y5937D02*
D03*
Y5740D02*
D03*
D195*
X11610Y6010D02*
D03*
Y6110D02*
D03*
Y5910D02*
D03*
X11615Y6505D02*
D03*
Y6605D02*
D03*
Y6405D02*
D03*
D196*
X232Y3817D02*
D03*
X228Y4308D02*
D03*
D197*
X182Y3817D02*
D03*
X232Y3867D02*
D03*
X182D02*
D03*
X232Y3917D02*
D03*
X182D02*
D03*
X232Y3967D02*
D03*
X182D02*
D03*
X232Y4017D02*
D03*
X182D02*
D03*
X178Y4308D02*
D03*
X228Y4358D02*
D03*
X178D02*
D03*
X228Y4408D02*
D03*
X178D02*
D03*
X228Y4458D02*
D03*
X178D02*
D03*
X228Y4508D02*
D03*
X178D02*
D03*
D198*
X3705Y7548D02*
D03*
X1422D02*
D03*
Y5619D02*
D03*
X3705D02*
D03*
D199*
X3513Y5669D02*
D03*
D200*
X3413D02*
D03*
X3313D02*
D03*
X3213D02*
D03*
X3113D02*
D03*
X3013D02*
D03*
X3513Y5569D02*
D03*
X3413D02*
D03*
X3313D02*
D03*
X3213D02*
D03*
X3113D02*
D03*
X3013D02*
D03*
X2913Y5669D02*
D03*
Y5569D02*
D03*
X2813Y5669D02*
D03*
X2713D02*
D03*
X2613D02*
D03*
X2513D02*
D03*
X2413D02*
D03*
X2313D02*
D03*
X2813Y5569D02*
D03*
X2713D02*
D03*
X2613D02*
D03*
X2513D02*
D03*
X2413D02*
D03*
X2313D02*
D03*
X2213Y5669D02*
D03*
Y5569D02*
D03*
X2113Y5669D02*
D03*
X2013D02*
D03*
X1913D02*
D03*
X1813D02*
D03*
X1713D02*
D03*
X1613D02*
D03*
X2113Y5569D02*
D03*
X2013D02*
D03*
X1913D02*
D03*
X1813D02*
D03*
X1713D02*
D03*
X1613D02*
D03*
X1473Y5910D02*
D03*
X1373D02*
D03*
X1473Y5810D02*
D03*
X1373D02*
D03*
D201*
X182Y515D02*
D03*
Y715D02*
D03*
D202*
X520Y1893D02*
D03*
X2270Y922D02*
D03*
X2089Y921D02*
D03*
X1954Y710D02*
D03*
X1947Y614D02*
D03*
X4390Y3457D02*
D03*
X7792Y1647D02*
D03*
X8086Y1552D02*
D03*
X8064Y1696D02*
D03*
X8077Y1879D02*
D03*
X8085Y1999D02*
D03*
X8078Y2137D02*
D03*
X8023Y2208D02*
D03*
Y1065D02*
D03*
X9080Y360D02*
D03*
X9060Y500D02*
D03*
X9100Y630D02*
D03*
X10080Y180D02*
D03*
X9900Y160D02*
D03*
X9710Y170D02*
D03*
X9560Y230D02*
D03*
X9200Y340D02*
D03*
X9230Y510D02*
D03*
X9260Y690D02*
D03*
X9490Y740D02*
D03*
X9540Y810D02*
D03*
X9510Y1020D02*
D03*
X11450Y950D02*
D03*
X11470Y600D02*
D03*
X11640Y500D02*
D03*
X11400Y230D02*
D03*
X11270Y70D02*
D03*
X10700D02*
D03*
X10580Y110D02*
D03*
X10730Y170D02*
D03*
X10920Y420D02*
D03*
X11060Y610D02*
D03*
X10940Y620D02*
D03*
X10840Y720D02*
D03*
X10780Y610D02*
D03*
X10520Y590D02*
D03*
X10510Y730D02*
D03*
X10430Y880D02*
D03*
X10460Y1090D02*
D03*
X10290Y1250D02*
D03*
X11450Y1180D02*
D03*
X11540Y790D02*
D03*
X11690Y890D02*
D03*
X11510Y1160D02*
D03*
X11680Y1390D02*
D03*
X11460Y1730D02*
D03*
X11640Y1620D02*
D03*
X11450Y1440D02*
D03*
X11100Y1520D02*
D03*
X11020Y1620D02*
D03*
X11040Y1800D02*
D03*
X11000Y1940D02*
D03*
X11080Y2110D02*
D03*
X10710Y1930D02*
D03*
X10780Y1700D02*
D03*
X10650Y1550D02*
D03*
X10480Y1380D02*
D03*
X10400Y1590D02*
D03*
X10310Y1400D02*
D03*
X10190Y1570D02*
D03*
X10390Y1790D02*
D03*
X10550Y1780D02*
D03*
X10520Y2080D02*
D03*
X10270Y2000D02*
D03*
X9910Y2020D02*
D03*
X10080Y1770D02*
D03*
X9870Y1760D02*
D03*
X10100Y2040D02*
D03*
X9630Y2010D02*
D03*
X9710Y1800D02*
D03*
X9460Y1650D02*
D03*
X9380Y1060D02*
D03*
X9450Y1230D02*
D03*
X9320Y1430D02*
D03*
X9270Y1680D02*
D03*
X9330Y2060D02*
D03*
X9580Y1840D02*
D03*
X9450Y1990D02*
D03*
X9380Y1800D02*
D03*
X9160Y1460D02*
D03*
X9150Y1620D02*
D03*
X9160Y1830D02*
D03*
X9150Y2090D02*
D03*
X11610Y2030D02*
D03*
X11530Y1850D02*
D03*
X11410Y2120D02*
D03*
X11710Y2320D02*
D03*
X11140Y2630D02*
D03*
X11510Y2650D02*
D03*
X11190Y2290D02*
D03*
X11130Y2360D02*
D03*
X11020Y2280D02*
D03*
X10780D02*
D03*
X10590Y2320D02*
D03*
X10430Y2290D02*
D03*
X10310Y2320D02*
D03*
X10050Y2260D02*
D03*
X9910Y2330D02*
D03*
X9680Y2310D02*
D03*
X9550Y2470D02*
D03*
X9460Y2300D02*
D03*
X9290Y2470D02*
D03*
X9310Y2300D02*
D03*
X9130Y2700D02*
D03*
X9140Y2360D02*
D03*
X9130Y2520D02*
D03*
X9400Y2510D02*
D03*
X10250Y2650D02*
D03*
X10550Y2830D02*
D03*
X10470Y3020D02*
D03*
X9990Y3230D02*
D03*
X9780Y3030D02*
D03*
X10040Y2940D02*
D03*
X9760Y3510D02*
D03*
X9920Y2630D02*
D03*
X9190Y2960D02*
D03*
X9470Y3150D02*
D03*
X9530Y2860D02*
D03*
X9150Y3150D02*
D03*
X9350Y3510D02*
D03*
X9600Y3320D02*
D03*
X10090Y3470D02*
D03*
X10460Y3440D02*
D03*
X10630Y3270D02*
D03*
X11670Y2830D02*
D03*
X11430Y3070D02*
D03*
X11190Y3240D02*
D03*
X11390Y3530D02*
D03*
X11160Y3970D02*
D03*
X11480Y3960D02*
D03*
X11730Y4360D02*
D03*
X11480Y4260D02*
D03*
X11130Y4360D02*
D03*
X10730Y4230D02*
D03*
X10540Y4000D02*
D03*
X10170Y4120D02*
D03*
X10020Y4020D02*
D03*
X9820Y3750D02*
D03*
X9230Y3830D02*
D03*
X9380Y4030D02*
D03*
X9680Y3900D02*
D03*
X9840Y4200D02*
D03*
X10000Y4430D02*
D03*
X10780Y4640D02*
D03*
X10490Y4390D02*
D03*
X10280Y4790D02*
D03*
X10060Y4830D02*
D03*
X10220Y4490D02*
D03*
X9370Y4380D02*
D03*
X9380Y4170D02*
D03*
X9270D02*
D03*
X9410Y4460D02*
D03*
X9820Y4720D02*
D03*
X9700Y4970D02*
D03*
X10040Y5000D02*
D03*
X10620Y5020D02*
D03*
X10870Y5010D02*
D03*
X11080Y4980D02*
D03*
Y4830D02*
D03*
X11130Y4710D02*
D03*
X11220Y4690D02*
D03*
X11410D02*
D03*
X11640Y4710D02*
D03*
X11630Y4940D02*
D03*
X11640Y5220D02*
D03*
X10620Y5190D02*
D03*
X9400D02*
D03*
X9800D02*
D03*
X10380Y5260D02*
D03*
X10410Y5490D02*
D03*
X10660D02*
D03*
X10760Y5350D02*
D03*
X11040Y5210D02*
D03*
X11700Y5640D02*
D03*
X11500Y5370D02*
D03*
X11300Y5460D02*
D03*
X11210Y5490D02*
D03*
X11030Y5400D02*
D03*
X10980Y5560D02*
D03*
X10960Y5780D02*
D03*
X9580Y5310D02*
D03*
X9520Y5530D02*
D03*
X9650Y5620D02*
D03*
X9910Y5870D02*
D03*
X9680Y5880D02*
D03*
X9660Y5810D02*
D03*
X9480Y5930D02*
D03*
X9460Y5830D02*
D03*
Y5620D02*
D03*
X9310Y5630D02*
D03*
X8520Y5520D02*
D03*
X8540Y5610D02*
D03*
X8800Y5590D02*
D03*
X8860Y5600D02*
D03*
X8820Y5990D02*
D03*
X11420Y6330D02*
D03*
X11300Y6170D02*
D03*
X11010Y6030D02*
D03*
X10920Y5820D02*
D03*
X10530Y6000D02*
D03*
X10240Y5900D02*
D03*
X10180Y6020D02*
D03*
X9790Y6040D02*
D03*
X9410Y6100D02*
D03*
X9340Y6280D02*
D03*
X9730Y6290D02*
D03*
X10110Y6300D02*
D03*
X10420D02*
D03*
X10740Y6320D02*
D03*
X11140Y6420D02*
D03*
X11360Y6700D02*
D03*
X11690Y6890D02*
D03*
X11530Y6930D02*
D03*
X11070Y6720D02*
D03*
Y7090D02*
D03*
X11220Y7030D02*
D03*
X11610Y7280D02*
D03*
X11370Y7380D02*
D03*
X11120Y7670D02*
D03*
X10600Y6870D02*
D03*
X10790Y6780D02*
D03*
X10550Y6620D02*
D03*
X10240Y6630D02*
D03*
X10350Y6770D02*
D03*
X10250Y6960D02*
D03*
X10300Y7730D02*
D03*
X10310Y7460D02*
D03*
X10330Y7190D02*
D03*
X9560Y7260D02*
D03*
X9870Y6700D02*
D03*
X10040Y6910D02*
D03*
X9580Y7010D02*
D03*
X9530Y6670D02*
D03*
X9040Y6660D02*
D03*
X9150Y7030D02*
D03*
X9260Y6780D02*
D03*
X9380Y6890D02*
D03*
X9300Y7180D02*
D03*
X9260Y7470D02*
D03*
X9460Y7640D02*
D03*
X9190Y7690D02*
D03*
X10735Y7190D02*
D03*
Y7230D02*
D03*
Y7270D02*
D03*
Y7310D02*
D03*
X10635Y7190D02*
D03*
Y7230D02*
D03*
Y7270D02*
D03*
Y7310D02*
D03*
Y7350D02*
D03*
X10735D02*
D03*
X10625Y7450D02*
D03*
Y7490D02*
D03*
Y7530D02*
D03*
Y7570D02*
D03*
Y7610D02*
D03*
Y7650D02*
D03*
X10725D02*
D03*
Y7610D02*
D03*
Y7570D02*
D03*
Y7530D02*
D03*
Y7490D02*
D03*
Y7450D02*
D03*
X9980Y7190D02*
D03*
Y7230D02*
D03*
Y7270D02*
D03*
Y7310D02*
D03*
X9880Y7190D02*
D03*
Y7230D02*
D03*
Y7270D02*
D03*
Y7310D02*
D03*
Y7350D02*
D03*
X9980D02*
D03*
X9870Y7450D02*
D03*
Y7490D02*
D03*
Y7530D02*
D03*
Y7570D02*
D03*
Y7610D02*
D03*
Y7650D02*
D03*
X9970D02*
D03*
Y7610D02*
D03*
Y7570D02*
D03*
Y7530D02*
D03*
Y7490D02*
D03*
Y7450D02*
D03*
X8640D02*
D03*
Y7490D02*
D03*
Y7530D02*
D03*
Y7570D02*
D03*
Y7610D02*
D03*
Y7650D02*
D03*
X8540D02*
D03*
Y7610D02*
D03*
Y7570D02*
D03*
Y7530D02*
D03*
Y7490D02*
D03*
Y7450D02*
D03*
X8650Y7350D02*
D03*
X8550D02*
D03*
Y7310D02*
D03*
Y7270D02*
D03*
Y7230D02*
D03*
Y7190D02*
D03*
X8650Y7310D02*
D03*
Y7270D02*
D03*
Y7230D02*
D03*
Y7190D02*
D03*
X6450Y6660D02*
D03*
X6590Y6880D02*
D03*
X8260Y7780D02*
D03*
X8880Y7740D02*
D03*
X8970Y7400D02*
D03*
X8960Y7140D02*
D03*
X8940Y6840D02*
D03*
X8520Y6850D02*
D03*
X8780Y6720D02*
D03*
X8510Y6640D02*
D03*
X8010Y6920D02*
D03*
X8270Y6630D02*
D03*
X7960Y6610D02*
D03*
X7490Y6620D02*
D03*
X7130Y6650D02*
D03*
X7540Y6840D02*
D03*
X8120Y7150D02*
D03*
X8240Y7090D02*
D03*
X7820Y6780D02*
D03*
X7510Y7160D02*
D03*
X6920Y7050D02*
D03*
X7240Y6900D02*
D03*
X6910Y7220D02*
D03*
X7100D02*
D03*
X7860Y7240D02*
D03*
X8250Y7330D02*
D03*
X8070Y7680D02*
D03*
X7570Y7540D02*
D03*
X7270Y7350D02*
D03*
X7070Y7650D02*
D03*
X7850Y7500D02*
D03*
X7400Y7690D02*
D03*
X6850Y7440D02*
D03*
X6530Y7710D02*
D03*
X6450Y7510D02*
D03*
X5880Y7700D02*
D03*
X5850Y7560D02*
D03*
X5990Y7140D02*
D03*
X5890Y6860D02*
D03*
X5880Y6730D02*
D03*
Y6580D02*
D03*
X7590Y6020D02*
D03*
X8320Y6030D02*
D03*
X8410D02*
D03*
X8890Y6130D02*
D03*
X8970Y6250D02*
D03*
X8630Y6260D02*
D03*
X8350D02*
D03*
X8070D02*
D03*
X7840D02*
D03*
X7610Y6180D02*
D03*
X7590Y6260D02*
D03*
X7360Y6180D02*
D03*
X7070D02*
D03*
X6830D02*
D03*
X6420D02*
D03*
X6160Y6130D02*
D03*
X6000Y6200D02*
D03*
X5820Y6130D02*
D03*
X6280Y5660D02*
D03*
X8920Y5340D02*
D03*
X8990Y5470D02*
D03*
X8880D02*
D03*
X8700Y5460D02*
D03*
X8580Y5470D02*
D03*
X8630Y5140D02*
D03*
X8580Y5110D02*
D03*
X8540Y5310D02*
D03*
X8290Y5370D02*
D03*
X8220D02*
D03*
X7980Y5350D02*
D03*
X8110Y5670D02*
D03*
X8050Y5770D02*
D03*
X8130Y5870D02*
D03*
X7870Y5770D02*
D03*
X7800Y5440D02*
D03*
X7440Y5420D02*
D03*
Y5340D02*
D03*
X7620Y5230D02*
D03*
X6330Y4700D02*
D03*
X6300Y4850D02*
D03*
X6210Y4810D02*
D03*
X5700Y4550D02*
D03*
X5940Y4460D02*
D03*
X6200Y4440D02*
D03*
X6260Y4540D02*
D03*
X6750Y5440D02*
D03*
X6820Y5510D02*
D03*
X6730Y5780D02*
D03*
X6410Y5880D02*
D03*
X6080Y5750D02*
D03*
X5910Y5960D02*
D03*
X5900Y5610D02*
D03*
X6220Y5310D02*
D03*
X6490Y5590D02*
D03*
X6050Y5470D02*
D03*
X5880Y5390D02*
D03*
X5920Y5230D02*
D03*
X6350Y5200D02*
D03*
X6510Y5120D02*
D03*
X6600Y4900D02*
D03*
X6640Y4810D02*
D03*
X6610Y4560D02*
D03*
X6900Y4900D02*
D03*
X6860Y4780D02*
D03*
X6910Y4540D02*
D03*
X7240Y4550D02*
D03*
X7460Y4720D02*
D03*
X7310Y5030D02*
D03*
X7480Y5060D02*
D03*
X7630Y4870D02*
D03*
X7820Y5070D02*
D03*
X8010Y4930D02*
D03*
X7740Y4750D02*
D03*
X7670Y4500D02*
D03*
X8020Y4470D02*
D03*
X8030Y4660D02*
D03*
X8180Y4880D02*
D03*
X8310Y4590D02*
D03*
X8770Y4760D02*
D03*
X8640Y4570D02*
D03*
X8550Y4880D02*
D03*
X8800Y4870D02*
D03*
X8890Y4690D02*
D03*
X8810Y4460D02*
D03*
X5910Y4020D02*
D03*
X6871Y3720D02*
D03*
X7230D02*
D03*
X7480Y3740D02*
D03*
X7620Y3730D02*
D03*
X7950Y3790D02*
D03*
X8190Y3740D02*
D03*
X8330Y3800D02*
D03*
X6570Y3960D02*
D03*
X6820Y3930D02*
D03*
X7010Y3990D02*
D03*
X7240Y3960D02*
D03*
X7570Y3950D02*
D03*
X7970Y3980D02*
D03*
X8310Y3970D02*
D03*
X8750Y3950D02*
D03*
X8940Y3940D02*
D03*
X9040Y3830D02*
D03*
X8800Y3770D02*
D03*
X8850Y3360D02*
D03*
X8810Y3590D02*
D03*
X9010Y3580D02*
D03*
X8970Y3420D02*
D03*
X8740Y3230D02*
D03*
X8960Y3120D02*
D03*
X8800Y3010D02*
D03*
X8580Y3440D02*
D03*
X8590Y3180D02*
D03*
X8580Y2970D02*
D03*
X7860Y3400D02*
D03*
X7710Y3610D02*
D03*
X8280Y3550D02*
D03*
X8030Y3430D02*
D03*
X7740Y3270D02*
D03*
X7970Y3140D02*
D03*
X8310Y3320D02*
D03*
X8340Y3130D02*
D03*
X8170Y3050D02*
D03*
X8010Y3020D02*
D03*
X7730Y2990D02*
D03*
X7500Y3070D02*
D03*
X7490Y3360D02*
D03*
Y3580D02*
D03*
X7040Y3370D02*
D03*
X7270Y3460D02*
D03*
X7190Y3540D02*
D03*
X6980Y3520D02*
D03*
X6810Y3450D02*
D03*
X6840Y3210D02*
D03*
X7130Y3200D02*
D03*
X7280Y3080D02*
D03*
X7130Y3010D02*
D03*
X6970Y3050D02*
D03*
X6820Y2970D02*
D03*
X6610Y3030D02*
D03*
X6530Y3180D02*
D03*
X6630Y3300D02*
D03*
X6620Y3530D02*
D03*
X6520Y3520D02*
D03*
X5530Y3240D02*
D03*
X5900Y3340D02*
D03*
X5740Y3390D02*
D03*
X5480Y3420D02*
D03*
X5560Y3630D02*
D03*
X5720Y3600D02*
D03*
X5960Y3680D02*
D03*
X6070Y3560D02*
D03*
X6220Y3470D02*
D03*
X6140Y3270D02*
D03*
X6220Y3190D02*
D03*
X6060Y3010D02*
D03*
X5890Y3070D02*
D03*
X5760Y3050D02*
D03*
X5670Y3130D02*
D03*
X5490Y2990D02*
D03*
X7810Y2660D02*
D03*
X7800Y2820D02*
D03*
Y2730D02*
D03*
X8050Y2670D02*
D03*
X8190Y2700D02*
D03*
X8220Y2810D02*
D03*
X8320Y2680D02*
D03*
X8600Y2700D02*
D03*
X8850D02*
D03*
X8970D02*
D03*
X8860Y2490D02*
D03*
X8970Y2400D02*
D03*
X8900Y2310D02*
D03*
X8950Y2100D02*
D03*
X8820Y2090D02*
D03*
X8910Y1910D02*
D03*
X8980Y1740D02*
D03*
X8910Y1610D02*
D03*
X8980Y1480D02*
D03*
X8870Y1430D02*
D03*
X8990Y1200D02*
D03*
X8690Y2330D02*
D03*
X8700Y2510D02*
D03*
X8590Y2330D02*
D03*
Y2520D02*
D03*
X8230Y2500D02*
D03*
X8310Y2420D02*
D03*
X8220Y2290D02*
D03*
X8050Y2360D02*
D03*
X8060Y2510D02*
D03*
X7770Y2530D02*
D03*
X7870Y2420D02*
D03*
X7760Y2300D02*
D03*
X7590Y2320D02*
D03*
X7600Y2500D02*
D03*
X7470Y2350D02*
D03*
Y2550D02*
D03*
X7350Y2390D02*
D03*
Y2570D02*
D03*
X7070Y2350D02*
D03*
X6880Y2640D02*
D03*
X6770Y2570D02*
D03*
X6880Y2330D02*
D03*
X6590D02*
D03*
X6530Y2370D02*
D03*
X6620Y2500D02*
D03*
X6550Y2630D02*
D03*
X6190Y2520D02*
D03*
X6130Y2320D02*
D03*
X5970Y2630D02*
D03*
X5800Y2400D02*
D03*
X5610Y2580D02*
D03*
X5550Y2380D02*
D03*
X7620Y170D02*
D03*
X7900D02*
D03*
X8330Y180D02*
D03*
X8570Y220D02*
D03*
X8280Y1230D02*
D03*
X8290Y1460D02*
D03*
X8260Y1620D02*
D03*
X8280Y1770D02*
D03*
X8230Y1940D02*
D03*
X8250Y2070D02*
D03*
X7800Y2120D02*
D03*
X7590Y2090D02*
D03*
X7350Y2120D02*
D03*
X7040Y2140D02*
D03*
X6780Y2130D02*
D03*
X6840Y1940D02*
D03*
X7000Y2000D02*
D03*
X7130Y1890D02*
D03*
X7860Y2000D02*
D03*
X7800Y1820D02*
D03*
X7890Y1710D02*
D03*
X7770Y1520D02*
D03*
X7850Y1430D02*
D03*
X7910Y1200D02*
D03*
X7780Y1000D02*
D03*
X8320D02*
D03*
X8510Y850D02*
D03*
X8540Y940D02*
D03*
X8930Y550D02*
D03*
X8920Y580D02*
D03*
Y650D02*
D03*
X8840Y700D02*
D03*
X8889Y691D02*
D03*
X8780Y700D02*
D03*
X8730Y690D02*
D03*
X8690D02*
D03*
X7470Y790D02*
D03*
Y900D02*
D03*
X7510Y1030D02*
D03*
X7270Y1060D02*
D03*
X7070Y980D02*
D03*
X7090Y1350D02*
D03*
X7070Y1540D02*
D03*
X7100Y1660D02*
D03*
X6840Y1070D02*
D03*
X6830Y1620D02*
D03*
Y1340D02*
D03*
X5870Y1850D02*
D03*
X6180Y1920D02*
D03*
X5890Y2070D02*
D03*
X5500Y1970D02*
D03*
X5740Y1630D02*
D03*
X6100Y1510D02*
D03*
X5940Y1410D02*
D03*
X5610Y1390D02*
D03*
X6510Y1840D02*
D03*
X6480Y1550D02*
D03*
Y1290D02*
D03*
X6470Y1030D02*
D03*
X7060Y1060D02*
D03*
X7290Y960D02*
D03*
Y820D02*
D03*
X6880Y530D02*
D03*
X6810Y700D02*
D03*
X6970Y710D02*
D03*
X7060Y490D02*
D03*
X7270Y600D02*
D03*
X7100Y200D02*
D03*
X6810Y210D02*
D03*
X6490Y240D02*
D03*
X6510Y510D02*
D03*
Y660D02*
D03*
X6390Y770D02*
D03*
X6330Y530D02*
D03*
X5950Y470D02*
D03*
X6270Y190D02*
D03*
X6070Y180D02*
D03*
X5384Y316D02*
D03*
X5690Y630D02*
D03*
X5930Y1040D02*
D03*
X5580Y1050D02*
D03*
X5260Y630D02*
D03*
X5580Y850D02*
D03*
X5610Y230D02*
D03*
X5090Y380D02*
D03*
X5000Y890D02*
D03*
X4810Y580D02*
D03*
X4780Y240D02*
D03*
X4230Y770D02*
D03*
X4170Y1160D02*
D03*
X4160Y960D02*
D03*
X4360Y1140D02*
D03*
X4810D02*
D03*
X5360Y1020D02*
D03*
X4950Y1080D02*
D03*
X4710Y810D02*
D03*
X4640Y710D02*
D03*
X4560Y460D02*
D03*
X4280Y700D02*
D03*
X4340Y650D02*
D03*
X4360Y460D02*
D03*
X4140Y140D02*
D03*
X2810Y150D02*
D03*
X3200D02*
D03*
X3570Y160D02*
D03*
X3960Y140D02*
D03*
X3930Y540D02*
D03*
X3720Y640D02*
D03*
X3410Y750D02*
D03*
X3360Y1080D02*
D03*
X3610Y1090D02*
D03*
X3180Y890D02*
D03*
X3080Y1100D02*
D03*
X2790Y1070D02*
D03*
X2990Y670D02*
D03*
X2940Y830D02*
D03*
X2670Y920D02*
D03*
X2570Y730D02*
D03*
X2450Y1010D02*
D03*
X2510Y840D02*
D03*
Y1160D02*
D03*
X2420Y1080D02*
D03*
X2930Y1330D02*
D03*
X3140Y1300D02*
D03*
X3400Y1320D02*
D03*
X3630D02*
D03*
X3810D02*
D03*
X3940D02*
D03*
X4120Y1310D02*
D03*
X4220Y1320D02*
D03*
X4390D02*
D03*
X4630D02*
D03*
X4850Y1330D02*
D03*
X5170Y1320D02*
D03*
X5290Y1350D02*
D03*
X5240Y1840D02*
D03*
X5070Y1830D02*
D03*
X5200Y1530D02*
D03*
X4800Y1460D02*
D03*
X4630Y1590D02*
D03*
X4430Y1480D02*
D03*
X4070Y1500D02*
D03*
X3260Y1550D02*
D03*
X2540Y1520D02*
D03*
X2580Y1580D02*
D03*
X2740Y1570D02*
D03*
X3840Y1550D02*
D03*
X3530Y1450D02*
D03*
X3450Y1540D02*
D03*
X3130Y1470D02*
D03*
X3010Y1550D02*
D03*
X2850Y1480D02*
D03*
X3890Y1760D02*
D03*
X3850Y2000D02*
D03*
X3720Y1860D02*
D03*
X3530Y1990D02*
D03*
X3290Y1770D02*
D03*
X3090Y2030D02*
D03*
X2870Y1780D02*
D03*
X2710Y1910D02*
D03*
X2950Y1890D02*
D03*
X4020Y1840D02*
D03*
X4110Y2180D02*
D03*
X3900Y2170D02*
D03*
X3760Y2200D02*
D03*
X3280Y2100D02*
D03*
X3000Y2230D02*
D03*
X2850Y2070D02*
D03*
X2610Y2100D02*
D03*
X4830Y1720D02*
D03*
X4490Y1930D02*
D03*
X4610Y1810D02*
D03*
X4850Y2050D02*
D03*
X4670Y1970D02*
D03*
X4570Y2120D02*
D03*
X4850Y2220D02*
D03*
X5250Y2020D02*
D03*
X5100Y2130D02*
D03*
X5200Y2320D02*
D03*
X5070Y2410D02*
D03*
X5210Y2550D02*
D03*
X5070Y2630D02*
D03*
X4470D02*
D03*
X4720Y2390D02*
D03*
X4520Y2460D02*
D03*
X4650Y2610D02*
D03*
X5080Y3070D02*
D03*
X5250Y3050D02*
D03*
X5080Y3250D02*
D03*
X5220Y3240D02*
D03*
X5250Y3440D02*
D03*
X5240Y3540D02*
D03*
X5170Y3660D02*
D03*
X5260Y3830D02*
D03*
X4660Y3860D02*
D03*
X4740Y3800D02*
D03*
X4600Y3650D02*
D03*
X4680Y3670D02*
D03*
Y3600D02*
D03*
X4810Y3430D02*
D03*
X4680Y3290D02*
D03*
X4470Y3270D02*
D03*
X4610Y3080D02*
D03*
X4840Y3020D02*
D03*
X4480Y2980D02*
D03*
X4190Y3010D02*
D03*
X4000Y3160D02*
D03*
X3690Y2940D02*
D03*
X3810Y2870D02*
D03*
X3600Y2830D02*
D03*
X4150Y2550D02*
D03*
X4110Y2450D02*
D03*
X3750Y2350D02*
D03*
X3480Y2360D02*
D03*
X3250Y2430D02*
D03*
X3070Y2530D02*
D03*
X3360Y2600D02*
D03*
X2990Y2380D02*
D03*
X3120Y2730D02*
D03*
X2990D02*
D03*
X2730Y2530D02*
D03*
X2600Y2620D02*
D03*
X2700Y2780D02*
D03*
X2610Y2960D02*
D03*
X2800Y3020D02*
D03*
X3080Y2950D02*
D03*
X3250Y2810D02*
D03*
X3460Y3230D02*
D03*
X3740Y3550D02*
D03*
X3620Y3390D02*
D03*
X3510Y3430D02*
D03*
X3580Y3600D02*
D03*
X3870Y3490D02*
D03*
X3810Y3740D02*
D03*
X3680Y3700D02*
D03*
X3470Y3770D02*
D03*
X3120Y3410D02*
D03*
X2970D02*
D03*
X2590Y3240D02*
D03*
X2920Y3690D02*
D03*
X3090Y3620D02*
D03*
X3000Y3510D02*
D03*
X2960Y4180D02*
D03*
X2940Y3860D02*
D03*
X2690Y4000D02*
D03*
X2700Y4130D02*
D03*
X3480Y4040D02*
D03*
X3780Y4090D02*
D03*
X5260D02*
D03*
X5040Y4080D02*
D03*
X4810Y4090D02*
D03*
X4630Y4060D02*
D03*
X4680Y4310D02*
D03*
X5040D02*
D03*
X5280Y4320D02*
D03*
X5440Y4470D02*
D03*
X5500Y4580D02*
D03*
X5180Y4460D02*
D03*
X5060Y4560D02*
D03*
X4910Y4470D02*
D03*
X4690Y4560D02*
D03*
X4620Y4450D02*
D03*
X4420Y4480D02*
D03*
X4440Y4580D02*
D03*
X3520Y4420D02*
D03*
X3510Y4560D02*
D03*
X3390Y4550D02*
D03*
X3410Y4400D02*
D03*
X5140Y4880D02*
D03*
X4980Y4870D02*
D03*
X5080Y5910D02*
D03*
X5280Y5960D02*
D03*
X5470Y5780D02*
D03*
X5320Y5530D02*
D03*
X5150Y5650D02*
D03*
X5180Y5400D02*
D03*
X5470D02*
D03*
X5220Y5220D02*
D03*
X5500Y5170D02*
D03*
X5300Y5060D02*
D03*
X4940D02*
D03*
X4790Y5160D02*
D03*
X4800Y5450D02*
D03*
Y5820D02*
D03*
Y6160D02*
D03*
X4640Y5120D02*
D03*
X4670Y5320D02*
D03*
X4610Y5500D02*
D03*
X4650Y5770D02*
D03*
X4590Y5940D02*
D03*
X4410Y5130D02*
D03*
Y5380D02*
D03*
Y5570D02*
D03*
X4430Y5830D02*
D03*
Y5960D02*
D03*
X4440Y6150D02*
D03*
X4660Y6160D02*
D03*
X5190Y6330D02*
D03*
X5530Y6360D02*
D03*
X5520Y6170D02*
D03*
X5460Y6140D02*
D03*
X5330Y6210D02*
D03*
X5080Y6140D02*
D03*
X4480Y6370D02*
D03*
X4640Y6350D02*
D03*
X5560Y6570D02*
D03*
X5240Y6530D02*
D03*
X5140Y6510D02*
D03*
X4590Y6590D02*
D03*
X4490Y6510D02*
D03*
X4660D02*
D03*
X4790Y6710D02*
D03*
X5610Y6730D02*
D03*
X5370Y6700D02*
D03*
X5090Y6670D02*
D03*
X4620Y6720D02*
D03*
X4450Y6680D02*
D03*
X4400Y6860D02*
D03*
X4620Y6820D02*
D03*
X5280Y6850D02*
D03*
X5440Y6820D02*
D03*
X5460Y6970D02*
D03*
X5070D02*
D03*
X4560Y6980D02*
D03*
X5160Y7300D02*
D03*
X5570Y7550D02*
D03*
X5430Y7800D02*
D03*
X5350Y7560D02*
D03*
X5450Y7240D02*
D03*
X5170Y7140D02*
D03*
X4500Y7200D02*
D03*
X4580Y7300D02*
D03*
X5140Y7510D02*
D03*
X5150Y7540D02*
D03*
X5160Y7600D02*
D03*
X5161Y7634D02*
D03*
X5160Y7670D02*
D03*
X5130Y7710D02*
D03*
X4370Y7720D02*
D03*
X4480Y7650D02*
D03*
X3800Y5160D02*
D03*
X3110Y4450D02*
D03*
Y4610D02*
D03*
X2990Y4660D02*
D03*
X2820Y4370D02*
D03*
X2720Y4590D02*
D03*
X2630Y4390D02*
D03*
X2670Y4810D02*
D03*
X2860Y4840D02*
D03*
X2540Y5110D02*
D03*
X2710Y5150D02*
D03*
X2900Y5120D02*
D03*
X3410Y5110D02*
D03*
X3470D02*
D03*
X3570D02*
D03*
X3610Y5120D02*
D03*
X3620Y5170D02*
D03*
Y5240D02*
D03*
X3660Y5300D02*
D03*
Y5340D02*
D03*
X3670Y5390D02*
D03*
X3860Y5350D02*
D03*
X4070Y5190D02*
D03*
X4060Y5440D02*
D03*
X4040Y5620D02*
D03*
X4080Y5800D02*
D03*
X4040Y5970D02*
D03*
X4100Y6150D02*
D03*
X3900Y6130D02*
D03*
X3160Y5730D02*
D03*
X3120D02*
D03*
X3080D02*
D03*
X1650Y5740D02*
D03*
X1610D02*
D03*
X1570D02*
D03*
X1950Y5490D02*
D03*
X1910D02*
D03*
X1870D02*
D03*
X2100Y5500D02*
D03*
X2650Y5490D02*
D03*
X2610D02*
D03*
X2570D02*
D03*
X3350D02*
D03*
X3310D02*
D03*
X3270D02*
D03*
X2960D02*
D03*
X2920D02*
D03*
X2880D02*
D03*
Y5850D02*
D03*
X3280Y5900D02*
D03*
X3670Y6040D02*
D03*
X3430Y6190D02*
D03*
X3190Y6260D02*
D03*
X2800Y5950D02*
D03*
X2440Y6170D02*
D03*
X2560Y6390D02*
D03*
X2790Y6290D02*
D03*
X3600Y6280D02*
D03*
X3740Y6870D02*
D03*
X3510Y6590D02*
D03*
X3250Y6730D02*
D03*
X2900Y6510D02*
D03*
X2600Y6670D02*
D03*
X2700Y6910D02*
D03*
X3220Y7150D02*
D03*
X3030Y6960D02*
D03*
X2670Y7220D02*
D03*
X3050Y7400D02*
D03*
X3290Y7580D02*
D03*
X3560Y7110D02*
D03*
X4010Y6540D02*
D03*
X4080Y6720D02*
D03*
X3930Y6830D02*
D03*
X4100Y7110D02*
D03*
X3990Y7250D02*
D03*
X4150Y7410D02*
D03*
X3980Y7570D02*
D03*
X4100Y7710D02*
D03*
X3810Y7800D02*
D03*
X3290Y7740D02*
D03*
X2750D02*
D03*
X2450Y7790D02*
D03*
X2670Y7470D02*
D03*
X1840Y6880D02*
D03*
X2180Y7620D02*
D03*
X2380Y7470D02*
D03*
X2030Y7150D02*
D03*
X1840Y7560D02*
D03*
X1650Y7260D02*
D03*
X1480Y6990D02*
D03*
X2300Y6970D02*
D03*
X1900Y6590D02*
D03*
Y6230D02*
D03*
X2460Y5850D02*
D03*
X1970Y5150D02*
D03*
X2380Y5140D02*
D03*
X2250Y5030D02*
D03*
X1970Y5040D02*
D03*
X1550Y6660D02*
D03*
X2210Y6630D02*
D03*
X2110Y6360D02*
D03*
X1490Y6240D02*
D03*
X1630Y6110D02*
D03*
X2110Y5970D02*
D03*
X2070Y5820D02*
D03*
X1670Y5810D02*
D03*
X1520Y5330D02*
D03*
X800Y5540D02*
D03*
X1000Y5700D02*
D03*
X770Y5910D02*
D03*
X1150Y6230D02*
D03*
X820Y6300D02*
D03*
X610Y6140D02*
D03*
X660Y6900D02*
D03*
X1090Y6530D02*
D03*
X670Y6450D02*
D03*
X800Y6650D02*
D03*
X1110Y6850D02*
D03*
X820Y7130D02*
D03*
X1090Y7430D02*
D03*
X1110Y7300D02*
D03*
X590Y7370D02*
D03*
X830Y7640D02*
D03*
X470Y7680D02*
D03*
X310Y7390D02*
D03*
X170Y7150D02*
D03*
X160Y6920D02*
D03*
X330Y6820D02*
D03*
X160Y6590D02*
D03*
X280Y6500D02*
D03*
X150Y6230D02*
D03*
X300Y6130D02*
D03*
X130Y5920D02*
D03*
X260Y5770D02*
D03*
X140Y5610D02*
D03*
X230Y5460D02*
D03*
X960Y5250D02*
D03*
X1050Y5130D02*
D03*
X1560Y5100D02*
D03*
X1240Y5280D02*
D03*
X750Y5110D02*
D03*
X620Y5290D02*
D03*
X350Y5100D02*
D03*
X180Y5310D02*
D03*
X80Y5190D02*
D03*
X280Y4820D02*
D03*
X390Y4870D02*
D03*
X560Y4800D02*
D03*
X770Y4870D02*
D03*
X920Y4800D02*
D03*
X1060Y4870D02*
D03*
X1280Y4810D02*
D03*
X1480Y4870D02*
D03*
X1590Y4790D02*
D03*
X1920Y4800D02*
D03*
X2000Y4880D02*
D03*
X2200Y4860D02*
D03*
X2340Y4800D02*
D03*
X2480Y4870D02*
D03*
X2440Y4390D02*
D03*
X2230Y4440D02*
D03*
X2410Y4520D02*
D03*
X2460Y4610D02*
D03*
X2200Y4630D02*
D03*
X1940Y4560D02*
D03*
X1960Y4350D02*
D03*
X1290Y4310D02*
D03*
X1190Y4490D02*
D03*
X1070Y4620D02*
D03*
X1280Y4610D02*
D03*
X1590Y4600D02*
D03*
X1490Y4350D02*
D03*
X1080Y4330D02*
D03*
X840Y4370D02*
D03*
X900Y4530D02*
D03*
X680Y4390D02*
D03*
X720Y4570D02*
D03*
X520Y4480D02*
D03*
X490Y4610D02*
D03*
X410Y4420D02*
D03*
X260Y4620D02*
D03*
X50Y4450D02*
D03*
X80Y4230D02*
D03*
Y3770D02*
D03*
X310Y3970D02*
D03*
X280Y4120D02*
D03*
X410Y3910D02*
D03*
X470Y4080D02*
D03*
X680Y3790D02*
D03*
X700Y4030D02*
D03*
X860Y4130D02*
D03*
X970Y4020D02*
D03*
X900Y3840D02*
D03*
X1000Y3790D02*
D03*
X1070Y3960D02*
D03*
X1150Y4150D02*
D03*
X1260Y4100D02*
D03*
X1270Y3880D02*
D03*
X1150Y3790D02*
D03*
X1420Y3780D02*
D03*
X1560Y3820D02*
D03*
X1410Y3990D02*
D03*
X1540Y4150D02*
D03*
X1950Y4120D02*
D03*
X2210Y3950D02*
D03*
X2410Y3780D02*
D03*
X2040Y3800D02*
D03*
X2000Y3940D02*
D03*
X2110Y4060D02*
D03*
X2430Y4100D02*
D03*
X2400Y3450D02*
D03*
X2300Y3600D02*
D03*
X2170Y3460D02*
D03*
X2060Y3580D02*
D03*
X1940Y3460D02*
D03*
X750Y3230D02*
D03*
X960Y3290D02*
D03*
X1110Y3220D02*
D03*
X1250Y3280D02*
D03*
X1470Y3240D02*
D03*
X1580Y3300D02*
D03*
X1980Y3260D02*
D03*
X2090Y3200D02*
D03*
X2310Y3220D02*
D03*
X2410Y3190D02*
D03*
X2340Y2800D02*
D03*
X2400Y2950D02*
D03*
X2320Y3090D02*
D03*
X2060D02*
D03*
X1940D02*
D03*
X1990Y2940D02*
D03*
X2110Y2910D02*
D03*
X2010Y2740D02*
D03*
X1200Y950D02*
D03*
X1930Y1900D02*
D03*
Y2180D02*
D03*
X2080Y2420D02*
D03*
X1970Y2550D02*
D03*
X2370Y2540D02*
D03*
X2300Y2420D02*
D03*
X2400Y2340D02*
D03*
X2310Y2090D02*
D03*
X2370Y1920D02*
D03*
X2350Y1730D02*
D03*
X2360Y1570D02*
D03*
X2350Y1480D02*
D03*
X2160D02*
D03*
Y1530D02*
D03*
X2250Y1580D02*
D03*
X2300D02*
D03*
X2020Y1440D02*
D03*
X1660Y1410D02*
D03*
X1710Y1570D02*
D03*
X1840D02*
D03*
X1960Y1560D02*
D03*
X2080Y1800D02*
D03*
X1800Y1870D02*
D03*
X2110Y2080D02*
D03*
X1820Y2090D02*
D03*
X1690Y2130D02*
D03*
X1630Y2020D02*
D03*
X1590Y1760D02*
D03*
X500Y3570D02*
D03*
X1540Y3590D02*
D03*
X1370Y3500D02*
D03*
X1190Y3580D02*
D03*
X910Y3520D02*
D03*
X700Y3590D02*
D03*
X500Y3400D02*
D03*
X270Y3620D02*
D03*
X90Y3650D02*
D03*
X60Y3440D02*
D03*
Y3210D02*
D03*
X50Y3020D02*
D03*
X70Y2780D02*
D03*
X270Y3020D02*
D03*
X460Y2980D02*
D03*
X500Y3120D02*
D03*
X700Y3110D02*
D03*
X990Y3120D02*
D03*
X1210D02*
D03*
X1470Y3110D02*
D03*
X1320Y2960D02*
D03*
X1560Y2900D02*
D03*
X1620Y2420D02*
D03*
Y2470D02*
D03*
Y2520D02*
D03*
Y2580D02*
D03*
Y2640D02*
D03*
X1570Y2670D02*
D03*
X1510D02*
D03*
X1450D02*
D03*
X1380D02*
D03*
X1300D02*
D03*
X1290Y2730D02*
D03*
Y2780D02*
D03*
X1280Y2850D02*
D03*
X1250Y2890D02*
D03*
X1190Y2900D02*
D03*
X1140Y2910D02*
D03*
X900D02*
D03*
X830Y2880D02*
D03*
X780Y2820D02*
D03*
X630D02*
D03*
X570Y2810D02*
D03*
X520Y2840D02*
D03*
X475Y2841D02*
D03*
X430Y2840D02*
D03*
X380Y2830D02*
D03*
X330D02*
D03*
X240D02*
D03*
Y2720D02*
D03*
X100Y2690D02*
D03*
X80Y2570D02*
D03*
X70Y2470D02*
D03*
X60Y2390D02*
D03*
X70Y2300D02*
D03*
X520Y2290D02*
D03*
X450Y2280D02*
D03*
X380Y2290D02*
D03*
X370Y2210D02*
D03*
Y2140D02*
D03*
X610Y1980D02*
D03*
X520Y1860D02*
D03*
X570Y1790D02*
D03*
Y1850D02*
D03*
X610Y1760D02*
D03*
Y1800D02*
D03*
Y1840D02*
D03*
Y1880D02*
D03*
X200Y2000D02*
D03*
X90Y1740D02*
D03*
X60Y1890D02*
D03*
X840Y1710D02*
D03*
X1050Y1740D02*
D03*
X1140Y1850D02*
D03*
X1450Y1740D02*
D03*
X1390D02*
D03*
X1230Y1680D02*
D03*
X1410Y1540D02*
D03*
X1300D02*
D03*
X800Y1430D02*
D03*
X820Y1540D02*
D03*
X1210Y1350D02*
D03*
X1080Y1550D02*
D03*
X930D02*
D03*
X950Y1400D02*
D03*
X1060Y1270D02*
D03*
X790Y900D02*
D03*
X850Y920D02*
D03*
X880Y970D02*
D03*
X910Y1020D02*
D03*
Y1060D02*
D03*
Y1100D02*
D03*
Y1170D02*
D03*
Y1240D02*
D03*
X900Y1290D02*
D03*
X870Y1310D02*
D03*
X800D02*
D03*
X750D02*
D03*
X690D02*
D03*
Y1360D02*
D03*
Y1410D02*
D03*
Y1460D02*
D03*
Y1510D02*
D03*
Y1550D02*
D03*
Y1590D02*
D03*
Y1630D02*
D03*
X200Y1550D02*
D03*
X290Y1690D02*
D03*
X90Y1620D02*
D03*
X130Y1380D02*
D03*
X280Y1460D02*
D03*
X330Y1260D02*
D03*
X190Y1230D02*
D03*
X170Y1090D02*
D03*
X60Y990D02*
D03*
X1690Y160D02*
D03*
X2090Y610D02*
D03*
X2270Y540D02*
D03*
X2450Y600D02*
D03*
X2360Y670D02*
D03*
X2340Y770D02*
D03*
X2040Y1000D02*
D03*
X1430Y960D02*
D03*
X1470Y910D02*
D03*
X1570Y920D02*
D03*
X1620Y1000D02*
D03*
X1750Y990D02*
D03*
X1710Y920D02*
D03*
X1760Y840D02*
D03*
X1890Y620D02*
D03*
X1850D02*
D03*
X1810D02*
D03*
X1920Y710D02*
D03*
X1880Y200D02*
D03*
X1600Y260D02*
D03*
X1710Y340D02*
D03*
X1440Y470D02*
D03*
X1590Y450D02*
D03*
X1470Y370D02*
D03*
X1370Y160D02*
D03*
X1060Y210D02*
D03*
X690Y150D02*
D03*
X620Y260D02*
D03*
X1340Y370D02*
D03*
X1290Y320D02*
D03*
X1200Y310D02*
D03*
X1080D02*
D03*
X930Y320D02*
D03*
X840Y310D02*
D03*
X740Y320D02*
D03*
X670D02*
D03*
X590D02*
D03*
X430Y370D02*
D03*
Y420D02*
D03*
Y470D02*
D03*
Y520D02*
D03*
Y570D02*
D03*
X380Y370D02*
D03*
Y420D02*
D03*
Y470D02*
D03*
Y520D02*
D03*
Y570D02*
D03*
X10130Y6517D02*
D03*
Y7375D02*
D03*
X8819Y6517D02*
D03*
Y7376D02*
D03*
X10907D02*
D03*
Y6516D02*
D03*
X4945Y6389D02*
D03*
X6577Y1772D02*
D03*
X6578Y1498D02*
D03*
Y1234D02*
D03*
X6577Y2208D02*
D03*
Y959D02*
D03*
X7228Y2209D02*
D03*
Y1789D02*
D03*
X8345Y2209D02*
D03*
X8344Y1791D02*
D03*
X9101Y2207D02*
D03*
X9100Y1064D02*
D03*
X11187Y1370D02*
D03*
Y1136D02*
D03*
Y890D02*
D03*
Y154D02*
D03*
Y2210D02*
D03*
X5360Y2208D02*
D03*
X8376Y5302D02*
D03*
X8466Y1549D02*
D03*
X8465Y2012D02*
D03*
X8465Y1089D02*
D03*
X7357Y2009D02*
D03*
X7359Y369D02*
D03*
X7358Y1104D02*
D03*
X8408Y253D02*
D03*
X4039Y417D02*
D03*
X4107Y1252D02*
D03*
X4059Y795D02*
D03*
X4976Y1250D02*
D03*
Y3702D02*
D03*
X6185Y369D02*
D03*
Y1244D02*
D03*
X2484Y1523D02*
D03*
X8014Y828D02*
D03*
X9146Y780D02*
D03*
X10309Y1093D02*
D03*
X11334Y411D02*
D03*
Y2386D02*
D03*
X11256Y2441D02*
D03*
X11291Y2421D02*
D03*
X11290Y459D02*
D03*
X11258Y312D02*
D03*
X7650Y1360D02*
D03*
Y2654D02*
D03*
X7965Y954D02*
D03*
Y2701D02*
D03*
X7674Y1410D02*
D03*
X7673Y2727D02*
D03*
X8133Y1386D02*
D03*
X8132Y2777D02*
D03*
X7287Y5580D02*
D03*
X7288Y6253D02*
D03*
X4003D02*
D03*
X3999Y3264D02*
D03*
X3969Y6278D02*
D03*
X9130Y5960D02*
D03*
Y6332D02*
D03*
X3969Y3236D02*
D03*
X7277Y2812D02*
D03*
X7277Y1212D02*
D03*
X9212Y1350D02*
D03*
Y2760D02*
D03*
X8739Y1410D02*
D03*
X8740Y2796D02*
D03*
X9078Y968D02*
D03*
X9053Y2830D02*
D03*
X8778Y1361D02*
D03*
Y2867D02*
D03*
X8381Y2913D02*
D03*
X8380Y1212D02*
D03*
X3705Y2686D02*
D03*
X3725Y3124D02*
D03*
X8510Y6195D02*
D03*
X8510Y5731D02*
D03*
X4528Y6072D02*
D03*
X4527Y3449D02*
D03*
X4500Y6029D02*
D03*
X4477Y3448D02*
D03*
X9253Y5189D02*
D03*
X9209Y4353D02*
D03*
X4454Y4352D02*
D03*
Y3622D02*
D03*
X9287Y4391D02*
D03*
X9255Y5593D02*
D03*
X4413Y4389D02*
D03*
Y3621D02*
D03*
X4027Y3544D02*
D03*
Y3465D02*
D03*
X10848Y1453D02*
D03*
X10765Y3642D02*
D03*
X10878Y1195D02*
D03*
X10800Y3661D02*
D03*
X10879Y940D02*
D03*
X10838Y3687D02*
D03*
X7395Y1963D02*
D03*
X7415Y3753D02*
D03*
X7508Y2026D02*
D03*
X7539Y3779D02*
D03*
X8649Y2010D02*
D03*
Y3838D02*
D03*
X8525Y1956D02*
D03*
Y3862D02*
D03*
X6452Y3899D02*
D03*
X6452Y1706D02*
D03*
X6421Y1430D02*
D03*
X6420Y3937D02*
D03*
X6385Y1167D02*
D03*
Y3959D02*
D03*
X6352Y893D02*
D03*
Y3987D02*
D03*
X5741Y4972D02*
D03*
Y4675D02*
D03*
X3258Y4664D02*
D03*
X3186Y3173D02*
D03*
X5784Y4876D02*
D03*
X5786Y4650D02*
D03*
X3292Y4648D02*
D03*
X3234Y3185D02*
D03*
X5549Y4696D02*
D03*
X2866Y2647D02*
D03*
X5304Y4874D02*
D03*
X5360Y3376D02*
D03*
Y1395D02*
D03*
X10481Y6446D02*
D03*
X10479Y7364D02*
D03*
X5598Y6370D02*
D03*
Y4831D02*
D03*
X3152D02*
D03*
X3150Y3543D02*
D03*
X9742Y7371D02*
D03*
X9741Y6404D02*
D03*
X5627Y6334D02*
D03*
Y4798D02*
D03*
X3191D02*
D03*
X3192Y3546D02*
D03*
X8367Y7366D02*
D03*
Y6369D02*
D03*
X5660Y6304D02*
D03*
X5658Y4766D02*
D03*
X3230Y4768D02*
D03*
Y3556D02*
D03*
X4350Y7424D02*
D03*
X4350Y4100D02*
D03*
X4315Y6634D02*
D03*
X4313Y4099D02*
D03*
X4274Y7028D02*
D03*
X4275Y4100D02*
D03*
X4241Y6732D02*
D03*
X4237Y4103D02*
D03*
X4194Y6925D02*
D03*
X4196Y4102D02*
D03*
X4154Y6456D02*
D03*
Y4115D02*
D03*
X3686Y4108D02*
D03*
X2852Y4095D02*
D03*
X3575Y3985D02*
D03*
X3558Y4134D02*
D03*
X9031Y4046D02*
D03*
X9032Y4795D02*
D03*
X9063Y4844D02*
D03*
Y4069D02*
D03*
X3534Y4157D02*
D03*
Y3977D02*
D03*
X3411Y4015D02*
D03*
X3398Y4170D02*
D03*
X9512Y4091D02*
D03*
X9496Y4796D02*
D03*
X9528Y4844D02*
D03*
X9545Y4114D02*
D03*
X3372Y4202D02*
D03*
Y3969D02*
D03*
X2026Y845D02*
D03*
X2151Y536D02*
D03*
X2078Y1512D02*
D03*
X2078Y1202D02*
D03*
X2123Y1212D02*
D03*
X2125Y1171D02*
D03*
X616Y2035D02*
D03*
X385Y2053D02*
D03*
X416Y1882D02*
D03*
X3028Y3651D02*
D03*
Y4854D02*
D03*
X4745Y4869D02*
D03*
X4844Y4890D02*
D03*
X3066Y4891D02*
D03*
X3064Y3721D02*
D03*
X2100Y4296D02*
D03*
X3579Y4303D02*
D03*
X3638Y4068D02*
D03*
X3661Y4035D02*
D03*
X3605Y4327D02*
D03*
X2062D02*
D03*
X538Y3819D02*
D03*
X539Y3705D02*
D03*
X538Y4331D02*
D03*
X378Y3126D02*
D03*
X405Y3704D02*
D03*
X2484D02*
D03*
X2484Y2151D02*
D03*
X2484Y2205D02*
D03*
X4311Y3633D02*
D03*
X4334Y857D02*
D03*
X4276Y3641D02*
D03*
X3935Y853D02*
D03*
X4339Y1654D02*
D03*
X4338Y3681D02*
D03*
X2179Y3282D02*
D03*
X2192Y1091D02*
D03*
X2223Y3308D02*
D03*
X2222Y922D02*
D03*
X761Y3367D02*
D03*
X612Y2917D02*
D03*
X199D02*
D03*
Y2134D02*
D03*
X712Y3345D02*
D03*
X580Y2942D02*
D03*
X146D02*
D03*
X27Y2091D02*
D03*
X429Y3052D02*
D03*
X430Y3221D02*
D03*
X2851Y3521D02*
D03*
X9093Y4696D02*
D03*
Y4135D02*
D03*
X492Y4224D02*
D03*
X9134Y4646D02*
D03*
Y4163D02*
D03*
X461Y4246D02*
D03*
X9180Y4746D02*
D03*
Y4192D02*
D03*
X9626Y4694D02*
D03*
X9625Y4223D02*
D03*
X5549Y4224D02*
D03*
X346Y4682D02*
D03*
X9556Y4645D02*
D03*
X9557Y4261D02*
D03*
X5584Y4262D02*
D03*
X5585Y4718D02*
D03*
X318D02*
D03*
X9594Y4744D02*
D03*
X9595Y4297D02*
D03*
X5621D02*
D03*
X5619Y4744D02*
D03*
X3965Y4350D02*
D03*
X3830Y3962D02*
D03*
X3831Y3996D02*
D03*
X3910Y4351D02*
D03*
X3806Y3815D02*
D03*
X3835Y4367D02*
D03*
X3754Y3817D02*
D03*
X3735Y4369D02*
D03*
X3687Y3974D02*
D03*
X3640Y4366D02*
D03*
X4060Y2981D02*
D03*
X4040Y5025D02*
D03*
X3113D02*
D03*
X4102Y2980D02*
D03*
X4084Y5055D02*
D03*
X3214Y5052D02*
D03*
X6054Y4560D02*
D03*
Y4920D02*
D03*
X2867Y2303D02*
D03*
X4906Y2304D02*
D03*
X3548Y3123D02*
D03*
X3903Y3119D02*
D03*
X3915Y2685D02*
D03*
X3546Y2686D02*
D03*
X4906Y3314D02*
D03*
X4905Y3170D02*
D03*
X4906Y3830D02*
D03*
X2866Y3196D02*
D03*
X7962Y5572D02*
D03*
X8456Y5494D02*
D03*
Y5041D02*
D03*
X7962Y5497D02*
D03*
Y5913D02*
D03*
X9973Y5674D02*
D03*
Y5934D02*
D03*
X8211Y6153D02*
D03*
Y5691D02*
D03*
X9178Y5764D02*
D03*
Y6076D02*
D03*
X7105Y910D02*
D03*
X7106Y661D02*
D03*
X7135Y1181D02*
D03*
X7134Y686D02*
D03*
X7167Y1451D02*
D03*
Y711D02*
D03*
X7209Y1723D02*
D03*
X7210Y735D02*
D03*
X7444Y1610D02*
D03*
X7475Y1310D02*
D03*
X7493Y1611D02*
D03*
X7506Y1210D02*
D03*
X7438Y1459D02*
D03*
Y1260D02*
D03*
X7677D02*
D03*
Y755D02*
D03*
X7718Y1159D02*
D03*
X7717Y828D02*
D03*
X8608Y1211D02*
D03*
X8575Y1459D02*
D03*
X8574Y1261D02*
D03*
X8547Y1312D02*
D03*
X8630Y1614D02*
D03*
X8583Y1613D02*
D03*
X8624Y825D02*
D03*
X8807Y1161D02*
D03*
Y828D02*
D03*
X9741Y1040D02*
D03*
X9705Y721D02*
D03*
X9976Y773D02*
D03*
X9976Y1039D02*
D03*
X10186Y722D02*
D03*
Y1039D02*
D03*
X10608Y1298D02*
D03*
X10607Y234D02*
D03*
X10639Y1068D02*
D03*
X10650Y256D02*
D03*
X10668Y820D02*
D03*
X10694Y291D02*
D03*
X3764Y3130D02*
D03*
Y2681D02*
D03*
X2851Y3766D02*
D03*
Y3583D02*
D03*
X1810Y5270D02*
D03*
X1760D02*
D03*
X1710D02*
D03*
Y5320D02*
D03*
X1760D02*
D03*
X1810D02*
D03*
Y5370D02*
D03*
X1760D02*
D03*
X1710D02*
D03*
X1810Y2280D02*
D03*
X1760D02*
D03*
X1710D02*
D03*
Y2320D02*
D03*
X1760D02*
D03*
X1810D02*
D03*
Y2360D02*
D03*
X1760D02*
D03*
X1710D02*
D03*
X4385Y136D02*
D03*
X4425Y756D02*
D03*
X3879Y1038D02*
D03*
X3878Y730D02*
D03*
X2056Y958D02*
D03*
Y755D02*
D03*
X1331Y1347D02*
D03*
X1330Y1172D02*
D03*
X1455Y1025D02*
D03*
X1470Y1350D02*
D03*
D203*
X6696Y80D02*
X8014D01*
X561D02*
X6696D01*
X8014D02*
X9145D01*
X10106D01*
X10308Y282D02*
Y1093D01*
X10106Y80D02*
X10308Y282D01*
X70Y384D02*
X99Y355D01*
X286D01*
X561Y80D01*
X70Y384D02*
Y689D01*
X99Y718D02*
X179D01*
X70Y689D02*
X99Y718D01*
X179D02*
X182Y715D01*
M02*
