M48
;Layer_Color=9474304
;FILE_FORMAT=2:3
INCH,LZ
;TYPE=PLATED
T1F00S00C0.012
T2F00S00C0.022
T3F00S00C0.028
T4F00S00C0.035
T5F00S00C0.039
T6F00S00C0.040
T7F00S00C0.043
T8F00S00C0.047
T9F00S00C0.051
T10F00S00C0.108
%
T01
X107Y0007
X1127
X114Y0023
X11334Y00411
X1147Y006
X1154Y0079
X1145Y0095
Y0118
X1151Y0116
X1145Y0144
X1168Y0139
X1164Y0162
X1169Y0089
X1164Y005
X1129Y00459
X11258Y00312
X11187Y00154
X1073Y0017
X10694Y00291
X1065Y00256
X10607Y00234
X1058Y0011
X1052Y0059
X1051Y0073
X1043Y0088
X1046Y0109
X10309Y01093
X1029Y0125
X1031Y014
X1048Y0138
X10608Y01298
X10639Y01068
X10668Y0082
X1084Y0072
X1078Y0061
X1094Y0062
X1106Y0061
X1092Y0042
X10879Y0094
X10878Y01195
X10848Y01453
X1065Y0155
X104Y0159
X1019Y0157
X10186Y01039
X09976
X09976Y00773
X10186Y00722
X1008Y0018
X099Y0016
X11187Y0089
Y01136
Y0137
X111Y0152
X1102Y0162
X0946Y0165
X0915Y0162
X0916Y0146
X09212Y0135
X0932Y0143
X0945Y0123
X0938Y0106
X0951Y0102
X0954Y0081
X0949Y0074
X09705Y00721
X09741Y0104
X091Y01064
X09078Y00968
X09146Y0078
X091Y0063
X0906Y005
X0908Y0036
X092Y0034
X0923Y0051
X0926Y0069
X08889Y00691
X0884Y007
X0878
X0873Y0069
X0869
X08624Y00825
X0851Y0085
X0854Y0094
X08465Y01089
X0838Y01212
X0828Y0123
X0829Y0146
X0826Y0162
X08466Y01549
X08583Y01613
X0863Y01614
X08575Y01459
X08547Y01312
X08574Y01261
X08608Y01211
X08807Y01161
X0899Y012
X0898Y0148
X0887Y0143
X08739Y0141
X08778Y01361
X0891Y0161
X08807Y00828
X0892Y0065
Y0058
X0893Y0055
X0857Y0022
X08408Y00253
X0833Y0018
X0832Y01
X0956Y0023
X0971Y0017
X079
X0762
X07359Y00369
X0727Y006
X0721Y00735
X07167Y00711
X07134Y00686
X07106Y00661
X0697Y0071
X0681Y007
X0688Y0053
X0706Y0049
X071Y002
X0681Y0021
X0684Y0107
X0706Y0106
X0707Y0098
X07105Y0091
X0729Y0096
X0727Y0106
X07358Y01104
X07277Y01212
X07135Y01181
X0709Y0135
X07167Y01451
X0707Y0154
X071Y0166
X0683Y0162
Y0134
X07475Y0131
X07438Y0126
X07506Y0121
X0751Y0103
X0747Y009
Y0079
X0729Y0082
X07717Y00828
X07677Y00755
X0778Y01
X07718Y01159
X07677Y0126
X0765Y0136
X07674Y0141
X0785Y0143
X0777Y0152
X07792Y01647
X07493Y01611
X07444Y0161
X07438Y01459
X0791Y012
X08023Y01065
X07965Y00954
X08014Y00828
X08133Y01386
X08086Y01552
X06578Y01498
X0648Y0155
X06421Y0143
X0648Y0129
X06578Y01234
X06385Y01167
X0647Y0103
X06577Y00959
X06352Y00893
X0639Y0077
X0651Y0066
Y0051
X0633Y0053
X06185Y00369
X0627Y0019
X0607Y0018
X0595Y0047
X0569Y0063
X0558Y0085
Y0105
X0536Y0102
Y01395
X0529Y0135
X0517Y0132
X052Y0153
X0561Y0139
X0594Y0141
X061Y0151
X06185Y01244
X0593Y0104
X0574Y0163
X0526Y0063
X0509Y0038
X05384Y00316
X0561Y0023
X0649Y0024
X0478
X0481Y0058
X0464Y0071
X0471Y0081
X04425Y00756
X0434Y0065
X0428Y007
X0423Y0077
X04334Y00857
X0416Y0096
X0417Y0116
X04107Y01252
X0412Y0131
X0422Y0132
X0439
X0443Y0148
X04339Y01654
X0463Y0159
Y0132
X0485Y0133
X048Y0146
X0481Y0114
X0495Y0108
X04976Y0125
X05Y0089
X0456Y0046
X0436
X04385Y00136
X0414Y0014
X0396
X04039Y00417
X0393Y0054
X03878Y0073
X03935Y00853
X04059Y00795
X03879Y01038
X0361Y0109
X0363Y0132
X0381
X0394
X0407Y015
X0384Y0155
X0353Y0145
X0372Y0064
X0357Y0016
X0436Y0114
X0336Y0108
X034Y0132
X0345Y0154
X0326Y0155
X0313Y0147
X0314Y013
X0293Y0133
X0285Y0148
X0274Y0157
X0258Y0158
X0254Y0152
X02484Y01523
X0236Y0157
X023Y0158
X0225
X0216Y0153
Y0148
X02078Y01512
X0202Y0144
X0196Y0156
X0235Y0148
X0242Y0108
X0245Y0101
X0251Y0116
Y0084
X0257Y0073
X0245Y006
X0236Y0067
X0234Y0077
X0227Y00922
X02222
X02089Y00921
X02056Y00958
X0204Y01
X02026Y00845
X02056Y00755
X01954Y0071
X01947Y00614
X0209Y0061
X02151Y00536
X0227Y0054
X02192Y01091
X02125Y01171
X02123Y01212
X02078Y01202
X0279Y0107
X0267Y0092
X0294Y0083
X0299Y0067
X0318Y0089
X0308Y011
X0301Y0155
X0341Y0075
X032Y0015
X0281
X0188Y002
X0169Y0016
X016Y0026
X0171Y0034
X0159Y0045
X0144Y0047
X0147Y0037
X0134
X0129Y0032
X012Y0031
X0108
X0106Y0021
X0093Y0032
X0084Y0031
X0074Y0032
X0067
X0059
X0062Y0026
X0069Y0015
X0043Y0037
Y0042
Y0047
Y0052
Y0057
X0079Y009
X0085Y0092
X0088Y0097
X0091Y0102
Y0106
Y011
Y0117
Y0124
X009Y0129
X0087Y0131
X008
X0075
X0069
Y0136
Y0141
Y0146
Y0151
Y0155
Y0159
Y0163
X0082Y0154
X0093Y0155
X0108
X013Y0154
X0141
X0147Y0135
X01331Y01347
X0121Y0135
X0106Y0127
X0095Y014
X008Y0143
X0133Y01172
X01455Y01025
X0143Y0096
X0147Y0091
X0157Y0092
X0162Y01
X0175Y0099
X0171Y0092
X0176Y0084
X0181Y0062
X0185
X0189
X0192Y0071
X0184Y0157
X0171
X0166Y0141
X012Y0095
X0137Y0016
X0038Y0037
Y0042
Y0047
Y0052
Y0057
X0017Y0109
X0019Y0123
X0033Y0126
X0028Y0146
X002Y0155
X0009Y0162
X0013Y0138
X0006Y0099
X0009Y0174
X0006Y0189
X00027Y02091
X00199Y02134
X002Y02
X0037Y0214
Y0221
X0038Y0229
X0007Y023
X0006Y0239
X0007Y0247
X0008Y0257
X001Y0269
X0007Y0278
X0024Y0283
X0033
X0038
X0024Y0272
X00199Y02917
X00146Y02942
X0005Y0302
X0006Y0321
X0027Y0302
X00378Y03126
X0029Y0169
X00416Y01882
X0052Y01893
Y0186
X0057Y0185
X0061Y0184
Y018
Y0176
X0057Y0179
X0061Y0188
Y0198
X00616Y02035
X00385Y02053
X0045Y0228
X0052Y0229
Y0284
X00475Y02841
X0043Y0284
X0046Y0298
X00429Y03052
X005Y0312
X0043Y03221
X0075Y0323
X007Y0311
X00612Y02917
X0058Y02942
X0057Y0281
X0063Y0282
X0078
X0083Y0288
X009Y0291
X0114
X0119Y029
X0125Y0289
X0128Y0285
X0129Y0278
Y0273
X013Y0267
X0138
X0145
X0151
X0157
X0162Y0264
Y0258
Y0252
Y0247
Y0242
X0171Y0236
Y0232
Y0228
X0176
Y0232
Y0236
X0181
Y0232
Y0228
X0182Y0209
X0169Y0213
X0163Y0202
X0159Y0176
X0145Y0174
X0139
X0123Y0168
X0105Y0174
X0114Y0185
X0084Y0171
X018Y0187
X0193Y019
Y0218
X0194Y0309
X0147Y0311
X0121Y0312
X0111Y0322
X0099Y0312
X0132Y0296
X0156Y029
X0199Y0294
X0211Y0291
X0206Y0309
X0209Y032
X0231Y0322
X0241Y0319
X0232Y0309
X024Y0295
X0234Y028
X0237Y0254
X023Y0242
X024Y0234
X02484Y02205
X02484Y02151
X0261Y021
X0285Y0207
X02867Y02303
X0299Y0238
X03Y0223
X0309Y0203
X0328Y021
X0329Y0177
X0287Y0178
X0295Y0189
X0271Y0191
X0237Y0192
X0235Y0173
X0208Y018
X0211Y0208
X0231Y0209
X0208Y0242
X0197Y0255
X0201Y0274
X026Y0262
X0273Y0253
X02866Y02647
X0299Y0273
X0312
X0325Y0281
X0308Y0295
X03186Y03173
X03234Y03185
X0346Y0323
X02866Y03196
X028Y0302
X0261Y0296
X027Y0278
X0307Y0253
X0325Y0243
X0336Y026
X0348Y0236
X0375Y0235
X0376Y022
X039Y0217
X0385Y02
X0372Y0186
X0389Y0176
X0402Y0184
X0411Y0218
Y0245
X0415Y0255
X03915Y02685
X03764Y02681
X03705Y02686
X03546Y02686
X036Y0283
X0369Y0294
X0381Y0287
X03764Y0313
X03725Y03124
X03548Y03123
X03903Y03119
X04Y0316
X0406Y02981
X04102Y0298
X0419Y0301
X0448Y0298
X0461Y0308
X0484Y0302
X04905Y0317
X0465Y0261
X0447Y0263
X0452Y0246
X0472Y0239
X04906Y02304
X0485Y0222
Y0205
X0467Y0197
X0449Y0193
X0461Y0181
X0483Y0172
X0457Y0212
X0353Y0199
X0507Y0183
X0524Y0184
X0525Y0202
X051Y0213
X052Y0232
X0507Y0241
Y0263
X0521Y0255
X0561Y0258
X0555Y0238
X058Y024
X0597Y0263
X0619Y0252
X0613Y0232
X0653Y0237
X0659Y0233
X06577Y02208
X0662Y025
X0655Y0263
X0661Y0303
X0653Y0318
X0622Y0319
X0606Y0301
X0589Y0307
X0576Y0305
X0567Y0313
X0549Y0299
X0525Y0305
X0508Y0307
X0536Y02208
X055Y0197
X0587Y0185
X0589Y0207
X0618Y0192
X0651Y0184
X06577Y01772
X06452Y01706
X0684Y0194
X07Y02
X0704Y0214
X0707Y0235
X0688Y0233
X0678Y0213
X0677Y0257
X0688Y0264
X0682Y0297
X0697Y0305
X0713Y0301
Y032
X0728Y0308
X075Y0307
X0773Y0299
X078Y0282
Y0273
X0781Y0266
X0765Y02654
X07673Y02727
X0777Y0253
X076Y025
X0747Y0255
X0735Y0257
Y0239
X0747Y0235
X0759Y0232
X0776Y023
X078Y0212
X0786Y02
X08085Y01999
X08077Y01879
X08064Y01696
X0789Y0171
X078Y0182
X0759Y0209
X07508Y02026
X07357Y02009
X07395Y01963
X0735Y0212
X07228Y02209
X0713Y0189
X07228Y01789
X07209Y01723
X07277Y02812
X07965Y02701
X0805Y0267
X0819Y027
X08132Y02777
X0817Y0305
X0801Y0302
X0797Y0314
X0806Y0251
X0805Y0236
X08023Y02208
X08078Y02137
X0787Y0242
X0684Y0321
X0834Y0313
X08381Y02913
X0858Y0297
X0859Y0318
X0874Y0323
X088Y0301
X08778Y02867
X0874Y02796
X0885Y027
X0897
X0913
X09212Y0276
X0919Y0296
X0915Y0315
X0896Y0312
X09053Y0283
X0913Y0252
X0914Y0236
X09101Y02207
X0915Y0209
X0933Y0206
X0945Y0199
X0963Y0201
X0958Y0184
X0971Y018
X0938
X0927Y0168
X0916Y0183
X0898Y0174
X0891Y0191
X0895Y021
X0882Y0209
X08649Y0201
X08525Y01956
X08465Y02012
X0825Y0207
X0823Y0194
X0828Y0177
X08344Y01791
X08345Y02209
X0822Y0229
X0823Y025
X0831Y0242
X0832Y0268
X0822Y0281
X086Y027
X0859Y0252
X087Y0251
X0886Y0249
X0897Y024
X089Y0231
X0869Y0233
X0859
X0931Y023
X0946
X0968Y0231
X0955Y0247
X094Y0251
X0929Y0247
X0953Y0286
X0947Y0315
X0978Y0303
X1004Y0294
X0999Y0323
X0992Y0263
X0991Y0233
X1005Y0226
X101Y0204
X1027Y02
X1039Y0179
X1055Y0178
X1071Y0193
X11Y0194
X1104Y018
X1108Y0211
X11187Y0221
X1119Y0229
X1113Y0236
X1102Y0228
X1078
X1059Y0232
X1043Y0229
X1031Y0232
X1025Y0265
X1055Y0283
X1047Y0302
X1052Y0208
X1078Y017
X1008Y0177
X0987Y0176
X0991Y0202
X11256Y02441
X11291Y02421
X1114Y0263
X1151Y0265
X1167Y0283
X1143Y0307
X11334Y02386
X1141Y0212
X1161Y0203
X1153Y0185
X1146Y0173
X1171Y0232
X1139Y0353
X1148Y0396
Y0426
X1173Y0436
X1164Y0471
X1141Y0469
X1122
X1113Y0471
Y0436
X1116Y0397
X10838Y03687
X108Y03661
X10765Y03642
X1046Y0344
X1063Y0327
X1119Y0324
X1009Y0347
X0976Y0351
X0982Y0375
X1002Y0402
X1017Y0412
X0984Y042
X1Y0443
X1022Y0449
X1028Y0479
X0982Y0472
X1049Y0439
X1073Y0423
X1054Y04
X1078Y0464
X09626Y04694
X09594Y04744
X09556Y04645
X0941Y0446
X0937Y0438
X09287Y04391
X09209Y04353
X0918Y04192
X09134Y04163
X09093Y04135
X09063Y04069
X09031Y04046
X0894Y0394
X0875Y0395
X08649Y03838
X08525Y03862
X0833Y038
X0831Y0397
X0828Y0355
X0831Y0332
X0858Y0344
X0885Y0336
X0897Y0342
X0901Y0358
X0881Y0359
X088Y0377
X0904Y0383
X0923
X0938Y0403
Y0417
X0927
X09512Y04091
X09545Y04114
X09557Y04261
X09595Y04297
X09625Y04223
X0968Y039
X096Y0332
X0935Y0351
X09134Y04646
X09093Y04696
X0918Y04746
X0889Y0469
X0877Y0476
X0864Y0457
X0881Y0446
X0831Y0459
X0803Y0466
X0802Y0447
X0767Y045
X0774Y0475
X0746Y0472
X0724Y0455
X0691Y0454
X0686Y0478
X0682Y0393
X0701Y0399
X0724Y0396
X0723Y0372
X07415Y03753
X0748Y0374
X07539Y03779
X0762Y0373
X0771Y0361
X0749Y0358
Y0336
X0727Y0346
X0719Y0354
X0698Y0352
X0704Y0337
X0681Y0345
X06871Y0372
X0757Y0395
X0797Y0398
X0795Y0379
X0819Y0374
X0803Y0343
X0786Y034
X0774Y0327
X0663Y033
X0662Y0353
X0652Y0352
X0622Y0347
X0607Y0356
X0596Y0368
X0572Y036
X0556Y0363
X0548Y0342
X0536Y03376
X0525Y0344
X0524Y0354
X0517Y0366
X0526Y0383
Y0409
X0528Y0432
X0518Y0446
X0544Y0447
X055Y0458
X05549Y04696
X05585Y04718
X05619Y04744
X05658Y04766
X05741Y04675
X05786Y0465
X057Y0455
X0594Y0446
X06054Y0456
X0626Y0454
X062Y0444
X0633Y047
X0661Y0456
X0657Y0396
X0642Y03937
X06385Y03959
X06352Y03987
X06452Y03899
X0591Y0402
X05549Y04224
X05584Y04262
X05621Y04297
X0574Y0339
X059Y0334
X0614Y0327
X0553Y0324
X0522
X0508Y0325
X04906Y03314
X0481Y0343
X0468Y0329
X0447Y0327
X04477Y03448
X04527Y03449
X0439Y03457
X04413Y03621
X04454Y03622
X04311Y03633
X04276Y03641
X04338Y03681
X046Y0365
X0468Y0367
Y036
X0474Y038
X0466Y0386
X0463Y0406
X0481Y0409
X0504Y0408
Y0431
X0506Y0456
X0491Y0447
X0469Y0456
X0462Y0445
X0468Y0431
X04454Y04352
X04413Y04389
X0442Y0448
X0444Y0458
X0435Y041
X04313Y04099
X04275Y041
X04237Y04103
X04196Y04102
X04154Y04115
X0378Y0409
X03686Y04108
X03638Y04068
X03661Y04035
X03687Y03974
X03575Y03985
X03534Y03977
Y04157
X03558Y04134
X03579Y04303
X03605Y04327
X0364Y04366
X03735Y04369
X03835Y04367
X0391Y04351
X03965Y0435
X03831Y03996
X0383Y03962
X03806Y03815
X03754Y03817
X0381Y0374
X0368Y037
X0358Y036
X0374Y0355
X0387Y0349
X04027Y03465
Y03544
X03999Y03264
X03969Y03236
X0362Y0339
X0351Y0343
X0352Y0442
X0351Y0456
X04906Y0383
X04976Y03702
X0347Y0377
X0348Y0404
X03411Y04015
X03372Y03969
X03398Y0417
X03372Y04202
X0341Y044
X0339Y0455
X03292Y04648
X03258Y04664
X0323Y04768
X0311Y0461
Y0445
X0299Y0466
X0272Y0459
X0246Y0461
X0241Y0452
X0244Y0439
X0263
X0282Y0437
X02852Y04095
X027Y0413
X0269Y04
X0243Y041
X0241Y0378
X02484Y03704
X023Y036
X024Y0345
X0217Y0346
X02179Y03282
X02223Y03308
X0198Y0326
X0206Y0358
X0204Y038
X02Y0394
X0221Y0395
X0211Y0406
X0195Y0412
X0196Y0435
X02062Y04327
X021Y04296
X0223Y0444
X022Y0463
X0296Y0418
X0294Y0386
X02851Y03766
X0292Y0369
X03028Y03651
X0309Y0362
X03064Y03721
X0315Y03543
X03192Y03546
X0323Y03556
X0312Y0341
X0297
X03Y0351
X02851Y03521
Y03583
X0259Y0324
X0194Y0346
X0158Y033
X0147Y0324
X0125Y0328
X0096Y0329
X00761Y03367
X00712Y03345
X007Y0359
X0068Y0379
X00538Y03819
X00539Y03705
X00405Y03704
X0041Y0391
X0047Y0408
X00492Y04224
X00461Y04246
X00538Y04331
X0052Y0448
X0049Y0461
X0072Y0457
X009Y0453
X0084Y0437
X0068Y0439
X0041Y0442
X007Y0403
X0086Y0413
X0097Y0402
X0107Y0396
X01Y0379
X009Y0384
X0115Y0379
X0127Y0388
X0126Y041
X0115Y0415
X0108Y0433
X0129Y0431
X0149Y0435
X0154Y0415
X0141Y0399
X0142Y0378
X0156Y0382
X0154Y0359
X0137Y035
X0119Y0358
X0091Y0352
X005Y0357
Y034
X0119Y0449
X0128Y0461
X0107Y0462
X0159Y046
Y0479
X0194Y0456
X00346Y04682
X00318Y04718
X0026Y0462
X0005Y0445
X0008Y0423
X0028Y0412
X0031Y0397
X0027Y0362
X0009Y0365
X0008Y0377
X0006Y0344
X0028Y0482
X0035Y051
X0008Y0519
X0018Y0531
X0023Y0546
X0014Y0561
X0026Y0577
X0013Y0592
X0015Y0623
X003Y0613
X0061Y0614
X0082Y063
X0115Y0623
X0149Y0624
X0163Y0611
X0167Y0581
X0165Y0574
X0161
X0157
X0152Y0533
X0171Y0532
Y0527
X0176
X0181
Y0532
X0176
Y0537
X0181
X0171
X0187Y0549
X0191
X0192Y048
X0148Y0487
X0128Y0481
X0106Y0487
X0092Y048
X0077Y0487
X0075Y0511
X0062Y0529
X0096Y0525
X0105Y0513
X0124Y0528
X0156Y051
X01Y057
X008Y0554
X0077Y0591
X0056Y048
X0039Y0487
X019Y0623
X0211Y0597
X0207Y0582
X021Y055
X0195Y0549
X0197Y0515
Y0504
X02Y0488
X022Y0486
X0234Y048
X0248Y0487
X0267Y0481
X0286Y0484
X03028Y04854
X03066Y04891
X03152Y04831
X03191Y04798
X03214Y05052
X03113Y05025
X029Y0512
X0271Y0515
X0254Y0511
X0238Y0514
X0225Y0503
X0257Y0549
X0261
X0265
X0288
X0292
X0296
X0327
X0331
X0335
X0316Y0573
X0312
X0308
X0288Y0585
X028Y0595
X0279Y0629
X0319Y0626
X0343Y0619
X0328Y059
X0246Y0585
X0244Y0617
X0341Y0511
X0347
X0357
X0361Y0512
X0362Y0517
Y0524
X0366Y053
Y0534
X0367Y0539
X0386Y0535
X038Y0516
X0407Y0519
X04084Y05055
X0404Y05025
X0406Y0544
X0404Y0562
X0408Y058
X0404Y0597
X041Y0615
X04003Y06253
X03969Y06278
X039Y0613
X0367Y0604
X036Y0628
X0444Y0615
X04528Y06072
X045Y06029
X0443Y0596
Y0583
X0459Y0594
X0465Y0577
X048Y0582
Y0616
X0466
X0464Y0635
X0461Y055
X048Y0545
X0467Y0532
X0464Y0512
X0479Y0516
X0494Y0506
X0498Y0487
X04844Y0489
X04745Y04869
X0441Y0513
Y0538
Y0557
X0515Y0565
X0518Y054
X0522Y0522
X053Y0506
X05304Y04874
X0514Y0488
X05598Y04831
X05627Y04798
X05784Y04876
X05741Y04972
X06054Y0492
X0621Y0481
X063Y0485
X066Y049
X0651Y0512
X0635Y052
X0622Y0531
X0605Y0547
X0588Y0539
X0592Y0523
X059Y0561
X0608Y0575
X0628Y0566
X0649Y0559
X0641Y0588
X0642Y0618
X0616Y0613
X06Y062
X0582Y0613
X0591Y0596
X0566Y06304
X05627Y06334
X0552Y0617
X0546Y0614
X0533Y0621
X0519Y0633
X0508Y0614
Y0591
X0528Y0596
X0547Y0578
Y054
X055Y0517
X0532Y0553
X0675Y0544
X0682Y0551
X0673Y0578
X0683Y0618
X0707
X0736
X07288Y06253
X0759Y0626
X0761Y0618
X0759Y0602
X07962Y05913
X0813Y0587
X0805Y0577
X0811Y0567
X07962Y05572
Y05497
X0798Y0535
X078Y0544
X0744Y0542
Y0534
X0762Y0523
X0748Y0506
X0731Y0503
X0763Y0487
X0782Y0507
X0801Y0493
X0818Y0488
X0787Y0577
X0784Y0626
X0807
X07287Y0558
X069Y049
X0664Y0481
X0855Y0488
X08456Y05041
X0858Y0511
X0863Y0514
X0854Y0531
X08376Y05302
X0829Y0537
X0822
X08211Y05691
X0851Y05731
X0854Y0561
X0852Y0552
X08456Y05494
X0858Y0547
X087Y0546
X0888Y0547
X0899
X0892Y0534
X0886Y056
X088Y0559
X0882Y0599
X0889Y0613
X0897Y0625
X0913Y06332
X0934Y0628
X0941Y061
X0948Y0593
X0946Y0583
Y0562
X0952Y0553
X0965Y0562
X0966Y0581
X0968Y0588
X0973Y0629
X09178Y06076
X0913Y0596
X09178Y05764
X09255Y05593
X0931Y0563
X09253Y05189
X094Y0519
X0958Y0531
X097Y0497
X09528Y04844
X09496Y04796
X09032Y04795
X09063Y04844
X088Y0487
X0841Y0603
X0832
X08211Y06153
X0835Y0626
X0851Y06195
X0863Y0626
X0979Y0604
X09973Y05934
X0991Y0587
X09973Y05674
X1024Y059
X1018Y0602
X1011Y063
X1042
X1074Y0632
X1053Y06
X1101Y0603
X1096Y0578
X1092Y0582
X1098Y0556
X1103Y054
X1104Y0521
X1108Y0498
Y0483
X1087Y0501
X1062Y0502
Y0519
X1076Y0535
X1066Y0549
X1041
X1038Y0526
X1004Y05
X1006Y0483
X098Y0519
X1121Y0549
X113Y0546
Y0617
X1142Y0633
X117Y0564
X115Y0537
X1164Y0522
X1163Y0494
X1169Y0689
X1153Y0693
X1136Y067
X1137Y0738
X1161Y0728
X1122Y0703
X1107Y0709
Y0672
X1079Y0678
X106Y0687
X1055Y0662
X10481Y06446
X1013Y06517
X1024Y0663
X1035Y0677
X1025Y0696
X1004Y0691
X0998Y0719
Y0723
Y0727
Y0731
Y0735
X0988
Y0731
Y0727
Y0723
Y0719
X0987Y0745
Y0749
Y0753
Y0757
Y0761
Y0765
X0997
Y0761
Y0757
Y0753
Y0749
Y0745
X1013Y07375
X1031Y0746
X10479Y07364
X10635Y0735
Y0731
Y0727
Y0723
Y0719
X10735
Y0723
Y0727
Y0731
Y0735
X10725Y0745
Y0749
Y0753
Y0757
Y0761
Y0765
X10625
Y0761
Y0757
Y0753
Y0749
Y0745
X10907Y07376
X1112Y0767
X103Y0773
X1033Y0719
X0987Y067
X10907Y06516
X1114Y0642
X09741Y06404
X0953Y0667
X0938Y0689
X0926Y0678
X0904Y0666
X0894Y0684
X0878Y0672
X08819Y06517
X0851Y0664
X0852Y0685
X0855Y0719
Y0723
Y0727
Y0731
Y0735
X0865
Y0731
Y0727
Y0723
Y0719
X0864Y0745
Y0749
Y0753
Y0757
Y0761
Y0765
X0854
Y0761
Y0757
Y0753
Y0749
Y0745
X08367Y07366
X0825Y0733
X0824Y0709
X0827Y0663
X08367Y06369
X0896Y0714
X0897Y074
X08819Y07376
X0888Y0774
X0919Y0769
X0926Y0747
X093Y0718
X0915Y0703
X0958Y0701
X0956Y0726
X09742Y07371
X0946Y0764
X0826Y0778
X0807Y0768
X0785Y075
X0786Y0724
X0812Y0715
X0801Y0692
X0782Y0678
X0796Y0661
X0749Y0662
X0754Y0684
X0751Y0716
X0727Y0735
X071Y0722
X0691
X0692Y0705
X0685Y0744
X0707Y0765
X074Y0769
X0757Y0754
X0724Y069
X0713Y0665
X0645Y0666
X0659Y0688
X0589Y0686
X0588Y0673
Y0658
X0556Y0657
X0561Y0673
X0544Y0682
X0546Y0697
X0545Y0724
X0516Y073
X0517Y0714
X0507Y0697
X0509Y0667
X0514Y0651
X0524Y0653
X0537Y067
X0528Y0685
X0553Y0636
X05598Y0637
X0599Y0714
X0585Y0756
X0588Y077
X0557Y0755
X0535Y0756
X0515Y0754
X0514Y0751
X0516Y076
X05161Y07634
X0516Y0767
X0513Y0771
X0543Y078
X0653Y0771
X0645Y0751
X0458Y073
X045Y072
X0456Y0698
X0462Y0682
Y0672
X0459Y0659
X0466Y0651
X0449
X0448Y0637
X0445Y0668
X04315Y06634
X04241Y06732
X0408Y0672
X0401Y0654
X04154Y06456
X04194Y06925
X04274Y07028
X041Y0711
X0399Y0725
X0415Y0741
X0435Y07424
X0437Y0772
X0448Y0765
X041Y0771
X0398Y0757
X0381Y078
X0356Y0711
X0374Y0687
X0393Y0683
X044Y0686
X0479Y0671
X04945Y06389
X0351Y0659
X0325Y0673
X0322Y0715
X0303Y0696
X027Y0691
X026Y0667
X0256Y0639
X029Y0651
X0221Y0663
X0211Y0636
X023Y0697
X0203Y0715
X0218Y0762
X0238Y0747
X0267
Y0722
X0305Y074
X0329Y0758
Y0774
X0275
X0245Y0779
X0184Y0756
X0165Y0726
X0148Y0699
X0155Y0666
X019Y0659
X0184Y0688
X0111Y0685
X0109Y0653
X008Y0665
X0067Y0645
X0066Y069
X0082Y0713
X0111Y073
X0109Y0743
X0083Y0764
X0047Y0768
X0059Y0737
X0031Y0739
X0017Y0715
X0016Y0692
X0033Y0682
X0028Y065
X0016Y0659
T02
X10065Y053
Y054
Y055
T03
X00182Y03817
X00232
Y03867
X00182
Y03917
X00232
Y03967
X00182
Y04017
X00232
X00228Y04308
X00178
Y04358
X00228
Y04408
X00178
Y04458
X00228
Y04508
X00178
X0932Y0574
Y05937
T04
X1161Y0591
Y0601
Y0611
X11615Y06405
Y06505
Y06605
T05
X06752Y06634
X06929
Y0689
X06752
X06657Y07028
Y07283
X0648
X06264
Y07421
X06087
Y07283
X0589
X05713
Y07028
X0589
X06087
Y0689
X06264
Y07028
X0648
X06264Y06634
X06087
Y07677
X06264
T06
X01613Y05569
Y05669
X01713
X01813
X01913
Y05569
X01813
X01713
X01473Y0581
Y0591
X01373
Y0581
X02013Y05669
X02113
X02213
X02313
X02413
X02513
X02613
X02713
X02813
X02913
X03013
X03113
X03213
X03313
X03413
Y05569
X03313
X03213
X03113
X03013
X02913
X02813
X02713
X02613
X02513
X02413
X02313
X02213
X02113
X02013
X03513
Y05669
T07
X06693Y05269
X06993
Y05669
Y05969
X06693
T08
X06453Y0455
Y0465
Y0475
Y0485
X098Y0554
Y0564
Y0574
X05045Y07618
X04945
X04845
X04745
T09
X00182Y00515
Y00715
T10
X01422Y05619
X03705
Y07548
X01422
M30
